<?xml version="1.0" encoding="UTF-8" standalone="no"?>
<svg
   width="533.992"
   height="524.86298"
   version="1.1"
   id="svg8"
   sodipodi:docname="boguszow-gorce.svg"
   xmlns:inkscape="http://www.inkscape.org/namespaces/inkscape"
   xmlns:sodipodi="http://sodipodi.sourceforge.net/DTD/sodipodi-0.dtd"
   xmlns="http://www.w3.org/2000/svg"
   xmlns:svg="http://www.w3.org/2000/svg">
  <sodipodi:namedview
     id="namedview8"
     pagecolor="#ffffff"
     bordercolor="#000000"
     borderopacity="0.25"
     inkscape:showpageshadow="2"
     inkscape:pageopacity="0.0"
     inkscape:pagecheckerboard="0"
     inkscape:deskcolor="#d1d1d1" />
  <defs
     id="defs2" />
  <g
     id="g8">
    <path
       style="fill:#222222;fill-rule:evenodd;stroke:none"
       d="M 0,263.254 V 0 H 533.992 V 263.254 C 513.457,437.332 412.074,519.714 267.683,524.863 123.515,520.562 20.7968,432.527 0,263.254"
       id="path3" />
    <path
       style="fill:#ffffff;fill-rule:evenodd;stroke:none"
       d="m 201.32,134.078 h 62.211 v 62.429 H 201.32 Z m -65.039,-2.61 h 62.43 V 69.039 h -62.43 z m -130.0896,0 H 68.621 V 69.039 H 6.1914 Z M 201.32,4.34302 h 62.211 V 66.422 H 201.32 Z M 198.711,261.308 h -62.43 v -62.187 h 62.43 z M 71.2342,134.078 h 62.3008 v 62.429 H 71.2342 Z m 0,-129.75799 H 133.543 V 66.425 H 71.2342 Z M 68.625,261.308 H 6.1953 V 199.121 H 68.625 v 62.187"
       id="path4" />
    <path
       style="fill:#043dbc;fill-rule:evenodd;stroke:none"
       d="m 50.5156,404.367 c 14.9531,-15.356 28.2926,-32.906 45.0856,-55.602 13.9808,-17.879 33.4648,-22.922 58.4528,-15.129 13.067,6.418 22.465,14.668 28.196,24.754 39.195,53.867 76.101,106.364 115.301,160.231 -27.782,5.429 -66.997,1.945 -107.93,-9.785 C 135.398,494.148 85.3592,460.445 50.5156,404.371 Z M 184.316,354.265 c 12.149,-24.066 28.883,-42.636 50.199,-55.699 15.012,-8.254 29.453,-11.922 42.633,-5.5 9.738,0.914 23.266,14.438 38.512,33.695 34.211,49.684 70.566,98.649 106.613,146.5 -29.109,22.512 -69.785,37.903 -120.14,45.133 L 184.308,354.265 Z m 158.168,5.5 82.52,111.403 c 27.738,-21.368 49.019,-47.645 62.863,-71.032 -18.566,-22.062 -33.981,-43.98 -52.551,-67.879 -13.98,-15.125 -29.797,-17.418 -47.449,-6.875 -18.793,7.793 -33.926,19.254 -45.387,34.383"
       id="path5" />
    <path
       style="fill:#fff100;fill-rule:evenodd;stroke:none"
       d="M 268.515,4.30798 H 528.758 V 261.172 H 268.515 Z M 357.82,86.3 c 5.274,-30.855 20.184,-56.574 50.043,-72.347 9.731,9.547 20.047,17.324 25.859,19.035 -1.125,0.859 -4.41,1.367 -6.097,-0.57 -9.328,-4.836 -18.106,-4.645 -26.317,0.57 -14.484,9.336 -24.16,24.746 -28.035,47.488 -1.254,7.504 0.844,9.985 6.293,7.438 1.715,-2.285 2.805,-3.528 4.52,-5.817 0.761,-0.57 1.941,0.949 2.707,0.379 1.812,-2.019 4.902,-2.871 5.929,-10.008 1.168,2.954 3.457,2.004 6.864,-2.859 -0.27,4.156 3.457,0.492 7.742,-3.891 6.355,-1.847 -3.852,10.164 8.273,0.457 2.34,-2.23 -1.695,6.086 7.438,-0.57 6.371,6.109 2.765,7.613 1.715,10.297 2.718,-0.465 4.238,-0.934 6.187,-2.941 8.094,-1.137 -12.328,7.886 9.231,3.894 -3.352,3.391 -0.485,4.074 6.886,1.906 1.321,-0.254 -0.843,5.012 3.43,0 2.02,0.032 4.148,0.387 5.914,-0.089 -0.008,2.203 -0.496,4.89 1.039,4.773 -3.336,2.875 -5.941,4.394 -1.23,3.894 1.715,-0.378 3.429,-0.761 5.148,-1.14 2.891,-0.305 -0.379,3.051 -0.57,4.574 1.859,1.195 4.418,0.215 7.898,-0.473 -4.062,7.008 3.434,1.676 4.961,4.348 -1.703,2.508 -1.051,4.75 4.524,5.164 -0.985,1.652 -0.715,3.188 2.992,3.434 0.238,1.668 -0.891,3.281 3.187,3.75 0.239,0.66 0.176,1.933 0.067,3.164 -3.977,-0.379 -2.578,1.453 -0.184,2.922 -0.773,10.242 -1.824,8.781 -2.859,8.007 -0.852,0.95 -2.957,-0.835 -4.582,-3.238 -2.668,-0.762 -4.762,-1.719 -7.43,-2.48 1.32,2.062 -1.07,2.535 -5.148,2.285 -1.278,-0.461 -2.039,0.488 -2.286,2.859 -2.8,0.274 -4.734,0.774 -0.57,2.86 3.125,1.742 5.344,3.714 7.438,5.718 -0.688,7.5 3.054,3.051 3.425,6.024 -3.125,1.461 -8.941,0.726 -15.441,1.41 -2.918,-1.094 -4.527,1.156 -4.105,3.922 1.332,1.906 3.343,2.754 4.679,4.656 -4.183,1.363 -1.347,2.266 6.293,2.859 0.324,2.735 -2.785,4.168 7.438,3.43 0.332,1.512 -5.438,3.395 5.148,3.43 1.922,1.191 -5.473,2.941 4.559,3.008 3.812,0.023 4.058,3.441 5.734,5 -2.476,0.761 -10.453,1.714 -8.109,3.636 -0.625,0.786 -8.992,1.321 -5.336,3.825 -0.203,2.125 -4.227,1.253 -7.719,2.832 3.465,1.972 -4.395,2.082 -4.004,4.574 3.82,2.89 7.449,5.07 9.727,2.285 0.808,0.141 2.636,-0.363 2.429,0.426 -0.941,3.609 4.864,0.855 7.293,1.285 -0.414,3.601 3.024,3.027 9.071,1.359 0.238,0.356 0.988,0.809 0.668,0.965 -7.161,3.5 1.679,-0.133 3.988,5.11 0.476,2.011 -2.895,1.539 0.57,6.863 -3.926,0.433 -7.086,1.023 -9.726,1.715 0.144,0.941 4.191,1.605 8.007,2.285 -2.289,1.347 1.028,1.68 2.301,2.758 -5.035,1.218 3.707,3.406 5.707,9.254 0.953,2.476 -1.176,4.378 2.86,7.437 0.707,1.68 -4.43,-1.766 -0.184,6.57 -0.187,4.196 -1.344,8.485 -2.211,12.68 -3.98,-1.168 -6.75,-7.98 -8.473,-4.949 -0.503,1.601 -1.265,1.793 -2.285,0.57 -1.906,-1.144 -4.004,-4.695 -5.043,-3.336 -0.054,1.598 -1.304,2.074 -2.39,1.617 -2.477,-3.972 -4.957,-6.746 -7.438,-6.863 0.582,2.047 0.012,2.809 -1.715,2.285 -1.418,-3.695 -3.898,-4.738 -6.863,-4.574 -1.336,1.023 -2.668,1.402 -4.004,1.141 -0.883,-1.211 -2.09,-2.102 -4.004,-2.286 -2.566,1.258 -5.812,0.489 -9.152,-0.57 0.449,1.844 0.262,3.559 -0.57,5.149 -2.172,-1.59 -2.629,2.644 -3.43,5.718 -3.195,-3.332 -4.805,-5.109 -7.231,-5.617 -1.609,4.145 -8.238,-7.129 -8.214,-1.246 -3.715,-0.719 -1.7,-5.984 -8.008,-6.863 0.972,2.101 0.113,2.949 -2.762,4.281 -2.156,-0.398 -3.172,2.184 -3.527,4.871 -1.524,-0.976 -3.051,-1.394 -4.574,-0.57 -1.426,-2.403 -2.891,-4.324 -4.575,-2.86 0.043,1.7 -1.039,1.821 -2.285,1.715 0.301,-4.41 -0.617,-10.902 -2.191,-6.554 -1.262,-2.868 -3.266,-7.086 -5.817,-8.414 -0.265,9.699 -4.777,3.488 -5.718,10.394 -2.911,-0.742 -4.696,-0.684 -4.004,1.141 -1.899,2.551 -6.559,-2.203 -10.578,-4.203 -2.231,0.882 -4.235,3.179 -5.438,5.347 -3.34,-2.082 -4.879,-0.453 -7.707,2.86 -3.773,-0.145 -5.41,-8.418 -7.168,-1.145 -0.426,-0.738 -2.012,-1.094 -1.785,-1.984 1,-3.981 -0.024,-4.629 -2.695,-1.973 -0.844,0.84 -1.926,-2.82 -1.145,-3.301 0.203,-4.98 -1.609,-3.121 -2.941,-5.793 2.48,-2.531 3.316,-5.894 3.996,-8.683 -1.434,-3.266 -2.77,-5.953 -3.43,-4.574 -1.988,1.527 -4.109,3.285 -4.004,1.14 -3.347,-1.199 -2.816,0.602 -3.32,2.762 -0.156,1.609 -1.527,1.23 -1.852,0.199 -0.933,-2.969 -3.25,-0.977 -4.547,-0.101 -5.121,7.558 -9.703,9.683 -14.304,12.015 0.691,-4.433 -3.532,1.059 -5.059,1.059 -2.168,-3.739 -7.129,-5.27 -12.676,-5.637 -4.105,5.738 -7.793,9.813 -10.867,11.441 -0.433,-2.375 -1.769,-2.566 -4.004,-0.57 -1.715,2.094 -3.429,4.192 -5.148,6.293 -0.446,-2.582 -0.582,-5.109 -1.805,-7.437 1.363,-3.622 2.363,-7.633 2.953,-11.254 -1.66,0.515 -2.519,0.617 -2.383,-0.66 0.059,-4.715 2.215,-11.379 4.59,-16.61 0.391,-2.012 -0.562,-3.543 -3.351,-1.219 -2.176,1.196 -2.965,1.063 -3.43,0 -0.961,-1.906 0.098,-4.39 -0.09,-6.297 -1.523,0 -3.531,0.579 -5.058,0.579 0.324,-1.59 0.332,-3.024 -1.137,-4.102 0.187,-1.715 0.957,-3.336 1.148,-5.051 0,-2.476 3.856,-4.379 0.285,-6.375 2.395,-2.383 3.055,-5.855 3.129,-8.496 0.789,-3.722 0.223,-3.449 -2.078,-3.047 -0.289,-1.808 3.817,-5.164 -0.777,-6.105 0.43,-5.426 2.086,-9.477 4.574,-12.586 -0.18,-0.633 -0.457,-0.625 -2.183,-1.516 0.867,-1.148 1.41,-4.386 0.472,-4.504 -1.523,-0.761 -3.051,0.114 -4.574,-0.648 2.504,-6.137 4.992,-10.606 9.809,-13.918 2.8,-1.547 5.668,-0.656 8.214,-6.094 0.586,-1.66 -0.461,-3.965 -2.953,-3.828 2.75,-4.605 -1.168,-3.656 -1.437,-4.953 -1.672,-3.57 6.16,-8.047 0.094,-8.578 -1.485,-2.985 4.886,-5.219 -1.614,-4.738 -1.019,-2.29 3.535,-6.211 13.055,-6.704 -1.145,-2.093 -1.711,-2.363 -2.852,-4.46 0.59,-1.282 5.864,-1.442 12.883,-0.668 2.668,1.921 3.895,1.722 6.563,0.55 -0.379,-0.949 -0.762,-1.906 -1.141,-2.859 0.137,-1.399 6.418,-0.27 14.785,1.148 0.25,-1.347 -1.351,-2.933 -2.195,-4.007 3.582,-1.93 9.824,1.289 13.664,4.503 2.262,-4.167 9.254,2.075 9.781,5.231 1.965,-0.27 5.02,0.391 8.016,2.949"
       id="path6" />
    <path
       style="fill:#39a66d;fill-rule:evenodd;stroke:none"
       d="m 492.011,230.984 c -2.21,-1.059 -4.574,-3.66 -7.093,-7.805 0.121,-3.105 -2.403,-4.769 -5.676,-6.027 -3.781,-2.125 -6.875,-4.254 -10.656,-6.383 -2.18,-1.996 -6.137,-3.183 -9.563,-4.254 -5.437,-1.062 -10.879,-2.129 -16.316,-3.191 -4.965,-2.129 -9.93,-4.254 -14.899,-6.383 -5.675,-2.246 -11.351,-4.492 -17.027,-6.738 -2.719,-0.59 -5.785,-2.684 -8.043,-1.192 -1.156,1.266 -2.32,0.11 -1.633,-1.394 3.352,-2.778 4.278,-4.328 1.16,-5.567 -4.062,-5.89 -13.902,-9.816 -17.738,-14.898 -2.281,-0.43 -3.508,1.254 -4.254,3.898 -1.051,1.43 -1.867,3.055 -1.062,6.032 0.695,2.371 1.156,4.859 0,8.156 -1.18,2 -2.246,2.726 -3.43,3.801 -0.477,1.765 -1.187,4.226 -2.598,5.062 -1.047,0.223 -1.867,0.211 -1.062,-1.418 0.945,-0.535 1.89,-2.969 2.836,-5.676 1.332,-0.543 2.472,-2.05 3.191,-5.675 0.418,-2.469 -0.242,-4.129 -1.062,-5.676 -0.141,-2.16 0.328,-4.172 1.418,-6.027 -0.211,-3.672 1.195,-5.184 2.836,-6.383 -1.778,-2.91 -3.899,-5.555 -5.676,-8.157 -2.067,-1.312 -3.863,-2.359 -7.473,-1.515 0.117,-1.301 -0.801,-1.793 -0.683,-3.094 2,0.328 3.535,-0.258 4.609,-1.773 -3.203,-4.512 -5.641,-9.602 -6.383,-15.965 -0.433,-1.848 -1.027,-1.848 -1.773,0 -0.801,3.18 -2.219,5.898 -4.254,8.156 -2.09,2.152 -4.34,3.691 -6.739,4.609 -1.417,2.325 -2.835,4.274 -4.257,5.676 -0.719,0.254 -1.684,1.004 -1.418,-0.707 1.179,-1.191 2.363,-2.578 3.547,-5.32 2.336,-1.461 4.308,-2.742 6.027,-3.899 2.035,-1.582 3.453,-3.472 4.258,-5.675 0.824,-3.782 1.652,-7.567 2.48,-11.352 -0.234,-2.246 -0.472,-4.492 -0.707,-6.738 -3.035,0.094 -3.64,-1.434 -3.898,-3.192 -1.418,-0.859 -2.836,-1.316 -4.254,1.063 -2.602,2.601 -5.199,5.199 -7.805,7.805 -2.601,5.488 -5.203,8.207 -7.805,8.156 -3.546,2.836 -7.093,5.676 -10.64,8.512 -6.211,2.441 -9.711,6.691 -13.125,10.996 -1.996,3.09 -3.535,6.875 -4.61,11.351 -0.894,5.383 -2.078,10.051 -3.898,13.125 0,3.547 0,7.094 0,10.641 -0.945,1.519 -1.891,2.347 -2.836,2.48 0.676,-1.519 1.203,-3.476 1.418,-6.383 0,-2.835 0,-5.675 0,-8.511 1.523,-1.918 2.59,-4.992 3.191,-9.223 1.196,-4.191 2.157,-9.336 3.899,-11.351 0.594,-3.602 3.195,-6.204 5.676,-8.868 0.586,-1.191 1.047,-2.629 2.129,-2.836 4.609,-3.425 9.222,-6.855 13.836,-10.285 1.773,-1.3 3.546,-2.601 5.32,-3.898 1.89,-1.063 3.781,-2.129 5.676,-3.192 -0.657,-4.3 1.218,-6.378 4.254,-7.445 0.808,-2.476 0.925,-5.242 0.351,-7.258 -6.594,-3.437 -12.031,-6.82 -16.316,-11.187 -2.668,-2.039 -5.739,-2.051 -8.867,-1.774 -5.325,0.157 -7.004,-0.894 -8.157,-2.129 4.137,0.235 8.278,0.473 12.414,0.707 -0.742,-3.164 -2.871,-5.171 -6.383,-6.031 -4.078,-0.59 -4.101,-1.179 -3.546,-1.773 1.785,-0.453 4.031,-0.219 6.738,0.707 3.051,2.48 5.18,4.965 6.383,7.449 3.437,3.047 6.574,5.434 10.476,7.094 2.852,3.144 6.922,4.445 11.16,3.902 1.411,0.461 2.594,0.461 3.547,0 -0.258,-2.719 0.629,-5.265 1.782,-7.984 -0.508,-6.914 -3.102,-9.949 -6.391,-12.235 -2.934,0.09 -4.941,-0.972 -6.031,-3.191 -2.719,-3.09 -5.438,-3.344 -8.157,-3.191 -2.878,-1.297 -4.539,-2.602 -6.031,-3.899 -1.855,-0.797 -2.328,-0.441 -1.418,1.063 -0.429,2.445 -1.152,4.316 -3.898,2.129 -3.426,-0.352 -6.856,-0.707 -10.285,-1.063 0.605,4.484 -1.618,4.512 -4.258,3.899 -1.641,-0.063 -2.473,-0.536 -3.192,-1.063 -3.191,0.418 -6.382,0.754 -9.578,0.707 1.282,1.422 1.008,3.078 0.907,4.965 -3.493,-0.973 -6.528,0.074 -10.485,1.418 1.094,2.418 0.156,4.43 -1.062,6.383 3.25,0.218 2.445,3.277 1.062,6.738 -0.691,0.824 -0.691,1.652 0,2.48 1.629,0.852 1.293,2.286 1.07,4.993 3.075,0.996 6.493,2.226 9.571,3.168 2.48,0.855 4.965,-0.313 7.449,-1.774 6.09,-1.672 8.121,-0.504 9.578,1.063 -3.191,-0.383 -6.383,-1.504 -9.578,1.062 -4.492,2.613 -8.984,3.168 -13.48,0.707 -2.723,5.188 -6.532,7.129 -10.641,8.156 -3.602,2.489 -6.203,6.977 -8.867,11.352 3.73,-1.266 5.386,-1.145 4.965,0.352 1.382,0.73 1.382,2.386 0,4.964 1.214,2.231 2.027,4.231 0,4.61 -2.879,2.91 -3.543,6.453 -3.192,10.285 1.625,-0.426 2.098,0.992 1.418,4.258 1.395,-0.196 1.867,1.218 1.418,4.258 5.012,2.16 10.488,-1.504 15.965,-6.739 2.125,-2.402 4.254,-3.593 6.383,-4.609 0.058,1.789 -5.246,3.058 -7.094,7.445 -1.727,3.52 -6.457,5.883 -14.188,7.094 -0.824,1.535 -1.652,3.074 -2.48,4.609 0.102,2.696 -0.488,4.469 -1.773,5.321 0.984,1.652 1.683,3.308 0.351,4.964 -0.351,1.536 -0.707,3.075 -1.062,4.61 1.062,-0.235 2.129,-0.473 3.191,-0.707 1.281,-0.797 1.875,-0.442 1.773,1.062 0.118,2.246 0.235,4.492 0.352,6.739 1.18,-1.399 2.363,-2.11 3.547,-2.125 2.078,-0.375 3.207,1.152 3.898,3.546 -2.347,5.086 -4.468,10.168 -4.964,15.254 0.945,-0.117 1.89,-0.234 2.835,-0.351 -1.464,4.515 -2.292,8.715 -2.835,12.769 0.578,0.602 0.343,2.016 0,3.547 4.242,-4.422 8.027,-6.078 11.351,-4.965 2.246,-3.425 4.492,-6.336 6.738,-9.765 4.34,1.703 8.536,2.601 12.414,3.379 0.59,0.945 1.18,1.89 1.774,2.836 1.285,-2.727 3.004,-4.016 5.676,-2.129 2.629,-2.743 5.289,-5.637 7.449,-6.028 -0.094,-2.324 0.73,-3.035 2.48,-2.129 1.653,-2.457 3.309,-3.996 4.965,-4.609 1.063,-0.453 2.125,-0.219 3.192,0.707 1.066,-0.699 2.257,-1.152 2.836,-2.836 2.109,0.676 3.527,-0.031 4.257,-2.129 -1.449,-2.179 -0.867,-3.957 0,-5.676 0.598,-9.562 3.364,-15.878 6.739,-21.285 0.816,0.129 1.168,0.719 1.062,1.774 -1.91,3.394 -4.39,8.238 -4.254,16.316 -0.41,3.723 -0.996,7.391 1.418,12.059 0.946,2.008 1.891,4.019 2.836,6.031 -1.512,0.23 -2.105,2.004 -1.773,5.32 -0.922,0.965 -0.922,2.86 0,5.676 -0.91,3.719 -0.438,4.664 1.418,2.836 1.941,-2.023 2.07,-1.434 1.547,1.77 -0.329,2.808 0.835,2.687 2.351,-0.352 0.399,-1.691 1.109,-1.691 2.129,0 -0.211,2.23 0,4.234 3.191,4.609 1.086,-2.629 3.422,-4.394 8.512,-4.257 1.918,-1.075 3.711,-2.653 5.32,-4.965 1.786,-0.184 2.227,6.558 7.45,5.32 3.191,-0.379 5.922,-2.375 9.113,-4.602 2.129,-4.503 2.375,-8.296 2.234,-12.066 -0.363,-1.762 -1.191,-3.062 -2.48,-3.898 -0.809,-1.946 -0.774,-3.68 -0.352,-5.321 0.942,-1.195 1.891,-1.312 2.836,-0.351 -0.519,2.125 -0.422,4.719 2.133,6.843 0.641,1.891 1.34,3.321 1.055,5.215 -0.102,1.649 0.066,3.18 2.125,3.899 0.492,3.586 1.914,5.476 4.258,5.676 0.125,2.707 0.363,5.222 1.417,6.382 0.282,-1.632 0.876,-2.343 1.774,-2.129 1.844,4.524 3.383,5.352 4.609,2.481 1.664,-0.863 4.2,1.867 3.66,-2.441 1.797,0.574 2.403,-0.961 3.43,-3.231 -0.711,3.375 0.344,4.555 1.672,2.727 -0.352,-2.129 0.098,-3.793 -0.254,-5.922 -0.117,-2.364 0.223,-4.496 -0.93,-5.246 0.204,-3.973 -0.648,-6.957 -2.613,-7.524 -1.453,-0.625 -1.219,-0.867 0.707,-1.187 1.965,0.715 3.313,1.304 4.031,5.441 0.215,3.309 0.422,6.621 2.348,9.934 -0.094,1.652 0.195,3.265 3.192,4.609 0.566,1.906 1.75,2.731 3.546,2.481 3.879,0.601 6.836,1.664 8.868,3.191 1.418,1.301 2.836,2.602 4.253,3.898 0.024,-2.421 -0.273,-5.25 1.063,-6.027 0.59,0.324 1.18,0.984 1.773,0 -1.582,-2.246 -2.531,-4.492 -3.191,-6.738 -0.02,-1.949 -0.965,-3.133 -2.836,-3.547 -0.875,-0.742 -0.519,-1.102 1.063,-1.539 2.418,1.597 4.097,1.515 4.875,4.758 0.031,1.988 2.605,4.089 5.41,4.23 3.191,0.313 6.383,0.254 9.578,-0.351 1.371,-0.45 1.281,0.136 2.035,1.535 0.504,1.265 5.055,-1.16 6.484,-0.352 0.985,2.516 2.278,5.231 3.891,2.723 1.418,-0.688 1.91,-0.449 3.332,0.707 2.813,4.418 5.629,5.597 6.598,3.547 4.632,3.332 7.918,5.316 6.382,2.48 z M 370.836,89.476 c -5.926,19.629 -2.356,31.863 4.968,41.293 11.723,1.004 23.067,-1.633 34.793,-8.027 7.989,-4.844 14.032,-9.684 20.262,-14.528 3.324,-4.925 6.945,-8.972 10.703,-12.617 2.547,-2.164 5.094,-4.332 7.645,-6.5 1.496,0.207 1.496,0.844 0,1.91 -3.438,2.938 -6.883,5.668 -10.321,9.938 -5.918,5.711 -6.101,6.121 -7.882,8.73 2.976,-3.574 14.238,-5.347 27.605,-4.586 -0.125,0.637 -0.094,0.95 -0.219,1.59 -10.742,-1 -20.644,-0.504 -27.527,5.352 -2.004,-1.461 -3.543,2.641 -7.305,5.246 -4.836,3.348 -11.445,6.969 -16.398,10.047 -7.774,4.203 -16.566,6.371 -26.383,6.5 -4.992,0.281 -7.101,3.031 -5.672,6.312 1.504,6.028 3.891,10.246 7.965,12.418 2.199,-1.011 3.113,5.524 6.117,6.118 20.071,3.3 28.074,3.656 30.586,2.675 3.781,-1.488 6.305,-1.718 8.793,-1.91 0.731,0.524 0.899,1.051 -0.23,1.438 -1.891,0.644 -6.262,1.183 -9.325,2.761 -2.531,0.996 -6.074,0.758 -10.32,-0.379 -12.16,-0.05 -16.176,-2.136 -23.32,-3.437 1.43,4.5 5.496,7.875 9.937,11.086 3.539,2.789 6.489,5.281 9.176,7.644 3.582,-2.468 6.734,-4.453 6.879,-3.058 -0.762,2.035 -4.418,4.398 -2.934,6.437 2.645,4.278 6.071,5.93 11.715,8.493 6.563,-0.758 18.508,-1.09 27.16,-3.079 2.68,0.45 -2.816,1.946 -20.261,4.969 -2.528,0.422 -2.274,1.059 0.761,1.91 6.524,3.961 15.051,7.309 27.145,9.559 6.469,1.086 9.781,2.203 14.918,5.758 7.445,4.91 14.301,7.363 17.195,12.976 1.981,4.461 5.004,7.707 9.559,9.176 1.781,0.637 2.281,1.914 4.066,2.555 0.324,-1.91 0.758,-4.465 -0.625,-6.375 0.934,-2.547 1.203,-5.098 0,-7.645 -1.66,-0.039 -2.679,-0.293 -3.058,-0.762 -1.071,-0.636 -1.071,-1.273 0,-1.91 2.172,0.965 4.132,1.61 4.586,0 -1.106,0.043 -2,-0.336 -2.676,-1.144 -1.367,-1.145 -0.453,-2.293 0,-3.438 -1.586,-3.3 -3.676,-5.336 -6.117,-6.5 -3.579,0.59 -3.395,-1.07 -2.672,-3.058 -1.571,-3.375 -3.352,-4.395 -5.352,-3.059 -2.137,-1.851 -5.027,-1.824 -8.027,-1.527 -1.938,-3.43 -4.465,-3.91 -7.262,-3.059 -1.527,-0.125 -3.058,-0.254 -4.586,-0.383 0.285,-1.3 5.449,-0.242 6.66,-1.972 2.356,-0.008 4.453,-0.121 5.953,1.59 1.528,0.378 3.059,0.765 4.586,1.144 2.45,0.168 4.145,-0.789 5.735,-1.91 1.273,0.125 2.547,0.254 3.824,0.379 -0.895,-0.891 -1.152,-1.781 -0.762,-2.676 0.719,-3.691 -0.816,-4 -2.676,-3.82 -2.773,-1.84 -6.304,-2.172 -9.937,-2.293 0.125,-1.02 0.254,-2.035 0.379,-3.059 -4.668,1.61 -7.082,0.965 -9.176,0 -1.516,0.692 -3.406,-0.117 -5.351,-1.144 -2.672,-0.129 -4.344,-1.594 -5.735,-3.438 -10.562,-0.141 -17.742,-1.226 -23.437,-2.586 -3.809,1.516 -4.594,1.317 -2.356,-0.597 -1.699,-0.454 -3.273,-0.93 -4.789,-1.403 8.91,1.356 17.992,2.61 29.059,2.676 1.781,-0.289 4.367,-1.273 5.027,-4.082 2.481,0.23 5.606,-2.266 8.731,-2.031 -0.512,-0.59 -1.352,-2.09 -0.579,-3.539 3.243,0.89 5.977,-0.379 7.079,-3.34 1.058,-0.723 2.332,-1.231 3.82,-1.528 0.558,-1.062 0.051,-1.699 -1.527,-1.91 -2.719,0.864 -4.977,-0.59 -7.262,-1.91 0.379,-0.508 0.762,-1.019 1.144,-1.527 -1.011,-0.254 -2.668,-0.508 -4.968,-0.762 -0.981,-0.637 -1.11,-1.273 -0.379,-1.91 -4.02,-0.039 -6.864,-0.965 -9.176,-2.293 1.074,-1.535 0.437,-2.426 -1.91,-2.676 -2.555,-1.496 -4.465,-1.496 -5.735,0 -1.925,4.445 -4.433,6.758 -7.644,6.5 -8.508,0.832 -14.383,-0.215 -19.883,-1.527 -0.898,-1.32 -0.519,-2.211 1.145,-2.676 4.332,1.746 8.664,1.969 13,1.145 5.152,1.285 8.433,0.328 10.16,-2.231 -0.27,-10.156 1.972,-13.808 5.129,-14.969 -1.68,-1.711 -8.961,1.032 -12.235,0 -2.676,-1.375 -5.351,-2.16 -8.027,-2.675 0.125,-0.508 0.254,-1.02 0.383,-1.528 2.035,-0.047 3.754,0.492 5.793,1.305 1.5,2.551 5.379,2.289 9.879,0.984 2.847,-0.773 4.589,-0.636 6.199,0.699 3.058,0.895 7.562,0.829 10.621,0.442 -1.887,-1.277 -1.629,-1.918 0.762,-1.91 0.773,-1.918 0.261,-3.192 -1.528,-3.821 -1.383,-0.664 -5.55,-3.648 -9.558,-6.5 -0.481,-1.527 -0.805,-3.058 0,-4.585 1.359,0.078 2.508,0.589 3.437,1.527 -0.09,-2.383 0.672,-3.914 2.293,-4.586 1.781,1.059 3.567,0.992 5.352,0.762 0.648,-0.989 1.183,-2.211 2.293,-2.293 3.566,2.004 7.136,3.148 10.703,3.437 0.277,1.563 0.398,2.266 1.972,3.403 0.379,-0.676 0.762,-1.012 1.145,-3.059 -1.047,-3.453 -2.359,-3.754 -4.266,-3.785 -0.988,-1.782 0.977,-3.086 2.996,-4.067 -1.14,-1.961 -3.726,-3.175 -6.152,-2.996 0,-0.761 0.481,-2.492 0.481,-3.254 -1.09,-3.375 -4.039,-2.539 -6.879,-2.859 2.527,-4.566 -5.153,-6.387 -12.235,-7.461 -1.07,-0.676 -1.07,-1.57 0,-2.676 -4.265,0.563 -6.175,-0.578 -5.734,-3.437 1.273,-1.274 2.547,-2.547 3.82,-3.821 -2.422,-1.214 -4.844,-0.55 -7.261,0.379 -2.043,1.114 -3.446,0.731 -4.204,-1.144 -1.05,0.793 -4.734,0.832 -8.793,0.762 -2.05,0.945 -2.179,0.179 -0.378,-2.293 -1.946,-1.454 -4.825,-1.055 -7.645,-0.766 -1.723,1.492 -3.34,3.043 -4.203,4.969 -4.086,-0.227 -6.781,1.863 -9.559,3.82 -2.801,4.062 -5.605,5.184 -8.41,4.969 -1.281,-0.637 -1.281,-1.274 0,-1.91 3.313,0.617 6.625,-2.473 9.938,-5.352 2.238,-2.812 6.336,-4.23 10.32,-5.734 -2.395,-1.055 -2.649,-2.965 -0.762,-5.735 -1.851,-2.164 -1.824,-4.328 -1.527,-6.5 -2.164,0.727 -4.332,1.516 -6.5,2.676 -0.856,0.313 -1.527,0.254 -1.527,-1.144 -2.129,1.058 -3.403,2.335 -3.821,3.82 -0.765,1.527 -2.199,1.715 -3.82,1.527 -0.512,-1.312 -0.387,-2.844 0.379,-4.586 -2.766,0.328 -5,2.535 -6.055,5.008 -3.363,0.227 -7.75,2.68 -8.469,6.078 -2.156,0.418 -4.05,2.176 -5.351,6.883 -1.32,0.258 -2.211,-0.121 -2.676,-1.145 -4.941,6.192 -9.297,5.907 -13.383,2.676"
       id="path7" />
    <path
       style="fill:#ec2a32;fill-rule:evenodd;stroke:none"
       d="m 263.535,261.308 h -62.211 v -62.187 h 62.211 z M 136.281,196.511 h 62.43 v -62.429 h -62.43 z M 71.2342,131.468 H 133.543 V 69.039 H 71.2342 Z M 6.1914,196.511 H 68.621 V 134.082 H 6.1914 Z M 201.32,69.035 h 62.211 v 62.429 H 201.32 Z M 136.281,4.336 h 62.43 v 62.086 h -62.43 z m -2.727,256.972 H 71.2382 V 199.121 H 133.554 Z M 6.1914,4.336 H 68.621 V 66.422 H 6.1914 Z M 5.832,265.804 h 522.933 c -3.929,40.227 -16.617,91.239 -39.191,130.746 -15.746,-18.007 -33.25,-44.675 -51.965,-67.168 -15.223,-16.394 -32.328,-17.039 -49.769,-9.257 -16.946,9.504 -26.391,11.734 -46.532,35.394 l -37.683,-49.754 c -14.074,-15.047 -29.031,-20.418 -44.875,-19.57 -29.114,2.742 -55.078,25.305 -77.317,65.281 -20.625,-32.512 -69.601,-35.605 -90.6438,-3.234 -15.879,20.437 -31.0744,39.492 -42.7541,51.523 C 24.8085,360.836 9.6328,310.156 5.8515,265.804"
       id="path8" />
  </g>
</svg>
