<?xml version="1.0" encoding="UTF-8" standalone="no"?>
<!-- Created with Inkscape (http://www.inkscape.org/) -->

<svg
   xmlns:dc="http://purl.org/dc/elements/1.1/"
   xmlns:cc="http://creativecommons.org/ns#"
   xmlns:rdf="http://www.w3.org/1999/02/22-rdf-syntax-ns#"
   xmlns:svg="http://www.w3.org/2000/svg"
   xmlns="http://www.w3.org/2000/svg"
   xmlns:sodipodi="http://sodipodi.sourceforge.net/DTD/sodipodi-0.dtd"
   xmlns:inkscape="http://www.inkscape.org/namespaces/inkscape"
   version="1.1"
   width="408.61749"
   height="500.49072"
   id="svg2"
   inkscape:version="0.47 r22583"
   sodipodi:docname="POL_Jedlina-Zdrój_COA_new.svg">
  <metadata
     id="metadata106">
    <rdf:RDF>
      <cc:Work
         rdf:about="">
        <dc:format>image/svg+xml</dc:format>
        <dc:type
           rdf:resource="http://purl.org/dc/dcmitype/StillImage" />
      </cc:Work>
    </rdf:RDF>
  </metadata>
  <sodipodi:namedview
     pagecolor="#ffffff"
     bordercolor="#666666"
     borderopacity="1"
     objecttolerance="10"
     gridtolerance="10"
     guidetolerance="10"
     inkscape:pageopacity="0"
     inkscape:pageshadow="2"
     inkscape:window-width="1280"
     inkscape:window-height="968"
     id="namedview104"
     showgrid="false"
     inkscape:zoom="1.4445822"
     inkscape:cx="204.30875"
     inkscape:cy="250.24536"
     inkscape:window-x="-4"
     inkscape:window-y="-4"
     inkscape:window-maximized="1"
     inkscape:current-layer="svg2" />
  <defs
     id="defs4">
    <inkscape:perspective
       sodipodi:type="inkscape:persp3d"
       inkscape:vp_x="0 : 286.06323 : 1"
       inkscape:vp_y="0 : 1000 : 0"
       inkscape:vp_z="467 : 286.06323 : 1"
       inkscape:persp3d-origin="233.5 : 190.70882 : 1"
       id="perspective108" />
    <inkscape:perspective
       id="perspective3793"
       inkscape:persp3d-origin="0.5 : 0.33333333 : 1"
       inkscape:vp_z="1 : 0.5 : 1"
       inkscape:vp_y="0 : 1000 : 0"
       inkscape:vp_x="0 : 0.5 : 1"
       sodipodi:type="inkscape:persp3d" />
    <inkscape:perspective
       id="perspective3815"
       inkscape:persp3d-origin="0.5 : 0.33333333 : 1"
       inkscape:vp_z="1 : 0.5 : 1"
       inkscape:vp_y="0 : 1000 : 0"
       inkscape:vp_x="0 : 0.5 : 1"
       sodipodi:type="inkscape:persp3d" />
  </defs>
  <path
     style="fill:#f4f4f5;fill-opacity:1;stroke:#000000;stroke-width:5;stroke-linecap:butt;stroke-linejoin:miter;stroke-miterlimit:4;stroke-opacity:1;stroke-dasharray:none"
     id="path3075"
     d="m 204.30876,497.98887 c 187.44169,-0.67366 201.80875,-181.7262 201.80875,-181.7262 L 406.11751,2.5 2.5,2.5 l 0,313.76267 c 0,0 14.367053,182.39987 201.80876,181.7262 z" />
  <path
     style="fill:#60ae24;fill-opacity:1;stroke:#000000;stroke-width:1;stroke-linecap:butt;stroke-linejoin:miter;stroke-miterlimit:4;stroke-opacity:1;stroke-dasharray:none"
     id="path4438"
     d="m 203.79004,350.9098 c -76.81651,0.7871 -187.654225,14.03359 -187.654225,14.03359 28.626834,87.7177 101.112095,131.66297 188.126405,131.66297 87.01431,0 158.26233,-44.15684 188.28671,-131.66297 0,0 -111.47821,-13.24667 -188.29478,-14.03359 -0.15253,-0.002 -0.31185,0.002 -0.46411,0 z" />
  <path
     style="fill:#e2001a;fill-opacity:1;stroke:#000000;stroke-width:1;stroke-linecap:butt;stroke-linejoin:miter;stroke-miterlimit:4;stroke-opacity:1;stroke-dasharray:none"
     id="path3902-4-2-3-2-7-6-1-8-9"
     d="m 189.96158,392.17683 6.21242,0.13293 0.0384,-72.20394 -3.21465,-4.14464 -3.21325,3.43012 0.17719,72.78553 -3e-5,0 -2e-5,0 z" />
  <path
     style="fill:#e2001a;fill-opacity:1;stroke:#000000;stroke-width:1;stroke-linecap:butt;stroke-linejoin:miter;stroke-miterlimit:4;stroke-opacity:1;stroke-dasharray:none"
     id="path3902"
     d="m 196.80898,438.44961 -13.33699,0 0,-99.79555 6.90663,-2.8581 6.90664,2.8581 -0.47628,99.79555 z" />
  <path
     style="fill:#e2001a;fill-opacity:1;stroke:#000000;stroke-width:1;stroke-linecap:butt;stroke-linejoin:miter;stroke-miterlimit:4;stroke-opacity:1;stroke-dasharray:none"
     id="path3902-4-2-3-2-7-6-1-8-9-0"
     d="m 218.09641,392.30627 -6.21243,0.13292 -0.0383,-72.20393 3.21465,-4.14465 3.21325,3.43012 -0.17719,72.78554 3e-5,0 1e-5,0 z" />
  <path
     style="fill:#e2001a;fill-opacity:1;stroke:#000000;stroke-width:1;stroke-linecap:butt;stroke-linejoin:miter;stroke-miterlimit:4;stroke-opacity:1;stroke-dasharray:none"
     id="path3902-6"
     d="m 211.24901,438.57905 13.33698,0 1e-5,-99.79555 -6.90664,-2.85811 -6.90663,2.85811 0.47628,99.79555 z" />
  <path
     style="fill:#60ae24;fill-opacity:1;stroke:#000000;stroke-width:1;stroke-linecap:butt;stroke-linejoin:miter;stroke-miterlimit:4;stroke-opacity:1;stroke-dasharray:none"
     id="path3872"
     d="m 201.57866,105.24008 0,12.1497 -6.66144,8.1089 -20.01161,5.21482 -7.39856,7.64475 0,10.70266 33.49829,0 6.03351,0 33.49829,0 0,-10.70266 -7.37126,-7.64475 -20.01161,-5.21482 -6.66144,-8.1089 0,-12.1497 -4.91417,0 z" />
  <path
     style="fill:#000000;stroke:#000000;stroke-width:1;stroke-linecap:butt;stroke-linejoin:miter;stroke-miterlimit:4;stroke-opacity:1;stroke-dasharray:none"
     id="path2830-7"
     d="m 208.55806,38.592967 c 0,0 4.23847,3.21823 5.25891,7.47034 0,0 10.54459,-2.04102 13.26577,-10.20509 0,0 -9.18399,-3.06153 -9.18399,-9.184587 0,-3.418665 4.07637,-6.207053 7.65333,-6.633307 3.57696,-0.426255 8.33363,2.721358 11.05481,7.313638 2.72119,4.592286 0.99319,26.741866 1.70074,27.553766 0.70756,0.8119 3.06134,0.51025 3.06134,0.51025 0,0 -4.42193,5.27264 -7.48326,-2.89144 0,0 -1.3595,9.50624 0.17008,10.71535 1.52957,1.2091 4.42192,0.34017 4.42192,0.34017 0,0 -1.67719,3.51906 -5.10222,3.23161 -3.25613,-0.27326 -5.44237,-7.14356 -5.44237,-7.14356 0,0 -0.31673,14.67761 1.36059,15.81789 1.67732,1.14028 4.42193,0.17008 4.42193,0.17008 0,0 -0.64697,3.28483 -5.44237,2.72137 -4.79541,-0.56347 -6.80297,-12.92646 -6.80297,-12.92646 0,0 0.34015,5.95297 -0.51022,7.48373 -3.2314,-1.53076 -4.592,-8.16406 -4.592,-8.16406 -2.21096,4.59228 4.25186,11.39568 4.25186,11.39568 0,0 -1.36061,1.19059 -2.89127,0 l 3.40148,8.16408 c 2.12491,0.375 4.42193,-3.74187 5.2723,-3.74187 0.68029,0 1.58264,1.56937 1.36059,2.2111 -0.22205,0.64173 -2.76627,0.99592 -3.51623,1.87094 1.49993,0.25 4.28737,-0.0917 4.53667,0.34017 0.24931,0.43189 -0.002,1.1345 -0.34014,1.87093 -0.33841,0.73643 -2.27654,-0.62501 -3.40149,0 0.49998,1.75003 3.17894,1.90091 3.23142,2.38118 0.0341,0.31185 -1.01097,1.91105 -1.70075,2.05127 -0.68977,0.14023 -4.29269,-3.80654 -6.63288,-4.60253 -2.34019,-0.796 -5.53656,0.39699 -6.46282,0 -0.87496,-0.37501 -2.21096,-0.95084 -2.21096,-1.70085 0,-0.75002 1.82388,-1.14322 3.06133,-1.32585 1.23745,-0.18263 3.91171,0.47542 3.91171,0.47542 l -3.06134,-6.29314 c 0,0 -0.85037,2.21111 -1.87082,2.38119 -2.21095,-1.36068 -3.9117,-7.48374 -3.9117,-7.48374 -3.71215,6.54088 -2.57725,12.91181 -2.21096,13.77688 0.36628,0.86506 0.95349,0.51026 2.72118,0.51026 0,0 0.45398,1.51067 -2.5511,2.04101 0,0 1.37239,6.92037 5.44237,6.97348 4.06997,0.0531 3.9117,-4.59229 3.9117,-4.59229 0,0 3.97694,2.87086 2.50424,6.69357 -1.49434,3.878913 -5.22543,2.491013 -5.22543,2.491013 0,0 2.06767,2.77762 1.36059,5.78289 -2.82831,0.17678 -4.42192,-2.04102 -4.42192,-2.04102 0,0 0.23703,2.49771 -1.53067,3.91196 -2.29799,-0.53035 -2.72118,-3.57179 -2.72118,-3.57179 0,0 -0.23302,3.70169 -2.79237,4.76238 -2.55934,-1.06069 -2.79236,-4.76238 -2.79236,-4.76238 0,0 -0.42319,3.04144 -2.72119,3.57179 -1.76769,-1.41425 -1.53066,-3.91196 -1.53066,-3.91196 0,0 -1.59362,2.2178 -4.42193,2.04102 -0.70707,-3.00527 1.3606,-5.78289 1.3606,-5.78289 0,0 -3.73109,1.3879 -5.22543,-2.491013 -1.4727,-3.82271 2.50424,-6.69357 2.50424,-6.69357 0,0 -0.15827,4.64541 3.9117,4.59229 4.06998,-0.0531 5.44237,-6.97348 5.44237,-6.97348 -3.00508,-0.53034 -2.5511,-2.04101 -2.5511,-2.04101 1.76769,0 2.35489,0.3548 2.72118,-0.51026 0.36629,-0.86507 1.50119,-7.236 -2.21097,-13.77688 0,0 -1.70074,6.12306 -3.9117,7.48374 -1.02044,-0.17008 -1.87082,-2.38119 -1.87082,-2.38119 l -3.06133,6.29314 c 0,0 2.67426,-0.65805 3.91171,-0.47542 1.23744,0.18263 3.06133,0.57583 3.06133,1.32585 0,0.75001 -1.33601,1.32584 -2.21097,1.70085 -0.92625,0.39699 -4.12262,-0.796 -6.46281,0 -2.34019,0.79599 -5.94311,4.74276 -6.63289,4.60253 -0.68977,-0.14022 -1.73481,-1.73942 -1.70074,-2.05127 0.0525,-0.48027 2.73144,-0.63115 3.23141,-2.38118 -1.12494,-0.62501 -3.06307,0.73643 -3.40148,0 -0.3384,-0.73643 -0.58945,-1.43904 -0.34015,-1.87093 0.24931,-0.4319 3.03675,-0.0902 4.53667,-0.34017 -0.74996,-0.87502 -3.29417,-1.22921 -3.51622,-1.87094 -0.22205,-0.64173 0.6803,-2.2111 1.36059,-2.2111 0.85037,0 3.14739,4.11687 5.27229,3.74187 l 3.40149,-8.16408 c -1.53067,1.19059 -2.89127,0 -2.89127,0 0,0 6.46282,-6.8034 4.25186,-11.39568 0,0 -1.3606,6.6333 -4.59201,8.16406 -0.85036,-1.53076 -0.51021,-7.48373 -0.51021,-7.48373 0,0 -2.00756,12.36299 -6.80297,12.92646 -4.7954,0.56346 -5.44237,-2.72137 -5.44237,-2.72137 0,0 2.74461,0.9702 4.42193,-0.17008 1.67732,-1.14028 1.36059,-15.81789 1.36059,-15.81789 0,0 -2.18624,6.8703 -5.44237,7.14356 -3.42503,0.28745 -5.10222,-3.23161 -5.10222,-3.23161 0,0 2.89234,0.86893 4.42192,-0.34017 1.52958,-1.20911 0.17008,-10.71535 0.17008,-10.71535 -3.06133,8.16408 -7.48326,2.89144 -7.48326,2.89144 0,0 2.35378,0.30165 3.06133,-0.51025 0.70756,-0.8119 -1.02044,-22.96148 1.70075,-27.553766 2.72118,-4.59228 7.47785,-7.739893 11.05481,-7.313638 3.57696,0.426254 7.65333,3.214642 7.65333,6.633307 0,6.123057 -9.18399,9.184587 -9.18399,9.184587 2.72118,8.16407 13.26577,10.20509 13.26577,10.20509 1.02044,-4.25211 5.61245,-7.8239 5.61245,-7.8239 l -1.30554,-0.18008 c 2.73993,-3.18204 1.88618,-6.0876 1.50253,-6.98282 -0.38364,-0.89523 -4.33084,-2.6517 -5.47984,-5.480193 l 4.50761,1.414236 c 0,0 -0.44012,-6.130187 6.3637,-5.745363 6.71572,0.379844 8.13139,5.833754 8.13139,5.833754 0.61868,0.618727 2.91668,0.265172 2.91668,0.265172 -0.17677,2.651704 -3.35861,2.563314 -3.35861,2.563314 l 1.50254,1.8562 c -1.85607,3.35883 -5.39146,1.67941 -5.39146,1.67941 0,0 0.35354,2.38654 2.47477,5.03825 -0.61869,0.53034 -2.86418,0.0917 -2.86418,0.0917 z" />
  <path
     style="fill:#ffec00;fill-opacity:1;stroke:#000000;stroke-width:1;stroke-linecap:butt;stroke-linejoin:miter;stroke-miterlimit:4;stroke-opacity:1;stroke-dasharray:none"
     id="path2878"
     d="m 201.61154,21.53036 c -2.12123,-0.08839 -3.47307,-2.39972 -6.09854,-1.414245 -2.70309,1.014612 -3.09345,4.59629 -3.09345,4.59629 0,0 2.38637,-1.325846 6.45207,0.707127" />
  <path
     style="fill:#f4f4f5;fill-opacity:1;fill-rule:nonzero;stroke:#000000;stroke-width:1;stroke-miterlimit:4;stroke-dasharray:none"
     id="path2880"
     d="m 207.09137,24.350012 a 2.032846,1.4230828 0 1 1 -4.06569,0 2.032846,1.4230828 0 1 1 4.06569,0 z" />
  <path
     style="fill:#f4f4f5;fill-opacity:1;stroke:#000000;stroke-width:1;stroke-linecap:butt;stroke-linejoin:miter;stroke-miterlimit:4;stroke-opacity:1;stroke-dasharray:none"
     id="path2882"
     d="m 174.32837,29.770867 c 0,21.89006 14.089,30.55172 29.70345,30.55172 15.71797,0 29.70346,-9.20669 29.70346,-30.55172 0,0 -5.97505,25.47342 -28.28381,25.47342 l 0,-1.77467 3.35802,0 0,-3.19442 -3.35802,0 0,-3.08521 -2.8393,0 0,3.08521 -3.35802,0 0,3.19442 3.35802,0 0,1.77467 c -23.01394,0 -28.2838,-25.47342 -28.2838,-25.47342 z" />
  <path
     style="fill:#ffec00;fill-opacity:1;stroke:#000000;stroke-width:1;stroke-linecap:butt;stroke-linejoin:miter;stroke-miterlimit:4;stroke-opacity:1;stroke-dasharray:none"
     id="path2907"
     d="m 179.48746,89.185117 c -3.20887,0 -2.38078,2.89854 -2.38078,2.89854 0,0 0.72459,-1.96686 3.82996,-0.72464" />
  <path
     style="fill:#ffec00;fill-opacity:1;stroke:#000000;stroke-width:1;stroke-linecap:butt;stroke-linejoin:miter;stroke-miterlimit:4;stroke-opacity:1;stroke-dasharray:none"
     id="path2907-4"
     d="m 179.19804,84.858637 c -2.93445,-1.29852 -3.34994,1.68723 -3.34994,1.68723 0,0 1.45843,-1.50544 3.79559,0.88718" />
  <path
     style="fill:#ffec00;fill-opacity:1;stroke:#000000;stroke-width:1;stroke-linecap:butt;stroke-linejoin:miter;stroke-miterlimit:4;stroke-opacity:1;stroke-dasharray:none"
     id="path2907-4-8"
     d="m 180.62908,81.022247 c -2.93445,-1.29852 -3.34995,1.68722 -3.34995,1.68722 0,0 1.45843,-1.50543 3.79559,0.88719" />
  <path
     style="fill:#ffec00;fill-opacity:1;stroke:#000000;stroke-width:1;stroke-linecap:butt;stroke-linejoin:miter;stroke-miterlimit:4;stroke-opacity:1;stroke-dasharray:none"
     id="path2907-4-2"
     d="m 196.28632,85.635617 c 2.05912,1.57205 0.13969,3.02343 0.13969,3.02343 0,0 0.47695,-1.61512 -2.11065,-2.34057" />
  <path
     style="fill:none;stroke:#ffffff;stroke-width:1;stroke-linecap:butt;stroke-linejoin:miter;stroke-miterlimit:4;stroke-opacity:1;stroke-dasharray:none"
     id="path2971"
     d="m 168.7222,56.059147 c 1.24438,-0.1306 1.6803,-0.1529 2.29149,-0.99881 0.6112,-0.84592 0.81388,-14.94306 0.81388,-14.94306" />
  <path
     style="fill:none;stroke:#ffffff;stroke-width:1;stroke-linecap:butt;stroke-linejoin:miter;stroke-miterlimit:4;stroke-opacity:1;stroke-dasharray:none"
     id="path2971-4"
     d="m 171.9925,64.967217 c 1.1071,0.14395 1.79467,0.59915 3.16089,-0.58697 1.34332,-1.16624 1.72904,-13.2499 1.72904,-13.2499" />
  <path
     style="fill:none;stroke:#ffffff;stroke-width:1;stroke-linecap:butt;stroke-linejoin:miter;stroke-miterlimit:4;stroke-opacity:1;stroke-dasharray:none"
     id="path2971-4-5"
     d="m 177.04877,77.036367 c 1.1071,0.14395 1.90909,0.76231 3.38968,-0.99882 1.4806,-1.76113 3.23906,-19.38187 3.23906,-19.38187" />
  <path
     style="fill:none;stroke:#ffffff;stroke-width:1;stroke-linecap:butt;stroke-linejoin:miter;stroke-miterlimit:4;stroke-opacity:1;stroke-dasharray:none"
     id="path3017"
     d="m 189.33173,59.192797 -1.92184,11.48601" />
  <path
     style="fill:#ffec00;fill-opacity:1;stroke:#000000;stroke-width:1;stroke-linecap:butt;stroke-linejoin:miter;stroke-miterlimit:4;stroke-opacity:1;stroke-dasharray:none"
     id="path2907-1"
     d="m 228.04306,89.185117 c 3.20887,0 2.38077,2.89854 2.38077,2.89854 0,0 -0.72459,-1.96686 -3.82995,-0.72464" />
  <path
     style="fill:#ffec00;fill-opacity:1;stroke:#000000;stroke-width:1;stroke-linecap:butt;stroke-linejoin:miter;stroke-miterlimit:4;stroke-opacity:1;stroke-dasharray:none"
     id="path2907-4-7"
     d="m 228.33247,84.858637 c 2.93445,-1.29852 3.34995,1.68723 3.34995,1.68723 0,0 -1.45843,-1.50544 -3.7956,0.88718" />
  <path
     style="fill:#ffec00;fill-opacity:1;stroke:#000000;stroke-width:1;stroke-linecap:butt;stroke-linejoin:miter;stroke-miterlimit:4;stroke-opacity:1;stroke-dasharray:none"
     id="path2907-4-8-1"
     d="m 226.90144,81.022247 c 2.93445,-1.29852 3.34994,1.68722 3.34994,1.68722 0,0 -1.45843,-1.50543 -3.79559,0.88719" />
  <path
     style="fill:#ffec00;fill-opacity:1;stroke:#000000;stroke-width:1;stroke-linecap:butt;stroke-linejoin:miter;stroke-miterlimit:4;stroke-opacity:1;stroke-dasharray:none"
     id="path2907-4-2-1"
     d="m 211.2442,85.635617 c -2.05912,1.57205 -0.1397,3.02343 -0.1397,3.02343 0,0 -0.47695,-1.61512 2.11065,-2.34057" />
  <path
     style="fill:none;stroke:#ffffff;stroke-width:1;stroke-linecap:butt;stroke-linejoin:miter;stroke-miterlimit:4;stroke-opacity:1;stroke-dasharray:none"
     id="path2971-5"
     d="m 238.80831,56.059147 c -1.24437,-0.1306 -1.6803,-0.1529 -2.29149,-0.99881 -0.61119,-0.84592 -0.81387,-14.94306 -0.81387,-14.94306" />
  <path
     style="fill:none;stroke:#ffffff;stroke-width:1;stroke-linecap:butt;stroke-linejoin:miter;stroke-miterlimit:4;stroke-opacity:1;stroke-dasharray:none"
     id="path2971-4-2"
     d="m 235.53801,64.967217 c -1.1071,0.14395 -1.79467,0.59915 -3.16089,-0.58697 -1.34332,-1.16624 -1.72904,-13.2499 -1.72904,-13.2499" />
  <path
     style="fill:none;stroke:#ffffff;stroke-width:1;stroke-linecap:butt;stroke-linejoin:miter;stroke-miterlimit:4;stroke-opacity:1;stroke-dasharray:none"
     id="path2971-4-5-7"
     d="m 230.48174,77.036367 c -1.1071,0.14395 -1.90908,0.76231 -3.38968,-0.99882 -1.4806,-1.76113 -3.23905,-19.38187 -3.23905,-19.38187" />
  <path
     style="fill:none;stroke:#ffffff;stroke-width:1;stroke-linecap:butt;stroke-linejoin:miter;stroke-miterlimit:4;stroke-opacity:1;stroke-dasharray:none"
     id="path3017-6"
     d="m 218.19879,59.192797 1.92184,11.48601" />
  <path
     style="fill:#e2001a;fill-opacity:1;stroke:#000000;stroke-width:1;stroke-linecap:butt;stroke-linejoin:miter;stroke-miterlimit:4;stroke-opacity:1;stroke-dasharray:none"
     id="path3874"
     d="m 184.54286,145.97571 -23.58804,5.13291 2.8666,8.21811 2.26598,0 75.89669,0 2.23868,0 2.8666,-8.21811 -23.58803,-5.13291 -38.95848,0 z" />
  <path
     style="fill:#60ae24;fill-opacity:1;stroke:#000000;stroke-width:1;stroke-linecap:butt;stroke-linejoin:miter;stroke-miterlimit:4;stroke-opacity:1;stroke-dasharray:none"
     id="path3882"
     d="m 200.92344,180.2406 -35.08175,7.64476 -11.19339,7.61745 -31.66913,15.01649 -37.866442,12.36812 238.228242,0 -37.86644,-12.36812 -31.66912,-15.01649 -11.1934,-7.61745 -35.08174,-7.64476 -6.60683,0 z" />
  <path
     style="fill:#e2001a;fill-opacity:1;stroke:#000000;stroke-width:1;stroke-linecap:butt;stroke-linejoin:miter;stroke-miterlimit:4;stroke-opacity:1;stroke-dasharray:none"
     id="path3876"
     d="m 185.49839,150.26223 -19.7659,4.53225 0,33.20009 20.47572,-4.15001 35.62777,0.13651 20.50302,4.15001 0,-33.22739 -19.7659,-4.50494 -37.07471,-0.13652 z" />
  <path
     style="fill:#000000;stroke:#000000;stroke-width:1;stroke-linecap:butt;stroke-linejoin:miter;stroke-miterlimit:4;stroke-opacity:1;stroke-dasharray:none"
     id="path3878"
     d="m 170.02487,157.99779 -0.009,22.50772 15.24227,-2.50084 -0.34832,-23.22225 -14.88502,3.21537 z" />
  <rect
     style="fill:#000000;fill-opacity:1;fill-rule:nonzero;stroke:#000000;stroke-width:1;stroke-miterlimit:4;stroke-dasharray:none"
     id="rect3880"
     y="153.71075"
     x="192.90173"
     ry="0"
     height="24.174816"
     width="22.267996" />
  <path
     style="fill:#e2001a;fill-opacity:1;stroke:#000000;stroke-width:1;stroke-linecap:butt;stroke-linejoin:miter;stroke-miterlimit:4;stroke-opacity:1;stroke-dasharray:none"
     id="path3884"
     d="m 147.27704,218.73741 -62.164312,4.28653 15.479652,18.81156 50.01537,-3.33093 106.85599,0 50.01537,3.33093 15.47965,-18.81156 -62.1643,-4.28653 -113.51742,0 z" />
  <path
     style="fill:#e2001a;fill-opacity:1;stroke:#000000;stroke-width:1;stroke-linecap:butt;stroke-linejoin:miter;stroke-miterlimit:4;stroke-opacity:1;stroke-dasharray:none"
     id="path3890"
     d="m 150.52585,238.39536 -38.05755,2.53915 0,5.051 38.05755,-1.33783 106.80139,0 38.05754,1.33783 0,-5.051 -38.05754,-2.53915 -106.80139,0 z" />
  <path
     style="fill:#e2001a;fill-opacity:1;stroke:#000000;stroke-width:1;stroke-linecap:butt;stroke-linejoin:miter;stroke-miterlimit:4;stroke-opacity:1;stroke-dasharray:none"
     id="path3902-4-2-3-2-7-6-1-8"
     d="m 179.95954,392.73221 -6.21242,0.13292 -0.0384,-72.20393 3.21464,-4.14465 3.21325,3.43012 -0.17719,72.78554 3e-5,0 2e-5,0 z" />
  <path
     style="fill:#e2001a;fill-opacity:1;stroke:#000000;stroke-width:1;stroke-linecap:butt;stroke-linejoin:miter;stroke-miterlimit:4;stroke-opacity:1;stroke-dasharray:none"
     id="path3902-4-2-3-2-7-6-1-8-6"
     d="m 228.09844,392.86165 6.21243,0.13292 0.0383,-72.20393 -3.21465,-4.14465 -3.21325,3.43012 0.17719,72.78554 -2e-5,0 -2e-5,0 z" />
  <path
     style="fill:#e2001a;fill-opacity:1;stroke:#000000;stroke-width:1;stroke-linecap:butt;stroke-linejoin:miter;stroke-miterlimit:4;stroke-opacity:1;stroke-dasharray:none"
     id="path3902-4-2-3-2-2-1-8"
     d="m 61.945371,405.6604 4.616835,-3.64595 0.212406,-76.85494 -2.502883,-1.58952 -2.5009,2.30404 0.174543,79.78637 z" />
  <path
     style="fill:#e2001a;fill-opacity:1;stroke:#000000;stroke-width:1;stroke-linecap:butt;stroke-linejoin:miter;stroke-miterlimit:4;stroke-opacity:1;stroke-dasharray:none"
     id="path3902-4-2-3-2-2-5"
     d="m 74.224988,407.92308 5.057947,-2.6073 0.233225,-81.80055 -2.741043,-1.73155 -2.739008,2.44606 0.188879,83.69334 z" />
  <path
     style="fill:#e2001a;fill-opacity:1;stroke:#000000;stroke-width:1;stroke-linecap:butt;stroke-linejoin:miter;stroke-miterlimit:4;stroke-opacity:1;stroke-dasharray:none"
     id="path3902-4-2-3-2-7"
     d="m 92.869155,413.40112 -6.208328,-1.53429 -7e-6,-88.63858 3.215023,-2.63545 3.213257,3.34997 -0.219944,89.45835 z" />
  <path
     style="fill:#e2001a;fill-opacity:1;stroke:#000000;stroke-width:1;stroke-linecap:butt;stroke-linejoin:miter;stroke-miterlimit:4;stroke-opacity:1;stroke-dasharray:none"
     id="path3902-4-2-3-2-7-6"
     d="m 127.90179,393.63203 -6.90292,0.13292 -0.043,-72.91846 3.57236,-2.63545 3.5704,2.63545 -0.19689,72.78554 3e-5,0 z" />
  <path
     style="fill:#e2001a;fill-opacity:1;stroke:#000000;stroke-width:1;stroke-linecap:butt;stroke-linejoin:miter;stroke-miterlimit:4;stroke-opacity:1;stroke-dasharray:none"
     id="path3902-4-2-3-2-7-6-1"
     d="m 143.26316,393.68491 -6.90291,0.13292 -0.043,-72.91846 3.57237,-2.63544 3.5704,2.63544 -0.19689,72.78554 2e-5,0 z" />
  <path
     style="fill:#e2001a;fill-opacity:1;stroke:#000000;stroke-width:1;stroke-linecap:butt;stroke-linejoin:miter;stroke-miterlimit:4;stroke-opacity:1;stroke-dasharray:none"
     id="path4302-4-1"
     d="m 53.601252,348.69115 c 0,-17.1445 150.967588,-19.06804 150.967588,-19.06804 0,0 0.0637,2.12603 -0.0592,3.96895 -15.67137,-1.04483 -147.251769,1.51045 -147.251769,15.42645"
     sodipodi:nodetypes="cccs" />
  <path
     style="fill:#e2001a;fill-opacity:1;stroke:#000000;stroke-width:1;stroke-linecap:butt;stroke-linejoin:miter;stroke-miterlimit:4;stroke-opacity:1;stroke-dasharray:none"
     id="path3886"
     d="m 100.35402,409.04528 0,-167.19922 11.90802,-0.71453 0,167.91375 -11.90802,0 z" />
  <path
     style="fill:#e2001a;fill-opacity:1;stroke:#000000;stroke-width:1;stroke-linecap:butt;stroke-linejoin:miter;stroke-miterlimit:4;stroke-opacity:1;stroke-dasharray:none"
     id="path3888"
     d="m 150.60587,425.00304 0,-186.49144 14.05146,0 0,186.49144 -14.05146,0 z" />
  <path
     style="fill:#e2001a;fill-opacity:1;stroke:#000000;stroke-width:1;stroke-linecap:butt;stroke-linejoin:miter;stroke-miterlimit:4;stroke-opacity:1;stroke-dasharray:none"
     id="path4302-4"
     d="m 157.29352,369.70097 c 0,0 -103.692268,-4.01321 -103.692268,-21.15771 1.191072,0 2.647027,-0.2556 3.656669,0.32736 0,13.91598 100.141679,16.12864 100.141679,16.12864"
     sodipodi:nodetypes="cccc" />
  <path
     style="fill:none;stroke:#57bde7;stroke-width:3;stroke-linecap:butt;stroke-linejoin:miter;stroke-miterlimit:4;stroke-opacity:1;stroke-dasharray:none"
     id="path4278"
     d="m 189.11338,306.64665 c 0,0 0.9374,-5.17162 5.72536,-5.17162 4.78795,0 5.72535,5.17162 5.72535,5.17162 l 0,43.21996" />
  <path
     style="fill:#e2001a;fill-opacity:1;stroke:#000000;stroke-width:1;stroke-linecap:butt;stroke-linejoin:miter;stroke-miterlimit:4;stroke-opacity:1;stroke-dasharray:none"
     id="path3896"
     d="m 204.237,350.40441 0,82.18678" />
  <g
     style="fill:#57bde7;fill-opacity:1;stroke:#57bde7;stroke-width:1.14461172;stroke-miterlimit:4;stroke-opacity:1;stroke-dasharray:none"
     id="g4679"
     transform="matrix(0.87363096,0,0,0.8736865,-113.44693,-339.98511)">
    <path
       style="fill:#57bde7;fill-opacity:1;stroke:#57bde7;stroke-width:1.18549061;stroke-linecap:round;stroke-linejoin:round;stroke-miterlimit:4;stroke-opacity:1;stroke-dasharray:none"
       id="path4329"
       transform="matrix(0.96551724,0,0,0.96551724,13.180465,24.638824)"
       d="m 364.89306,712.3584 a 2.167535,2.167535 0 1 1 -4.33507,0 2.167535,2.167535 0 1 1 4.33507,0 z" />
    <path
       style="fill:#57bde7;fill-opacity:1;stroke:#57bde7;stroke-width:1.18549061;stroke-linecap:round;stroke-linejoin:round;stroke-miterlimit:4;stroke-opacity:1;stroke-dasharray:none"
       id="path4329-3"
       transform="matrix(0.96551724,0,0,0.96551724,13.180465,30.618215)"
       d="m 364.89306,712.3584 a 2.167535,2.167535 0 1 1 -4.33507,0 2.167535,2.167535 0 1 1 4.33507,0 z" />
  </g>
  <g
     style="fill:#57bde7;fill-opacity:1;stroke:#57bde7;stroke-width:1.14461172;stroke-miterlimit:4;stroke-opacity:1;stroke-dasharray:none"
     id="g4687"
     transform="matrix(0.87363096,0,0,0.8736865,-113.70812,-339.98511)">
    <path
       style="fill:#57bde7;fill-opacity:1;stroke:#57bde7;stroke-width:1.18549061;stroke-linecap:round;stroke-linejoin:round;stroke-miterlimit:4;stroke-opacity:1;stroke-dasharray:none"
       id="path4329-2"
       transform="matrix(0.96551724,0,0,0.96551724,8.3969422,27.777999)"
       d="m 364.89306,712.3584 a 2.167535,2.167535 0 1 1 -4.33507,0 2.167535,2.167535 0 1 1 4.33507,0 z" />
    <path
       style="fill:#57bde7;fill-opacity:1;stroke:#57bde7;stroke-width:1.18549061;stroke-linecap:round;stroke-linejoin:round;stroke-miterlimit:4;stroke-opacity:1;stroke-dasharray:none"
       id="path4329-34"
       transform="matrix(0.96551724,0,0,0.96551724,18.561927,27.777999)"
       d="m 364.89306,712.3584 a 2.167535,2.167535 0 1 1 -4.33507,0 2.167535,2.167535 0 1 1 4.33507,0 z" />
  </g>
  <path
     style="fill:#57bde7;fill-opacity:1;stroke:#57bde7;stroke-width:1;stroke-linecap:round;stroke-linejoin:round;stroke-miterlimit:4;stroke-opacity:1;stroke-dasharray:none"
     id="path4329-38"
     d="m 188.11389,296.17143 a 1.5671411,1.5672407 0 1 1 -3.13428,0 1.5671411,1.5672407 0 1 1 3.13428,0 z" />
  <path
     style="fill:#57bde7;fill-opacity:1;stroke:#57bde7;stroke-width:1;stroke-linecap:round;stroke-linejoin:round;stroke-miterlimit:4;stroke-opacity:1;stroke-dasharray:none"
     id="path4329-38-7"
     d="m 190.72579,293.16755 a 1.56714,1.5672397 0 1 1 -3.13428,0 1.56714,1.5672397 0 1 1 3.13428,0 z" />
  <path
     style="fill:#57bde7;fill-opacity:1;stroke:#57bde7;stroke-width:1;stroke-linecap:round;stroke-linejoin:round;stroke-miterlimit:4;stroke-opacity:1;stroke-dasharray:none"
     id="path4329-38-2"
     d="m 194.51304,291.86152 a 1.5671411,1.5672407 0 1 1 -3.13428,0 1.5671411,1.5672407 0 1 1 3.13428,0 z" />
  <path
     style="fill:#57bde7;fill-opacity:1;stroke:#57bde7;stroke-width:1;stroke-linecap:round;stroke-linejoin:round;stroke-miterlimit:4;stroke-opacity:1;stroke-dasharray:none"
     id="path4329-38-79"
     d="m 198.16969,292.77575 a 1.5671385,1.5672382 0 1 1 -3.13427,0 1.5671385,1.5672382 0 1 1 3.13427,0 z" />
  <path
     style="fill:#57bde7;fill-opacity:1;stroke:#57bde7;stroke-width:1;stroke-linecap:round;stroke-linejoin:round;stroke-miterlimit:4;stroke-opacity:1;stroke-dasharray:none"
     id="path4329-38-1"
     d="m 200.78158,295.51841 a 1.5671385,1.5672382 0 1 1 -3.13427,0 1.5671385,1.5672382 0 1 1 3.13427,0 z" />
  <path
     style="fill:#57bde7;fill-opacity:1;stroke:#57bde7;stroke-width:1;stroke-linecap:round;stroke-linejoin:round;stroke-miterlimit:4;stroke-opacity:1;stroke-dasharray:none"
     id="path4329-38-8"
     d="m 202.21813,299.1753 a 1.5671411,1.5672407 0 1 1 -3.13428,0 1.5671411,1.5672407 0 1 1 3.13428,0 z" />
  <path
     style="fill:#000000;stroke:#000000;stroke-width:1;stroke-linecap:butt;stroke-linejoin:miter;stroke-miterlimit:4;stroke-opacity:1;stroke-dasharray:none"
     id="path3878-2"
     d="m 238.03312,157.99779 0.009,22.50772 -15.24226,-2.50084 0.34831,-23.22225 14.88502,3.21537 z" />
  <path
     style="fill:#e2001a;fill-opacity:1;stroke:#000000;stroke-width:1;stroke-linecap:butt;stroke-linejoin:miter;stroke-miterlimit:4;stroke-opacity:1;stroke-dasharray:none"
     id="path4302-4-1-7"
     d="m 354.45673,348.69115 c 0,-17.1445 -150.96758,-19.06804 -150.96758,-19.06804 0,0 -0.0637,2.12603 0.0591,3.96895 15.67137,-1.04483 147.25176,1.51045 147.25176,15.42645"
     sodipodi:nodetypes="cccs" />
  <path
     style="fill:#e2001a;fill-opacity:1;stroke:#000000;stroke-width:1;stroke-linecap:butt;stroke-linejoin:miter;stroke-miterlimit:4;stroke-opacity:1;stroke-dasharray:none"
     id="path3886-6"
     d="m 307.70397,409.04528 0,-167.19922 -11.90802,-0.71453 0,167.91375 11.90802,0 z" />
  <path
     style="fill:#e2001a;fill-opacity:1;stroke:#000000;stroke-width:1;stroke-linecap:butt;stroke-linejoin:miter;stroke-miterlimit:4;stroke-opacity:1;stroke-dasharray:none"
     id="path3888-0"
     d="m 257.45212,425.00304 0,-186.49144 -14.05146,0 0,186.49144 14.05146,0 z" />
  <path
     style="fill:#e2001a;fill-opacity:1;stroke:#000000;stroke-width:1;stroke-linecap:butt;stroke-linejoin:miter;stroke-miterlimit:4;stroke-opacity:1;stroke-dasharray:none"
     id="path3902-4-2-3-2-2-1-8-8"
     d="m 346.11261,405.78984 -4.61683,-3.64596 -0.21241,-76.85493 2.50288,-1.58952 2.5009,2.30404 -0.17454,79.78637 z" />
  <path
     style="fill:#e2001a;fill-opacity:1;stroke:#000000;stroke-width:1;stroke-linecap:butt;stroke-linejoin:miter;stroke-miterlimit:4;stroke-opacity:1;stroke-dasharray:none"
     id="path3902-4-2-3-2-2-5-9"
     d="m 333.83299,408.05251 -5.05794,-2.6073 -0.23323,-81.80055 2.74105,-1.73155 2.739,2.44607 -0.18888,83.69333 z" />
  <path
     style="fill:#e2001a;fill-opacity:1;stroke:#000000;stroke-width:1;stroke-linecap:butt;stroke-linejoin:miter;stroke-miterlimit:4;stroke-opacity:1;stroke-dasharray:none"
     id="path3902-4-2-3-2-7-3"
     d="m 315.18883,413.53055 6.20832,-1.53429 10e-6,-88.63858 -3.21502,-2.63545 -3.21326,3.34997 0.21995,89.45835 z" />
  <path
     style="fill:#e2001a;fill-opacity:1;stroke:#000000;stroke-width:1;stroke-linecap:butt;stroke-linejoin:miter;stroke-miterlimit:4;stroke-opacity:1;stroke-dasharray:none"
     id="path3902-4-2-3-2-7-6-4"
     d="m 280.1562,393.76146 6.90292,0.13293 0.043,-72.91846 -3.57237,-2.63545 -3.57039,2.63545 0.19689,72.78553 -3e-5,0 z" />
  <path
     style="fill:#e2001a;fill-opacity:1;stroke:#000000;stroke-width:1;stroke-linecap:butt;stroke-linejoin:miter;stroke-miterlimit:4;stroke-opacity:1;stroke-dasharray:none"
     id="path4302-4-8"
     d="m 250.76447,369.83041 c 0,0 103.69226,-4.01321 103.69226,-21.15771 -1.52134,0 -1.28385,0.32736 -3.65667,0.32736 0,13.91598 -100.14167,16.12864 -100.14167,16.12864"
     sodipodi:nodetypes="cccc" />
  <path
     style="fill:#e2001a;fill-opacity:1;stroke:#000000;stroke-width:1;stroke-linecap:butt;stroke-linejoin:miter;stroke-miterlimit:4;stroke-opacity:1;stroke-dasharray:none"
     id="path3902-4-2-3-2-7-6-1-4"
     d="m 264.79482,393.81435 6.90292,0.13292 0.043,-72.91846 -3.57236,-2.63545 -3.5704,2.63545 0.19689,72.78554 -3e-5,0 z" />
  <path
     style="fill:none;stroke:#57bde7;stroke-width:3;stroke-linecap:butt;stroke-linejoin:miter;stroke-miterlimit:4;stroke-opacity:1;stroke-dasharray:none"
     id="path4278-6"
     d="m 218.94461,306.77608 c 0,0 -0.93741,-5.17161 -5.72536,-5.17161 -4.78795,0 -5.72536,5.17161 -5.72536,5.17161 l 0,43.21996" />
  <g
     style="fill:none;stroke:#3db4e5;stroke-width:3.43383503;stroke-miterlimit:4;stroke-opacity:1;stroke-dasharray:none"
     id="g4683"
     transform="matrix(0.87363096,0,0,0.8736865,-113.03769,-339.98511)">
    <path
       style="fill:none;stroke:#3db4e5;stroke-width:3.43383503;stroke-linecap:butt;stroke-linejoin:miter;stroke-miterlimit:4;stroke-opacity:1;stroke-dasharray:none"
       id="path4278-5"
       d="m 337.82329,728.49153 c 0,0 2.05946,-9.9193 12.57852,-9.9193 10.51907,0 12.57853,9.9193 12.57853,9.9193 l 0,61.4685" />
    <path
       style="fill:none;stroke:#3db4e5;stroke-width:3.43383503;stroke-linecap:butt;stroke-linejoin:miter;stroke-miterlimit:4;stroke-opacity:1;stroke-dasharray:none"
       id="path4278-5-1"
       d="m 388.03625,728.63968 c 0,0 -2.05946,-9.9193 -12.57852,-9.9193 -10.51907,0 -12.57853,9.9193 -12.57853,9.9193 l 0,61.4685" />
  </g>
  <path
     style="fill:#57bde7;fill-opacity:1;stroke:#57bde7;stroke-width:1;stroke-linecap:round;stroke-linejoin:round;stroke-miterlimit:4;stroke-opacity:1;stroke-dasharray:none"
     id="path4329-38-3"
     d="m 219.9441,296.30086 a 1.56714,1.5672397 0 1 0 3.13428,0 1.56714,1.5672397 0 1 0 -3.13428,0 z" />
  <path
     style="fill:#57bde7;fill-opacity:1;stroke:#57bde7;stroke-width:1;stroke-linecap:round;stroke-linejoin:round;stroke-miterlimit:4;stroke-opacity:1;stroke-dasharray:none"
     id="path4329-38-7-7"
     d="m 217.3322,293.29699 a 1.5671385,1.5672382 0 1 0 3.13427,0 1.5671385,1.5672382 0 1 0 -3.13427,0 z" />
  <path
     style="fill:#57bde7;fill-opacity:1;stroke:#57bde7;stroke-width:1;stroke-linecap:round;stroke-linejoin:round;stroke-miterlimit:4;stroke-opacity:1;stroke-dasharray:none"
     id="path4329-38-2-8"
     d="m 213.54496,291.99096 a 1.5671385,1.5672382 0 1 0 3.13427,0 1.5671385,1.5672382 0 1 0 -3.13427,0 z" />
  <path
     style="fill:#57bde7;fill-opacity:1;stroke:#57bde7;stroke-width:1;stroke-linecap:round;stroke-linejoin:round;stroke-miterlimit:4;stroke-opacity:1;stroke-dasharray:none"
     id="path4329-38-79-8"
     d="m 209.88831,292.90518 a 1.5671385,1.5672382 0 1 0 3.13427,0 1.5671385,1.5672382 0 1 0 -3.13427,0 z" />
  <path
     style="fill:#57bde7;fill-opacity:1;stroke:#57bde7;stroke-width:1;stroke-linecap:round;stroke-linejoin:round;stroke-miterlimit:4;stroke-opacity:1;stroke-dasharray:none"
     id="path4329-38-1-2"
     d="m 207.2764,295.64785 a 1.56714,1.5672397 0 1 0 3.13428,0 1.56714,1.5672397 0 1 0 -3.13428,0 z" />
  <path
     style="fill:#57bde7;fill-opacity:1;stroke:#57bde7;stroke-width:1;stroke-linecap:round;stroke-linejoin:round;stroke-miterlimit:4;stroke-opacity:1;stroke-dasharray:none"
     id="path4329-38-8-9"
     d="m 205.83986,299.30474 a 1.56714,1.5672397 0 1 0 3.13428,0 1.56714,1.5672397 0 1 0 -3.13428,0 z" />
  <path
     style="fill:#e2001a;fill-opacity:1;stroke:#000000;stroke-width:1;stroke-linecap:butt;stroke-linejoin:miter;stroke-miterlimit:4;stroke-opacity:1;stroke-dasharray:none"
     id="path3902-4-2-3"
     d="m 117.76028,429.71613 -9.42786,-0.7624 -1e-5,-92.18741 4.88228,-2.71661 4.87883,3.66757 -0.33324,91.99885 z" />
  <path
     style="fill:#e2001a;fill-opacity:1;stroke:#000000;stroke-width:1;stroke-linecap:butt;stroke-linejoin:miter;stroke-miterlimit:4;stroke-opacity:1;stroke-dasharray:none"
     id="path3902-4-2"
     d="m 143.07508,434.67775 -10.80755,-0.79467 -1e-5,-96.08915 5.59676,-2.83158 5.59675,2.83158 -0.38595,96.88382 z" />
  <path
     style="fill:#e2001a;fill-opacity:1;stroke:#000000;stroke-width:1;stroke-linecap:butt;stroke-linejoin:miter;stroke-miterlimit:4;stroke-opacity:1;stroke-dasharray:none"
     id="path3902-4"
     d="m 169.69157,437.13965 -12.41719,-0.79467 -1e-5,-98.0747 6.43032,-2.83158 6.43031,2.83158 -0.44343,98.86937 z" />
  <path
     style="fill:#e2001a;fill-opacity:1;stroke:#000000;stroke-width:1;stroke-linecap:butt;stroke-linejoin:miter;stroke-miterlimit:4;stroke-opacity:1;stroke-dasharray:none"
     id="path3902-4-5"
     d="m 238.36642,437.26909 12.41719,-0.79467 1e-5,-98.0747 -6.43032,-2.83159 -6.43032,2.83159 0.44344,98.86937 z" />
  <path
     style="fill:#e2001a;fill-opacity:1;stroke:#000000;stroke-width:1;stroke-linecap:butt;stroke-linejoin:miter;stroke-miterlimit:4;stroke-opacity:1;stroke-dasharray:none"
     id="path3902-4-2-0"
     d="m 264.98291,434.80719 10.80755,-0.79467 0,-96.08915 -5.59675,-2.83159 -5.59676,2.83159 0.38596,96.88382 z" />
  <path
     style="fill:#e2001a;fill-opacity:1;stroke:#000000;stroke-width:1;stroke-linecap:butt;stroke-linejoin:miter;stroke-miterlimit:4;stroke-opacity:1;stroke-dasharray:none"
     id="path3902-4-2-3-9"
     d="m 290.29771,429.84556 9.42786,-0.76239 10e-6,-92.18742 -4.88228,-2.7166 -4.87883,3.66757 0.33324,91.99884 z" />
  <path
     style="fill:#e2001a;fill-opacity:1;stroke:#000000;stroke-width:1;stroke-linecap:butt;stroke-linejoin:miter;stroke-miterlimit:4;stroke-opacity:1;stroke-dasharray:none"
     id="path3902-4-2-3-2-0"
     d="m 313.55531,424.72481 7.12838,-1.53429 0,-88.63858 -3.69147,-2.63545 -3.68945,3.34997 0.25254,89.45835 z" />
  <path
     style="fill:#e2001a;fill-opacity:1;stroke:#000000;stroke-width:1;stroke-linecap:butt;stroke-linejoin:miter;stroke-miterlimit:4;stroke-opacity:1;stroke-dasharray:none"
     id="path3902-4-2-3-2-2-0"
     d="m 328.28841,418.53223 5.93721,-2.6073 0.27377,-81.80055 -3.21755,-1.73155 -3.21514,2.44607 0.22171,83.69333 z" />
  <path
     style="fill:#e2001a;fill-opacity:1;stroke:#000000;stroke-width:1;stroke-linecap:butt;stroke-linejoin:miter;stroke-miterlimit:4;stroke-opacity:1;stroke-dasharray:none"
     id="path3902-4-2-3-2-2-1-61"
     d="m 341.61975,412.57784 5.71556,-3.64595 0.26295,-76.85494 -3.09851,-1.58952 -3.09607,2.30404 0.21607,79.78637 z" />
  <path
     style="fill:#e2001a;fill-opacity:1;stroke:#000000;stroke-width:1;stroke-linecap:butt;stroke-linejoin:miter;stroke-miterlimit:4;stroke-opacity:1;stroke-dasharray:none"
     id="path3902-4-2-3-2-2-1-6-3"
     d="m 350.95941,404.83714 3.95761,-3.43439 0.18207,-72.39522 -2.14549,-1.49729 -2.14381,2.17034 0.14962,75.15656 z" />
  <path
     style="fill:#e2001a;fill-opacity:1;stroke:#000000;stroke-width:1;stroke-linecap:butt;stroke-linejoin:miter;stroke-miterlimit:4;stroke-opacity:1;stroke-dasharray:none"
     id="path3902-4-2-3-2-2-1-6"
     d="m 57.098571,404.70771 -3.957609,-3.43439 -0.182074,-72.39523 2.145499,-1.49729 2.143803,2.17034 -0.149618,75.15657 z" />
  <path
     style="fill:#e2001a;fill-opacity:1;stroke:#000000;stroke-width:1;stroke-linecap:butt;stroke-linejoin:miter;stroke-miterlimit:4;stroke-opacity:1;stroke-dasharray:none"
     id="path3902-4-2-3-2-2-1"
     d="m 66.438228,412.4484 -5.715556,-3.64595 -0.262954,-76.85493 3.098515,-1.58953 3.09607,2.30404 -0.216075,79.78637 z" />
  <path
     style="fill:#e2001a;fill-opacity:1;stroke:#000000;stroke-width:1;stroke-linecap:butt;stroke-linejoin:miter;stroke-miterlimit:4;stroke-opacity:1;stroke-dasharray:none"
     id="path3902-4-2-3-2-2"
     d="m 79.769575,418.4028 -5.937213,-2.6073 -0.27377,-81.80055 3.217547,-1.73155 3.215146,2.44607 -0.22171,83.69333 z" />
  <path
     style="fill:#e2001a;fill-opacity:1;stroke:#000000;stroke-width:1;stroke-linecap:butt;stroke-linejoin:miter;stroke-miterlimit:4;stroke-opacity:1;stroke-dasharray:none"
     id="path3902-4-2-3-2"
     d="m 94.50267,424.59537 -7.128374,-1.53429 -9e-6,-88.63858 3.691475,-2.63545 3.689448,3.34997 -0.25254,89.45835 z" />
  <g
     style="stroke-width:1;stroke-miterlimit:4;stroke-dasharray:none"
     id="g4772"
     transform="matrix(0.87363096,0,0,0.8736865,-113.03769,-339.98511)">
    <path
       style="fill:#ffec00;fill-opacity:1;stroke:#000000;stroke-width:2.28922343;stroke-linecap:butt;stroke-linejoin:miter;stroke-miterlimit:4;stroke-opacity:1;stroke-dasharray:none"
       id="path3892"
       d="m 362.9375,790.25 c -12.53031,0.32016 -25.59375,-10.46875 -25.59375,-10.46875 l -15.8125,18.53125 c 0,0 3.22282,7.92465 3.09375,15.03125 -0.12907,7.1066 -9.15577,17.34569 -8.09375,34.3125 1.06202,16.9668 18.07494,31.62095 25.8125,32.375 7.73756,0.75405 14.61793,0.0797 20.625,5.53125 5.26233,-5.79858 13.14814,-4.47193 20.53125,-5.375 7.38311,-0.90307 24.78173,-15.43945 25.84375,-32.40625 1.06202,-16.96681 -7.96468,-27.2059 -8.09375,-34.3125 -0.12907,-7.1066 3.09375,-15.03125 3.09375,-15.03125 l -15.8125,-18.5 c 0,0 -13.06344,9.99234 -25.59375,10.3125 z" />
    <path
       style="fill:#000000;fill-opacity:1;stroke:#000000;stroke-width:1.14461172;stroke-linecap:butt;stroke-linejoin:miter;stroke-miterlimit:4;stroke-opacity:1;stroke-dasharray:none"
       id="path3898"
       d="m 331.35725,831.27561 -6.40633,-5.86111 13.22158,-14.17572 0.23365,-5.60521 3.37149,-0.1808 0.53686,2.16417 13.30503,-13.55257 4.22545,3.81653 -5.17959,7.22416 4.08915,1.36305 -2.04457,2.86241 -5.4522,0.1363 -9.81395,10.76809 2.31718,1.22674 -1.90827,2.99871 -3.8249,0.008 -6.67058,6.80689 z" />
    <path
       style="fill:#000000;fill-opacity:1;stroke:#000000;stroke-width:1.14461172;stroke-linecap:butt;stroke-linejoin:miter;stroke-miterlimit:4;stroke-opacity:1;stroke-dasharray:none"
       id="path3900"
       d="m 374.42961,829.50364 c -0.42281,-0.84562 -0.27261,-6.10309 -0.27261,-8.01419 0,-1.91111 -6.02608,-8.34388 -6.13372,-13.38568 -0.10764,-5.04181 19.7642,-8.3146 19.08268,-20.44574 10.35917,11.31331 -11.5803,16.8533 -9.26873,19.3553 2.31157,2.502 14.72093,-4.63437 15.94767,-9.67765 5.04328,11.0407 -12.98488,13.88892 -12.40374,14.72093 0.58114,0.83201 5.04328,2.86241 14.85723,-4.63436 1.36305,9.54134 -15.81137,8.1783 -15.81137,9.40504 0,1.22674 3.68023,4.77067 14.44832,-1.77197 -0.68152,10.08656 -14.5935,5.70564 -14.31201,6.81525 0.28785,1.13468 3.68023,2.31718 8.04199,1.49936 -0.54522,3.40762 -9.40504,2.9987 -9.40504,2.9987 0,0 -1.07135,2.76326 -2.04458,3.27132 -0.97323,0.50806 -2.17482,0.96624 -2.72609,-0.13631 z" />
    <path
       style="fill:#000000;fill-opacity:1;stroke:#000000;stroke-width:1.14461172;stroke-linecap:butt;stroke-linejoin:miter;stroke-miterlimit:4;stroke-opacity:1;stroke-dasharray:none"
       id="path3898-7"
       d="m 374.0737,875.01826 -6.27577,-5.48869 12.38647,-13.89319 0.10359,-5.38598 3.23248,-0.24615 0.56193,2.06602 12.47999,-13.29679 4.13827,3.57287 -4.81645,7.04663 3.9546,1.22048 -1.901,2.7919 -5.23074,0.24823 -9.18877,10.54856 2.25072,1.12776 -1.76722,2.91982 -3.67143,0.0903 -6.25667,6.67815 z" />
    <path
       style="fill:#000000;fill-opacity:1;stroke:#000000;stroke-width:1.14461172;stroke-linecap:butt;stroke-linejoin:miter;stroke-miterlimit:4;stroke-opacity:1;stroke-dasharray:none"
       id="path3900-9"
       d="m 337.26133,875.35083 c -0.38028,-0.76154 -0.24519,-5.49626 -0.24519,-7.21734 0,-1.72109 -5.41999,-7.51426 -5.5168,-12.05476 -0.0968,-4.54051 17.77635,-7.48789 17.16338,-18.41284 9.31726,10.18844 -10.41558,15.17759 -8.3365,17.43082 2.07908,2.25323 13.24033,-4.17358 14.34368,-8.71541 4.53604,9.94293 -11.67888,12.50796 -11.15619,13.25724 0.52269,0.74929 4.53604,2.57781 13.36292,-4.17357 1.22595,8.59266 -14.2211,7.36514 -14.2211,8.46991 0,1.10477 3.31008,4.29633 12.99514,-1.59579 -0.61297,9.08367 -13.12571,5.13834 -12.87254,6.13762 0.2589,1.02186 3.31008,2.08679 7.23315,1.35028 -0.49039,3.06881 -8.4591,2.70054 -8.4591,2.70054 0,0 -0.9636,2.48852 -1.83894,2.94606 -0.87535,0.45754 -1.95608,0.87017 -2.45191,-0.12276 z" />
    <path
       style="fill:#e2001a;fill-opacity:1;stroke:#000000;stroke-width:2.28922343;stroke-linecap:butt;stroke-linejoin:miter;stroke-miterlimit:4;stroke-opacity:1;stroke-dasharray:none"
       id="path3896-4"
       d="m 362.69167,790.35094 0,94.06896" />
    <path
       style="fill:#e2001a;fill-opacity:1;stroke:#000000;stroke-width:2.28922343;stroke-linecap:butt;stroke-linejoin:miter;stroke-miterlimit:4;stroke-opacity:1;stroke-dasharray:none"
       id="path3894"
       d="m 318.44656,835.30962 89.44262,0" />
  </g>
</svg>
