<?xml version="1.0" encoding="UTF-8" standalone="no"?>
<!-- Creator: CorelDRAW -->
<svg
   xmlns:dc="http://purl.org/dc/elements/1.1/"
   xmlns:cc="http://web.resource.org/cc/"
   xmlns:rdf="http://www.w3.org/1999/02/22-rdf-syntax-ns#"
   xmlns:svg="http://www.w3.org/2000/svg"
   xmlns="http://www.w3.org/2000/svg"
   xmlns:sodipodi="http://sodipodi.sourceforge.net/DTD/sodipodi-0.dtd"
   xmlns:inkscape="http://www.inkscape.org/namespaces/inkscape"
   xml:space="preserve"
   width="744.09473"
   height="897.54095"
   style="shape-rendering:geometricPrecision; text-rendering:geometricPrecision; image-rendering:optimizeQuality; fill-rule:evenodd; clip-rule:evenodd"
   viewBox="0 0 210 297"
   id="svg2"
   sodipodi:version="0.32"
   inkscape:version="0.45.1"
   sodipodi:docname="POL gmina Kamiennik COA.svg"
   inkscape:output_extension="org.inkscape.output.svg.inkscape"
   sodipodi:docbase="C:\Users\Mistrz\Desktop"
   version="1.0"><metadata
   id="metadata71"><rdf:RDF><cc:Work
       rdf:about=""><dc:format>image/svg+xml</dc:format><dc:type
         rdf:resource="http://purl.org/dc/dcmitype/StillImage" /></cc:Work></rdf:RDF></metadata><sodipodi:namedview
   inkscape:window-height="480"
   inkscape:window-width="640"
   inkscape:pageshadow="2"
   inkscape:pageopacity="0.0"
   guidetolerance="10.0"
   gridtolerance="10.0"
   objecttolerance="10.0"
   borderopacity="1.0"
   bordercolor="#666666"
   pagecolor="#ffffff"
   id="base" />
 <defs
   id="defs4">
  <style
   type="text/css"
   id="style6">
   
    .fil0 {fill:#0A0B0C}
    .fil2 {fill:#18801F}
    .fil1 {fill:#C0051D}
    .fil5 {fill:#FFC900}
    .fil3 {fill:#0A0B0C;fill-rule:nonzero}
    .fil4 {fill:white;fill-rule:nonzero}
   
  </style>
 </defs>
 <g
   id="Warstwa_x0020_1"
   transform="matrix(1.1723456,0,0,1.1723456,-18.112005,-25.574761)">
  <metadata
   id="CorelCorpID_0Corel-Layer" />
  <g
   id="_74359264">
   <path
   id="_74571760"
   class="fil0"
   d="M 0,21.8473 L 209.926,21.8473 C 209.926,52.1715 209.8755,113.4346 209.8755,143.7623 C 212.6135,215.2883 169.9823,257.7443 105.2165,275.1533 C 44.972,258.4856 1.5955,216.7651 0.0005,151.9153 L 0.0005,21.8473 L 0,21.8473 z "
   style="fill:#0a0b0c" />
   <path
   id="_74571688"
   class="fil1"
   d="M 105.544,26.9652 L 205.594,26.9652 C 205.594,56.135 205.5456,115.0658 205.5456,144.2382 C 208.4239,212.0069 167.8654,252.2552 105.5436,270.5212 L 105.5436,26.9652 L 105.544,26.9652 z "
   style="fill:#c0051d" />
   <path
   id="_74571616"
   class="fil2"
   d="M 4.3001,26.9652 L 105.5441,26.9652 L 105.5441,270.5212 C 105.4255,270.5559 105.3086,270.5924 105.1899,270.627 C 48.4574,254.5939 7.5101,214.4615 4.2999,152.081 L 4.2999,26.965 L 4.3001,26.9652 z "
   style="fill:#18801f" />
   <path
   id="_74571544"
   class="fil0"
   d="M 52.5679,128.471 C 52.5679,127.2867 52.4915,124.4906 52.379,123.6946 C 52.006,121.0551 50.2177,120.9462 47.7731,120.0941 C 43.1086,118.4682 40.0898,115.2724 37.6673,110.7786 C 36.4269,108.4775 35.3247,105.8446 34.5839,102.5598 L 25.772,63.4963 C 25.1334,60.6649 25.9013,57.9052 29.3454,57.2392 C 46.3188,53.957 75.0301,53.8941 90.3763,56.7157 C 97.6085,58.0455 98.7325,59.1554 96.9974,66.4634 L 88.8419,100.8106 C 88.1042,103.9177 87.1166,106.5306 86.046,109.5349 C 84.9733,112.5447 84.1847,113.7947 80.6132,116.6127 C 78.3046,118.4343 75.1086,120.2962 70.8387,122.4431 C 70.683,123.6972 70.8219,126.1833 70.6258,127.4506 C 70.531,128.0636 70.9438,128.5118 71.4042,128.9275 C 72.5263,129.941 72.81,131.0449 71.5114,131.9607 C 71.0077,132.3159 70.8629,132.9936 72.3803,133.1761 C 73.1915,133.7148 74.3744,133.4767 75.3045,132.9287 C 76.7005,132.1062 78.2814,132.9501 79.3731,133.1585 L 80.1839,132.6947 L 82.1303,135.536 L 85.8299,134.83 L 89.2239,142.6872 L 86.1298,150.5699 L 80.9585,150.466 C 80.8155,150.8617 80.2774,152.4407 79.5591,152.7526 C 76.4287,151.0998 76.6139,152.6674 74.6349,152.7216 C 73.0468,152.765 72.1733,151.2105 69.2263,151.9346 C 68.8319,152.3478 68.4777,153.5543 69.7376,154.36 C 70.888,155.0959 70.7597,156.3081 69.7671,157.0775 C 69.2587,162.353 70.3516,169.7679 72.3815,174.5999 C 73.813,178.0072 75.3615,180.6008 77.7981,182.6505 L 85.5385,184.3882 L 87.4916,185.7692 C 89.9015,186.4628 96.715,187.1919 96.1273,189.222 C 97.651,189.6574 98.218,190.299 98.7398,190.933 C 99.2202,191.5169 99.6546,192.0614 100.2243,192.4996 C 101.1577,193.2177 102.1175,193.5667 103.0291,194.2809 C 104.1982,195.1968 104.6463,196.2161 103.1933,197.138 C 103.4307,197.4224 103.9828,197.865 104.3561,198.3478 C 104.7935,198.9133 105.2852,199.9772 104.4095,200.4563 C 98.853,203.4977 88.9804,203.7324 84.3126,204.0563 C 80.4722,206.3147 72.2748,207.5312 60.5902,207.75 C 51.0883,207.9279 43.5186,206.5842 37.2962,204.0984 C 32.1757,204.4338 20.1412,202.8504 18.2723,200.3523 C 17.16,198.8655 19.933,197.1461 20.4199,197.1599 C 18.5867,195.9585 19.0801,194.6232 20.2913,193.7847 C 21.2581,193.1153 22.7127,192.7757 23.7221,192.6788 C 23.9978,190.9843 25.4336,190.024 26.536,189.6014 C 27.3464,188.1713 27.9826,187.5343 29.3811,187.2949 C 31.1056,186.9996 33.7168,186.2612 35.7337,186.1043 L 37.5498,184.6973 C 40.1959,184.2301 43.2403,183.3647 46.4655,182.3184 C 48.7055,179.7095 50.4249,176.3543 51.4187,172.3713 C 52.4591,168.2019 53.0555,163.3031 53.6695,157.8107 C 52.8777,157.349 51.917,156.3026 52.6102,155.4478 C 53.1292,154.8081 53.6515,154.3151 54.0108,153.5602 C 54.7863,151.9307 53.6741,151.548 52.0658,152.0391 C 50.5903,152.4895 48.944,153.4672 47.4241,152.6094 C 46.6449,152.17 46.4028,152.0488 45.4307,152.2076 C 44.5961,152.344 43.7027,152.5865 43.0752,152.4416 L 41.7111,150.452 L 37.1048,151.2682 L 33.2183,143.416 L 36.9884,135.5688 L 40.9249,135.7988 L 42.6353,132.9043 L 43.9215,133.2857 C 44.7554,132.1182 47.2358,132.9503 48.3362,133.2975 C 50.2698,133.908 51.9534,132.9104 51.9729,131.9867 C 49.5441,131.0437 51.2743,128.7685 52.5679,128.471 z "
   style="fill:#0a0b0c" />
   <g
   id="g15">
    <path
   id="_74571472"
   class="fil3"
   d="M 192.482,86.7121 C 192.0542,86.8141 191.4465,86.9109 190.9519,86.7217 C 190.9176,86.6486 190.6709,86.4999 190.6766,86.1737 C 190.6778,86.1025 190.6798,85.9932 190.7179,85.8844 C 190.7642,85.2709 191.1303,84.6261 191.7188,83.5494 L 192.6022,81.8998 C 193.6318,79.8172 194.1523,78.5587 194.3142,77.4766 C 194.5137,76.2125 194.6407,75.0935 194.6571,74.1506 L 194.6628,73.8264 C 194.6462,72.7392 194.037,70.8836 193.309,69.7834 C 192.6504,68.8313 191.8875,67.8404 190.4069,67.054 C 188.6816,66.0463 187.2221,66.1283 186.0843,66.1816 L 186.0118,66.2172 C 184.7296,66.2674 183.2994,66.7499 181.6481,67.6617 C 180.2109,68.5047 179.3001,69.6851 178.2101,71.0773 L 177.9934,71.2904 C 177.7747,71.6135 177.5205,71.8965 177.3349,72.2564 C 177.4855,71.8622 177.7448,71.2498 177.7448,71.2498 L 178.3022,69.9189 C 178.9332,68.3381 178.9604,66.781 178.9768,65.8407 C 178.9945,64.8272 178.7407,63.0484 178.5054,62.2494 C 178.2377,61.4109 177.654,60.1332 177.207,59.2942 L 175.8585,57.0968 L 175.2685,56.2184 C 174.6111,55.1932 172.8793,52.5205 172.4011,51.3521 C 171.9586,50.2594 171.198,47.0605 170.9627,46.2595 C 170.8622,45.8602 170.7731,44.9181 170.6771,44.2632 L 170.2113,40.3451 L 169.1501,44.0929 L 168.7639,45.8948 L 167.9137,49.755 C 167.6068,51.0172 167.1658,51.8776 166.6504,52.8824 C 166.3549,53.4915 165.5496,54.745 164.8556,55.8198 L 163.906,57.2876 C 163.3556,58.2193 162.5492,59.5795 161.7776,61.1236 C 161.0041,62.6314 160.8613,64.6564 160.8405,65.8504 L 160.8361,66.1041 C 160.847,67.5155 161.2114,69.0062 161.9942,71.0843 C 161.9942,71.0843 162.2002,71.4854 162.3025,71.7772 C 161.6432,70.7519 160.8765,69.9416 160.1779,69.242 C 159.1995,68.2474 158.2179,67.3964 156.4481,66.8956 C 154.5373,66.3547 152.7618,66.2875 151.2248,66.6969 C 149.9389,66.9988 148.5736,67.845 147.5954,68.8786 C 146.6528,69.9465 145.9906,71.1293 145.7536,72.5027 C 145.6335,73.1875 145.5529,73.8373 145.5415,74.4903 C 145.5226,75.5743 145.6447,76.664 145.9462,77.7904 C 146.3411,79.5717 146.9616,80.7769 147.4074,81.6891 L 147.7513,82.3113 L 148.3356,83.5159 C 148.7476,84.3569 149.2963,85.4145 149.4311,85.9244 C 149.531,86.2524 149.5615,86.543 149.5584,86.7235 L 149.5546,86.9403 C 149.4122,87.011 149.1592,87.2234 149.0175,87.2572 L 148.5515,87.3565 C 148.268,87.3885 147.4905,87.0868 146.462,86.8863 C 146.1092,86.8096 142.6504,85.2642 141.8043,84.8869 L 143.1997,86.4319 C 143.3746,86.5787 147.6029,90.8156 148.763,91.5603 C 149.9582,92.3411 150.5239,92.5685 151.2677,92.764 C 151.8328,92.9176 152.7564,93.08 153.7189,92.9505 C 154.6094,92.8224 155.252,92.6167 156.0866,91.7244 C 156.8468,90.9407 157.2516,90.1166 157.854,88.2452 C 158.417,86.5881 158.7424,86.1963 159.3228,85.5895 C 159.8662,85.0216 160.4745,84.7422 161.2576,84.7559 C 162.1457,84.7714 162.6739,85.0706 162.9918,85.2568 C 163.377,85.5535 163.7617,85.9939 164.1419,86.5806 C 164.4184,87.0561 164.69,87.8208 164.7548,88.0757 L 164.7879,88.2569 C 164.5692,88.5431 164.4911,88.9392 164.4854,89.2654 C 164.4816,89.4822 164.5109,89.8439 164.6495,90.1363 C 163.4609,90.8756 162.6951,92.0935 162.671,93.47 C 162.6464,94.8808 163.4042,96.1984 164.5644,96.9424 L 164.7418,97.053 L 164.7774,97.0536 C 164.738,97.2698 164.7342,97.4866 164.733,97.5597 C 164.7273,97.8859 164.8558,98.6125 165.597,98.9517 L 165.194,99.6684 C 165.0835,99.8471 164.4669,100.597 164.1409,100.8813 C 163.8523,101.0931 162.9936,101.4756 161.9612,101.4938 C 161.1425,101.4795 160.8628,101.3309 160.3002,100.9217 L 160.1584,100.8118 C 159.6689,100.4401 158.8348,99.2674 158.3153,98.4614 L 158.0725,98.0966 C 157.2421,96.8508 155.932,96.4648 155.5074,96.348 C 154.8367,96.1194 153.5165,96.3132 152.8738,96.4846 C 152.3379,96.6196 151.2218,97.4702 150.6434,97.9669 C 150.0313,98.4605 148.0069,100.3096 148.0069,100.3096 C 148.6864,100.0677 151.5767,99.465 151.8272,99.3988 C 152.1857,99.2957 152.7896,99.2693 153.2835,99.4948 C 153.5308,99.6092 153.67,99.721 153.698,100.1552 L 153.733,100.229 C 153.7292,100.4458 153.6504,100.8419 153.5005,101.3461 L 153.3048,102.3934 L 153.2241,102.8989 C 153.0297,103.873 152.8353,104.7377 152.8532,105.788 C 152.8324,106.982 153.0008,107.6019 153.2673,108.5109 C 153.6412,109.6024 154.4123,110.269 155.324,110.9718 C 156.4473,111.7889 158.2933,111.9279 159.1483,111.9066 C 160.1087,111.8891 161.108,111.6871 162.0773,111.1628 C 162.9374,110.7421 163.8444,109.7805 164.8518,109.0031 C 164.4851,109.7204 163.8172,111.3375 163.8014,112.2416 L 163.7881,113.0014 C 163.8366,114.1966 164.2791,115.3281 164.6924,116.2034 L 165.8642,118.3245 L 166.5871,119.6047 C 167.104,120.5549 167.5821,121.6845 167.9872,122.9222 C 168.3242,124.0519 169.1847,127.6863 169.184,127.7232 L 169.7799,130.3392 L 170.855,125.6879 C 171.0151,124.7494 171.2432,123.886 171.6569,122.5525 C 171.8844,121.7227 172.2879,121.0792 172.7652,120.2194 L 173.2425,119.3577 L 174.2695,117.5669 L 174.9293,116.3821 C 175.5921,115.1624 175.8571,114.119 175.9434,113.2867 C 175.9828,113.1074 175.986,112.9268 175.9898,112.7075 C 176.0075,111.696 175.7423,110.5682 175.6087,110.0952 C 175.5407,109.8772 175.4402,109.6216 175.266,109.2923 C 175.547,109.5141 175.7918,109.7721 176.109,109.9945 C 177.2648,110.9922 178.0409,111.3683 178.854,111.5631 C 179.8813,111.8348 180.9136,111.7816 181.5543,111.7196 L 181.6624,111.6853 C 182.4112,111.5889 182.8746,111.5258 184.0575,110.9664 C 185.0974,110.4777 186.3635,109.1617 186.7086,107.7539 C 186.8267,107.1785 186.948,106.2375 186.9632,105.3696 C 186.9745,104.7192 186.916,104.1013 186.7812,103.5921 C 186.614,103.0454 186.1135,101.1185 186.0161,100.5394 C 186.018,100.4294 185.9856,100.3556 185.9875,100.2489 C 185.9913,100.0314 186.0669,99.6696 186.2156,99.3822 C 186.3224,99.3135 186.824,99.1028 187.0032,99.1059 L 190.6628,99.1698 L 189.3659,98.1703 C 189.1904,98.0597 188.2438,97.3188 187.7829,97.0939 C 187.3958,96.9046 186.4092,96.3805 185.5942,96.2957 C 184.6693,96.2064 184.0267,96.4121 183.487,96.7289 C 182.7338,97.077 182.2628,97.6119 181.755,98.1468 L 180.7343,99.5765 L 180.4438,100.042 C 180.1152,100.47 179.7529,100.7906 179.0334,101.2849 C 178.4588,101.6724 177.8537,101.6618 176.8969,101.4645 C 176.1894,101.2722 175.6986,100.8293 175.3839,100.4975 L 175.2803,100.3856 C 175.1061,100.2026 174.689,99.581 174.2726,98.9937 C 174.8847,98.6412 174.9648,98.0283 174.9698,97.7384 C 174.9711,97.6652 174.9749,97.4484 174.9431,97.231 L 175.0867,97.2335 L 175.2653,97.1292 C 176.4508,96.4261 177.2567,95.1358 177.2813,93.725 C 177.3053,92.3485 176.5455,90.9965 175.3848,90.2868 C 175.4978,90.0014 175.5391,89.6752 175.5429,89.4584 C 175.5493,89.0953 175.485,88.6605 175.0991,88.2925 L 175.5827,87.1778 C 175.8738,86.7122 176.536,85.5294 176.6803,85.3513 C 176.9708,85.0301 177.4393,84.6752 177.8327,84.6115 C 178.3311,84.4739 178.9025,84.3764 179.6094,84.6056 C 180.2121,84.7598 180.7715,85.2402 181.221,85.9718 C 181.6024,86.5954 181.874,87.3607 182.1404,88.306 L 182.5798,89.5812 C 183.2945,91.4386 184.4235,92.0384 185.2346,92.3432 C 186.1889,92.6835 187.9312,92.7139 188.9686,92.4084 C 189.8979,92.0977 191.014,91.2859 191.8423,90.7204 L 192.3826,90.3666 C 193.029,89.9442 196.8185,86.8241 196.9615,86.7172 L 198.984,84.9807 C 198.0191,85.2538 192.9454,86.6471 192.482,86.7121 L 192.482,86.7121 z "
   style="fill:#0a0b0c;fill-rule:nonzero" />
    <path
   id="_74571400"
   class="fil4"
   d="M 166.527,82.3128 C 166.527,82.3128 165.8127,78.5366 165.1654,76.7878 C 164.5212,75.0015 163.4276,72.5212 162.7822,70.808 C 162.065,69.0943 161.5938,67.5654 161.6191,66.1177 C 161.6081,64.7063 161.8177,62.8255 162.4824,61.499 C 163.146,60.1337 163.8425,58.9146 164.6096,57.7336 C 165.3056,56.5514 166.8761,54.2244 167.3915,53.2216 C 167.9057,52.2873 168.3124,51.3538 168.6587,49.9117 C 169.0367,48.544 169.3506,46.8819 169.5443,46.0541 C 169.7,45.2599 169.93,44.2864 169.93,44.2864 C 169.93,44.2864 169.9391,45.8079 170.1057,46.4251 C 170.3054,47.1886 171.1747,50.4632 171.6859,51.6296 C 172.1621,52.8692 173.6874,55.2133 174.5864,56.6409 C 175.5216,58.0684 176.0766,58.9113 176.5255,59.6797 C 176.9375,60.4838 177.5192,61.7253 177.7221,62.4525 C 177.9555,63.2173 178.1762,64.9586 178.1611,65.8264 C 178.1453,66.7305 178.1206,68.1439 177.5252,69.6179 C 176.966,71.0556 176.0769,73.1757 175.5151,74.7597 C 174.9547,76.2686 174.3904,78.0332 174.0472,79.441 C 173.7365,80.9199 173.389,82.4326 173.389,82.4326 C 173.389,82.4326 175.429,77.6538 176.0194,76.4697 C 176.6067,75.3199 177.4245,73.3086 178.5883,71.8083 C 179.7539,70.3074 180.6622,69.1658 182.0262,68.392 C 183.3929,67.5828 184.7531,67.0284 186.0346,66.9776 C 187.1725,66.9612 188.4546,66.8762 190.075,67.7356 C 191.2714,68.444 191.9695,69.2168 192.6262,70.2421 C 193.3205,71.2317 193.8604,72.9424 193.8801,73.8496 C 193.8968,74.9712 193.6929,76.3445 193.4985,77.3529 C 193.3784,78.1846 193.0023,79.2993 191.8628,81.4875 C 190.7557,83.7495 190.0635,84.7149 189.9384,85.7271 C 189.8152,86.7387 190.0892,87.3578 190.5139,87.4384 C 191.009,87.5933 191.6117,87.6375 192.2562,87.4688 C 192.8614,87.3719 196.3644,86.3824 196.3644,86.3824 C 196.3644,86.3824 192.5787,89.2851 191.9329,89.6713 C 191.2833,90.1306 189.8055,91.2648 188.7338,91.6067 C 187.8738,91.9186 186.275,91.8907 185.4976,91.5871 C 184.8619,91.3592 183.9102,90.8719 183.3679,89.3049 C 182.7924,87.703 182.4923,86.5377 181.9061,85.55 C 181.4216,84.7809 180.756,84.0818 179.8012,83.812 C 178.9525,83.5803 178.2755,83.6779 177.6685,83.7748 C 176.9909,83.9067 176.4118,84.4403 176.1226,84.7985 C 175.8316,85.154 175.0988,86.4087 174.8782,86.8386 C 174.6558,87.2347 174.3596,88.0265 174.3596,88.0265 L 173.8257,88.0171 L 165.506,87.8719 C 165.506,87.8719 165.2396,86.8166 164.7894,86.1213 C 164.3749,85.4609 163.9216,84.9461 163.3946,84.5763 C 162.9019,84.2408 162.2675,83.9766 161.272,83.9592 C 160.3122,83.9425 159.4534,84.2906 158.7632,85.0386 C 158.0405,85.7135 157.7138,86.1784 157.1482,87.9792 C 156.5471,89.7774 156.1804,90.4954 155.527,91.1714 C 154.8387,91.9194 154.374,92.0576 153.5896,92.1514 C 152.8058,92.2109 152.0621,92.1247 151.4588,92.0067 C 150.7863,91.8487 150.293,91.587 149.1677,90.8798 C 148.0768,90.1733 143.9103,86.4806 143.9103,86.4806 C 143.9103,86.4806 145.9553,87.4206 146.523,87.5406 C 147.3023,87.7348 148.3283,87.9696 148.8273,87.9051 C 149.3269,87.8064 149.9327,87.817 150.2251,87.3857 C 150.4081,87.0284 150.3496,86.2667 150.218,85.7206 C 149.9483,84.8485 148.9482,83.0197 148.4326,81.997 C 147.9531,80.9405 147.2271,79.7309 146.6961,77.6229 C 146.2325,75.6598 146.2603,74.0665 146.4972,72.6957 C 146.7698,71.3597 147.3576,70.3219 148.2253,69.4308 C 149.0604,68.5041 150.2459,67.8011 151.3894,67.4604 C 152.854,67.0859 154.5239,67.152 156.2224,67.6516 C 157.8854,68.115 158.7608,68.9634 159.6343,69.8125 C 160.4716,70.6946 161.5905,71.8722 162.3439,73.4429 C 163.1717,74.978 164.5082,77.8244 164.7142,78.2274 C 164.884,78.6641 166.527,82.3128 166.527,82.3128 L 166.527,82.3128 z "
   style="fill:#ffffff;fill-rule:nonzero" />
    <path
   id="_74571328"
   class="fil4"
   d="M 173.459,88.5519 L 172.6428,88.5377 L 167.3795,88.4458 L 166.5633,88.4316 C 165.4597,88.4123 165.2754,88.8454 165.2678,89.279 C 165.2533,90.11 165.6805,90.0469 166.5348,90.0618 L 167.351,90.076 L 172.6144,90.1679 L 173.4306,90.1821 C 174.3211,90.1977 174.7458,90.2757 174.7603,89.4447 C 174.7679,89.0111 174.5263,88.5706 173.459,88.5519 z "
   style="fill:#ffffff;fill-rule:nonzero" />
    <path
   id="_74571256"
   class="fil4"
   d="M 173.001,98.4647 L 172.2566,98.4517 L 167.4217,98.3673 L 166.7111,98.3549 C 165.715,98.3375 165.5414,98.0075 165.549,97.5739 C 165.5629,96.7773 165.9182,96.8566 166.737,96.8709 L 167.4476,96.8833 L 172.2826,96.9677 L 173.0269,96.9807 C 173.8094,96.9944 174.2372,96.9287 174.2233,97.7253 C 174.2158,98.1589 173.9965,98.482 173.001,98.4647 z "
   style="fill:#ffffff;fill-rule:nonzero" />
    <path
   id="_74550424"
   class="fil4"
   d="M 174.841,90.8942 L 174.5918,90.8899 L 171.784,90.8409 L 168.2656,90.7795 L 165.4559,90.7304 L 165.2067,90.7261 C 164.2018,91.2517 163.5084,92.2876 163.4875,93.4842 C 163.4667,94.6782 164.091,95.6666 165.0058,96.2264 L 165.3599,96.2325 L 168.2751,96.2834 L 171.5831,96.3412 L 174.4957,96.392 L 174.8523,96.3982 C 175.8217,95.8714 176.4439,94.9047 176.4648,93.7107 C 176.4856,92.5141 175.8269,91.4546 174.841,90.8942 L 174.841,90.8942 z "
   style="fill:#ffffff;fill-rule:nonzero" />
    <path
   id="_74550352"
   class="fil4"
   d="M 166.484,99.0015 L 173.4179,99.1225 C 173.4179,99.1225 174.3525,100.5889 174.7002,100.9562 C 175.0867,101.2892 175.6774,102.0233 176.7421,102.2225 C 177.8031,102.4578 178.6212,102.509 179.4838,101.9441 C 180.3476,101.4173 180.7086,101.0242 181.0741,100.5237 C 181.4039,99.9857 181.8793,99.2359 182.3509,98.7004 C 182.8232,98.1286 183.2566,97.7024 183.8313,97.4224 C 184.4402,97.1068 185.0847,96.9374 185.6874,96.9842 C 186.3612,97.0691 187.2098,97.4083 187.5964,97.6319 C 188.0184,97.8587 189.0369,98.6371 189.0369,98.6371 C 189.0375,98.6002 187.1184,98.5305 186.9055,98.5267 C 186.6563,98.5224 185.8357,98.6518 185.5446,99.1173 C 185.3209,99.5841 185.136,100.0508 185.2682,100.67 C 185.363,101.286 185.8616,103.3222 186.0295,103.869 C 186.2991,104.7418 186.1588,106.5869 185.8932,107.5591 C 185.6613,108.6426 184.6106,109.8186 183.7138,110.2004 C 182.4934,110.8297 182.1749,110.8242 181.4623,110.9211 C 180.8196,110.9831 179.8954,111.0038 179.0105,110.8052 C 178.303,110.576 177.6311,110.2742 176.6171,109.3891 C 175.5999,108.5375 174.9355,107.9116 174.3786,107.1781 C 173.7518,106.4797 173.3328,106.0361 172.8808,105.3407 C 172.4675,104.6097 172.1248,103.9163 172.1248,103.9163 L 171.8782,103.8026 C 171.8782,103.8026 172.6889,106.1711 173.2776,107.1589 C 173.7583,108.1448 174.6554,109.6811 174.8576,110.3359 C 175.023,110.9893 175.2856,112.2615 175.1624,113.1637 C 175.0405,114.1047 174.8124,114.9682 174.2607,115.973 C 173.7103,116.9409 173.2718,117.657 172.5733,118.9854 C 171.8393,120.2744 171.2545,121.1343 170.9127,122.3589 C 170.5365,123.5836 170.2347,124.5559 170.0765,125.53 C 169.8802,126.504 169.7888,127.77 169.7888,127.77 C 169.7888,127.77 169.1095,123.883 168.7375,122.6822 C 168.368,121.5176 167.8911,120.278 167.3068,119.2178 C 166.7188,118.1932 165.7848,116.6925 165.4096,115.8185 C 164.9951,115.0143 164.6231,113.9934 164.6046,112.9794 C 164.551,111.9304 164.5706,110.8069 165.013,110.0197 C 165.4528,109.2305 165.9682,108.2619 166.2243,107.8327 C 166.5536,107.3659 167.2539,105.8937 167.5513,105.2114 C 167.7776,104.4547 167.9993,103.9517 167.9993,103.9517 L 167.8957,103.6961 C 167.8957,103.6961 167.494,104.3792 167.3453,104.664 C 167.1991,104.9515 166.2789,106.783 165.0127,107.9922 C 163.7098,109.2369 162.5587,110.048 161.7324,110.4673 C 160.9092,110.8524 160.0135,111.1268 159.1249,111.1482 C 158.3062,111.1682 156.7093,110.9959 155.7977,110.2932 C 154.9185,109.6609 154.2885,109.1061 154.0545,108.2709 C 153.7486,107.3955 153.6513,106.9238 153.6359,105.7654 C 153.6555,104.6445 153.8855,103.671 154.1187,102.5151 C 154.3175,101.3973 154.5431,100.6769 154.4808,100.1689 C 154.454,99.6253 154.426,99.1904 153.6841,98.8875 C 153.0141,98.5858 152.4458,98.649 152.0517,98.7153 C 151.5515,98.8502 149.8333,99.4715 149.8333,99.4715 L 149.9089,99.2559 C 149.9089,99.2559 150.774,98.5467 151.2069,98.3011 C 151.6016,98.018 152.4304,97.4544 153.1087,97.2836 C 153.7157,97.0774 154.8567,96.9898 155.317,97.1053 C 155.7054,97.2215 156.7307,97.5663 157.425,98.5553 C 158.083,99.5443 159.0176,100.9725 159.7207,101.4547 C 160.3876,101.937 160.7735,102.3069 161.9819,102.328 C 163.1916,102.3122 164.1952,101.8597 164.6281,101.5041 C 165.0603,101.1505 165.7137,100.3287 165.8631,100.0044 C 166.0448,99.7545 166.484,99.0015 166.484,99.0015 L 166.484,99.0015 z "
   style="fill:#ffffff;fill-rule:nonzero" />
    <path
   id="_74550280"
   class="fil3"
   d="M 169.982,53.4843 C 169.982,53.4843 168.7814,61.2096 168.6422,67.1447 C 168.451,73.9832 169.7727,81.7914 169.8911,83.0953 C 169.9585,83.3502 169.9922,83.4971 169.9922,83.4971 L 170.1955,81.9794 C 170.1955,81.9794 170.4927,79.2326 170.649,78.5116 C 170.7671,77.7531 171.3744,73.5643 171.3236,68.3859 C 171.2347,63.2074 169.982,53.4843 169.982,53.4843 L 169.982,53.4843 z "
   style="fill:#0a0b0c;fill-rule:nonzero" />
    <path
   id="_74550208"
   class="fil3"
   d="M 161.23,76.1754 C 158.6596,72.6911 155.558,71.1163 152.4994,73.0904 C 150.199,74.5716 150.4607,77.8323 152.1137,80.94 C 152.4246,81.4886 152.7705,81.9652 153.0814,82.5487 C 153.5646,83.3903 153.8997,84.6274 153.8821,85.6409 C 153.8796,85.7845 153.842,85.8939 153.8402,86.0014 C 153.6929,88.2432 152.6341,89.7822 149.8962,89.8788 C 149.6827,89.8751 149.5034,89.8719 149.2911,89.8313 C 149.6808,89.9844 150.1404,90.1362 150.6025,90.1442 C 153.9792,90.2401 154.5098,88.3675 154.589,85.8701 C 154.6498,84.3136 153.9339,82.673 153.6236,82.0876 C 152.1428,79.2755 151.8667,76.6994 153.5949,75.4983 C 155.6473,74.0866 159.6077,75.4233 162.3173,79.0537 C 163.3943,80.4494 164.7828,82.4992 165.9203,84.5472 C 164.9016,81.7432 162.7921,78.3013 161.23,76.1754 L 161.23,76.1754 z "
   style="fill:#0a0b0c;fill-rule:nonzero" />
    <path
   id="_74550136"
   class="fil3"
   d="M 179.2,75.4384 C 182.1021,72.2665 185.1131,70.7984 188.0266,73.0231 C 189.7819,74.3556 190.0473,77.4021 188.2899,80.4133 C 188.2137,80.6632 187.9944,81.0225 187.9201,81.1675 C 187.6589,81.8505 187.697,81.7417 187.3297,82.3516 C 186.8517,83.2476 186.6624,83.968 186.6473,84.8359 L 186.6314,85.7419 C 186.6622,88.0587 187.9509,89.5655 190.1217,89.4591 C 190.3346,89.4628 190.5501,89.4665 190.7637,89.434 C 190.3683,89.6077 189.8318,89.744 189.336,89.7354 C 185.9924,89.7139 185.5899,88.33 185.6385,85.542 C 185.6657,83.9875 186.3723,82.1886 186.7034,81.6169 C 187.9148,79.4293 188.1789,76.4994 186.493,75.2756 C 184.493,73.7933 180.9563,74.6721 178.1215,78.2446 C 176.9934,79.6361 175.6453,81.5676 174.4371,83.5747 C 175.5506,80.8053 177.208,77.6124 179.2,75.4384 L 179.2,75.4384 z "
   style="fill:#0a0b0c;fill-rule:nonzero" />
    <path
   id="_74550064"
   class="fil3"
   d="M 169.996,103.699 C 169.996,103.699 169.0545,108.6775 169.0014,111.7185 C 168.9591,114.1428 169.321,115.7772 169.5481,117.0487 C 169.7052,118.3189 169.7911,119.4442 169.7911,119.4442 C 169.7911,119.4442 170.6677,114.0651 170.7425,111.8221 C 170.8179,109.5784 170.19,104.8242 170.1258,104.3887 C 170.0253,103.9533 169.996,103.699 169.996,103.699 z "
   style="fill:#0a0b0c;fill-rule:nonzero" />
    <path
   id="_74549992"
   class="fil3"
   d="M 153.807,98.0222 L 153.9125,98.024 C 154.1624,97.9915 154.8044,97.9664 155.0523,98.007 C 155.6187,98.0881 155.9696,98.4205 156.2125,98.7516 C 156.491,99.1171 156.7338,99.4845 156.7205,100.2449 C 156.6984,101.512 156.8048,103.5025 157.0057,104.1961 C 157.2436,104.8509 157.7617,105.728 158.3612,106.1016 C 158.9944,106.439 160.2396,106.4245 160.7037,106.3225 C 161.2033,106.2238 161.9553,105.9469 162.4917,105.6662 C 163.0308,105.3856 164.0745,104.6801 164.5073,104.3271 C 164.9052,104.0071 166.4961,102.4411 166.4961,102.4411 L 166.8946,101.9774 C 166.8946,101.9774 165.3578,104.5588 165.0674,104.878 C 164.8113,105.273 163.7962,106.3765 163.2547,106.8014 C 162.7493,107.2283 162.068,107.5776 161.6014,107.8226 C 161.1368,107.9951 160.4223,108.1651 159.676,108.1521 C 158.9653,108.1035 158.0804,107.9074 157.4523,107.1358 C 156.8636,106.2924 156.6163,106.2149 156.4217,105.1634 C 156.2938,104.2543 156.302,103.7838 156.3153,103.024 C 156.3286,102.2636 156.3182,100.7791 156.2622,100.02 C 156.1674,99.294 155.9589,99.0372 155.6798,98.7054 C 155.435,98.448 155.1172,98.2962 154.8712,98.2207 C 154.587,98.1795 153.807,98.0222 153.807,98.0222 L 153.807,98.0222 z "
   style="fill:#0a0b0c;fill-rule:nonzero" />
    <path
   id="_74549920"
   class="fil3"
   d="M 172.539,100.521 C 172.539,100.521 173.644,102.4946 174.7254,103.6354 C 175.843,104.7781 176.7502,105.7351 178.6624,106.2022 C 180.5771,106.6331 181.2966,106.1388 181.8026,105.7133 C 182.306,105.2521 182.7744,105.0065 183.0069,103.9256 C 183.2026,102.8421 183.2068,100.5609 183.2894,99.948 C 183.3364,99.2956 183.5582,98.7926 183.9904,98.4759 C 184.4232,98.084 184.961,97.8759 185.3176,97.8458 C 185.638,97.744 185.8166,97.8202 185.8166,97.8202 C 185.8166,97.8202 185.0977,98.132 184.8123,98.2733 C 184.5243,98.4483 184.2733,98.5883 184.0546,98.8745 C 183.8379,99.0875 183.6867,99.5555 183.6422,100.0247 C 183.5996,100.4241 183.5917,102.922 183.5434,103.6449 C 183.5295,104.4422 183.5436,105.6731 183.0695,106.3523 C 182.521,107.2102 181.265,107.9489 180.3058,107.9322 C 179.3453,107.9523 178.2093,107.7519 177.1909,106.9735 C 176.2113,106.1595 175.1579,105.3442 174.5717,104.3564 C 173.9467,103.4043 172.876,101.6481 172.7044,101.3182 C 172.602,101.029 172.4335,100.5192 172.4335,100.5192 L 172.539,100.521 L 172.539,100.521 z "
   style="fill:#0a0b0c;fill-rule:nonzero" />
   </g>
   <g
   id="g29">
    <path
   id="_74549824"
   class="fil3"
   d="M 163.308,151.925 C 162.8802,152.0269 162.2725,152.1238 161.7779,151.9346 C 161.7436,151.8615 161.4969,151.7128 161.5026,151.3866 C 161.5038,151.3154 161.5058,151.2061 161.5439,151.0973 C 161.5902,150.4838 161.9563,149.8389 162.5448,148.7623 L 163.4282,147.1127 C 164.4578,145.03 164.9783,143.7716 165.1402,142.6895 C 165.3397,141.4254 165.4667,140.3064 165.4831,139.3635 L 165.4888,139.0393 C 165.4722,137.9521 164.863,136.0965 164.135,134.9963 C 163.4764,134.0442 162.7135,133.0533 161.2329,132.2668 C 159.5076,131.2592 158.0481,131.3412 156.9103,131.3945 L 156.8378,131.4301 C 155.5556,131.4803 154.1254,131.9628 152.4741,132.8746 C 151.0369,133.7176 150.1261,134.898 149.0361,136.2902 L 148.8194,136.5033 C 148.6007,136.8264 148.3465,137.1094 148.1609,137.4693 C 148.3115,137.0751 148.5708,136.4627 148.5708,136.4627 L 149.1282,135.1318 C 149.7592,133.551 149.7864,131.9939 149.8028,131.0536 C 149.8205,130.0401 149.5667,128.2613 149.3314,127.4622 C 149.0637,126.6238 148.48,125.3461 148.033,124.5071 L 146.6845,122.3097 L 146.0945,121.4313 C 145.4371,120.4061 143.7053,117.7334 143.2271,116.565 C 142.7846,115.4723 142.024,112.2734 141.7887,111.4724 C 141.6882,111.0731 141.5991,110.131 141.5031,109.4761 L 141.0373,105.558 L 139.9761,109.3057 L 139.5899,111.1077 L 138.7397,114.9679 C 138.4328,116.2301 137.9918,117.0905 137.4764,118.0953 C 137.1809,118.7044 136.3756,119.9579 135.6816,121.0327 L 134.732,122.5005 C 134.1816,123.4321 133.3752,124.7924 132.6036,126.3365 C 131.8301,127.8443 131.6873,129.8693 131.6665,131.0633 L 131.6621,131.317 C 131.673,132.7284 132.0374,134.2191 132.8202,136.2972 C 132.8202,136.2972 133.0262,136.6983 133.1285,136.9901 C 132.4692,135.9648 131.7025,135.1545 131.0039,134.4548 C 130.0255,133.4603 129.0439,132.6093 127.2741,132.1085 C 125.3633,131.5676 123.5878,131.5003 122.0508,131.9098 C 120.7649,132.2117 119.3996,133.0579 118.4214,134.0915 C 117.4788,135.1594 116.8166,136.3422 116.5796,137.7156 C 116.4595,138.4004 116.3789,139.0502 116.3675,139.7032 C 116.3486,140.7872 116.4707,141.8768 116.7722,143.0033 C 117.1671,144.7846 117.7876,145.9898 118.2334,146.9019 L 118.5773,147.5242 L 119.1616,148.7288 C 119.5736,149.5698 120.1223,150.6274 120.2571,151.1373 C 120.357,151.4653 120.3875,151.7559 120.3844,151.9364 L 120.3806,152.1532 C 120.2382,152.2239 119.9852,152.4363 119.8435,152.4701 L 119.3775,152.5694 C 119.094,152.6014 118.3165,152.2997 117.288,152.0992 C 116.9352,152.0225 113.4764,150.4771 112.6303,150.0998 L 114.0257,151.6448 C 114.2006,151.7916 118.4289,156.0285 119.589,156.7732 C 120.7842,157.554 121.35,157.7814 122.0937,157.9769 C 122.6588,158.1305 123.5824,158.2929 124.5449,158.1634 C 125.4354,158.0353 126.078,157.8296 126.9126,156.9372 C 127.6728,156.1536 128.0776,155.3295 128.68,153.4581 C 129.243,151.801 129.5685,151.4092 130.1488,150.8024 C 130.6922,150.2345 131.3005,149.9551 132.0836,149.9688 C 132.9717,149.9843 133.4999,150.2835 133.8178,150.4697 C 134.203,150.7664 134.5877,151.2068 134.9679,151.7935 C 135.2444,152.269 135.516,153.0337 135.5808,153.2886 L 135.6139,153.4698 C 135.3952,153.756 135.3171,154.1521 135.3114,154.4782 C 135.3076,154.695 135.3369,155.0568 135.4755,155.3492 C 134.2869,156.0885 133.5211,157.3064 133.497,158.6829 C 133.4724,160.0937 134.2302,161.4113 135.3904,162.1553 L 135.5678,162.2659 L 135.6034,162.2665 C 135.564,162.4827 135.5602,162.6995 135.559,162.7726 C 135.5533,163.0987 135.6818,163.8254 136.423,164.1646 L 136.02,164.8813 C 135.9095,165.06 135.2929,165.8099 134.9669,166.0942 C 134.6783,166.306 133.8196,166.6885 132.7872,166.7067 C 131.9685,166.6924 131.6888,166.5438 131.1262,166.1346 L 130.9844,166.0247 C 130.4949,165.653 129.6608,164.4803 129.1413,163.6743 L 128.8985,163.3095 C 128.0681,162.0637 126.758,161.6777 126.3334,161.5609 C 125.6627,161.3323 124.3425,161.5261 123.6998,161.6975 C 123.1639,161.8325 122.0478,162.683 121.4694,163.1798 C 120.8573,163.6734 118.8329,165.5225 118.8329,165.5225 C 119.5124,165.2806 122.4027,164.6779 122.6532,164.6117 C 123.0117,164.5086 123.6156,164.4822 124.1095,164.7077 C 124.3568,164.8221 124.496,164.9339 124.524,165.3681 L 124.559,165.4419 C 124.5552,165.6587 124.4764,166.0548 124.3265,166.559 L 124.1308,167.6063 L 124.0501,168.1117 C 123.8557,169.0859 123.6613,169.9506 123.6792,171.0009 C 123.6584,172.1949 123.8268,172.8148 124.0933,173.7238 C 124.4672,174.8153 125.2383,175.4819 126.15,176.1846 C 127.2733,177.0018 129.1193,177.1408 129.9743,177.1195 C 130.9347,177.102 131.934,176.8999 132.9033,176.3757 C 133.7634,175.955 134.6704,174.9934 135.6778,174.216 C 135.3111,174.9333 134.6432,176.5504 134.6274,177.4545 L 134.6141,178.2142 C 134.6626,179.4095 135.1051,180.541 135.5184,181.4163 L 136.6902,183.5374 L 137.4131,184.8176 C 137.93,185.7678 138.4081,186.8974 138.8132,188.1351 C 139.1502,189.2648 140.0107,192.8992 140.01,192.936 L 140.6059,195.552 L 141.681,190.9008 C 141.8411,189.9623 142.0692,189.0989 142.4829,187.7654 C 142.7104,186.9356 143.1139,186.2921 143.5912,185.4323 L 144.0685,184.5706 L 145.0955,182.7798 L 145.7553,181.595 C 146.4181,180.3753 146.6831,179.3319 146.7694,178.4996 C 146.8088,178.3203 146.812,178.1397 146.8158,177.9204 C 146.8335,176.9088 146.5683,175.7811 146.4347,175.3081 C 146.3667,175.09 146.2662,174.8345 146.092,174.5052 C 146.373,174.727 146.6178,174.985 146.935,175.2074 C 148.0908,176.2051 148.8669,176.5812 149.68,176.776 C 150.7073,177.0477 151.7396,176.9945 152.3803,176.9325 L 152.4884,176.8982 C 153.2372,176.8018 153.7006,176.7387 154.8835,176.1793 C 155.9234,175.6906 157.1895,174.3746 157.5346,172.9668 C 157.6527,172.3914 157.774,171.4504 157.7892,170.5825 C 157.8005,169.9321 157.742,169.3142 157.6072,168.8049 C 157.44,168.2583 156.9395,166.3314 156.8421,165.7523 C 156.844,165.6422 156.8116,165.5685 156.8135,165.4618 C 156.8173,165.2443 156.8929,164.8825 157.0416,164.595 C 157.1484,164.5263 157.65,164.3156 157.8292,164.3188 L 161.4888,164.3827 L 160.1919,163.3832 C 160.0164,163.2726 159.0698,162.5317 158.6089,162.3068 C 158.2218,162.1175 157.2352,161.5934 156.4202,161.5086 C 155.4953,161.4193 154.8527,161.625 154.313,161.9418 C 153.5598,162.2899 153.0888,162.8248 152.581,163.3597 L 151.5603,164.7894 L 151.2698,165.2549 C 150.9412,165.6829 150.5789,166.0035 149.8594,166.4978 C 149.2848,166.8853 148.6797,166.8747 147.7229,166.6774 C 147.0154,166.4851 146.5246,166.0422 146.2099,165.7104 L 146.1063,165.5985 C 145.9321,165.4155 145.515,164.7939 145.0986,164.2066 C 145.7107,163.8541 145.7908,163.2412 145.7958,162.9513 C 145.7971,162.8781 145.8009,162.6613 145.7691,162.4439 L 145.9127,162.4464 L 146.0913,162.3421 C 147.2768,161.639 148.0827,160.3487 148.1073,158.9379 C 148.1313,157.5614 147.3715,156.2094 146.2108,155.4997 C 146.3238,155.2142 146.3651,154.8881 146.3689,154.6713 C 146.3753,154.3082 146.311,153.8733 145.9251,153.5054 L 146.4087,152.3907 C 146.6998,151.9251 147.362,150.7423 147.5063,150.5642 C 147.7968,150.243 148.2653,149.888 148.6587,149.8243 C 149.1571,149.6867 149.7285,149.5893 150.4354,149.8185 C 151.0381,149.9727 151.5975,150.4531 152.047,151.1847 C 152.4284,151.8083 152.7,152.5736 152.9664,153.5189 L 153.4058,154.7941 C 154.1205,156.6515 155.2495,157.2513 156.0606,157.5561 C 157.0149,157.8964 158.7572,157.9268 159.7946,157.6212 C 160.7239,157.3106 161.84,156.4988 162.6683,155.9333 L 163.2086,155.5795 C 163.855,155.1571 167.6445,152.037 167.7875,151.9301 L 169.81,150.1935 C 168.8451,150.4667 163.7714,151.8599 163.308,151.925 L 163.308,151.925 z "
   style="fill:#0a0b0c;fill-rule:nonzero" />
    <path
   id="_74549752"
   class="fil4"
   d="M 137.352,147.526 C 137.352,147.526 136.6377,143.7498 135.9904,142.001 C 135.3462,140.2147 134.2526,137.7344 133.6072,136.0212 C 132.89,134.3075 132.4188,132.7786 132.4441,131.3309 C 132.4331,129.9195 132.6427,128.0387 133.3074,126.7122 C 133.971,125.3469 134.6675,124.1278 135.4346,122.9468 C 136.1306,121.7646 137.7011,119.4376 138.2165,118.4348 C 138.7307,117.5005 139.1374,116.567 139.4837,115.1249 C 139.8617,113.7572 140.1756,112.0951 140.3693,111.2673 C 140.525,110.4731 140.755,109.4996 140.755,109.4996 C 140.755,109.4996 140.7641,111.0211 140.9307,111.6383 C 141.1304,112.4018 141.9997,115.6764 142.5109,116.8428 C 142.9871,118.0824 144.5124,120.4265 145.4114,121.8541 C 146.3466,123.2816 146.9016,124.1245 147.3505,124.8929 C 147.7625,125.697 148.3442,126.9384 148.5471,127.6657 C 148.7805,128.4304 149.0012,130.1718 148.9861,131.0396 C 148.9703,131.9437 148.9456,133.3571 148.3502,134.8311 C 147.791,136.2688 146.9019,138.3889 146.3401,139.9729 C 145.7797,141.4818 145.2154,143.2463 144.8722,144.6542 C 144.5615,146.1331 144.214,147.6458 144.214,147.6458 C 144.214,147.6458 146.254,142.867 146.8444,141.6829 C 147.4317,140.5331 148.2495,138.5218 149.4133,137.0215 C 150.5789,135.5206 151.4872,134.379 152.8512,133.6052 C 154.2179,132.7959 155.5781,132.2416 156.8596,132.1908 C 157.9975,132.1744 159.2796,132.0893 160.9,132.9488 C 162.0964,133.6572 162.7945,134.43 163.4512,135.4553 C 164.1455,136.4449 164.6854,138.1555 164.7051,139.0628 C 164.7218,140.1843 164.5179,141.5577 164.3235,142.5661 C 164.2034,143.3978 163.8273,144.5125 162.6878,146.7007 C 161.5807,148.9627 160.8885,149.9281 160.7634,150.9403 C 160.6402,151.9519 160.9142,152.571 161.3389,152.6516 C 161.834,152.8065 162.4367,152.8507 163.0812,152.682 C 163.6864,152.5851 167.1894,151.5956 167.1894,151.5956 C 167.1894,151.5956 163.4037,154.4983 162.7579,154.8845 C 162.1083,155.3438 160.6305,156.478 159.5588,156.8199 C 158.6988,157.1318 157.1001,157.1039 156.3226,156.8003 C 155.6869,156.5724 154.7352,156.0851 154.1929,154.5181 C 153.6174,152.9162 153.3173,151.7509 152.7311,150.7632 C 152.2466,149.9941 151.581,149.295 150.6262,149.0252 C 149.7775,148.7935 149.1005,148.8911 148.4935,148.988 C 147.8159,149.1199 147.2368,149.6535 146.9476,150.0117 C 146.6566,150.3671 145.9238,151.6219 145.7032,152.0518 C 145.4808,152.4479 145.1846,153.2397 145.1846,153.2397 L 144.6507,153.2303 L 136.331,153.0851 C 136.331,153.0851 136.0646,152.0298 135.6144,151.3345 C 135.1999,150.6741 134.7466,150.1593 134.2196,149.7895 C 133.7269,149.454 133.0925,149.1898 132.097,149.1724 C 131.1372,149.1557 130.2784,149.5038 129.5882,150.2518 C 128.8655,150.9266 128.5388,151.3916 127.9732,153.1923 C 127.3721,154.9906 127.0054,155.7086 126.352,156.3846 C 125.6637,157.1326 125.199,157.2708 124.4146,157.3646 C 123.6308,157.424 122.8871,157.3379 122.2838,157.2199 C 121.6113,157.0619 121.118,156.8002 119.9927,156.093 C 118.9018,155.3865 114.7353,151.6938 114.7353,151.6938 C 114.7353,151.6938 116.7803,152.6338 117.348,152.7538 C 118.1273,152.948 119.1533,153.1828 119.6523,153.1183 C 120.1519,153.0196 120.7577,153.0301 121.0501,152.5989 C 121.2331,152.2416 121.1746,151.4799 121.043,150.9338 C 120.7733,150.0617 119.7732,148.2329 119.2576,147.2101 C 118.7781,146.1537 118.0521,144.9441 117.5211,142.8361 C 117.0575,140.873 117.0853,139.2797 117.3222,137.9088 C 117.5948,136.5729 118.1826,135.5351 119.0503,134.644 C 119.8854,133.7173 121.0709,133.0143 122.2144,132.6736 C 123.679,132.2991 125.3489,132.3652 127.0474,132.8648 C 128.7104,133.3282 129.5858,134.1766 130.4593,135.0257 C 131.2966,135.9077 132.4155,137.0854 133.1689,138.6561 C 133.9967,140.1912 135.3332,143.0376 135.5392,143.4406 C 135.709,143.8773 137.352,147.526 137.352,147.526 L 137.352,147.526 z "
   style="fill:#ffffff;fill-rule:nonzero" />
    <path
   id="_74549680"
   class="fil4"
   d="M 144.285,153.765 L 143.4688,153.7508 L 138.2055,153.6589 L 137.3893,153.6447 C 136.2857,153.6254 136.1014,154.0585 136.0938,154.4921 C 136.0793,155.3231 136.5065,155.2599 137.3608,155.2749 L 138.177,155.2891 L 143.4404,155.381 L 144.2566,155.3952 C 145.1471,155.4108 145.5718,155.4887 145.5863,154.6578 C 145.5939,154.2242 145.3523,153.7837 144.285,153.765 z "
   style="fill:#ffffff;fill-rule:nonzero" />
    <path
   id="_74549608"
   class="fil4"
   d="M 143.827,163.678 L 143.0826,163.665 L 138.2477,163.5807 L 137.5371,163.5683 C 136.541,163.5509 136.3674,163.2209 136.375,162.7873 C 136.3889,161.9907 136.7442,162.07 137.563,162.0843 L 138.2736,162.0967 L 143.1086,162.1811 L 143.8529,162.1941 C 144.6354,162.2078 145.0632,162.1421 145.0493,162.9387 C 145.0418,163.3723 144.8225,163.6954 143.827,163.678 L 143.827,163.678 z "
   style="fill:#ffffff;fill-rule:nonzero" />
    <path
   id="_74549536"
   class="fil4"
   d="M 145.666,156.107 L 145.4168,156.1027 L 142.609,156.0537 L 139.0906,155.9923 L 136.2809,155.9432 L 136.0317,155.9389 C 135.0268,156.4644 134.3334,157.5004 134.3125,158.697 C 134.2917,159.891 134.916,160.8794 135.8308,161.4392 L 136.1849,161.4453 L 139.1001,161.4962 L 142.4081,161.554 L 145.3207,161.6048 L 145.6773,161.611 C 146.6467,161.0842 147.2689,160.1175 147.2898,158.9235 C 147.3106,157.7269 146.6519,156.6674 145.666,156.107 L 145.666,156.107 z "
   style="fill:#ffffff;fill-rule:nonzero" />
    <path
   id="_74520208"
   class="fil4"
   d="M 137.31,164.214 L 144.2439,164.335 C 144.2439,164.335 145.1785,165.8014 145.5262,166.1687 C 145.9128,166.5017 146.5034,167.2358 147.5681,167.435 C 148.6291,167.6703 149.4472,167.7215 150.3098,167.1565 C 151.1736,166.6298 151.5346,166.2367 151.9001,165.7362 C 152.2299,165.1982 152.7053,164.4484 153.1769,163.9129 C 153.6492,163.3411 154.0826,162.9149 154.6573,162.6349 C 155.2662,162.3193 155.9107,162.1499 156.5134,162.1967 C 157.1872,162.2816 158.0358,162.6207 158.4224,162.8444 C 158.8444,163.0712 159.8629,163.8496 159.8629,163.8496 C 159.8635,163.8127 157.9444,163.743 157.7315,163.7392 C 157.4823,163.7349 156.6617,163.8643 156.3706,164.3298 C 156.1469,164.7965 155.962,165.2633 156.0942,165.8825 C 156.189,166.4985 156.6876,168.5347 156.8555,169.0814 C 157.1251,169.9543 156.9848,171.7994 156.7192,172.7716 C 156.4873,173.8551 155.4366,175.0311 154.5398,175.4129 C 153.3194,176.0422 153.0009,176.0367 152.2883,176.1336 C 151.6456,176.1956 150.7214,176.2163 149.8365,176.0177 C 149.129,175.7885 148.4571,175.4867 147.4431,174.6016 C 146.4259,173.75 145.7615,173.1241 145.2046,172.3906 C 144.5778,171.6922 144.1588,171.2486 143.7068,170.5532 C 143.2935,169.8222 142.9508,169.1288 142.9508,169.1288 L 142.7042,169.015 C 142.7042,169.015 143.5149,171.3836 144.1036,172.3714 C 144.5843,173.3573 145.4814,174.8936 145.6836,175.5484 C 145.849,176.2018 146.1116,177.4739 145.9884,178.3761 C 145.8665,179.3172 145.6384,180.1807 145.0867,181.1855 C 144.5363,182.1534 144.0978,182.8694 143.3993,184.1979 C 142.6653,185.4869 142.0805,186.3468 141.7387,187.5714 C 141.3625,188.7961 141.0607,189.7684 140.9025,190.7425 C 140.7062,191.7165 140.6148,192.9825 140.6148,192.9825 C 140.6148,192.9825 139.9355,189.0955 139.5635,187.8947 C 139.194,186.7301 138.7171,185.4905 138.1328,184.4303 C 137.5448,183.4056 136.6108,181.905 136.2356,181.031 C 135.8211,180.2268 135.4491,179.2059 135.4306,178.1919 C 135.377,177.1429 135.3967,176.0194 135.839,175.2322 C 136.2788,174.4429 136.7942,173.4744 137.0503,173.0452 C 137.3796,172.5784 138.0799,171.1062 138.3773,170.4239 C 138.6036,169.6672 138.8253,169.1642 138.8253,169.1642 L 138.7217,168.9086 C 138.7217,168.9086 138.32,169.5917 138.1713,169.8765 C 138.0251,170.164 137.1049,171.9955 135.8387,173.2046 C 134.5358,174.4494 133.3847,175.2605 132.5584,175.6798 C 131.7352,176.0649 130.8395,176.3393 129.9509,176.3607 C 129.1322,176.3807 127.5353,176.2084 126.6237,175.5057 C 125.7445,174.8734 125.1145,174.3186 124.8805,173.4833 C 124.5746,172.608 124.4773,172.1363 124.4619,170.9779 C 124.4815,169.857 124.7115,168.8835 124.9447,167.7276 C 125.1435,166.6098 125.3691,165.8894 125.3068,165.3814 C 125.28,164.8378 125.252,164.4029 124.5101,164.1 C 123.8401,163.7983 123.2718,163.8615 122.8777,163.9278 C 122.3775,164.0627 120.6593,164.684 120.6593,164.684 L 120.7349,164.4684 C 120.7349,164.4684 121.6,163.7592 122.0329,163.5136 C 122.4276,163.2305 123.2564,162.6668 123.9347,162.4961 C 124.5417,162.2899 125.6827,162.2023 126.143,162.3178 C 126.5314,162.434 127.5567,162.7788 128.251,163.7678 C 128.909,164.7568 129.8436,166.185 130.5467,166.6672 C 131.2136,167.1495 131.5995,167.5194 132.8079,167.5405 C 134.0176,167.5247 135.0212,167.0722 135.4541,166.7166 C 135.8863,166.3629 136.5397,165.5412 136.6891,165.2169 C 136.8708,164.967 137.31,164.214 137.31,164.214 L 137.31,164.214 z "
   style="fill:#ffffff;fill-rule:nonzero" />
    <path
   id="_74520136"
   class="fil3"
   d="M 140.808,118.697 C 140.808,118.697 139.6074,126.4223 139.4682,132.3574 C 139.277,139.1959 140.5987,147.0041 140.7171,148.308 C 140.7845,148.5629 140.8182,148.7098 140.8182,148.7098 L 141.0215,147.1921 C 141.0215,147.1921 141.3187,144.4453 141.475,143.7243 C 141.5931,142.9657 142.2004,138.777 142.1496,133.5985 C 142.0607,128.4201 140.808,118.697 140.808,118.697 L 140.808,118.697 z "
   style="fill:#0a0b0c;fill-rule:nonzero" />
    <path
   id="_74520064"
   class="fil3"
   d="M 132.056,141.388 C 129.4856,137.9038 126.384,136.329 123.3254,138.3031 C 121.025,139.7843 121.2867,143.045 122.9397,146.1527 C 123.2506,146.7013 123.5965,147.1779 123.9074,147.7614 C 124.3906,148.603 124.7257,149.8401 124.7081,150.8536 C 124.7056,150.9972 124.668,151.1066 124.6662,151.2141 C 124.5189,153.4559 123.4601,154.9949 120.7222,155.0915 C 120.5087,155.0878 120.3294,155.0846 120.1171,155.044 C 120.5068,155.1971 120.9664,155.3489 121.4285,155.3569 C 124.8052,155.4528 125.3358,153.5802 125.415,151.0828 C 125.4758,149.5263 124.7599,147.8857 124.4496,147.3003 C 122.9688,144.4882 122.6927,141.9121 124.4209,140.711 C 126.4733,139.2993 130.4337,140.636 133.1433,144.2664 C 134.2203,145.6621 135.6088,147.7119 136.7463,149.7599 C 135.7276,146.9559 133.6181,143.514 132.056,141.388 L 132.056,141.388 z "
   style="fill:#0a0b0c;fill-rule:nonzero" />
    <path
   id="_74519992"
   class="fil3"
   d="M 150.025,140.651 C 152.9271,137.4791 155.9381,136.011 158.8516,138.2357 C 160.6069,139.5681 160.8723,142.6147 159.1149,145.6259 C 159.0387,145.8758 158.8194,146.2351 158.7451,146.3801 C 158.4839,147.063 158.522,146.9543 158.1547,147.5642 C 157.6767,148.4602 157.4874,149.1806 157.4723,150.0485 L 157.4564,150.9545 C 157.4872,153.2713 158.7759,154.7781 160.9467,154.6717 C 161.1596,154.6754 161.3751,154.6791 161.5887,154.6466 C 161.1933,154.8203 160.6568,154.9566 160.161,154.948 C 156.8174,154.9265 156.4149,153.5425 156.4635,150.7546 C 156.4907,149.2001 157.1973,147.4012 157.5284,146.8295 C 158.7398,144.6419 159.0039,141.712 157.318,140.4882 C 155.318,139.0058 151.7813,139.8847 148.9465,143.4572 C 147.8184,144.8487 146.4703,146.7802 145.2621,148.7873 C 146.3756,146.0179 148.033,142.825 150.025,140.651 L 150.025,140.651 z "
   style="fill:#0a0b0c;fill-rule:nonzero" />
    <path
   id="_74519920"
   class="fil3"
   d="M 140.822,168.911 C 140.822,168.911 139.8805,173.8895 139.8274,176.9305 C 139.7851,179.3548 140.147,180.9892 140.3741,182.2607 C 140.5312,183.5309 140.6171,184.6562 140.6171,184.6562 C 140.6171,184.6562 141.4937,179.2771 141.5685,177.0341 C 141.6439,174.7903 141.016,170.0362 140.9518,169.6007 C 140.8513,169.1652 140.822,168.911 140.822,168.911 z "
   style="fill:#0a0b0c;fill-rule:nonzero" />
    <path
   id="_74519848"
   class="fil3"
   d="M 124.633,163.235 L 124.7385,163.2369 C 124.9884,163.2044 125.6304,163.1793 125.8783,163.2199 C 126.4447,163.301 126.7956,163.6334 127.0385,163.9645 C 127.317,164.33 127.5598,164.6974 127.5465,165.4578 C 127.5244,166.7249 127.6308,168.7154 127.8317,169.409 C 128.0696,170.0638 128.5877,170.9409 129.1872,171.3145 C 129.8204,171.6519 131.0656,171.6373 131.5297,171.5354 C 132.0293,171.4367 132.7813,171.1598 133.3177,170.8791 C 133.8568,170.5985 134.9005,169.893 135.3333,169.54 C 135.7312,169.22 137.3221,167.654 137.3221,167.654 L 137.7206,167.1903 C 137.7206,167.1903 136.1838,169.7717 135.8934,170.0909 C 135.6373,170.4859 134.6222,171.5894 134.0807,172.0143 C 133.5753,172.4411 132.894,172.7905 132.4274,173.0354 C 131.9628,173.2079 131.2483,173.378 130.502,173.365 C 129.7913,173.3163 128.9064,173.1203 128.2783,172.3487 C 127.6896,171.5053 127.4423,171.4278 127.2477,170.3763 C 127.1198,169.4672 127.128,168.9967 127.1413,168.2369 C 127.1546,167.4765 127.1442,165.9919 127.0882,165.2329 C 126.9934,164.5069 126.7849,164.2501 126.5058,163.9183 C 126.261,163.6609 125.9432,163.5091 125.6972,163.4336 C 125.413,163.3924 124.633,163.235 124.633,163.235 z "
   style="fill:#0a0b0c;fill-rule:nonzero" />
    <path
   id="_74519776"
   class="fil3"
   d="M 143.365,165.734 C 143.365,165.734 144.47,167.7076 145.5514,168.8484 C 146.669,169.991 147.5762,170.9481 149.4884,171.4152 C 151.4031,171.8461 152.1226,171.3518 152.6286,170.9263 C 153.132,170.4651 153.6004,170.2195 153.8329,169.1386 C 154.0286,168.0551 154.0328,165.7739 154.1154,165.161 C 154.1624,164.5086 154.3842,164.0056 154.8164,163.6889 C 155.2492,163.297 155.787,163.0889 156.1436,163.0588 C 156.464,162.957 156.6426,163.0332 156.6426,163.0332 C 156.6426,163.0332 155.9237,163.345 155.6383,163.4863 C 155.3503,163.6613 155.0993,163.8013 154.8806,164.0874 C 154.6639,164.3005 154.5127,164.7685 154.4682,165.2377 C 154.4256,165.637 154.4177,168.135 154.3694,168.8579 C 154.3555,169.6552 154.3696,170.8861 153.8955,171.5653 C 153.347,172.4232 152.091,173.1619 151.1318,173.1452 C 150.1713,173.1653 149.0353,172.9649 148.0169,172.1864 C 147.0373,171.3725 145.9839,170.5572 145.3977,169.5694 C 144.7727,168.6173 143.702,166.8611 143.5304,166.5312 C 143.428,166.242 143.2595,165.7321 143.2595,165.7321 L 143.365,165.734 L 143.365,165.734 z "
   style="fill:#0a0b0c;fill-rule:nonzero" />
   </g>
   <g
   id="g43">
    <path
   id="_74519680"
   class="fil3"
   d="M 128.795,86.3309 C 128.3673,86.4325 127.7595,86.5294 127.2648,86.3404 C 127.2306,86.2672 126.984,86.1189 126.9898,85.7922 C 126.991,85.721 126.9929,85.6117 127.0307,85.5035 C 127.0772,84.8895 127.4431,84.2446 128.0316,83.168 L 128.9151,81.5183 C 129.9446,79.4357 130.4651,78.1775 130.6275,77.095 C 130.8264,75.8315 130.9535,74.7123 130.97,73.7692 L 130.9757,73.4451 C 130.9589,72.3576 130.3497,70.5021 129.6216,69.4019 C 128.9633,68.4499 128.2003,67.4591 126.72,66.6726 C 124.9945,65.6655 123.535,65.7475 122.3974,65.8004 L 122.3246,65.8359 C 121.0427,65.886 119.6125,66.3689 117.9609,67.2803 C 116.5239,68.1237 115.6132,69.304 114.523,70.696 L 114.3058,70.909 C 114.0875,71.2323 113.8333,71.5151 113.648,71.8748 C 113.7986,71.481 114.0578,70.8686 114.0578,70.8686 L 114.615,69.5377 C 115.2462,67.9566 115.2734,66.3996 115.2899,65.4593 C 115.3075,64.4461 115.0538,62.667 114.8183,61.8679 C 114.5504,61.0297 113.9671,59.7519 113.5196,58.913 L 112.1714,56.7153 L 111.5814,55.8371 C 110.9239,54.812 109.1921,52.1393 108.7143,50.9709 C 108.2711,49.878 107.5109,46.6792 107.2758,45.8784 C 107.1753,45.4787 107.0857,44.5367 106.9901,43.8817 L 106.5241,39.9637 L 105.5443,43.4252 L 105.5443,127.5506 L 106.0932,129.9578 L 107.1679,125.3066 C 107.328,124.368 107.5566,123.5044 107.9697,122.1711 C 108.1975,121.3416 108.6007,120.6976 109.0784,119.838 L 109.5552,118.9766 L 110.5824,117.1855 L 111.2423,116.0005 C 111.9053,114.7811 112.1701,113.7376 112.2561,112.9053 C 112.2957,112.7263 112.2988,112.5454 112.3027,112.3262 C 112.3203,111.315 112.0553,110.1868 111.9218,109.7137 C 111.8536,109.4957 111.7533,109.2405 111.5791,108.9111 C 111.86,109.1325 112.1047,109.3908 112.422,109.6133 C 113.5778,110.6109 114.3541,110.9869 115.1672,111.1818 C 116.194,111.4535 117.2267,111.4007 117.8673,111.3384 L 117.9753,111.3039 C 118.7242,111.2074 119.1876,111.1443 120.3705,110.585 C 121.4105,110.0963 122.6762,108.7802 123.0216,107.3726 C 123.1396,106.7969 123.2611,105.856 123.2762,104.9883 C 123.2875,104.3376 123.2288,103.7193 123.0942,103.2106 C 122.9269,102.664 122.4264,100.7372 122.3293,100.1581 C 122.3312,100.0481 122.2985,99.9743 122.3004,99.8678 C 122.3042,99.6503 122.3798,99.2882 122.5285,99.0008 C 122.6356,98.9321 123.1366,98.7218 123.3159,98.7249 L 126.9757,98.7888 L 125.679,97.7887 C 125.5031,97.6784 124.5567,96.9372 124.096,96.7126 C 123.7089,96.5232 122.7222,95.9994 121.9073,95.9145 C 120.982,95.8253 120.3397,96.0306 119.7998,96.3475 C 119.0467,96.6958 118.5756,97.2306 118.0678,97.766 L 117.0474,99.1951 L 116.757,99.6609 C 116.4283,100.0886 116.0658,100.4091 115.3466,100.903 C 114.7715,101.2913 114.1666,101.2807 113.2095,101.0831 C 112.5022,100.8907 112.0115,100.448 111.6969,100.1161 L 111.5933,100.0042 C 111.4191,99.8214 111.0018,99.1996 110.5856,98.6125 C 111.1978,98.2599 111.2777,97.6475 111.2827,97.357 C 111.2841,97.2839 111.2878,97.0672 111.2558,96.8505 L 111.3997,96.853 L 111.5784,96.7476 C 112.7637,96.0448 113.5696,94.7545 113.5943,93.3433 C 113.6183,91.9673 112.8586,90.6151 111.6977,89.9056 C 111.8106,89.6201 111.8523,89.2939 111.856,89.077 C 111.8624,88.714 111.7978,88.2792 111.4118,87.9111 L 111.8958,86.7964 C 112.1869,86.3314 112.8491,85.1481 112.9933,84.9701 C 113.2842,84.6488 113.7523,84.2934 114.1454,84.23 C 114.644,84.0924 115.2156,83.9949 115.9221,84.2241 C 116.5249,84.3785 117.0846,84.8589 117.534,85.5904 C 117.9156,86.2143 118.1869,86.9792 118.4534,87.9251 L 118.8927,89.1998 C 119.6074,91.0575 120.7363,91.6566 121.5473,91.9618 C 122.5016,92.3022 124.2444,92.3326 125.2815,92.027 C 126.2108,91.7161 127.3268,90.9043 128.1552,90.3389 L 128.6957,89.9855 C 129.3417,89.5627 133.1313,86.4429 133.2742,86.3358 L 135.2969,84.5991 C 134.3321,84.8725 129.258,86.2657 128.795,86.3309 L 128.795,86.3309 z "
   style="fill:#0a0b0c;fill-rule:nonzero" />
    <path
   id="_74519608"
   class="fil4"
   d="M 105.544,47.1134 C 105.6671,46.5389 105.7732,46.0285 105.8564,45.6727 C 106.0118,44.8784 106.242,43.9055 106.242,43.9055 C 106.242,43.9055 106.2513,45.4264 106.4177,46.0441 C 106.6172,46.8071 107.4871,50.0817 107.9982,51.2482 C 108.4744,52.4883 109.9996,54.8319 110.8983,56.2598 C 111.8334,57.6872 112.389,58.5297 112.8375,59.2986 C 113.2495,60.1022 113.8315,61.3438 114.0345,62.0711 C 114.2675,62.8358 114.4882,64.5774 114.4731,65.4452 C 114.4572,66.3493 114.4325,67.7624 113.8375,69.2364 C 113.2784,70.6743 112.3892,72.7942 111.8271,74.3784 C 111.2669,75.8875 110.7026,77.6519 110.3589,79.0595 C 110.0485,80.5389 109.701,82.0511 109.701,82.0511 C 109.701,82.0511 111.7411,77.2728 112.3317,76.0883 C 112.9186,74.9383 113.7369,72.9273 114.9006,71.427 C 116.0662,69.9261 116.9744,68.7847 118.3385,68.0106 C 119.7052,67.2011 121.0653,66.6472 122.347,66.5963 C 123.4846,66.5801 124.767,66.4952 126.3873,67.3544 C 127.5834,68.0624 128.2816,68.8354 128.9383,69.8607 C 129.6326,70.8502 130.1723,72.5609 130.1922,73.4682 C 130.2091,74.5896 130.0048,75.9633 129.8106,76.9716 C 129.6904,77.8032 129.3144,78.9183 128.1748,81.106 C 127.0677,83.3681 126.3757,84.3335 126.2504,85.3457 C 126.1274,86.3576 126.4016,86.9765 126.826,87.0571 C 127.3213,87.2121 127.924,87.2565 128.5685,87.0875 C 129.1735,86.9904 132.6762,86.0009 132.6762,86.0009 C 132.6762,86.0009 128.8906,88.9036 128.2449,89.2899 C 127.5953,89.7492 126.1175,90.8833 125.0459,91.2255 C 124.186,91.5372 122.5873,91.5093 121.8097,91.2052 C 121.1741,90.9778 120.2224,90.4906 119.68,88.9235 C 119.1045,87.3214 118.8044,86.1565 118.2182,85.1686 C 117.7338,84.3995 117.0682,83.7004 116.1133,83.4307 C 115.2647,83.1987 114.5878,83.2965 113.9805,83.3936 C 113.3036,83.525 112.7239,84.0588 112.435,84.4171 C 112.1439,84.7726 111.411,86.0273 111.1902,86.4571 C 110.9679,86.8532 110.6718,87.6451 110.6718,87.6451 L 110.1376,87.6359 L 105.544,87.5557 L 105.544,47.1134 L 105.544,47.1134 z "
   style="fill:#ffffff;fill-rule:nonzero" />
    <path
   id="_74519536"
   class="fil4"
   d="M 109.772,88.1705 L 108.956,88.1564 L 105.5444,88.0968 L 105.5444,89.7272 L 108.9276,89.7863 L 109.7436,89.8004 C 110.6343,89.8161 111.0589,89.8945 111.0734,89.0633 C 111.081,88.6298 110.8394,88.1891 109.772,88.1705 z "
   style="fill:#ffffff;fill-rule:nonzero" />
    <path
   id="_74519464"
   class="fil4"
   d="M 109.313,98.0832 L 108.5688,98.0701 L 105.5435,98.0173 L 105.5435,96.5334 L 108.5947,96.5867 L 109.3389,96.5996 C 110.1217,96.6134 110.5492,96.5474 110.5353,97.344 C 110.5278,97.7777 110.309,98.1005 109.313,98.0832 L 109.313,98.0832 z "
   style="fill:#ffffff;fill-rule:nonzero" />
    <path
   id="_74519392"
   class="fil4"
   d="M 111.153,90.5131 L 110.9039,90.5087 L 108.0962,90.4598 L 105.5438,90.4152 L 105.5438,95.9188 L 107.895,95.9599 L 110.8079,96.0108 L 111.1641,96.0169 C 112.1338,95.4904 112.7561,94.5234 112.777,93.329 C 112.7979,92.1328 112.1392,91.0734 111.153,90.5131 z "
   style="fill:#ffffff;fill-rule:nonzero" />
    <path
   id="_74519320"
   class="fil4"
   d="M 105.544,98.6682 L 109.7307,98.7413 C 109.7307,98.7413 110.6656,100.2073 111.013,100.5748 C 111.3998,100.908 111.9905,101.6419 113.055,101.841 C 114.1162,102.0763 114.9343,102.1277 115.7967,101.563 C 116.6605,101.0357 117.0219,100.6428 117.387,100.1422 C 117.7169,99.604 118.1924,98.8545 118.6638,98.3193 C 119.136,97.747 119.5697,97.3211 120.1443,97.0412 C 120.7533,96.7256 121.3976,96.5561 122.0006,96.6029 C 122.6745,96.6878 123.523,97.027 123.9093,97.2505 C 124.3317,97.4773 125.3498,98.2557 125.3498,98.2557 C 125.3504,98.2192 123.4317,98.1492 123.2187,98.1455 C 122.9693,98.1411 122.1489,98.2706 121.8577,98.736 C 121.6339,99.2027 121.4487,99.669 121.5813,100.2886 C 121.6762,100.9048 122.1749,102.9404 122.3424,103.4878 C 122.6119,104.3606 122.4717,106.2056 122.2065,107.1775 C 121.9744,108.2613 120.9236,109.4371 120.0267,109.8189 C 118.8064,110.4481 118.4881,110.4425 117.7755,110.5397 C 117.1326,110.6014 116.2082,110.6227 115.3235,110.4236 C 114.6158,110.1946 113.9441,109.893 112.9299,109.0079 C 111.9129,108.1561 111.2484,107.5301 110.6916,106.7965 C 110.0649,106.0983 109.6459,105.6543 109.1934,104.9593 C 108.7805,104.2282 108.438,103.535 108.438,103.535 L 108.1912,103.4213 C 108.1912,103.4213 109.0019,105.7898 109.5904,106.7774 C 110.0713,107.7633 110.9682,109.2997 111.1707,109.9548 C 111.3361,110.6079 111.5987,111.88 111.4755,112.7822 C 111.3535,113.7234 111.1253,114.5869 110.5739,115.5913 C 110.0235,116.5597 109.5846,117.2756 108.8864,118.6044 C 108.1524,119.8934 107.5675,120.7532 107.2257,121.9772 C 106.8498,123.2026 106.5477,124.1744 106.3894,125.1486 C 106.1932,126.1226 106.1017,127.3886 106.1017,127.3886 C 106.1017,127.3886 105.8346,125.8616 105.544,124.4263 L 105.544,98.6682 z "
   style="fill:#ffffff;fill-rule:nonzero" />
    <path
   id="_74493392"
   class="fil3"
   d="M 106.294,53.103 C 106.294,53.103 105.9047,55.6106 105.5436,58.8659 L 105.5436,77.5374 C 105.842,80.1499 106.149,82.1161 106.2034,82.7136 C 106.2704,82.9687 106.3047,83.1156 106.3047,83.1156 L 106.5075,81.5979 C 106.5075,81.5979 106.8051,78.8514 106.9612,78.1301 C 107.0795,77.3716 107.6865,73.1825 107.6356,68.0046 C 107.5471,62.8259 106.294,53.103 106.294,53.103 L 106.294,53.103 z "
   style="fill:#0a0b0c;fill-rule:nonzero" />
    <path
   id="_74493320"
   class="fil3"
   d="M 115.512,75.057 C 118.4138,71.8849 121.4249,70.4169 124.3384,72.6416 C 126.094,73.9741 126.3591,77.0205 124.6017,80.0318 C 124.5258,80.2819 124.3064,80.641 124.2318,80.7864 C 123.9709,81.4688 124.0088,81.3599 123.6416,81.9701 C 123.1635,82.8662 122.9741,83.5866 122.959,84.4541 L 122.9432,85.3606 C 122.9742,87.6774 124.2625,89.184 126.4335,89.0776 C 126.6467,89.0812 126.8618,89.085 127.0759,89.0526 C 126.6801,89.2261 126.1437,89.3628 125.6477,89.354 C 122.3045,89.3326 121.902,87.9487 121.9506,85.1606 C 121.9777,83.6063 122.6841,81.8071 123.0152,81.2352 C 124.2266,79.0482 124.4906,76.1183 122.8048,74.8944 C 120.8051,73.4116 117.2683,74.2907 114.4334,77.8632 C 113.3054,79.2552 111.9572,81.1862 110.7491,83.1931 C 111.8626,80.4238 113.5198,77.231 115.512,75.057 L 115.512,75.057 z "
   style="fill:#0a0b0c;fill-rule:nonzero" />
    <path
   id="_74493248"
   class="fil3"
   d="M 106.308,103.317 C 106.308,103.317 105.8384,105.8025 105.5438,108.3341 L 105.5438,114.8452 C 105.6466,115.5367 105.7651,116.1336 105.8602,116.6666 C 106.0175,117.9368 106.1035,119.0618 106.1035,119.0618 C 106.1035,119.0618 106.9798,113.6829 107.055,111.4396 C 107.1299,109.1959 106.5021,104.4419 106.4379,104.0067 C 106.3376,103.571 106.308,103.317 106.308,103.317 L 106.308,103.317 z "
   style="fill:#0a0b0c;fill-rule:nonzero" />
    <path
   id="_74493176"
   class="fil3"
   d="M 108.852,100.14 C 108.852,100.14 109.9565,102.1135 111.0382,103.2542 C 112.1562,104.3968 113.0633,105.3539 114.9755,105.8212 C 116.89,106.2515 117.6095,105.7576 118.1154,105.3322 C 118.619,104.8711 119.0875,104.6253 119.32,103.5448 C 119.5157,102.4612 119.5198,100.1798 119.6025,99.567 C 119.6496,98.9146 119.8713,98.4116 120.3036,98.095 C 120.7364,97.7027 121.2738,97.495 121.6307,97.4649 C 121.9511,97.3629 122.1297,97.4391 122.1297,97.4391 C 122.1297,97.4391 121.4109,97.7508 121.1252,97.8924 C 120.8372,98.0673 120.5863,98.2072 120.3678,98.4936 C 120.1511,98.7065 119.9999,99.1746 119.9552,99.6433 C 119.913,100.0428 119.9047,102.5406 119.8568,103.2641 C 119.8429,104.0616 119.8567,105.2922 119.3826,105.9713 C 118.8339,106.8293 117.578,107.5678 116.6191,107.5511 C 115.6582,107.5712 114.5223,107.3709 113.5039,106.5924 C 112.5241,105.7784 111.4713,104.9631 110.8845,103.9757 C 110.2599,103.0235 109.1892,101.2671 109.0174,100.9374 C 108.9151,100.6478 108.7465,100.1382 108.7465,100.1382 L 108.852,100.14 L 108.852,100.14 z "
   style="fill:#0a0b0c;fill-rule:nonzero" />
   </g>
   <g
   id="g55">
    <path
   id="_74493080"
   class="fil3"
   d="M 128.604,207.985 C 128.1763,208.0866 127.5685,208.1836 127.0738,207.9945 C 127.0396,207.9213 126.793,207.7731 126.7988,207.4464 C 126.8,207.3752 126.8019,207.2658 126.8397,207.1576 C 126.8862,206.5437 127.2521,205.8988 127.8406,204.8222 L 128.7241,203.1725 C 129.7536,201.0899 130.2741,199.8317 130.4365,198.7491 C 130.6354,197.4857 130.7625,196.3665 130.7791,195.4234 L 130.7847,195.0993 C 130.7679,194.0118 130.1587,192.1563 129.4306,191.0561 C 128.7723,190.1041 128.0093,189.1132 126.529,188.3267 C 124.8035,187.3197 123.344,187.4016 122.2064,187.4545 L 122.1336,187.4901 C 120.8518,187.5401 119.4215,188.0231 117.7699,188.9344 C 116.333,189.7779 115.4222,190.9581 114.3321,192.3502 L 114.1149,192.5631 C 113.8965,192.8865 113.6423,193.1692 113.457,193.5289 C 113.6076,193.1352 113.8669,192.5227 113.8669,192.5227 L 114.424,191.1918 C 115.0552,189.6107 115.0824,188.0537 115.0989,187.1135 C 115.1166,186.1003 114.8628,184.3212 114.6273,183.5221 C 114.3595,182.6839 113.7762,181.4061 113.3286,180.5671 L 111.9805,178.3694 L 111.3904,177.4912 C 110.7329,176.4661 109.0011,173.7935 108.5233,172.6251 C 108.0801,171.5322 107.3199,168.3334 107.0848,167.5325 C 106.9843,167.1329 106.8947,166.1909 106.7992,165.5359 L 106.3331,161.6179 L 105.544,164.4057 L 105.544,250.0409 L 105.9022,251.6119 L 106.977,246.9608 C 107.137,246.0221 107.3656,245.1586 107.7787,243.8253 C 108.0066,242.9958 108.4097,242.3518 108.8874,241.4922 L 109.3642,240.6308 L 110.3914,238.8397 L 111.0513,237.6547 C 111.7143,236.4353 111.9791,235.3918 112.0652,234.5595 C 112.1047,234.3805 112.1078,234.1995 112.1117,233.9803 C 112.1293,232.9691 111.8643,231.8409 111.7308,231.3678 C 111.6627,231.1499 111.5623,230.8946 111.3881,230.5652 C 111.669,230.7867 111.9138,231.0449 112.2311,231.2675 C 113.3868,232.2651 114.1631,232.6411 114.9762,232.836 C 116.003,233.1076 117.0358,233.0548 117.6764,232.9925 L 117.7843,232.9581 C 118.5332,232.8615 118.9966,232.7985 120.1795,232.2392 C 121.2195,231.7505 122.4852,230.4343 122.8306,229.0267 C 122.9486,228.4511 123.0701,227.5102 123.0852,226.6425 C 123.0965,225.9917 123.0378,225.3734 122.9032,224.8648 C 122.7359,224.3182 122.2354,222.3913 122.1383,221.8123 C 122.1402,221.7023 122.1076,221.6285 122.1094,221.522 C 122.1132,221.3044 122.1888,220.9423 122.3375,220.6549 C 122.4446,220.5862 122.9456,220.3759 123.1249,220.379 L 126.7848,220.443 L 125.488,219.4429 C 125.3121,219.3325 124.3657,218.5913 123.905,218.3668 C 123.5179,218.1773 122.5312,217.6536 121.7163,217.5686 C 120.7911,217.4794 120.1487,217.6847 119.6088,218.0017 C 118.8557,218.35 118.3847,218.8847 117.8768,219.4201 L 116.8565,220.8492 L 116.5661,221.3151 C 116.2374,221.7427 115.8748,222.0633 115.1556,222.5571 C 114.5805,222.9455 113.9756,222.9348 113.0186,222.7373 C 112.3113,222.5448 111.8206,222.1022 111.5059,221.7702 L 111.4023,221.6584 C 111.2281,221.4756 110.8108,220.8537 110.3946,220.2667 C 111.0068,219.9141 111.0867,219.3016 111.0917,219.0111 C 111.0931,218.938 111.0969,218.7213 111.0648,218.5046 L 111.2087,218.5071 L 111.3874,218.4018 C 112.5728,217.699 113.3787,216.4086 113.4033,214.9974 C 113.4273,213.6215 112.6676,212.2692 111.5068,211.5598 C 111.6196,211.2743 111.6613,210.9481 111.665,210.7311 C 111.6714,210.3682 111.6068,209.9334 111.2209,209.5653 L 111.7048,208.4506 C 111.996,207.9855 112.6581,206.8023 112.8024,206.6242 C 113.0933,206.3029 113.5613,205.9476 113.9545,205.8842 C 114.453,205.7465 115.0246,205.6491 115.7311,205.8783 C 116.334,206.0327 116.8936,206.513 117.343,207.2446 C 117.7247,207.8684 117.9959,208.6334 118.2624,209.5793 L 118.7017,210.854 C 119.4164,212.7116 120.5453,213.3107 121.3564,213.616 C 122.3106,213.9563 124.0534,213.9867 125.0905,213.6812 C 126.0198,213.3703 127.1358,212.5585 127.9643,211.9931 L 128.5048,211.6396 C 129.1508,211.2168 132.9404,208.097 133.0832,207.9899 L 135.1059,206.2533 C 134.1411,206.5266 129.067,207.9198 128.604,207.985 L 128.604,207.985 z "
   style="fill:#0a0b0c;fill-rule:nonzero" />
    <path
   id="_74493008"
   class="fil4"
   d="M 105.544,167.874 C 105.5884,167.6673 105.6293,167.4822 105.6657,167.3268 C 105.8211,166.5326 106.0513,165.5596 106.0513,165.5596 C 106.0513,165.5596 106.0606,167.0806 106.227,167.6983 C 106.4266,168.4613 107.2964,171.7359 107.8075,172.9024 C 108.2837,174.1424 109.8089,176.486 110.7076,177.914 C 111.6428,179.3413 112.1983,180.1839 112.6468,180.9527 C 113.0589,181.7564 113.6408,182.9979 113.8438,183.7253 C 114.0768,184.49 114.2975,186.2315 114.2824,187.0993 C 114.2665,188.0034 114.2418,189.4165 113.6468,190.8906 C 113.0878,192.3284 112.1985,194.4483 111.6364,196.0326 C 111.0762,197.5416 110.5119,199.306 110.1682,200.7136 C 109.8578,202.193 109.5104,203.7052 109.5104,203.7052 C 109.5104,203.7052 111.5504,198.9269 112.141,197.7424 C 112.7279,196.5925 113.5462,194.5814 114.7099,193.0811 C 115.8755,191.5802 116.7838,190.4389 118.1478,189.6648 C 119.5145,188.8552 120.8746,188.3013 122.1564,188.2504 C 123.2939,188.2343 124.5763,188.1493 126.1966,189.0085 C 127.3927,189.7166 128.0909,190.4896 128.7476,191.5149 C 129.4419,192.5043 129.9817,194.2151 130.0016,195.1223 C 130.0185,196.2438 129.8141,197.6174 129.6199,198.6258 C 129.4997,199.4573 129.1237,200.5725 127.9841,202.7602 C 126.877,205.0222 126.1851,205.9876 126.0597,206.9998 C 125.9367,208.0118 126.211,208.6306 126.6354,208.7112 C 127.1306,208.8662 127.7333,208.9107 128.3778,208.7416 C 128.9828,208.6445 132.4855,207.6551 132.4855,207.6551 C 132.4855,207.6551 128.7,210.5577 128.0542,210.9441 C 127.4046,211.4034 125.9268,212.5375 124.8552,212.8797 C 123.9954,213.1913 122.3966,213.1634 121.619,212.8594 C 120.9834,212.6319 120.0317,212.1447 119.4893,210.5776 C 118.9138,208.9756 118.6138,207.8106 118.0276,206.8228 C 117.5431,206.0537 116.8775,205.3545 115.9226,205.0849 C 115.074,204.8528 114.3971,204.9506 113.7898,205.0477 C 113.1129,205.1791 112.5332,205.713 112.2443,206.0712 C 111.9532,206.4268 111.2204,207.6815 110.9995,208.1113 C 110.7772,208.5074 110.4812,209.2993 110.4812,209.2993 L 109.9469,209.29 L 105.544,209.2132 L 105.544,167.874 L 105.544,167.874 z "
   style="fill:#ffffff;fill-rule:nonzero" />
    <path
   id="_74492936"
   class="fil4"
   d="M 109.581,209.825 L 108.765,209.8108 L 105.5441,209.7545 L 105.5441,211.3849 L 108.7366,211.4407 L 109.5526,211.4549 C 110.4433,211.4705 110.8679,211.549 110.8824,210.7178 C 110.89,210.2843 110.6484,209.8436 109.581,209.825 L 109.581,209.825 z "
   style="fill:#ffffff;fill-rule:nonzero" />
    <path
   id="_74492864"
   class="fil4"
   d="M 109.123,219.738 L 108.3788,219.725 L 105.5441,219.6754 L 105.5441,218.1917 L 108.4047,218.2416 L 109.1489,218.2545 C 109.9316,218.2682 110.3591,218.2023 110.3452,218.9988 C 110.3377,219.4326 110.1189,219.7554 109.123,219.738 L 109.123,219.738 z "
   style="fill:#ffffff;fill-rule:nonzero" />
    <path
   id="_74492792"
   class="fil4"
   d="M 110.962,212.168 L 110.7129,212.1637 L 107.9052,212.1147 L 105.5435,212.0735 L 105.5435,217.5772 L 107.704,217.6148 L 110.6169,217.6658 L 110.9731,217.6719 C 111.9428,217.1454 112.5651,216.1784 112.586,214.984 C 112.6069,213.7877 111.9482,212.7283 110.962,212.168 L 110.962,212.168 z "
   style="fill:#ffffff;fill-rule:nonzero" />
    <path
   id="_74492720"
   class="fil4"
   d="M 105.544,220.326 L 109.54,220.3958 C 109.54,220.3958 110.4749,221.8618 110.8224,222.2293 C 111.2091,222.5625 111.7998,223.2965 112.8643,223.4955 C 113.9255,223.7309 114.7436,223.7823 115.606,223.2175 C 116.4698,222.6903 116.8312,222.2974 117.1963,221.7968 C 117.5262,221.2585 118.0017,220.5091 118.4731,219.9738 C 118.9453,219.4015 119.379,218.9756 119.9536,218.6957 C 120.5626,218.3802 121.207,218.2106 121.8099,218.2574 C 122.4838,218.3424 123.3324,218.6816 123.7186,218.905 C 124.141,219.1319 125.1591,219.9102 125.1591,219.9102 C 125.1597,219.8737 123.241,219.8038 123.0281,219.8 C 122.7786,219.7956 121.9582,219.9251 121.667,220.3906 C 121.4432,220.8573 121.258,221.3236 121.3906,221.9432 C 121.4855,222.5594 121.9842,224.5949 122.1517,225.1423 C 122.4212,226.0152 122.281,227.8602 122.0159,228.8321 C 121.7838,229.9159 120.7329,231.0916 119.836,231.4735 C 118.6158,232.1027 118.2974,232.0971 117.5848,232.1943 C 116.9419,232.256 116.0175,232.2772 115.1328,232.0782 C 114.4251,231.8492 113.7534,231.5475 112.7392,230.6625 C 111.7222,229.8106 111.0577,229.1847 110.5009,228.4511 C 109.8742,227.7528 109.4552,227.3089 109.0028,226.6139 C 108.5899,225.8828 108.2473,225.1895 108.2473,225.1895 L 108.0005,225.0759 C 108.0005,225.0759 108.8112,227.4444 109.3998,228.432 C 109.8806,229.4179 110.7776,230.9542 110.98,231.6094 C 111.1454,232.2625 111.408,233.5346 111.2848,234.4368 C 111.1628,235.3779 110.9346,236.2415 110.3832,237.2458 C 109.8328,238.2142 109.3939,238.9302 108.6957,240.2589 C 107.9618,241.5479 107.3768,242.4077 107.035,243.6318 C 106.6592,244.8572 106.357,245.829 106.1987,246.8031 C 106.0025,247.7772 105.9111,249.0431 105.9111,249.0431 C 105.9111,249.0431 105.7509,248.1282 105.544,247.0493 L 105.544,220.326 L 105.544,220.326 z "
   style="fill:#ffffff;fill-rule:nonzero" />
    <path
   id="_74492648"
   class="fil3"
   d="M 106.104,174.757 C 106.104,174.757 105.8395,176.4605 105.5443,178.8824 L 105.5443,200.7758 C 105.7722,202.5842 105.9708,203.8983 106.0135,204.3676 C 106.0804,204.6227 106.1147,204.7696 106.1147,204.7696 L 106.3175,203.2519 C 106.3175,203.2519 106.6152,200.5055 106.7712,199.7841 C 106.8895,199.0257 107.4965,194.8366 107.4456,189.6587 C 107.3571,184.48 106.104,174.757 106.104,174.757 L 106.104,174.757 z "
   style="fill:#0a0b0c;fill-rule:nonzero" />
    <path
   id="_74492576"
   class="fil3"
   d="M 115.322,196.712 C 118.2238,193.5399 121.2349,192.0719 124.1484,194.2966 C 125.904,195.6291 126.1691,198.6755 124.4117,201.6867 C 124.3359,201.9368 124.1164,202.2959 124.0418,202.4413 C 123.781,203.1237 123.8189,203.0149 123.4516,203.6251 C 122.9736,204.5212 122.7841,205.2416 122.769,206.109 L 122.7532,207.0155 C 122.7843,209.3324 124.0725,210.8389 126.2435,210.7326 C 126.4567,210.7362 126.6718,210.7399 126.8859,210.7075 C 126.4902,210.8811 125.9538,211.0177 125.4577,211.0089 C 122.1145,210.9876 121.712,209.6036 121.7607,206.8156 C 121.7877,205.2612 122.4941,203.462 122.8252,202.8901 C 124.0366,200.7032 124.3006,197.7733 122.6148,196.5494 C 120.6151,195.0666 117.0783,195.9457 114.2434,199.5182 C 113.1155,200.9101 111.7672,202.8412 110.5592,204.8481 C 111.6726,202.0787 113.3298,198.8859 115.322,196.712 L 115.322,196.712 z "
   style="fill:#0a0b0c;fill-rule:nonzero" />
    <path
   id="_74492504"
   class="fil3"
   d="M 106.117,224.972 C 106.117,224.972 105.8151,226.5698 105.5435,228.5081 L 105.5435,237.6327 C 105.5878,237.8744 105.6303,238.1035 105.6692,238.3217 C 105.8265,239.5919 105.9126,240.7168 105.9126,240.7168 C 105.9126,240.7168 106.7888,235.338 106.864,233.0946 C 106.9389,230.851 106.3111,226.097 106.2469,225.6618 C 106.1467,225.226 106.117,224.972 106.117,224.972 L 106.117,224.972 z "
   style="fill:#0a0b0c;fill-rule:nonzero" />
    <path
   id="_74492432"
   class="fil3"
   d="M 108.661,221.794 C 108.661,221.794 109.7655,223.7675 110.8472,224.9082 C 111.9652,226.0508 112.8723,227.0078 114.7845,227.4751 C 116.699,227.9054 117.4185,227.4116 117.9244,226.9862 C 118.428,226.5251 118.8966,226.2792 119.129,225.1987 C 119.3247,224.1152 119.3289,221.8338 119.4116,221.2209 C 119.4586,220.5686 119.6803,220.0656 120.1126,219.7489 C 120.5454,219.3567 121.0828,219.149 121.4397,219.1188 C 121.7602,219.0168 121.9387,219.093 121.9387,219.093 C 121.9387,219.093 121.2199,219.4047 120.9343,219.5464 C 120.6462,219.7213 120.3954,219.8612 120.1768,220.1475 C 119.9601,220.3605 119.8089,220.8286 119.7643,221.2973 C 119.722,221.6968 119.7137,224.1945 119.6658,224.9181 C 119.6519,225.7156 119.6657,226.9461 119.1916,227.6253 C 118.643,228.4832 117.387,229.2218 116.4281,229.205 C 115.4672,229.2252 114.3314,229.0248 113.3129,228.2464 C 112.3331,227.4323 111.2803,226.6171 110.6935,225.6296 C 110.0689,224.6775 108.9982,222.9211 108.8264,222.5914 C 108.7242,222.3017 108.5555,221.7921 108.5555,221.7921 L 108.661,221.794 L 108.661,221.794 z "
   style="fill:#0a0b0c;fill-rule:nonzero" />
   </g>
   <path
   id="_74359408"
   class="fil5"
   d="M 53.0854,128.425 C 53.0273,126.7615 53.0877,124.6176 52.9568,123.5216 C 52.7598,121.8721 51.8941,121.2234 51.0325,120.6908 C 49.1344,119.5191 46.9789,119.3601 44.9933,118.1884 C 40.929,115.7899 36.8592,109.6 35.1938,101.8905 L 26.7581,62.8406 C 26.061,59.6134 28.0816,58.3986 30.4717,58.014 C 55.306,54.0175 80.2268,55.7645 92.6085,58.2517 C 96.2392,58.9809 97.276,60.1596 96.4063,63.9329 L 87.3438,103.2363 C 86.9064,105.135 86.1218,107.1883 85.4771,109.0597 C 84.1614,112.8756 82.5378,114.793 78.8245,117.0593 C 76.7037,118.3538 73.7852,120.1247 70.4791,121.7418 C 70.3935,122.2651 70.2098,124.6134 70.1134,126.5249 C 70.0747,127.2952 70.0025,128.0959 70.5765,128.6935 C 71.0143,129.1495 71.9082,129.6082 71.8037,130.3843 C 71.6127,131.8043 70.1934,131.4647 69.1127,131.6119 L 71.0944,131.8781 C 70.8571,132.2773 70.8912,132.5926 71.1158,132.8397 C 71.4704,133.23 72.0218,133.7104 72.9908,133.8335 C 73.7445,133.9293 74.8654,133.7966 75.6088,133.3195 C 76.4285,132.7935 78.3118,133.2175 79.2345,133.6516 L 74.4295,141.6006 L 80.0218,133.3049 L 81.8694,136.1364 L 85.3005,135.4169 L 83.0742,140.3787 L 85.7102,135.8757 L 88.8907,142.7745 L 86.0144,149.5451 L 84.0455,145.9814 L 85.686,150.0475 L 81.0704,150.0405 L 79.9616,151.6428 L 74.5313,141.6475 L 79.7083,152.2404 C 79.1846,152.1962 78.6836,151.9716 78.1151,151.7536 C 77.4969,151.5165 76.9383,151.4796 76.3295,151.7703 C 75.5961,152.1206 74.5554,152.6018 73.3329,152.0162 C 72.5234,151.6285 72.1783,151.4301 71.5067,151.4304 C 70.8044,151.4308 69.8574,151.4932 69.1217,151.5225 C 68.4182,152.0343 68.0594,152.9551 68.6582,153.78 C 69.2076,154.5368 70.2709,154.945 69.9306,156.0258 C 69.8191,156.3796 69.5702,156.7514 69.133,157.0041 L 66.9507,157.1547 L 69.0497,157.4384 C 69.0203,162.6059 69.4839,168.1504 71.2013,173.0791 C 72.3521,176.3816 73.5007,179.5183 76.0327,182.0504 C 77.6302,183.6471 79.5566,185.1423 81.9107,186.3454 L 78.459,183.2785 L 85.0399,184.6521 L 87.1155,186.1311 C 90.2625,187.021 96.2732,187.6777 95.7896,189.4647 L 93.7883,189.4647 L 96.0455,189.7716 C 96.8013,189.8742 97.6738,190.2416 98.5006,191.2948 C 98.8398,191.7269 99.2424,192.2368 99.652,192.8972 C 100.439,193.2553 102.2434,194.1647 102.9662,194.6037 C 103.666,195.0286 104.4483,196.0978 102.5411,196.8688 L 100.7494,196.269 L 99.1483,194.668 L 99.8493,196.3262 C 98.0334,197.3383 95.9041,198.1575 93.6617,198.9071 C 94.3791,199.1027 100.5319,196.8819 100.5319,196.5235 C 101.4382,196.7358 103.1535,197.5905 103.7927,198.1713 C 104.8371,199.1202 104.5394,200.1657 103.1893,200.6927 C 96.4831,203.3107 86.8166,203.5906 85.4799,203.4549 L 82.1996,199.8707 L 80.1996,192.7046 C 76.7766,191.2976 73.967,188.6376 71.7341,185.4724 C 67.3485,179.2552 66.2432,171.828 65.0789,164.4158 C 66.1126,175.2183 67.4427,180.8567 70.1131,184.9795 C 72.13,188.0934 74.6281,190.9244 78.4071,192.6667 C 74.6781,194.2939 70.9822,195.2904 67.3143,195.7645 C 70.5797,195.7465 74.563,195.1465 80.0759,193.3068 L 81.2428,199.1502 C 77.6485,200.2553 73.5196,201.0474 69.3176,201.8488 L 81.6091,199.9285 L 84.0901,203.7483 C 79.5587,206.1092 71.1289,206.9384 63.0092,207.1885 C 53.9898,207.4662 44.5693,206.2455 38.9316,204.2392 L 41.7213,200.3398 C 44.6678,201.0599 48.3144,201.508 52.3536,201.8032 C 48.7758,201.1096 45.2526,200.4158 42.0401,199.7225 L 43.1153,193.6043 C 45.9415,194.8967 51.8659,195.5817 56.8314,196.1802 C 52.6969,195.3597 48.6519,194.1132 44.6658,192.5845 C 46.8994,191.7695 49.559,189.8886 51.3965,187.9304 C 54.0674,185.0847 55.2559,181.302 56.3185,177.6399 C 57.5891,173.261 57.9782,168.2851 58.2622,164.5306 C 57.9602,166.7772 57.4009,174.5332 54.0243,181.5146 C 51.432,186.8749 48.3816,190.195 42.8941,192.7873 L 41.3908,200.0795 L 37.7357,203.7556 C 32.269,203.5849 24.2637,203.1953 19.3449,200.6085 C 17.9914,199.8966 18.1306,199.0829 19.1535,198.4589 C 20.0561,197.9084 21.6785,197.5371 23.1195,197.0611 C 26.5036,199.1403 28.3871,198.8787 30.5802,199.3358 C 28.8719,198.9722 24.5978,197.6044 23.5787,196.6 L 24.4769,194.61 L 23.2424,196.59 L 21.0067,197.2025 C 17.8861,194.9706 21.2166,193.3649 24.0892,193.0188 C 24.4923,191.5635 25.5629,190.5054 26.5892,190.1747 L 31.6223,189.8891 L 27.0794,189.6093 C 27.3785,188.4875 28.4095,187.9233 29.5288,187.775 C 31.4503,187.5204 33.2984,186.7751 36.0401,186.3229 L 37.8467,185.0472 C 40.1462,184.6714 42.7521,184.0371 46.2055,182.6896 C 45.1144,184.2627 43.9174,185.0649 42.5619,186.4046 C 44.6487,185.2896 47.8874,182.3263 49.5954,179.1136 C 51.741,175.0779 52.6381,171.474 53.2346,166.833 C 53.6849,163.3292 53.9614,160.1133 54.1602,157.927 L 55.9111,157.5088 L 54.0448,157.6118 C 52.3821,156.3509 53.1776,155.3056 53.904,154.5345 C 54.6254,153.7687 55.0508,153.0824 54.5306,151.9833 C 53.9982,150.8596 51.9661,151.5606 50.6867,152.0187 C 49.4848,152.4493 48.6189,152.6421 47.4334,151.8735 C 46.8931,151.5231 45.8757,151.5407 45.1441,151.7552 C 44.4985,151.9447 44.2141,152.2063 43.8793,152.2063 L 49.028,141.8931 L 43.177,151.886 L 41.8846,150.0334 L 37.5175,150.5934 L 39.2183,146.943 L 37.2323,150.1983 L 33.9849,143.7718 L 37.1797,136.8352 L 39.4904,140.8833 L 37.3526,136.2674 L 41.4061,136.2858 L 42.5703,134.1637 L 48.9201,141.6055 L 42.7188,133.3239 L 44.1112,133.8549 C 45.4803,131.4928 50.9739,136.6009 52.4157,132.033 L 54.1722,131.8302 L 52.1024,131.6774 C 50.0955,130.3099 52.8792,128.6977 53.0854,128.425 L 53.0854,128.425 z "
   style="fill:#ffc900" />
   <path
   id="_74359336"
   class="fil0"
   d="M 54.9109,118.934 C 55.9577,119.338 56.7279,119.94 57.143,120.9745 C 59.9247,121.3368 62.5788,121.381 65.755,121.4061 C 66.2604,120.0988 67.8872,119.3399 69.0428,119.11 C 68.0473,119.6062 66.8735,120.6204 66.809,121.3173 C 69.1384,120.8511 71.7569,119.8293 74.0436,118.8406 C 71.7079,120.035 68.7815,121.2631 66.9426,121.7613 C 66.8782,121.7789 66.8257,121.7903 66.7819,121.7975 C 66.3868,122.9954 66.2563,124.706 66.1782,126.4654 C 66.059,124.8739 65.8513,123.2964 66.0006,121.7495 C 64.9742,121.8462 63.6118,121.9783 62.536,122.0105 C 60.6729,122.0661 58.9107,121.888 57.2854,121.5791 C 57.4347,122.7729 57.3915,123.9459 57.2565,125.1085 C 57.2565,123.9141 57.1873,122.5373 56.7709,121.4758 C 53.4434,120.7759 50.7279,119.5536 48.9531,118.7382 C 51.3911,119.5405 53.9066,120.436 56.1634,120.8296 C 56.0296,119.9863 55.6441,119.3957 54.9109,118.934 z M 43.0333,149.441 L 43.2539,149.9011 L 44.8271,146.5081 L 43.0333,149.441 z M 42.0757,136.6056 L 44.3504,139.8177 L 42.784,136.6158 L 42.0757,136.6056 z M 78.4827,146.2239 L 79.9128,149.8205 L 80.1028,149.1679 L 78.4827,146.2239 z M 77.8792,139.696 L 79.7208,136.3539 L 80.417,136.3526 L 77.8792,139.696 L 77.8792,139.696 z M 53.2657,141.7169 L 61.6305,133.3908 L 70.2113,141.4002 L 61.8035,132.465 L 53.2657,141.7169 z M 56.2026,141.627 L 61.6726,134.7098 L 66.8865,141.388 L 61.8156,136.8438 L 56.2026,141.627 z M 56.2035,141.7114 L 61.8446,148.0238 L 67.095,141.6171 L 61.7913,146.4781 L 56.2035,141.7114 z M 53.3602,141.8726 L 61.8269,151.298 L 70.4141,141.5381 L 61.7502,150.2356 L 53.3602,141.8726 L 53.3602,141.8726 z M 88.9252,193.0621 C 92.6809,193.1642 95.7059,192.8128 97.4405,191.7293 C 96.3344,194.904 91.696,193.8535 88.9252,193.0621 z M 25.1784,191.3747 C 26.8948,193.1579 30.8449,193.181 34.598,193.3597 C 32.2944,193.4493 29.5881,193.4444 27.9969,193.4118 C 26.4847,193.3811 25.5131,192.9045 25.1784,191.3747 L 25.1784,191.3747 z "
   style="fill:#0a0b0c" />
   <path
   id="_74359192"
   class="fil1"
   d="M 83.2261,142.924 L 85.681,137.4761 L 88.0169,142.4939 L 85.967,148.0852 L 83.2261,142.924 L 83.2261,142.924 z M 57.5075,141.7293 L 61.7502,137.3805 L 66.0341,141.6582 L 61.8221,145.9102 L 57.5075,141.7293 z M 37.1055,138.4847 L 39.4646,143.6408 L 37.3671,149.063 L 34.5766,143.7144 L 37.1055,138.4847 z "
   style="fill:#c0051d" />
  </g>
 </g>
</svg>