<?xml version="1.0" encoding="UTF-8" standalone="no"?>
<svg
   xmlns:dc="http://purl.org/dc/elements/1.1/"
   xmlns:cc="http://web.resource.org/cc/"
   xmlns:rdf="http://www.w3.org/1999/02/22-rdf-syntax-ns#"
   xmlns:svg="http://www.w3.org/2000/svg"
   xmlns="http://www.w3.org/2000/svg"
   xmlns:sodipodi="http://sodipodi.sourceforge.net/DTD/sodipodi-0.dtd"
   xmlns:inkscape="http://www.inkscape.org/namespaces/inkscape"
   xml:space="preserve"
   width="546.973"
   height="762.835"
   style="shape-rendering:geometricPrecision; text-rendering:geometricPrecision; image-rendering:optimizeQuality; fill-rule:evenodd; clip-rule:evenodd"
   viewBox="0 0 546.973 762.835"
   id="svg2"
   version="1.0">
  <defs id="defs4">
    <style type="text/css" id="style6">
      .fil0 {fill:#222222;fill-rule:evenodd}
      .fil1 {fill:#11b1ee;fill-rule:evenodd}
      .fil2 {fill:#fffdfd;fill-rule:evenodd}
      .fil3 {fill:#fff101;fill-rule:evenodd}
      .fil4 {fill:#3ba66d;fill-rule:evenodd}
    </style>
    <marker id="ArrowEnd" viewBox="0 0 10 10" refX="0" refY="5" markerUnits="strokeWidth" markerWidth="4" markerHeight="3" orient="auto">
      <path d="M 0 0 L 10 5 L 0 10 z"/>
    </marker>
    <marker id="ArrowStart" viewBox="0 0 10 10" refX="10" refY="5" markerUnits="strokeWidth" markerWidth="4" markerHeight="3" orient="auto">
      <path d="M 10 0 L 0 5 L 10 10 z"/>
    </marker>
  </defs>
  <g id="Layer_1">
    <path class="fil0" d="M 546.973 0L 546.973 509.875C 546.973 847.153 0 847.157 0 509.875L 0 0L 30.0039 0L 30.0039 24.95L 51.0039 24.95L 51.0039 0L 83.4567 0L 83.4567 42.77L 145.821 42.77L 145.821 0L 177.637 0L 177.637 24.95L 198.637 24.95L 198.637 0L 231.727 0L 231.727 42.77L 302.364 42.77L 302.364 0L 332.91 0L 332.91 24.95L 353.91 24.95L 353.91 0L 388.91 0L 388.91 42.77L 462.094 42.77L 462.094 0L 493.91 0L 493.91 24.95L 514.91 24.95L 514.91 0L 546.942 0"/>
    <path class="fil1" d="M 522.996 132.407L 522.996 504.434C 522.996 567.344 502.762 617.579 470.465 655.157C 462.563 646.145 454.219 638.676 445.449 632.668L 445.449 576.793L 419.407 576.793L 419.407 526.211L 400.879 526.211L 400.879 482.141L 384.196 482.141L 384.196 418.043C 381.629 418.188 379.141 417.719 376.723 418.024L 376.723 240.047C 387.684 236.34 395.629 225.934 395.629 213.762L 395.629 154.594L 357.418 154.594L 357.418 185.411L 328.145 185.411L 328.145 154.594L 287.778 154.594L 287.778 185.411L 258.504 185.411L 258.504 154.594L 218.137 154.594L 218.137 185.411L 188.864 185.411L 188.864 154.594L 149.727 154.594L 149.727 213.762C 149.727 226.524 158.465 237.344 170.258 240.536L 170.258 479.141L 140.469 479.141L 140.469 523.211L 121.942 523.211L 121.942 573.793L 95.8987 573.793L 95.8987 626.075C 86.6877 631.254 77.7847 637.911 69.2031 646.122C 41.2148 609.653 24.0117 562.438 24.0117 504.438L 24.0117 132.411L 523.035 132.411"/>
    <path class="fil2" d="M 371.946 419.282C 351.434 421.364 335.235 433.758 326.86 450.153C 326.598 450.555 326.254 450.547 326.032 450.008C 307.36 394.278 206.953 400.743 206.953 469.411L 206.953 583.372C 196.157 589.946 184.856 598.399 176.407 608.747L 176.407 241.481L 371.953 241.454L 371.953 419.282L 371.946 419.282zM 270.27 278.985C 266.219 273.661 259.817 270.207 252.633 270.207C 240.43 270.207 230.477 280.161 230.477 292.36C 230.477 303.497 238.77 312.758 249.496 314.293C 248.34 316.977 247.692 319.934 247.692 323.036C 247.692 335.239 257.641 345.192 269.848 345.192C 282.047 345.192 292 335.243 292 323.036C 292 319.973 291.375 317.051 290.239 314.395C 301.352 313.227 310.063 303.778 310.063 292.364C 310.063 280.165 300.114 270.211 287.91 270.211C 280.727 270.211 274.325 273.661 270.27 278.989L 270.27 278.985zM 324.489 579.004C 322.34 577.93 316.864 576.266 314.657 575.333L 314.657 474.055C 314.657 409.485 220.028 409.485 220.028 474.055L 220.028 576.516C 217.825 577.5 215.641 578.551 213.492 579.68L 213.492 471.735C 213.492 401.543 324.496 402.2 324.496 472.391L 324.496 579.004L 324.489 579.004zM 170.231 485.641L 170.231 613.782C 146.375 609.872 123.867 612.485 102.879 622.434L 102.879 580.7L 127.918 580.7L 127.918 530.618L 147.449 530.618L 147.449 485.645L 170.227 485.645L 170.231 485.641zM 438.438 628.223C 421.754 618.493 403.629 613.735 384.192 613.454L 384.192 488.645L 393.864 488.645L 393.864 532.918L 413.395 532.918L 413.395 583.7L 438.434 583.7L 438.434 628.219L 438.438 628.223zM 379.051 613.528C 374.184 613.704 367.836 614.145 362.813 614.852C 354.692 602.825 342.68 591.051 331.426 583.477L 331.426 572.879C 334.383 572.457 339.821 572.481 342.856 573.083C 345.895 579.047 339.578 580.559 338.016 584.301C 348.594 590.399 355.129 581.543 353.489 573.083C 356.422 573.372 359.676 571.04 361.184 568.231C 359.575 565.793 358.594 564.071 353.887 562.981C 354.86 552.625 348.528 549.977 340.559 552.161C 341.172 554.961 345.379 556.942 343.332 562.504C 339.305 563.098 334.367 563.379 331.43 562.899L 331.43 511.614C 334.387 511.192 339.825 511.219 342.86 511.817C 345.899 517.782 339.582 519.293 338.02 523.036C 348.598 529.133 355.133 520.278 353.492 511.817C 356.426 512.106 359.68 509.778 361.188 506.965C 359.578 504.528 358.598 502.801 353.891 501.715C 354.864 491.36 348.532 488.711 340.563 490.895C 341.176 493.696 345.383 495.676 343.336 501.239C 339.309 501.833 334.371 502.114 331.434 501.633L 331.434 454.598C 339.426 435.618 357.559 425.375 379.063 423.872L 379.063 613.528L 379.051 613.528zM 389.082 161.118L 389.082 211.379C 389.082 224.336 377.266 234.938 362.825 234.938L 182.5 234.938C 168.059 234.938 156.242 224.336 156.242 211.379L 156.242 161.118L 182.305 161.118L 182.305 191.934L 224.653 191.934L 224.653 161.118L 251.949 161.118L 251.949 191.934L 294.297 191.934L 294.297 161.118L 321.59 161.118L 321.59 191.934L 363.938 191.934L 363.938 161.118L 389.075 161.118"/>
    <path class="fil3" d="M 388.934 49.77L 462.117 49.77L 462.117 108.954L 388.934 108.954L 388.934 49.77zM 231.106 49.77L 302.379 49.77L 302.379 108.954L 231.106 108.954L 231.106 49.77zM 84.0977 49.77L 145.825 49.77L 145.825 108.954L 84.0977 108.954L 84.0977 49.77zM 540.434 114.969L 540.434 508.387C 540.434 838.93 6.5351 838.93 6.5351 508.387L 6.5351 114.969L 540.434 114.969zM 529.535 125.868L 529.535 505.918C 529.535 825.227 17.4336 825.227 17.4336 505.918L 17.4336 125.868L 529.535 125.868zM 308.117 572.801C 282.02 563.618 252.797 563.961 226.563 573.825L 226.563 476.375C 226.563 417.43 308.117 417.43 308.117 476.375L 308.117 572.801"/>
    <path class="fil4" d="M 7.0937 7.77002L 24.9101 7.77002L 24.9101 31.95L 56.7265 31.95L 56.7265 7.77002L 78.3637 7.77002L 78.3637 108.954L 7.0898 108.954L 7.0898 7.77002L 7.0937 7.77002zM 152.192 7.77002L 171.918 7.77002L 171.918 31.95L 203.735 31.95L 203.735 7.77002L 225.371 7.77002L 225.371 108.954L 152.188 108.954L 152.188 7.77002L 152.192 7.77002zM 308.11 7.77002L 327.836 7.77002L 327.836 31.95L 359.653 31.95L 359.653 7.77002L 381.289 7.77002L 381.289 108.954L 308.106 108.954L 308.106 7.77002L 308.11 7.77002zM 469.117 7.77002L 488.844 7.77002L 488.844 31.95L 520.66 31.95L 520.66 7.77002L 540.387 7.77002L 540.387 108.954L 469.114 108.954L 469.114 7.77002L 469.117 7.77002zM 269.848 340.836C 279.649 340.836 287.645 332.844 287.645 323.04C 287.082 314.407 282.293 311.336 278.426 307.411C 281.856 309.321 284.43 310.161 287.914 310.161C 297.715 310.161 305.711 302.168 305.711 292.364C 305.711 282.563 297.719 274.567 287.914 274.567C 278.914 274.567 271.438 281.309 270.278 290C 269.117 281.309 261.641 274.567 252.641 274.567C 242.84 274.567 234.844 282.559 234.844 292.364C 234.844 302.165 242.836 310.161 252.641 310.161C 254.852 310.161 256.973 309.754 258.93 309.012C 254.754 312.27 252.055 317.352 252.055 323.04C 252.055 332.84 260.047 340.836 269.852 340.836L 269.848 340.836zM 465.77 660.379C 367.094 767.817 166.524 764.864 73.4687 651.469C 105.672 622.543 139.969 613.805 176 621.872C 227.75 557.098 307.219 557.602 360.305 620.372C 401.11 616.747 437.864 625.29 465.766 660.387"/>
  </g>
</svg>
