<?xml version="1.0" encoding="UTF-8" standalone="no"?>
<!-- Created with Inkscape (http://www.inkscape.org/) -->
<svg
   xmlns:dc="http://purl.org/dc/elements/1.1/"
   xmlns:cc="http://creativecommons.org/ns#"
   xmlns:rdf="http://www.w3.org/1999/02/22-rdf-syntax-ns#"
   xmlns:svg="http://www.w3.org/2000/svg"
   xmlns="http://www.w3.org/2000/svg"
   xmlns:xlink="http://www.w3.org/1999/xlink"
   xmlns:sodipodi="http://sodipodi.sourceforge.net/DTD/sodipodi-0.dtd"
   xmlns:inkscape="http://www.inkscape.org/namespaces/inkscape"
   id="svg2"
   sodipodi:version="0.32"
   inkscape:version="0.46"
   width="732.08069"
   height="881.90076"
   version="1.0"
   sodipodi:docname="POL_gmina_Pakosławice_COA.svg"
   inkscape:output_extension="org.inkscape.output.svg.inkscape">
  <metadata
     id="metadata7">
    <rdf:RDF>
      <cc:Work
         rdf:about="">
        <dc:format>image/svg+xml</dc:format>
        <dc:type
           rdf:resource="http://purl.org/dc/dcmitype/StillImage" />
      </cc:Work>
    </rdf:RDF>
  </metadata>
  <defs
     id="defs5">
    <inkscape:perspective
       sodipodi:type="inkscape:persp3d"
       inkscape:vp_x="0 : 526.18109 : 1"
       inkscape:vp_y="6.1230318e-14 : 1000 : 0"
       inkscape:vp_z="744.09448 : 526.18109 : 1"
       inkscape:persp3d-origin="372.04724 : 350.78739 : 1"
       id="perspective9" />
    <linearGradient
       y2="252.62679"
       x2="-328.68616"
       y1="242.23868"
       x1="-323.6478"
       gradientTransform="matrix(0.194324,0.980937,0.980937,-0.194324,-461.8023,566.4503)"
       gradientUnits="userSpaceOnUse"
       id="linearGradient2813"
       xlink:href="#linearGradient2531"
       inkscape:collect="always" />
    <linearGradient
       y2="250.28239"
       x2="-328.69925"
       y1="241.78635"
       x1="-324.09848"
       gradientUnits="userSpaceOnUse"
       id="linearGradient2811"
       xlink:href="#linearGradient2531"
       inkscape:collect="always" />
    <linearGradient
       y2="294.53494"
       x2="-576.93475"
       y1="302.67395"
       x1="-566.93445"
       gradientTransform="matrix(-0.763888,-0.645349,0.645349,-0.763888,-884.7079,109.284)"
       gradientUnits="userSpaceOnUse"
       id="linearGradient2809"
       xlink:href="#linearGradient2486"
       inkscape:collect="always" />
    <radialGradient
       r="29.071609"
       fy="210.2256"
       fx="-706.76215"
       cy="210.2256"
       cx="-706.76215"
       gradientTransform="matrix(1.694182,1.49278e-3,-0.174812,2.845644,529.3072,-387.1613)"
       gradientUnits="userSpaceOnUse"
       id="radialGradient2807"
       xlink:href="#linearGradient2486"
       inkscape:collect="always" />
    <linearGradient
       y2="252.62679"
       x2="-328.68616"
       y1="242.23868"
       x1="-323.6478"
       gradientTransform="matrix(0.194324,0.980937,0.980937,-0.194324,-461.8023,566.4503)"
       gradientUnits="userSpaceOnUse"
       id="linearGradient2805"
       xlink:href="#linearGradient2531"
       inkscape:collect="always" />
    <linearGradient
       y2="250.28239"
       x2="-328.69925"
       y1="241.78635"
       x1="-324.09848"
       gradientUnits="userSpaceOnUse"
       id="linearGradient2803"
       xlink:href="#linearGradient2531"
       inkscape:collect="always" />
    <linearGradient
       y2="294.53494"
       x2="-576.93475"
       y1="302.67395"
       x1="-566.93445"
       gradientTransform="matrix(-0.763888,-0.645349,0.645349,-0.763888,-884.7079,109.284)"
       gradientUnits="userSpaceOnUse"
       id="linearGradient2801"
       xlink:href="#linearGradient2486"
       inkscape:collect="always" />
    <radialGradient
       r="29.071609"
       fy="210.2256"
       fx="-706.76215"
       cy="210.2256"
       cx="-706.76215"
       gradientTransform="matrix(1.694182,1.49278e-3,-0.174812,2.845644,529.3072,-387.1613)"
       gradientUnits="userSpaceOnUse"
       id="radialGradient2799"
       xlink:href="#linearGradient2486"
       inkscape:collect="always" />
    <linearGradient
       y2="252.62679"
       x2="-328.68616"
       y1="242.23868"
       x1="-323.6478"
       gradientTransform="matrix(0.194324,0.980937,0.980937,-0.194324,-461.8023,566.4503)"
       gradientUnits="userSpaceOnUse"
       id="linearGradient2797"
       xlink:href="#linearGradient2531"
       inkscape:collect="always" />
    <linearGradient
       y2="250.28239"
       x2="-328.69925"
       y1="241.78635"
       x1="-324.09848"
       gradientUnits="userSpaceOnUse"
       id="linearGradient2795"
       xlink:href="#linearGradient2531"
       inkscape:collect="always" />
    <linearGradient
       y2="294.53494"
       x2="-576.93475"
       y1="302.67395"
       x1="-566.93445"
       gradientTransform="matrix(-0.763888,-0.645349,0.645349,-0.763888,-884.7079,109.284)"
       gradientUnits="userSpaceOnUse"
       id="linearGradient2793"
       xlink:href="#linearGradient2486"
       inkscape:collect="always" />
    <radialGradient
       r="29.071609"
       fy="210.2256"
       fx="-706.76215"
       cy="210.2256"
       cx="-706.76215"
       gradientTransform="matrix(1.694182,1.49278e-3,-0.174812,2.845644,529.3072,-387.1613)"
       gradientUnits="userSpaceOnUse"
       id="radialGradient2791"
       xlink:href="#linearGradient2486"
       inkscape:collect="always" />
    <linearGradient
       y2="252.62679"
       x2="-328.68616"
       y1="242.23868"
       x1="-323.6478"
       gradientTransform="matrix(0.194324,0.980937,0.980937,-0.194324,-461.8023,566.4503)"
       gradientUnits="userSpaceOnUse"
       id="linearGradient2715"
       xlink:href="#linearGradient2531"
       inkscape:collect="always" />
    <linearGradient
       y2="250.28239"
       x2="-328.69925"
       y1="241.78635"
       x1="-324.09848"
       gradientUnits="userSpaceOnUse"
       id="linearGradient2713"
       xlink:href="#linearGradient2531"
       inkscape:collect="always" />
    <linearGradient
       y2="294.53494"
       x2="-576.93475"
       y1="302.67395"
       x1="-566.93445"
       gradientTransform="matrix(-0.763888,-0.645349,0.645349,-0.763888,-884.7079,109.284)"
       gradientUnits="userSpaceOnUse"
       id="linearGradient2711"
       xlink:href="#linearGradient2486"
       inkscape:collect="always" />
    <radialGradient
       r="29.071609"
       fy="210.2256"
       fx="-706.76215"
       cy="210.2256"
       cx="-706.76215"
       gradientTransform="matrix(1.694182,1.49278e-3,-0.174812,2.845644,529.3072,-387.1613)"
       gradientUnits="userSpaceOnUse"
       id="radialGradient2709"
       xlink:href="#linearGradient2486"
       inkscape:collect="always" />
    <linearGradient
       y2="252.62679"
       x2="-328.68616"
       y1="242.23868"
       x1="-323.6478"
       gradientTransform="matrix(0.194324,0.980937,0.980937,-0.194324,-461.8023,566.4503)"
       gradientUnits="userSpaceOnUse"
       id="linearGradient2659"
       xlink:href="#linearGradient2531"
       inkscape:collect="always" />
    <linearGradient
       y2="250.28239"
       x2="-328.69925"
       y1="241.78635"
       x1="-324.09848"
       gradientUnits="userSpaceOnUse"
       id="linearGradient2657"
       xlink:href="#linearGradient2531"
       inkscape:collect="always" />
    <linearGradient
       y2="294.53494"
       x2="-576.93475"
       y1="302.67395"
       x1="-566.93445"
       gradientTransform="matrix(-0.763888,-0.645349,0.645349,-0.763888,-884.7079,109.284)"
       gradientUnits="userSpaceOnUse"
       id="linearGradient2655"
       xlink:href="#linearGradient2486"
       inkscape:collect="always" />
    <radialGradient
       r="29.071609"
       fy="210.2256"
       fx="-706.76215"
       cy="210.2256"
       cx="-706.76215"
       gradientTransform="matrix(1.694182,1.49278e-3,-0.174812,2.845644,529.3072,-387.1613)"
       gradientUnits="userSpaceOnUse"
       id="radialGradient2653"
       xlink:href="#linearGradient2486"
       inkscape:collect="always" />
    <radialGradient
       gradientUnits="userSpaceOnUse"
       gradientTransform="matrix(1.694182,1.49278e-3,-0.174812,2.845644,529.3072,-387.1613)"
       r="29.071609"
       fy="210.2256"
       fx="-706.76215"
       cy="210.2256"
       cx="-706.76215"
       id="radialGradient2601"
       xlink:href="#linearGradient2486"
       inkscape:collect="always" />
    <linearGradient
       y2="252.62679"
       x2="-328.68616"
       y1="242.23868"
       x1="-323.6478"
       gradientTransform="matrix(0.194324,0.980937,0.980937,-0.194324,-461.8023,566.4503)"
       gradientUnits="userSpaceOnUse"
       id="linearGradient2566"
       xlink:href="#linearGradient2531"
       inkscape:collect="always" />
    <linearGradient
       y2="250.28239"
       x2="-328.69925"
       y1="241.78635"
       x1="-324.09848"
       gradientUnits="userSpaceOnUse"
       id="linearGradient2564"
       xlink:href="#linearGradient2531"
       inkscape:collect="always" />
    <linearGradient
       y2="294.53494"
       x2="-576.93475"
       y1="302.67395"
       x1="-566.93445"
       gradientTransform="matrix(-0.763888,-0.645349,0.645349,-0.763888,-884.7079,109.284)"
       gradientUnits="userSpaceOnUse"
       id="linearGradient2562"
       xlink:href="#linearGradient2486"
       inkscape:collect="always" />
    <linearGradient
       id="linearGradient2486">
      <stop
         id="stop2488"
         offset="0"
         style="stop-color:#faff00;stop-opacity:1;" />
      <stop
         style="stop-color:#7d7323;stop-opacity:0.99215686;"
         offset="0.84615386"
         id="stop2603" />
      <stop
         style="stop-color:#000000;stop-opacity:0.98431373;"
         offset="1"
         id="stop2494" />
    </linearGradient>
    <linearGradient
       id="linearGradient2531">
      <stop
         id="stop2533"
         offset="0"
         style="stop-color:#fae646;stop-opacity:1;" />
      <stop
         style="stop-color:#643228;stop-opacity:1;"
         offset="0.88461536"
         id="stop2539" />
      <stop
         id="stop2535"
         offset="1"
         style="stop-color:#fae646;stop-opacity:1;" />
    </linearGradient>
    <radialGradient
       inkscape:collect="always"
       xlink:href="#linearGradient2486"
       id="radialGradient2981"
       gradientUnits="userSpaceOnUse"
       gradientTransform="matrix(1.694182,1.49278e-3,-0.174812,2.845644,529.3072,-387.1613)"
       cx="-706.76215"
       cy="210.2256"
       fx="-706.76215"
       fy="210.2256"
       r="29.071609" />
    <linearGradient
       inkscape:collect="always"
       xlink:href="#linearGradient2486"
       id="linearGradient2983"
       gradientUnits="userSpaceOnUse"
       gradientTransform="matrix(-0.763888,-0.645349,0.645349,-0.763888,-884.7079,109.284)"
       x1="-566.93445"
       y1="302.67395"
       x2="-576.93475"
       y2="294.53494" />
    <linearGradient
       inkscape:collect="always"
       xlink:href="#linearGradient2531"
       id="linearGradient2985"
       gradientUnits="userSpaceOnUse"
       x1="-324.09848"
       y1="241.78635"
       x2="-328.69925"
       y2="250.28239" />
    <linearGradient
       inkscape:collect="always"
       xlink:href="#linearGradient2531"
       id="linearGradient2987"
       gradientUnits="userSpaceOnUse"
       gradientTransform="matrix(0.194324,0.980937,0.980937,-0.194324,-461.8023,566.4503)"
       x1="-323.6478"
       y1="242.23868"
       x2="-328.68616"
       y2="252.62679" />
    <radialGradient
       inkscape:collect="always"
       xlink:href="#linearGradient2486"
       id="radialGradient3018"
       gradientUnits="userSpaceOnUse"
       gradientTransform="matrix(1.694182,1.49278e-3,-0.174812,2.845644,529.3072,-387.1613)"
       cx="-706.76215"
       cy="210.2256"
       fx="-706.76215"
       fy="210.2256"
       r="29.071609" />
    <linearGradient
       inkscape:collect="always"
       xlink:href="#linearGradient2486"
       id="linearGradient3020"
       gradientUnits="userSpaceOnUse"
       gradientTransform="matrix(-0.763888,-0.645349,0.645349,-0.763888,-884.7079,109.284)"
       x1="-566.93445"
       y1="302.67395"
       x2="-576.93475"
       y2="294.53494" />
    <linearGradient
       inkscape:collect="always"
       xlink:href="#linearGradient2531"
       id="linearGradient3022"
       gradientUnits="userSpaceOnUse"
       x1="-324.09848"
       y1="241.78635"
       x2="-328.69925"
       y2="250.28239" />
    <linearGradient
       inkscape:collect="always"
       xlink:href="#linearGradient2531"
       id="linearGradient3024"
       gradientUnits="userSpaceOnUse"
       gradientTransform="matrix(0.194324,0.980937,0.980937,-0.194324,-461.8023,566.4503)"
       x1="-323.6478"
       y1="242.23868"
       x2="-328.68616"
       y2="252.62679" />
    <radialGradient
       inkscape:collect="always"
       xlink:href="#linearGradient2486"
       id="radialGradient3055"
       gradientUnits="userSpaceOnUse"
       gradientTransform="matrix(1.694182,1.49278e-3,-0.174812,2.845644,529.3072,-387.1613)"
       cx="-706.76215"
       cy="210.2256"
       fx="-706.76215"
       fy="210.2256"
       r="29.071609" />
    <linearGradient
       inkscape:collect="always"
       xlink:href="#linearGradient2486"
       id="linearGradient3057"
       gradientUnits="userSpaceOnUse"
       gradientTransform="matrix(-0.763888,-0.645349,0.645349,-0.763888,-884.7079,109.284)"
       x1="-566.93445"
       y1="302.67395"
       x2="-576.93475"
       y2="294.53494" />
    <linearGradient
       inkscape:collect="always"
       xlink:href="#linearGradient2531"
       id="linearGradient3059"
       gradientUnits="userSpaceOnUse"
       x1="-324.09848"
       y1="241.78635"
       x2="-328.69925"
       y2="250.28239" />
    <linearGradient
       inkscape:collect="always"
       xlink:href="#linearGradient2531"
       id="linearGradient3061"
       gradientUnits="userSpaceOnUse"
       gradientTransform="matrix(0.194324,0.980937,0.980937,-0.194324,-461.8023,566.4503)"
       x1="-323.6478"
       y1="242.23868"
       x2="-328.68616"
       y2="252.62679" />
    <radialGradient
       inkscape:collect="always"
       xlink:href="#linearGradient2486"
       id="radialGradient3090"
       gradientUnits="userSpaceOnUse"
       gradientTransform="matrix(1.694182,1.49278e-3,-0.174812,2.845644,529.3072,-387.1613)"
       cx="-706.76215"
       cy="210.2256"
       fx="-706.76215"
       fy="210.2256"
       r="29.071609" />
    <linearGradient
       inkscape:collect="always"
       xlink:href="#linearGradient2486"
       id="linearGradient3092"
       gradientUnits="userSpaceOnUse"
       gradientTransform="matrix(-0.763888,-0.645349,0.645349,-0.763888,-884.7079,109.284)"
       x1="-566.93445"
       y1="302.67395"
       x2="-576.93475"
       y2="294.53494" />
    <linearGradient
       inkscape:collect="always"
       xlink:href="#linearGradient2531"
       id="linearGradient3094"
       gradientUnits="userSpaceOnUse"
       x1="-324.09848"
       y1="241.78635"
       x2="-328.69925"
       y2="250.28239" />
    <linearGradient
       inkscape:collect="always"
       xlink:href="#linearGradient2531"
       id="linearGradient3096"
       gradientUnits="userSpaceOnUse"
       gradientTransform="matrix(0.194324,0.980937,0.980937,-0.194324,-461.8023,566.4503)"
       x1="-323.6478"
       y1="242.23868"
       x2="-328.68616"
       y2="252.62679" />
    <radialGradient
       inkscape:collect="always"
       xlink:href="#linearGradient2486"
       id="radialGradient3121"
       gradientUnits="userSpaceOnUse"
       gradientTransform="matrix(1.694182,1.49278e-3,-0.174812,2.845644,529.3072,-387.1613)"
       cx="-706.76215"
       cy="210.2256"
       fx="-706.76215"
       fy="210.2256"
       r="29.071609" />
    <linearGradient
       inkscape:collect="always"
       xlink:href="#linearGradient2486"
       id="linearGradient3133"
       gradientUnits="userSpaceOnUse"
       gradientTransform="matrix(-0.763888,-0.645349,0.645349,-0.763888,-884.7079,109.284)"
       x1="-566.93445"
       y1="302.67395"
       x2="-576.93475"
       y2="294.53494" />
    <linearGradient
       inkscape:collect="always"
       xlink:href="#linearGradient2531"
       id="linearGradient3135"
       gradientUnits="userSpaceOnUse"
       x1="-324.09848"
       y1="241.78635"
       x2="-328.69925"
       y2="250.28239" />
    <linearGradient
       inkscape:collect="always"
       xlink:href="#linearGradient2531"
       id="linearGradient3137"
       gradientUnits="userSpaceOnUse"
       gradientTransform="matrix(0.194324,0.980937,0.980937,-0.194324,-461.8023,566.4503)"
       x1="-323.6478"
       y1="242.23868"
       x2="-328.68616"
       y2="252.62679" />
    <linearGradient
       inkscape:collect="always"
       xlink:href="#linearGradient2486"
       id="linearGradient3200"
       gradientUnits="userSpaceOnUse"
       gradientTransform="matrix(-0.763888,-0.645349,0.645349,-0.763888,-884.7079,109.284)"
       x1="-566.93445"
       y1="302.67395"
       x2="-576.93475"
       y2="294.53494" />
    <linearGradient
       inkscape:collect="always"
       xlink:href="#linearGradient2531"
       id="linearGradient3202"
       gradientUnits="userSpaceOnUse"
       x1="-324.09848"
       y1="241.78635"
       x2="-328.69925"
       y2="250.28239" />
    <linearGradient
       inkscape:collect="always"
       xlink:href="#linearGradient2531"
       id="linearGradient3204"
       gradientUnits="userSpaceOnUse"
       gradientTransform="matrix(0.194324,0.980937,0.980937,-0.194324,-461.8023,566.4503)"
       x1="-323.6478"
       y1="242.23868"
       x2="-328.68616"
       y2="252.62679" />
    <linearGradient
       inkscape:collect="always"
       xlink:href="#linearGradient2486"
       id="linearGradient3260"
       gradientUnits="userSpaceOnUse"
       gradientTransform="matrix(-0.763888,-0.645349,0.645349,-0.763888,-884.7079,109.284)"
       x1="-566.93445"
       y1="302.67395"
       x2="-576.93475"
       y2="294.53494" />
    <linearGradient
       inkscape:collect="always"
       xlink:href="#linearGradient2531"
       id="linearGradient3262"
       gradientUnits="userSpaceOnUse"
       x1="-324.09848"
       y1="241.78635"
       x2="-328.69925"
       y2="250.28239" />
    <linearGradient
       inkscape:collect="always"
       xlink:href="#linearGradient2531"
       id="linearGradient3264"
       gradientUnits="userSpaceOnUse"
       gradientTransform="matrix(0.194324,0.980937,0.980937,-0.194324,-461.8023,566.4503)"
       x1="-323.6478"
       y1="242.23868"
       x2="-328.68616"
       y2="252.62679" />
    <linearGradient
       inkscape:collect="always"
       xlink:href="#linearGradient2486"
       id="linearGradient3320"
       gradientUnits="userSpaceOnUse"
       gradientTransform="matrix(-0.763888,-0.645349,0.645349,-0.763888,-884.7079,109.284)"
       x1="-566.93445"
       y1="302.67395"
       x2="-576.93475"
       y2="294.53494" />
    <linearGradient
       inkscape:collect="always"
       xlink:href="#linearGradient2531"
       id="linearGradient3322"
       gradientUnits="userSpaceOnUse"
       x1="-324.09848"
       y1="241.78635"
       x2="-328.69925"
       y2="250.28239" />
    <linearGradient
       inkscape:collect="always"
       xlink:href="#linearGradient2531"
       id="linearGradient3324"
       gradientUnits="userSpaceOnUse"
       gradientTransform="matrix(0.194324,0.980937,0.980937,-0.194324,-461.8023,566.4503)"
       x1="-323.6478"
       y1="242.23868"
       x2="-328.68616"
       y2="252.62679" />
    <linearGradient
       inkscape:collect="always"
       xlink:href="#linearGradient2486"
       id="linearGradient3410"
       gradientUnits="userSpaceOnUse"
       gradientTransform="matrix(-0.763888,-0.645349,0.645349,-0.763888,-884.7079,109.284)"
       x1="-566.93445"
       y1="302.67395"
       x2="-576.93475"
       y2="294.53494" />
    <linearGradient
       inkscape:collect="always"
       xlink:href="#linearGradient2531"
       id="linearGradient3412"
       gradientUnits="userSpaceOnUse"
       x1="-324.09848"
       y1="241.78635"
       x2="-328.69925"
       y2="250.28239" />
    <linearGradient
       inkscape:collect="always"
       xlink:href="#linearGradient2531"
       id="linearGradient3414"
       gradientUnits="userSpaceOnUse"
       gradientTransform="matrix(0.194324,0.980937,0.980937,-0.194324,-461.8023,566.4503)"
       x1="-323.6478"
       y1="242.23868"
       x2="-328.68616"
       y2="252.62679" />
    <linearGradient
       inkscape:collect="always"
       xlink:href="#linearGradient2486"
       id="linearGradient3416"
       gradientUnits="userSpaceOnUse"
       gradientTransform="matrix(-0.763888,-0.645349,0.645349,-0.763888,-884.7079,109.284)"
       x1="-566.93445"
       y1="302.67395"
       x2="-576.93475"
       y2="294.53494" />
    <linearGradient
       inkscape:collect="always"
       xlink:href="#linearGradient2531"
       id="linearGradient3418"
       gradientUnits="userSpaceOnUse"
       x1="-324.09848"
       y1="241.78635"
       x2="-328.69925"
       y2="250.28239" />
    <linearGradient
       inkscape:collect="always"
       xlink:href="#linearGradient2531"
       id="linearGradient3420"
       gradientUnits="userSpaceOnUse"
       gradientTransform="matrix(0.194324,0.980937,0.980937,-0.194324,-461.8023,566.4503)"
       x1="-323.6478"
       y1="242.23868"
       x2="-328.68616"
       y2="252.62679" />
    <linearGradient
       inkscape:collect="always"
       xlink:href="#linearGradient2486"
       id="linearGradient3422"
       gradientUnits="userSpaceOnUse"
       gradientTransform="matrix(-0.763888,-0.645349,0.645349,-0.763888,-884.7079,109.284)"
       x1="-566.93445"
       y1="302.67395"
       x2="-576.93475"
       y2="294.53494" />
    <linearGradient
       inkscape:collect="always"
       xlink:href="#linearGradient2531"
       id="linearGradient3424"
       gradientUnits="userSpaceOnUse"
       x1="-324.09848"
       y1="241.78635"
       x2="-328.69925"
       y2="250.28239" />
    <linearGradient
       inkscape:collect="always"
       xlink:href="#linearGradient2531"
       id="linearGradient3426"
       gradientUnits="userSpaceOnUse"
       gradientTransform="matrix(0.194324,0.980937,0.980937,-0.194324,-461.8023,566.4503)"
       x1="-323.6478"
       y1="242.23868"
       x2="-328.68616"
       y2="252.62679" />
    <linearGradient
       inkscape:collect="always"
       xlink:href="#linearGradient2486"
       id="linearGradient3674"
       gradientUnits="userSpaceOnUse"
       gradientTransform="matrix(-0.763888,-0.645349,0.645349,-0.763888,-884.7079,109.284)"
       x1="-566.93445"
       y1="302.67395"
       x2="-576.93475"
       y2="294.53494" />
    <linearGradient
       inkscape:collect="always"
       xlink:href="#linearGradient2531"
       id="linearGradient3676"
       gradientUnits="userSpaceOnUse"
       x1="-324.09848"
       y1="241.78635"
       x2="-328.69925"
       y2="250.28239" />
    <linearGradient
       inkscape:collect="always"
       xlink:href="#linearGradient2531"
       id="linearGradient3678"
       gradientUnits="userSpaceOnUse"
       gradientTransform="matrix(0.194324,0.980937,0.980937,-0.194324,-461.8023,566.4503)"
       x1="-323.6478"
       y1="242.23868"
       x2="-328.68616"
       y2="252.62679" />
    <linearGradient
       inkscape:collect="always"
       xlink:href="#linearGradient2486"
       id="linearGradient3680"
       gradientUnits="userSpaceOnUse"
       gradientTransform="matrix(-0.763888,-0.645349,0.645349,-0.763888,-884.7079,109.284)"
       x1="-566.93445"
       y1="302.67395"
       x2="-576.93475"
       y2="294.53494" />
    <linearGradient
       inkscape:collect="always"
       xlink:href="#linearGradient2531"
       id="linearGradient3682"
       gradientUnits="userSpaceOnUse"
       x1="-324.09848"
       y1="241.78635"
       x2="-328.69925"
       y2="250.28239" />
    <linearGradient
       inkscape:collect="always"
       xlink:href="#linearGradient2531"
       id="linearGradient3684"
       gradientUnits="userSpaceOnUse"
       gradientTransform="matrix(0.194324,0.980937,0.980937,-0.194324,-461.8023,566.4503)"
       x1="-323.6478"
       y1="242.23868"
       x2="-328.68616"
       y2="252.62679" />
    <linearGradient
       inkscape:collect="always"
       xlink:href="#linearGradient2486"
       id="linearGradient3686"
       gradientUnits="userSpaceOnUse"
       gradientTransform="matrix(-0.763888,-0.645349,0.645349,-0.763888,-884.7079,109.284)"
       x1="-566.93445"
       y1="302.67395"
       x2="-576.93475"
       y2="294.53494" />
    <linearGradient
       inkscape:collect="always"
       xlink:href="#linearGradient2531"
       id="linearGradient3688"
       gradientUnits="userSpaceOnUse"
       x1="-324.09848"
       y1="241.78635"
       x2="-328.69925"
       y2="250.28239" />
    <linearGradient
       inkscape:collect="always"
       xlink:href="#linearGradient2531"
       id="linearGradient3690"
       gradientUnits="userSpaceOnUse"
       gradientTransform="matrix(0.194324,0.980937,0.980937,-0.194324,-461.8023,566.4503)"
       x1="-323.6478"
       y1="242.23868"
       x2="-328.68616"
       y2="252.62679" />
    <linearGradient
       inkscape:collect="always"
       xlink:href="#linearGradient2486"
       id="linearGradient3793"
       gradientUnits="userSpaceOnUse"
       gradientTransform="matrix(-0.763888,-0.645349,0.645349,-0.763888,-884.7079,109.284)"
       x1="-566.93445"
       y1="302.67395"
       x2="-576.93475"
       y2="294.53494" />
    <linearGradient
       inkscape:collect="always"
       xlink:href="#linearGradient2531"
       id="linearGradient3795"
       gradientUnits="userSpaceOnUse"
       x1="-324.09848"
       y1="241.78635"
       x2="-328.69925"
       y2="250.28239" />
    <linearGradient
       inkscape:collect="always"
       xlink:href="#linearGradient2531"
       id="linearGradient3797"
       gradientUnits="userSpaceOnUse"
       gradientTransform="matrix(0.194324,0.980937,0.980937,-0.194324,-461.8023,566.4503)"
       x1="-323.6478"
       y1="242.23868"
       x2="-328.68616"
       y2="252.62679" />
    <linearGradient
       inkscape:collect="always"
       xlink:href="#linearGradient2486"
       id="linearGradient3799"
       gradientUnits="userSpaceOnUse"
       gradientTransform="matrix(-0.763888,-0.645349,0.645349,-0.763888,-884.7079,109.284)"
       x1="-566.93445"
       y1="302.67395"
       x2="-576.93475"
       y2="294.53494" />
    <linearGradient
       inkscape:collect="always"
       xlink:href="#linearGradient2531"
       id="linearGradient3801"
       gradientUnits="userSpaceOnUse"
       x1="-324.09848"
       y1="241.78635"
       x2="-328.69925"
       y2="250.28239" />
    <linearGradient
       inkscape:collect="always"
       xlink:href="#linearGradient2531"
       id="linearGradient3803"
       gradientUnits="userSpaceOnUse"
       gradientTransform="matrix(0.194324,0.980937,0.980937,-0.194324,-461.8023,566.4503)"
       x1="-323.6478"
       y1="242.23868"
       x2="-328.68616"
       y2="252.62679" />
    <linearGradient
       inkscape:collect="always"
       xlink:href="#linearGradient2486"
       id="linearGradient3805"
       gradientUnits="userSpaceOnUse"
       gradientTransform="matrix(-0.763888,-0.645349,0.645349,-0.763888,-884.7079,109.284)"
       x1="-566.93445"
       y1="302.67395"
       x2="-576.93475"
       y2="294.53494" />
    <linearGradient
       inkscape:collect="always"
       xlink:href="#linearGradient2531"
       id="linearGradient3807"
       gradientUnits="userSpaceOnUse"
       x1="-324.09848"
       y1="241.78635"
       x2="-328.69925"
       y2="250.28239" />
    <linearGradient
       inkscape:collect="always"
       xlink:href="#linearGradient2531"
       id="linearGradient3809"
       gradientUnits="userSpaceOnUse"
       gradientTransform="matrix(0.194324,0.980937,0.980937,-0.194324,-461.8023,566.4503)"
       x1="-323.6478"
       y1="242.23868"
       x2="-328.68616"
       y2="252.62679" />
    <inkscape:perspective
       id="perspective2751"
       inkscape:persp3d-origin="375 : 325 : 1"
       inkscape:vp_z="750 : 487.5 : 1"
       inkscape:vp_y="0 : 1000 : 0"
       inkscape:vp_x="0 : 487.5 : 1"
       sodipodi:type="inkscape:persp3d" />
    <inkscape:perspective
       id="perspective3988"
       inkscape:persp3d-origin="372.04724 : 350.78739 : 1"
       inkscape:vp_z="744.09448 : 526.18109 : 1"
       inkscape:vp_y="0 : 1000 : 0"
       inkscape:vp_x="0 : 526.18109 : 1"
       sodipodi:type="inkscape:persp3d" />
    <inkscape:perspective
       id="perspective3418"
       inkscape:persp3d-origin="372.04724 : 350.78739 : 1"
       inkscape:vp_z="744.09448 : 526.18109 : 1"
       inkscape:vp_y="0 : 1000 : 0"
       inkscape:vp_x="0 : 526.18109 : 1"
       sodipodi:type="inkscape:persp3d" />
  </defs>
  <sodipodi:namedview
     inkscape:window-height="813"
     inkscape:window-width="1319"
     inkscape:pageshadow="2"
     inkscape:pageopacity="0.0"
     guidetolerance="10.0"
     gridtolerance="10.0"
     objecttolerance="10.0"
     borderopacity="1.0"
     bordercolor="#666666"
     pagecolor="#ffffff"
     id="base"
     showgrid="false"
     inkscape:zoom="0.67654636"
     inkscape:cx="363.49801"
     inkscape:cy="439.53054"
     inkscape:window-x="100"
     inkscape:window-y="14"
     inkscape:current-layer="svg2"
     showguides="true"
     inkscape:guide-bbox="true" />
  <g
     id="g3702">
    <path
       sodipodi:nodetypes="cccccc"
       id="path3349"
       d="M 0,2.8421709e-14 L 732.0807,2.8421709e-14 L 728.0807,485.27993 C 721.5049,692.01708 543.5239,828.43952 369.39851,881.90073 C 183.42383,825.59677 17.23836,682.69231 4,485.27993 L 0,2.8421709e-14 z"
       style="fill:#030303;fill-opacity:1;fill-rule:nonzero;stroke:none;stroke-width:3.54330707;stroke-linecap:round;stroke-linejoin:round;stroke-miterlimit:4;stroke-dasharray:none;stroke-dashoffset:0;stroke-opacity:1" />
    <path
       id="path3614"
       d="M 10.6433,12.83194 L 14.5183,483.98819 C 27.37181,675.66159 188.73134,814.41478 369.29955,869.08194 C 538.363,817.1749 711.1649,684.71527 717.5496,483.98819 L 721.4246,12.83194 L 10.6433,12.83194 z M 550.5496,84.175687 L 626.6746,84.769437 C 635.135,129.73696 662.8854,133.1714 708.2058,135.80069 L 708.6746,178.95694 L 617.5808,178.95694 L 618.237,216.98819 C 612.6168,217.45728 600.1626,223.91184 597.5808,226.17569 C 603.3083,234.7831 603.5181,234.67364 613.5183,235.48819 C 624.0616,236.34697 629.9641,242.55667 636.5496,247.20694 C 642.0141,251.06576 641.7368,255.40631 651.612,257.11319 L 651.5496,277.26944 L 647.6433,277.48819 C 644.0078,303.93098 654.4489,329.43402 674.2996,342.98819 C 675.7228,349.04203 680.8028,374.30954 688.737,377.89444 L 688.612,394.42569 L 604.362,394.05069 L 607.2058,403.17569 C 608.9127,412.19636 605.8456,416.1786 602.237,419.76944 C 597.2269,424.75382 597.9903,429.15522 603.7683,443.20694 L 608.7683,455.33194 C 593.6137,461.5141 580.8491,460.80368 569.737,455.36319 L 575.862,444.14444 C 583.373,429.10668 582.3071,423.67919 575.362,417.48819 C 572.6944,415.11021 571.1475,409.77154 572.237,402.95694 L 575.1433,394.61319 L 487.79955,394.42569 L 488.17455,378.23819 C 492.15725,377.72116 500.07633,371.3147 504.4558,342.55069 C 525.03513,329.47218 534.3463,303.40651 532.9246,277.80069 L 526.7683,277.76944 L 526.487,255.98819 C 528.2032,255.98819 533.8936,255.13313 535.3308,252.83194 C 536.7679,250.53074 539.1521,248.36319 540.737,248.36319 C 542.3219,248.36318 546.345,245.54186 550.1433,242.20694 C 554.0734,238.75621 562.2157,233.9998 565.3933,233.83194 C 575.4035,233.30313 576.6134,230.51409 578.9558,227.55069 C 579.2998,223.9159 560.0714,217.23223 558.0496,217.20694 C 559.0139,204.45898 561.7831,190.79346 560.9246,178.95694 L 468.9558,178.95694 C 470.71191,165.08756 471.76334,151.23257 471.61205,137.36319 C 507.68819,130.82885 551.7577,133.45054 550.5496,84.175687 z M 106.23706,85.956937 L 182.36205,86.550687 C 190.82254,131.51821 218.57295,134.95265 263.8933,137.58194 L 264.36205,180.73819 L 173.2683,180.73819 L 173.92455,218.76944 C 168.30425,219.23852 155.88135,225.69309 153.29955,227.95694 C 159.02699,236.56434 159.20565,236.45489 169.2058,237.26944 C 179.74911,238.12823 185.65169,244.33792 192.23705,248.98819 C 197.70165,252.847 197.42413,257.18756 207.29955,258.89444 L 207.23705,279.01944 L 203.36205,279.23819 C 199.7266,305.68098 210.13658,331.21527 229.98705,344.76944 C 231.41028,350.82328 236.49032,376.09079 244.42455,379.67569 L 244.3308,396.20694 L 160.0808,395.83194 L 162.92455,404.95694 C 164.63147,413.97762 161.56419,417.9286 157.9558,421.51944 C 152.94572,426.50382 153.67786,430.90522 159.4558,444.95694 L 164.4558,457.11319 C 149.30117,463.29536 136.53656,462.58493 125.42456,457.14444 L 131.5808,445.92569 C 139.09171,430.88794 137.9946,425.46044 131.04955,419.26944 C 128.38192,416.89147 126.86611,411.52154 127.95581,404.70694 L 130.8308,396.39444 L 43.48705,396.20694 L 43.86205,380.01944 C 47.84476,379.50241 55.76383,373.0647 60.1433,344.30069 C 80.722645,331.22219 90.033905,305.18776 88.612055,279.58194 L 82.487055,279.55069 L 82.174555,257.76944 C 83.890715,257.76944 89.612435,256.91438 91.049555,254.61319 C 92.486695,252.312 94.870925,250.14444 96.455805,250.14444 C 98.040685,250.14444 102.06378,247.32311 105.86206,243.98819 C 109.79218,240.53747 117.93443,235.78105 121.11206,235.61319 C 131.12225,235.08438 132.33207,232.29534 134.67455,229.33194 C 135.01851,225.69714 115.79013,218.98223 113.76831,218.95694 C 114.73256,206.20898 117.50194,192.57471 116.64331,180.73819 L 24.67455,180.73819 C 26.43064,166.86881 27.45084,152.98257 27.29955,139.11319 C 63.37567,132.57886 107.44522,135.23179 106.23706,85.956937 z"
       style="fill:#ffdc01;fill-opacity:1;fill-rule:nonzero;stroke:none;stroke-width:3.44029975;stroke-linecap:round;stroke-linejoin:round;stroke-miterlimit:4;stroke-dasharray:none;stroke-dashoffset:0;stroke-opacity:1" />
    <path
       d="M 30.4695,176.13113 L 259.52519,176.67263 L 258.17145,140.93344 C 214.99466,139.21524 187.05925,136.15561 179.38278,93.010442 L 112.50719,93.010442 C 106.74926,140.56392 67.95129,138.55696 33.71852,142.8287 L 30.4695,176.13113 z M 122.52499,185.60743 L 168.28197,185.87818 L 169.63573,216.47309 C 160.98626,220.08311 153.08984,223.69312 150.14164,227.30314 C 151.71626,231.87173 155.20513,234.43428 157.84384,238.27466 C 168.11964,239.69266 178.88713,241.43991 184.90679,249.24213 C 190.59921,251.67226 193.74324,256.11738 198.05245,259.93071 C 198.55279,261.18156 179.29363,261.50775 180.19503,261.95932 C 181.1688,262.44714 202.12591,262.37093 202.12591,261.95932 L 202.12591,276.5799 L 182.09029,276.0384 C 185.19887,278.37738 191.29779,275.92084 197.79388,278.47516 C 198.00386,305.61977 204.1726,330.33939 222.97376,343.997 C 213.97471,348.54263 200.12068,344.66402 194.27411,347.78752 C 204.26788,348.6943 214.70201,349.28653 227.30579,348.32902 C 229.87577,358.53824 231.44368,368.9787 238.67735,378.11168 C 229.64745,379.79598 212.55533,379.87713 202.39666,381.08994 C 215.47916,381.34493 227.66805,382.1361 242.46787,381.3607 L 241.92636,392.73225 L 151.22464,392.4615 C 157.79621,398.66086 164.13517,404.95776 157.18117,416.82913 C 150.85213,423.40866 150.94645,429.27449 152.5784,434.96947 L 161.24244,455.81733 C 146.99529,460.41055 132.54921,458.98939 128.48152,455.54658 L 136.87482,439.843 C 140.82135,430.35064 139.13174,423.39456 134.1673,417.91214 C 128.1843,413.24305 127.80829,405.69035 137.41631,393.00301 L 48.8806,393.00301 L 49.18691,382.85575 C 62.16349,382.50485 74.49069,382.41371 89.222565,381.3607 C 78.625245,379.49838 64.37988,382.19609 53.88358,380.20749 C 59.055,370.63984 61.41479,360.01783 63.63063,349.34183 C 73.7029,350.50447 87.777605,348.14187 101.13563,349.68278 C 90.011115,346.84946 73.63756,347.83824 69.45771,343.72625 C 83.161815,331.79952 93.788975,314.77156 93.283835,279.28741 C 96.517175,276.65447 102.60699,278.14971 107.90442,276.30915 L 87.856955,276.2034 L 87.598055,262.23008 L 108.17517,261.95932 C 102.84129,261.61349 97.326385,261.56935 93.013085,259.52256 C 94.061075,255.3724 97.214395,253.8539 101.13563,253.29528 C 106.28327,242.95585 114.27687,245.45275 121.71274,244.36048 C 116.27342,244.79983 113.06052,243.96694 110.07043,243.00673 C 117.26067,239.51846 124.10231,236.9541 132.01348,237.0705 C 136.02588,234.3112 137.20677,230.87475 138.78226,227.96987 C 134.57481,223.54269 128.4039,219.49126 119.14262,215.78606 L 122.52499,185.60743 z M 139.15051,236.09685 L 150.44443,236.01732 C 149.08243,230.56886 139.46854,230.86353 139.15051,236.09685 z M 474.77058,174.35671 L 703.8263,174.89821 L 702.4725,139.15903 C 659.2957,137.44083 631.3603,134.3812 623.6839,91.236026 L 556.8083,91.236026 C 551.0503,138.7895 512.25237,136.78254 478.0196,141.05429 L 474.77058,174.35671 z M 566.8261,183.83301 L 612.583,184.10376 L 613.9368,214.69867 C 605.2873,218.30869 597.3909,221.9187 594.4427,225.52872 C 596.0173,230.09731 599.5062,232.65986 602.1449,236.50024 C 612.4207,237.91824 623.1882,239.66549 629.2079,247.46771 C 634.9003,249.89784 638.0443,254.34296 642.3535,258.15629 C 642.8538,259.40714 623.5947,259.73333 624.4961,260.1849 C 625.4699,260.67272 646.427,260.59651 646.427,260.1849 L 646.427,274.80548 L 626.3914,274.26398 C 629.4999,276.60296 635.5989,274.14642 642.0949,276.70074 C 642.3049,303.84535 648.4737,328.56497 667.2748,342.22258 C 658.2758,346.76821 644.4217,342.8896 638.5752,346.0131 C 648.5689,346.91988 659.0031,347.51211 671.6068,346.5546 C 674.1768,356.76382 675.7447,367.20428 682.9784,376.33726 C 673.9485,378.02156 656.8564,378.10271 646.6977,379.31552 C 659.7802,379.57051 671.9691,380.36168 686.7689,379.58628 L 686.2274,390.95783 L 595.5257,390.68708 C 602.0973,396.88644 608.4362,403.18334 601.4822,415.05471 C 595.1532,421.63424 595.2475,427.50007 596.8795,433.19505 L 605.5435,454.04291 C 591.2964,458.63613 576.8503,457.21497 572.7826,453.77216 L 581.1759,438.06858 C 585.1224,428.57622 583.4328,421.62014 578.4684,416.13772 C 572.4854,411.46863 572.1094,403.91593 581.7174,391.22859 L 493.18168,391.22859 L 493.48799,381.08133 C 506.46457,380.73043 518.79177,380.63929 533.5236,379.58628 C 522.92632,377.72396 508.68096,380.42167 498.18466,378.43307 C 503.35608,368.86542 505.71587,358.24341 507.93171,347.56741 C 518.00398,348.73005 532.0787,346.36745 545.4367,347.90836 C 534.3122,345.07504 517.93864,346.06382 513.75879,341.95183 C 527.4629,330.0251 538.09,312.99714 537.5849,277.51299 C 540.8182,274.88005 546.9081,276.37529 552.2055,274.53473 L 532.158,274.42898 L 531.8991,260.45566 L 552.4762,260.1849 C 547.1424,259.83907 541.6275,259.79493 537.3142,257.74814 C 538.3621,253.59798 541.5155,252.07948 545.4367,251.52086 C 550.5843,241.18143 558.5779,243.67833 566.0138,242.58606 C 560.5745,243.02541 557.3616,242.19252 554.3715,241.23231 C 561.5617,237.74404 568.4034,235.17968 576.3145,235.29608 C 580.3269,232.53678 581.5078,229.10033 583.0833,226.19545 C 578.8759,221.76827 572.705,217.71684 563.4437,214.01164 L 566.8261,183.83301 z M 583.4516,234.32243 L 594.7455,234.2429 C 593.3835,228.79444 583.7696,229.08911 583.4516,234.32243 z"
       style="fill:#d2001e;fill-opacity:1;fill-rule:evenodd;stroke:none;stroke-width:1px;stroke-linecap:butt;stroke-linejoin:miter;stroke-opacity:1"
       id="path3408" />
    <path
       sodipodi:nodetypes="cccccccccccccccc"
       d="M 340.39193,525.19313 L 398.54753,525.43748 L 397.08143,447.73379 C 397.25653,423.48603 387.53653,407.4754 369.46973,398.98571 C 351.40293,407.71975 341.68293,423.48603 341.85803,447.73379 L 340.39193,525.19313 z M 343.94193,518.04744 L 352.51383,510.73369 C 363.74693,510.79052 374.98003,510.84734 386.21313,510.90416 L 395.05023,518.12422 L 387.44453,509.41939 L 386.56033,453.01223 C 386.66873,434.94483 384.27931,422.10619 369.46973,414.70741 C 355.31432,420.45971 352.27073,434.94483 352.37913,453.01223 L 351.49213,509.42104 L 343.94193,518.04744 z"
       style="fill:#000000;fill-opacity:1;fill-rule:evenodd;stroke:none;stroke-width:1px;stroke-linecap:butt;stroke-linejoin:miter;stroke-opacity:1"
       id="path3346" />
    <path
       sodipodi:nodetypes="ccccccccscscscscc"
       id="path2491"
       d="M 355.18473,448.81606 L 353.66728,509.08658 L 354.30458,444.81755 C 355.11669,433.05221 359.70773,423.81427 369.11433,418.38447 C 379.72433,423.37453 383.70142,433.64722 384.63649,446.6463 L 385.06848,509.79219 L 383.93169,448.57291 C 383.33582,445.27597 381.93194,443.00627 379.65783,441.95421 C 377.25222,443.19734 375.77352,446.54873 375.66036,448.87167 C 375.6475,449.13561 375.51713,509.28456 375.47201,509.54021 C 375.51956,509.0988 374.9081,449.12023 374.8849,448.95061 C 374.57494,446.6844 373.37533,443.58261 369.76443,442.14449 C 366.61071,443.45117 365.2846,446.52317 364.83392,449.14601 C 364.80613,449.30772 364.48801,509.4071 364.44313,509.56444 C 364.39248,509.40894 363.99359,449.25027 363.97287,449.08693 C 363.67315,446.72426 362.17749,443.27445 359.37163,441.95421 C 357.05143,443.23136 355.46664,446.87162 355.18473,448.81606 z"
       style="fill:#ffe601;fill-opacity:1;fill-rule:evenodd;stroke:#000000;stroke-width:2;stroke-linecap:butt;stroke-linejoin:miter;stroke-miterlimit:4;stroke-dasharray:none;stroke-opacity:1" />
    <path
       sodipodi:nodetypes="csssccscsscsscsc"
       d="M 379.05822,432.60896 C 379.05822,438.0061 374.71612,442.38639 369.36602,442.38639 C 364.01592,442.38639 359.67372,438.0061 359.67372,432.60896 C 359.67372,427.21182 364.01592,422.83155 369.36602,422.83155 C 374.71612,422.83155 379.05822,427.21182 379.05822,432.60896 z M 369.40132,424.49283 C 367.28662,424.49283 365.51062,426.23885 365.51062,428.23162 C 365.51062,430.37257 367.00922,431.04853 367.76162,431.46283 C 364.73972,428.97925 361.58472,431.78325 361.68522,434.14485 C 361.78062,436.38685 363.56182,438.18514 365.87742,438.18514 C 368.05342,438.18514 369.69322,436.07742 369.34172,433.91458 C 369.24282,436.14056 370.11882,438.38316 372.62142,438.45854 C 374.93602,438.52826 376.84402,436.6319 376.84392,434.38787 C 376.84392,432.26376 373.73772,430.08456 370.85872,431.53118 C 372.51142,431.07542 373.34422,429.36559 373.34222,428.28187 C 373.33862,426.34175 371.51592,424.49283 369.40132,424.49283 z"
       style="fill:#000000;fill-opacity:1;fill-rule:evenodd;stroke:none;stroke-width:0.59651083;stroke-linecap:butt;stroke-linejoin:miter;stroke-miterlimit:4;stroke-opacity:1"
       id="path3353" />
    <path
       d="M 364.59375,28.59375 L 364.59375,36.75 L 357.40625,36.75 L 357.40625,38.75 L 364.59375,38.75 L 364.59375,60.65625 L 364.5625,59.9375 C 358.02181,59.43006 351.1196,61.363089 344.9375,58.34375 C 340.74821,56.674068 336.70235,56.476264 332.53125,56.5 C 322.22175,56.558668 320.57395,58.517795 313.59375,59.8125 C 300.90815,60.748848 300.6545,57.140765 276.375,58.5 L 276.375,62.0625 C 288.01869,61.681702 300.2503,61.413962 309,64.5 C 306.52809,71.180273 284.14845,66.062818 282.09375,75.09375 C 295.71545,73.797648 307.3483,73.929364 318.3125,74.53125 C 332.01651,73.990697 338.91085,71.444453 338.59375,68.46875 C 338.31755,65.8743 338.82785,64.43398 342.21875,64.65625 C 344.77885,64.373895 344.56575,65.923331 344.84375,68.28125 C 345.20015,71.303585 348.35865,74.025337 364.59375,74.375 L 364.59375,79.34375 C 360.50785,79.787167 357.375,82.234974 357.375,85.21875 C 357.37499,87.673518 359.50495,89.792999 362.53125,90.71875 L 362.53125,103.03125 C 354.38995,118.37294 338.6608,117.80272 338.9375,131.375 C 338.54501,141.97961 348.26985,143.30819 347.96875,149.125 C 346.66365,153.56248 341.9944,159.43501 336.0625,161.15625 C 338.63561,164.87787 341.4781,167.21713 344.8125,166.75 L 344.65625,220.5625 L 343.53125,220.5625 C 342.16045,223.46378 339.2697,225.36462 336.5625,227.375 C 339.44461,230.71951 342.1345,232.56535 346.625,234.53125 C 341.00439,253.05975 283.9367,255.31393 284.25,299.40625 C 283.76409,315.15601 302.9893,320.6033 300.3125,331.15625 C 295.09681,346.61912 282.34325,348.4791 271.65625,354.09375 C 276.04085,357.37129 281.98985,359.37511 289.40625,360.21875 L 289.40625,484.125 L 280,491.46875 L 282.375,492.9375 L 273.4375,498.8125 L 275.84375,500.1875 L 266.53125,506.03125 L 268.5625,507.28125 L 259.84375,513.09375 C 263.51205,514.1564 266.90305,516.51835 266.90625,522.15625 L 267.28125,522.15625 L 267.28125,555.40625 L 255.375,560.53125 L 259.125,564.5625 L 244.6875,567.34375 L 248.84375,571.125 L 234.34375,574.21875 L 238.4375,578.0625 L 224.34375,582.4375 C 228.05683,585.8647 232.10902,587.12836 235.71875,588.4375 C 233.6404,709.50252 235.89224,742.96637 218.03125,801.375 C 261.6301,834.34743 315.63694,854.69486 369.90625,871.3125 C 424.17565,854.69485 477.30744,832.62869 520.90625,799.65625 C 503.04525,741.24762 506.17206,709.5025 504.09375,588.4375 C 507.70345,587.12838 511.75562,585.86471 515.46875,582.4375 L 501.40625,578.0625 L 505.5,574.21875 L 490.96875,571.125 L 495.15625,567.34375 L 480.6875,564.5625 L 484.4375,560.53125 L 471,554.75 L 470.34375,554.75 L 470.34375,518.34375 C 471.50185,515.36117 474.0477,513.87648 476.75,513.09375 L 468.03125,507.28125 L 470.09375,506.03125 L 460.75,500.1875 L 463.15625,498.8125 L 454.21875,492.9375 L 456.59375,491.46875 L 448.21875,483.90625 L 448.21875,359.875 C 454.69695,358.95106 459.9477,357.0762 463.9375,354.09375 C 453.25061,348.47909 440.4656,346.61913 435.25,331.15625 C 432.57329,320.60329 451.7985,315.15602 451.3125,299.40625 C 451.62561,255.31392 394.558,253.05974 388.9375,234.53125 C 393.42801,232.56536 396.1179,230.71951 399,227.375 C 396.29279,225.36462 393.40205,223.46377 392.03125,220.5625 L 387.96875,220.5625 L 387.8125,166.75 C 391.14721,167.21713 393.9897,164.87787 396.5625,161.15625 C 390.63091,159.43501 385.96135,153.56248 384.65625,149.125 C 384.35535,143.30819 394.0803,141.97961 393.6875,131.375 C 393.96441,117.80272 378.454,118.37294 370.3125,103.03125 L 370.3125,90.34375 C 372.78231,89.288924 374.4377,87.386216 374.4375,85.21875 C 374.43761,82.113051 371.04935,79.567326 366.71875,79.28125 L 366.71875,38.75 L 373.4375,38.75 L 373.4375,36.75 L 366.71875,36.75 L 366.71875,28.59375 L 364.59375,28.59375 z M 364.59375,63.5 L 364.59375,72.65625 L 364.4375,70.53125 C 358.33491,71.053164 355.90825,70.497162 357.40625,67.21875 C 355.59685,64.143708 359.87075,64.034549 364.59375,63.5 z M 365.90625,81.625 C 368.75365,81.624997 371.0625,83.225564 371.0625,85.21875 C 371.06261,87.211937 368.75345,88.84375 365.90625,88.84375 C 363.05885,88.843748 360.75,87.211936 360.75,85.21875 C 360.74999,83.225565 363.05865,81.625 365.90625,81.625 z M 357.6875,120.15625 C 356.13901,123.40438 353.6573,126.47373 353.6875,129.90625 C 353.60201,133.79119 355.9339,136.51399 357.3125,139.8125 C 354.80911,136.96474 350.43365,135.69696 350.28125,130.0625 C 349.93855,123.80258 355.1082,123.35936 357.6875,120.15625 z M 375.4375,120.15625 C 378.01711,123.35936 383.18665,123.80258 382.84375,130.0625 C 382.69135,135.69696 378.3161,136.96474 375.8125,139.8125 C 377.19131,136.51399 379.5233,133.79119 379.4375,129.90625 C 379.46801,126.47373 376.9863,123.40438 375.4375,120.15625 z M 360.71875,163.78125 L 372.5,163.78125 L 372.5,166.5625 L 360.71875,166.5625 L 360.71875,163.78125 z M 366.3125,175.90625 C 368.67881,178.87673 371.07905,182.0532 371.78125,190.0625 L 371.78125,220.5625 L 360.84375,220.5625 L 360.84375,190.0625 C 361.54585,182.05321 363.9464,178.87673 366.3125,175.90625 z M 353.96875,176.75 C 356.35185,179.75326 357.5699,183.84765 357.5625,190.21875 L 357.5625,220.5625 L 349.375,220.5625 L 349.53125,190.375 C 349.84555,184.23878 351.23605,179.56056 353.96875,176.75 z M 378.65625,176.75 C 381.38905,179.56056 382.77955,184.23878 383.09375,190.375 L 383.25,220.5625 L 375.0625,220.5625 L 375.0625,190.21875 C 375.05531,183.84765 376.27305,179.75326 378.65625,176.75 z M 338.5,264.53125 C 328.82229,282.32741 317.27915,288.74885 332.15625,307.5 C 343.88105,323.57206 346.2792,328.892 335.375,341 C 334.73009,337.17032 340.2255,332.2592 338.5,325.96875 C 336.82929,319.87877 334.71915,316.47421 331.28125,312.5 C 314.77555,296.17776 316.7644,289.77991 326.4375,277.71875 C 330.79901,272.28059 334.6948,268.34356 338.5,264.53125 z M 389.5625,265.5 C 394.02651,268.51404 398.58505,271.65285 403.90625,276.15625 C 415.70815,286.14427 418.85975,292.04051 405.78125,311.21875 C 403.16705,315.77721 401.75605,319.51542 401.28125,325.8125 C 400.79085,332.31688 407.1502,336.08642 407.25,339.96875 C 394.23089,330.17024 395.5659,324.48688 404,306.46875 C 415.01529,285.21801 402.4658,281.11629 389.5625,265.5 z M 369.625,396.21875 C 382.29339,400.88134 400.1531,415.84339 399.9375,447.875 L 401.03125,527.90625 L 338.1875,527.78125 L 339.28125,447.875 C 339.06575,415.84339 356.9563,400.88134 369.625,396.21875 z M 370.09375,641.96875 L 372.15625,648.5 L 380,654.34375 L 382.46875,649.84375 L 382.6875,655.90625 C 384.16716,656.27616 397.28436,671.45798 397.96875,673.625 C 398.3487,672.57899 400.4375,668.71875 400.4375,668.71875 L 399.09375,675.90625 C 404.24325,688.83317 405.04051,703.10366 404.5,719.25 L 407.625,724.40625 L 407.1875,780.5625 C 392.124,781.94694 382.35425,785.37126 370.09375,788.4375 C 357.83325,785.37125 348.09474,781.94694 333.03125,780.5625 L 332.5625,724.40625 L 335.71875,719.25 C 335.17825,703.10367 335.94424,688.8332 341.09375,675.90625 L 339.75,668.71875 C 339.75,668.71875 341.83534,672.5738 342.21875,673.625 C 342.90315,671.45796 356.02035,656.27614 357.5,655.90625 L 357.71875,649.84375 L 360.1875,654.34375 L 368.0625,648.5 L 370.09375,641.96875 z M 342.21875,673.625 C 342.18154,673.74281 342.17862,673.8387 342.21875,673.875 C 342.33714,673.98211 342.3016,673.85215 342.21875,673.625 z M 397.96875,673.625 C 397.88716,673.84961 397.85096,673.98155 397.96875,673.875 C 398.00888,673.8387 398.00596,673.74281 397.96875,673.625 z M 287.34375,775.25 L 305.5625,775.25 C 301.552,777.45353 295.45255,777.36672 290.03125,778.03125 C 289.41335,780.75126 289.60535,783.83428 288.53125,786.34375 L 294.96875,786.34375 C 290.95825,788.54732 284.85881,788.49172 279.4375,789.15625 C 278.8294,791.83369 278.98795,794.85595 277.96875,797.34375 L 286.375,797.34375 C 282.3644,799.54732 276.26505,799.49172 270.84375,800.15625 C 270.06105,803.60185 270.58021,807.64119 268.1875,810.34375 L 268.1875,797.375 L 276.78125,797.375 L 276.78125,786.375 L 287.34375,786.34375 L 287.34375,775.25 z M 431.4375,775.25 L 449.625,775.25 L 449.625,786.34375 L 460.21875,786.375 L 460.21875,797.375 L 468.8125,797.375 L 468.8125,810.34375 C 466.4198,807.64119 466.90759,803.60185 466.125,800.15625 C 460.7037,799.49172 454.60435,799.54732 450.59375,797.34375 L 459.03125,797.34375 C 458.01205,794.85595 458.13945,791.83369 457.53125,789.15625 C 452.10995,788.49172 446.04185,788.54732 442.03125,786.34375 L 448.46875,786.34375 C 447.39465,783.83428 447.55541,780.75126 446.9375,778.03125 C 441.5163,777.36672 435.44821,777.45353 431.4375,775.25 z M 403.75,793.1875 C 405.12149,793.18071 406.02335,793.88369 405.46875,794.90625 C 390.68244,797.54653 382.46145,800.53487 369.46875,804.96875 C 357.42666,801.02363 347.5874,798.45374 333.75,795.40625 C 333.61182,794.46728 334.1352,793.49262 335.5,793.5 C 355.84059,793.60992 382.3174,793.29339 403.75,793.1875 z M 380.5,807.09375 C 390.37971,807.08784 399.80495,807.15972 407.5625,807.34375 C 408.93371,807.37624 409.6171,808.57119 409.0625,809.59375 C 384.6174,811.67249 373.8076,816.50197 369.6875,816.21875 C 366.1811,816.20459 353.75405,811.48781 331.15625,810.125 C 331.01806,809.18599 331.79185,807.68804 333.15625,807.65625 C 346.33894,807.34909 364.03381,807.1036 380.5,807.09375 z M 414.75,817.78125 C 416.12139,817.76421 416.8046,819.03994 416.25,820.0625 C 380.79831,822.59048 373.8076,827.03322 369.6875,826.75 C 366.1811,826.73584 362.5254,822.93611 326.5625,820.5625 C 326.4243,819.62348 327.1982,818.05773 328.5625,818.09375 C 349.1375,818.63687 393.6867,818.04343 414.75,817.78125 z M 363.40625,829.46875 C 375.75698,829.43704 387.7895,829.59954 400.71875,829.90625 C 402.08994,829.93878 402.77335,831.16494 402.21875,832.1875 C 387.43245,834.82777 383.58645,834.12862 370.59375,838.5625 C 358.55165,834.61738 352.3999,835.29749 338.5625,832.25 C 338.42431,831.311 339.1981,829.81304 340.5625,829.78125 C 348.47212,829.59696 355.99581,829.48777 363.40625,829.46875 z M 372.3125,839.65625 C 379.86619,839.68884 387.3626,839.82318 397.71875,840.03125 C 399.09165,840.0588 399.77405,841.07038 399.21875,841.9375 C 384.41436,844.17645 384.3837,843.36512 371.375,847.125 C 359.31811,843.77961 358.44825,844.58423 344.59375,842 C 344.45545,841.20371 345.22765,839.93321 346.59375,839.90625 C 357.15285,839.6979 364.75881,839.62366 372.3125,839.65625 z M 362.6875,850.84375 C 371.67685,850.78738 373.77828,851.0629 389.3125,851.375 C 390.6854,851.40254 391.58655,851.97663 391.03125,852.84375 C 380.38236,854.97041 377.7427,858.85853 370.125,858.6875 C 362.78519,858.37454 360.47645,855.48367 348.53125,852.5625 C 348.39295,851.76621 349.2589,851.05821 350.625,851.03125 C 355.90455,850.92707 359.69105,850.86254 362.6875,850.84375 z M 337.80054,585.9375 L 313.30054,606.75 L 296.64434,629.6875 L 298.48804,633.0625 L 315.51934,609.34375 L 339.45674,589.875 L 370.41274,581.75438 L 399.62924,590.28874 L 422.81554,608.72313 L 438.57294,634.9556 L 439.99114,631.5806 L 424.81554,606.33626 L 401.51184,586.83717 L 370.78554,576.79094 L 337.80054,585.9375 z M 370.86304,585.0625 L 369.73804,605.3125 L 352.11304,610.8125 L 342.83174,597.1875 L 350.33174,612.09375 L 332.76934,624.9375 L 319.36304,612.875 L 331.33174,626.5 L 319.39434,639.96875 L 305.86304,631.03125 L 318.11304,641.5 L 306.89434,669.03125 L 306.70674,689.65625 L 314.05054,689.8125 L 314.05054,695.9375 L 316.95674,695.9375 L 316.95674,689.875 L 325.64434,690.0625 L 325.64434,771.625 L 328.55054,771.625 L 328.55054,690.125 L 328.73804,690.125 L 328.55054,663.84375 L 347.14434,638.21875 L 370.11304,622.46875 L 394.11304,639.4375 L 411.70674,662.625 L 411.70674,690.96875 L 411.70674,771.84375 L 414.61304,771.84375 L 414.61304,690.9375 L 423.08174,690.84375 L 423.08174,699.4375 L 425.98804,699.4375 L 425.98804,690.8125 L 430.95674,690.75 L 430.42554,669.40625 L 421.61304,641.875 L 433.33174,631.40625 L 420.39434,640.34375 L 408.98804,626.90625 L 420.42554,613.25 L 407.61304,625.3125 L 390.83174,612.46875 L 397.98804,597.5625 L 389.14434,611.1875 L 372.23804,605.34375 L 370.86304,585.0625 z M 370.58174,609.1875 L 370.58174,609.28125 L 388.36304,615.21875 L 406.05054,628.625 L 418.45674,643.625 L 427.20674,670.75 L 427.20674,687.9375 L 414.80054,687.84375 L 414.39434,660.5625 L 396.61304,637.59375 L 370.11304,618.96875 L 344.89434,636.96875 L 325.86304,663.03125 L 325.42554,687.65625 L 310.26934,687.46875 L 310.26934,670.375 L 321.42554,643.25 L 334.42554,628.25 L 352.89434,614.84375 L 370.58174,609.1875 z M 423.07984,704.40454 L 425.97604,704.40454 L 425.97604,764.6043 L 423.07984,764.6043 L 423.07984,704.40454 z M 313.64454,702.74957 L 316.54074,702.74957 L 316.54074,764.60431 L 313.64454,764.60431 L 313.64454,702.74957 zM 344.41281,354.35878 C 342.46361,355.13344 339.92581,355.28836 339.91981,356.06302 C 349.61729,357.32257 358.85222,356.8607 368.89201,360.71097 C 374.95778,358.05656 386.97832,357.6685 397.70931,356.99261 C 396.86831,356.16631 395.84121,355.95973 393.37121,355.13343 C 376.58861,353.94904 360.37181,353.89599 344.41281,354.35878 z"
       style="fill:#000000;fill-opacity:1;fill-rule:evenodd;stroke:none;stroke-width:1px;stroke-linecap:butt;stroke-linejoin:miter;stroke-opacity:1"
       id="path3264" />
    <path
       sodipodi:nodetypes="cccccccssccccccccsccccsccccccccsscccccc"
       style="fill:#070707;fill-opacity:1;fill-rule:nonzero;stroke:#000000;stroke-width:1.73100000000000010;stroke-linecap:round;stroke-linejoin:miter;stroke-miterlimit:4;stroke-dasharray:none;stroke-dashoffset:0;stroke-opacity:1"
       d="M 359.5998,657.9689 L 377.0584,658.14677 C 379.5929,671.6174 382.2634,677.69478 395.8397,678.48242 L 395.9801,691.41046 L 379.6975,691.61433 L 379.3933,701.14684 C 375.4243,701.28737 373.1788,703.50712 372.2131,705.2585 C 373.9288,707.83697 373.9824,707.80418 376.9781,708.04819 C 380.1364,708.30545 383.9079,710.38029 385.8806,711.77334 C 387.5177,712.9293 387.4345,714.22958 390.3928,714.7409 L 390.3026,718.69472 L 387.5677,718.8318 C 386.4787,726.75309 393.1108,733.81907 399.0573,737.8794 C 399.4836,739.69291 401.2201,747.06514 403.5969,748.13905 L 403.6404,753.87824 L 373.3859,754.20597 C 370.6624,756.49452 374.3021,757.85295 375.2395,760.1415 C 375.7508,762.84377 374.832,764.81437 373.7511,765.89006 C 372.2502,767.3832 372.3264,770.20911 374.0573,774.4185 L 374.6965,782.5676 C 370.1567,784.41954 369.0518,784.06364 365.3653,782.72006 L 365.707,774.7087 C 367.9569,770.20394 367.7714,767.07063 365.6909,765.21604 C 364.8918,764.50368 364.4377,762.10802 364.7641,760.06661 C 366.1369,757.51045 368.0171,756.66943 366.1262,754.44601 L 335.7536,754.17521 L 335.7944,748.53899 C 336.9875,748.3841 339.145,746.6526 340.457,738.03595 C 346.6218,734.11811 352.0448,726.60534 351.6188,718.93477 L 348.9254,718.85386 L 348.9033,714.40389 C 350.176,714.15241 352.5304,713.1036 353.1815,712.11971 C 354.6953,709.83215 359.9835,707.74533 362.5709,707.55204 C 365.5654,707.32834 365.932,706.55813 366.6337,705.6704 C 367.207,704.22892 360.6296,700.45139 359.0116,701.20301 C 359.3005,697.38419 359.1284,695.16012 358.8711,691.61433 L 341.9971,691.41046 C 342.5231,687.25569 342.8287,683.09589 342.7834,678.94113 C 353.5905,676.98368 359.9617,672.72985 359.5998,657.9689 z"
       id="path2486" />
    <path
       d="M 360.2991,691.5553 L 378.5205,691.24327 L 378.173,700.13498 C 373.8291,701.05196 371.9861,703.42478 371.2183,704.95112 C 371.7787,706.34887 372.0828,707.88285 375.0843,708.7297 C 378.9288,708.92916 381.8702,710.16682 384.1063,711.80392 C 386.1322,712.5474 386.2667,713.62613 387.8003,714.79281 C 387.9783,715.17552 381.8522,714.69984 382.1012,714.94472 C 382.6821,715.51584 389.0155,715.25815 389.0155,715.13222 L 389.203,717.87102 L 382.8696,717.9866 C 384.3976,718.56156 384.2246,717.9975 386.5365,718.45087 C 385.7674,727.2713 391.4314,734.22484 398.1225,738.40336 C 396.326,738.8566 391.4425,738.18556 389.3618,739.14119 C 394.5121,738.71551 393.7256,739.5998 398.2111,739.30686 C 399.1257,742.43033 399.965,745.9527 402.5394,748.74691 C 399.3258,749.26222 395.4928,748.77142 391.8775,749.14249 C 396.5334,749.22049 397.3557,749.60318 402.6228,749.36595 L 402.8051,752.84504 L 372.8693,753.23095 C 369.7231,755.20773 372.3486,758.01333 373.3531,758.92699 C 375.0985,760.51456 374.5445,763.01802 373.9578,764.29543 C 370.5335,766.49593 371.9265,772.18108 373.1167,774.2047 L 373.7626,782.083 C 371.1766,783.25392 367.7228,783.05348 366.2752,782.00017 L 366.6841,774.85201 C 368.4169,771.99472 369.3155,767.10098 366.2362,764.25178 C 365.2871,762.84908 365.5016,760.66855 366.0799,759.86334 C 367.4152,758.00444 369.5013,754.77367 366.2207,753.39662 C 343.287,753.34975 346.8086,753.30287 336.8682,753.256 L 336.8367,749.40149 C 341.4548,749.29413 343.0763,749.64123 348.3191,749.31906 C 344.5478,748.74929 341.2592,749.19966 337.5236,748.59126 C 340.4423,745.85155 340.5322,742.13306 341.3207,738.86676 C 345.046,738.94121 346.9612,738.68711 351.8557,738.83044 C 347.8967,737.96359 344.1789,738.64109 342.3632,737.9924 C 347.2403,734.34344 353.2255,727.96195 352.6707,718.55876 C 353.8214,717.75322 357.47769,717.6988 357.5928,717.88194 C 354.6337,717.87076 352.55513,717.98537 350.0363,718.03708 L 349.8504,715.30881 C 352.27555,715.14057 354.75276,714.86757 357.12584,714.8041 C 356.91105,714.59417 352.9376,714.77853 351.1682,714.85543 C 354.2598,713.72632 353.7202,711.34767 359.6008,709.23229 C 363.1492,708.52298 362.4668,708.60691 365.0478,708.12692 C 366.5227,707.56395 367.5523,706.4657 367.738,704.78012 C 366.5219,702.76939 363.8102,700.96461 360.3735,700.15914 L 360.2991,691.5553 z M 367.8691,707.36029 L 371.1384,707.4297 C 370.6537,705.76276 367.9822,705.75917 367.8691,707.36029 z M 343.2565,690.47279 L 394.8619,690.23608 L 394.8447,679.36271 C 384.6915,678.68073 378.4233,674.60592 376.0161,659.13698 L 360.8921,658.98644 C 360.4414,675.45235 352.2211,677.36563 344.0205,679.81388 L 343.2565,690.47279 z"
       style="fill:#d2001e;fill-opacity:1;fill-rule:evenodd;stroke:none;stroke-width:1px;stroke-linecap:square;stroke-linejoin:round;stroke-opacity:1"
       id="path3258"
       sodipodi:nodetypes="cccccccsccccccccccccsccccccsccccccccccccccccccccccccccccc" />
    <path
       d="M 244.64576,594.97643 L 244.64576,773.91927 L 303.58903,773.66617 L 303.66553,661.81292 C 303.37763,614.13263 267.04193,603.85629 244.64576,594.97643 z M 492.69583,594.97643 L 492.69583,773.91927 L 433.75253,773.66617 L 433.67603,661.81292 C 433.96393,614.13263 470.29963,603.85629 492.69583,594.97643 z"
       style="fill:#007251;fill-opacity:1;fill-rule:evenodd;stroke:none;stroke-width:1px;stroke-linecap:butt;stroke-linejoin:miter;stroke-opacity:1"
       id="path3430" />
    <g
       transform="translate(-747.10813,0)"
       id="g3521">
      <rect
         style="opacity:1;fill:#ffdc01;fill-opacity:1;fill-rule:nonzero;stroke:none;stroke-width:2;stroke-linecap:round;stroke-linejoin:miter;stroke-miterlimit:4;stroke-dasharray:none;stroke-opacity:1"
         id="rect3503"
         width="4.1251793"
         height="15.015664"
         x="1052.0857"
         y="645.77551" />
      <rect
         style="opacity:1;fill:#ffdc01;fill-opacity:1;fill-rule:nonzero;stroke:none;stroke-width:2;stroke-linecap:round;stroke-linejoin:miter;stroke-miterlimit:4;stroke-dasharray:none;stroke-opacity:1"
         id="rect3505"
         width="9.4054089"
         height="5.3627329"
         x="1044.4954"
         y="650.39569" />
      <path
         style="opacity:1;fill:#010300;fill-opacity:1;fill-rule:nonzero;stroke:none;stroke-width:2;stroke-linecap:round;stroke-linejoin:miter;stroke-miterlimit:4;stroke-dasharray:none;stroke-opacity:1"
         d="M 1018.2812,632.5 C 1011.0467,632.66485 1006.1002,635.10684 1005.5625,641.96875 C 1005.5119,645.29419 1006.6399,648.02048 1008.3438,650.46875 C 1006.7134,651.76669 1006.0009,651.22739 1005.2812,650.625 C 1005.0949,649.25473 1003.9199,648.18749 1002.5,648.1875 C 1001.0332,648.1875 999.84179,649.31493 999.71875,650.75 C 999.35923,650.5824 998.95385,650.50001 998.53125,650.5 C 996.98282,650.5 995.71873,651.76405 995.71875,653.3125 C 995.71875,654.86093 996.98281,656.09373 998.53125,656.09375 C 998.91836,656.09375 999.28944,656.01701 999.625,655.875 C 999.61745,655.9588 999.625,656.03924 999.625,656.125 C 999.625,657.67343 1000.8578,658.93747 1002.4062,658.9375 C 1003.026,658.9375 1003.5967,658.71717 1004.0625,658.375 C 1004.3421,659.62522 1004.4011,661.44619 1004.2188,664.28125 C 1004.0947,671.0585 1009.3122,673.51264 1015.0312,675.3125 C 1010.6086,671.7244 1007.3028,668.02514 1007.6875,664 C 1008.3587,656.20519 1013.8533,657.20718 1018,655.75 L 1044.6562,655.75 L 1044.6562,650.3125 L 1017.6875,650.3125 L 1017.6875,650.21875 C 1012.8687,648.76999 1009.5349,646.45036 1010.4062,641.71875 C 1009.9781,636.54918 1015.6513,634.99451 1019.75,632.5 C 1019.2479,632.49123 1018.7636,632.48901 1018.2812,632.5 z"
         id="rect3507" />
    </g>
    <g
       transform="translate(-747.10813,74.901511)"
       id="g3526">
      <rect
         y="645.77551"
         x="1052.0857"
         height="15.015664"
         width="4.1251793"
         id="rect3528"
         style="opacity:1;fill:#ffdc01;fill-opacity:1;fill-rule:nonzero;stroke:none;stroke-width:2;stroke-linecap:round;stroke-linejoin:miter;stroke-miterlimit:4;stroke-dasharray:none;stroke-opacity:1" />
      <rect
         y="650.39569"
         x="1044.4954"
         height="5.3627329"
         width="9.4054089"
         id="rect3530"
         style="opacity:1;fill:#ffdc01;fill-opacity:1;fill-rule:nonzero;stroke:none;stroke-width:2;stroke-linecap:round;stroke-linejoin:miter;stroke-miterlimit:4;stroke-dasharray:none;stroke-opacity:1" />
      <path
         id="path3532"
         d="M 1018.2812,632.5 C 1011.0467,632.66485 1006.1002,635.10684 1005.5625,641.96875 C 1005.5119,645.29419 1006.6399,648.02048 1008.3438,650.46875 C 1006.7134,651.76669 1006.0009,651.22739 1005.2812,650.625 C 1005.0949,649.25473 1003.9199,648.18749 1002.5,648.1875 C 1001.0332,648.1875 999.84179,649.31493 999.71875,650.75 C 999.35923,650.5824 998.95385,650.50001 998.53125,650.5 C 996.98282,650.5 995.71873,651.76405 995.71875,653.3125 C 995.71875,654.86093 996.98281,656.09373 998.53125,656.09375 C 998.91836,656.09375 999.28944,656.01701 999.625,655.875 C 999.61745,655.9588 999.625,656.03924 999.625,656.125 C 999.625,657.67343 1000.8578,658.93747 1002.4062,658.9375 C 1003.026,658.9375 1003.5967,658.71717 1004.0625,658.375 C 1004.3421,659.62522 1004.4011,661.44619 1004.2188,664.28125 C 1004.0947,671.0585 1009.3122,673.51264 1015.0312,675.3125 C 1010.6086,671.7244 1007.3028,668.02514 1007.6875,664 C 1008.3587,656.20519 1013.8533,657.20718 1018,655.75 L 1044.6562,655.75 L 1044.6562,650.3125 L 1017.6875,650.3125 L 1017.6875,650.21875 C 1012.8687,648.76999 1009.5349,646.45036 1010.4062,641.71875 C 1009.9781,636.54918 1015.6513,634.99451 1019.75,632.5 C 1019.2479,632.49123 1018.7636,632.48901 1018.2812,632.5 z"
         style="opacity:1;fill:#010300;fill-opacity:1;fill-rule:nonzero;stroke:none;stroke-width:2;stroke-linecap:round;stroke-linejoin:miter;stroke-miterlimit:4;stroke-dasharray:none;stroke-opacity:1" />
    </g>
    <g
       transform="matrix(-1,0,0,-1,1484.8215,1382.7066)"
       id="g3534">
      <rect
         y="645.77551"
         x="1052.0857"
         height="15.015664"
         width="4.1251793"
         id="rect3536"
         style="opacity:1;fill:#ffdc01;fill-opacity:1;fill-rule:nonzero;stroke:none;stroke-width:2;stroke-linecap:round;stroke-linejoin:miter;stroke-miterlimit:4;stroke-dasharray:none;stroke-opacity:1" />
      <rect
         y="650.39569"
         x="1044.4954"
         height="5.3627329"
         width="9.4054089"
         id="rect3538"
         style="opacity:1;fill:#ffdc01;fill-opacity:1;fill-rule:nonzero;stroke:none;stroke-width:2;stroke-linecap:round;stroke-linejoin:miter;stroke-miterlimit:4;stroke-dasharray:none;stroke-opacity:1" />
      <path
         id="path3540"
         d="M 1018.2812,632.5 C 1011.0467,632.66485 1006.1002,635.10684 1005.5625,641.96875 C 1005.5119,645.29419 1006.6399,648.02048 1008.3438,650.46875 C 1006.7134,651.76669 1006.0009,651.22739 1005.2812,650.625 C 1005.0949,649.25473 1003.9199,648.18749 1002.5,648.1875 C 1001.0332,648.1875 999.84179,649.31493 999.71875,650.75 C 999.35923,650.5824 998.95385,650.50001 998.53125,650.5 C 996.98282,650.5 995.71873,651.76405 995.71875,653.3125 C 995.71875,654.86093 996.98281,656.09373 998.53125,656.09375 C 998.91836,656.09375 999.28944,656.01701 999.625,655.875 C 999.61745,655.9588 999.625,656.03924 999.625,656.125 C 999.625,657.67343 1000.8578,658.93747 1002.4062,658.9375 C 1003.026,658.9375 1003.5967,658.71717 1004.0625,658.375 C 1004.3421,659.62522 1004.4011,661.44619 1004.2188,664.28125 C 1004.0947,671.0585 1009.3122,673.51264 1015.0312,675.3125 C 1010.6086,671.7244 1007.3028,668.02514 1007.6875,664 C 1008.3587,656.20519 1013.8533,657.20718 1018,655.75 L 1044.6562,655.75 L 1044.6562,650.3125 L 1017.6875,650.3125 L 1017.6875,650.21875 C 1012.8687,648.76999 1009.5349,646.45036 1010.4062,641.71875 C 1009.9781,636.54918 1015.6513,634.99451 1019.75,632.5 C 1019.2479,632.49123 1018.7636,632.48901 1018.2812,632.5 z"
         style="opacity:1;fill:#010300;fill-opacity:1;fill-rule:nonzero;stroke:none;stroke-width:2;stroke-linecap:round;stroke-linejoin:miter;stroke-miterlimit:4;stroke-dasharray:none;stroke-opacity:1" />
    </g>
    <g
       id="g3542"
       transform="matrix(-1,0,0,-1,1484.8215,1307.8051)">
      <rect
         style="opacity:1;fill:#ffdc01;fill-opacity:1;fill-rule:nonzero;stroke:none;stroke-width:2;stroke-linecap:round;stroke-linejoin:miter;stroke-miterlimit:4;stroke-dasharray:none;stroke-opacity:1"
         id="rect3544"
         width="4.1251793"
         height="15.015664"
         x="1052.0857"
         y="645.77551" />
      <rect
         style="opacity:1;fill:#ffdc01;fill-opacity:1;fill-rule:nonzero;stroke:none;stroke-width:2;stroke-linecap:round;stroke-linejoin:miter;stroke-miterlimit:4;stroke-dasharray:none;stroke-opacity:1"
         id="rect3546"
         width="9.4054089"
         height="5.3627329"
         x="1044.4954"
         y="650.39569" />
      <path
         style="opacity:1;fill:#010300;fill-opacity:1;fill-rule:nonzero;stroke:none;stroke-width:2;stroke-linecap:round;stroke-linejoin:miter;stroke-miterlimit:4;stroke-dasharray:none;stroke-opacity:1"
         d="M 1018.2812,632.5 C 1011.0467,632.66485 1006.1002,635.10684 1005.5625,641.96875 C 1005.5119,645.29419 1006.6399,648.02048 1008.3438,650.46875 C 1006.7134,651.76669 1006.0009,651.22739 1005.2812,650.625 C 1005.0949,649.25473 1003.9199,648.18749 1002.5,648.1875 C 1001.0332,648.1875 999.84179,649.31493 999.71875,650.75 C 999.35923,650.5824 998.95385,650.50001 998.53125,650.5 C 996.98282,650.5 995.71873,651.76405 995.71875,653.3125 C 995.71875,654.86093 996.98281,656.09373 998.53125,656.09375 C 998.91836,656.09375 999.28944,656.01701 999.625,655.875 C 999.61745,655.9588 999.625,656.03924 999.625,656.125 C 999.625,657.67343 1000.8578,658.93747 1002.4062,658.9375 C 1003.026,658.9375 1003.5967,658.71717 1004.0625,658.375 C 1004.3421,659.62522 1004.4011,661.44619 1004.2188,664.28125 C 1004.0947,671.0585 1009.3122,673.51264 1015.0312,675.3125 C 1010.6086,671.7244 1007.3028,668.02514 1007.6875,664 C 1008.3587,656.20519 1013.8533,657.20718 1018,655.75 L 1044.6562,655.75 L 1044.6562,650.3125 L 1017.6875,650.3125 L 1017.6875,650.21875 C 1012.8687,648.76999 1009.5349,646.45036 1010.4062,641.71875 C 1009.9781,636.54918 1015.6513,634.99451 1019.75,632.5 C 1019.2479,632.49123 1018.7636,632.48901 1018.2812,632.5 z"
         id="path3548" />
    </g>
  </g>
</svg>
