<?xml version="1.0" encoding="UTF-8" standalone="no"?>
<svg
   width="523.71503"
   height="629.46802"
   version="1.1"
   id="svg6"
   sodipodi:docname="wiazow.svg"
   xmlns:inkscape="http://www.inkscape.org/namespaces/inkscape"
   xmlns:sodipodi="http://sodipodi.sourceforge.net/DTD/sodipodi-0.dtd"
   xmlns="http://www.w3.org/2000/svg"
   xmlns:svg="http://www.w3.org/2000/svg">
  <sodipodi:namedview
     id="namedview6"
     pagecolor="#ffffff"
     bordercolor="#000000"
     borderopacity="0.25"
     inkscape:showpageshadow="2"
     inkscape:pageopacity="0.0"
     inkscape:pagecheckerboard="0"
     inkscape:deskcolor="#d1d1d1"
     inkscape:zoom="1.304276"
     inkscape:cx="262.21445"
     inkscape:cy="314.73401"
     inkscape:window-width="1920"
     inkscape:window-height="1017"
     inkscape:window-x="-8"
     inkscape:window-y="-8"
     inkscape:window-maximized="1"
     inkscape:current-layer="svg6" />
  <defs
     id="defs2" />
  <g
     id="g6">
    <path
       style="fill:#222222;fill-rule:evenodd;stroke:none"
       d="M 0,0 H 523.715 V 365.48 L 523.7,367 C 522.883,511.703 405.586,629.468 261.864,629.468 118.145,629.468 0.843697,511.703 0.027298,367 L 0.0116997,365.48 V 0"
       id="path3" />
    <path
       style="fill:#ec2a32;fill-rule:evenodd;stroke:none"
       d="M 12.2031,13.222 H 510.496 v 350.723 l -0.015,1.457 C 509.704,504.261 398.098,617.269 261.356,617.269 124.614,617.269 13.0078,504.261 12.2304,365.402 l -0.0156,-1.457 V 13.222 Z m 250.7309,173.77 c 97.785,0 177.539,79.754 177.539,177.539 0,97.785 -79.754,177.539 -177.539,177.539 -97.785,0 -177.5394,-79.754 -177.5394,-177.539 0,-97.785 79.7544,-177.539 177.5394,-177.539 z M 375.77,154.406 c 2.293,-3.043 3.711,-6.086 -0.977,-9.129 -13.507,-8.695 -18.234,-17.395 -16.961,-26.094 9.7,-23.84 25.942,-25.793 40.77,-17.285 -1.305,-5.867 -1.305,-12.176 0,-18.918 7.066,-10.98 17.066,-16.742 24.137,-29.027 3.281,5.914 8.886,10.668 14.023,15.652 5.879,4.008 10.992,9.109 10.762,21.852 -0.543,3.476 -1.953,7.39 -4.238,11.738 13.753,-6.524 26.144,-8.695 35.55,-1.305 10.657,11.305 8.153,22.613 -0.324,33.922 -8.316,6.086 -13.101,12.719 -10.109,20.547 -3.477,1.953 -7.828,1.738 -13.047,-0.652 -2.61,-4.672 -3.043,-9.786 -1.305,-15.329 2.606,-5.109 0.867,-8.043 -5.219,-8.804 -5.871,0.543 -10,3.261 -12.394,8.152 5.762,4.348 4.348,8.695 -0.324,13.047 -0.434,4.672 2.172,8.477 7.828,11.414 8.695,2.172 13.047,7.063 7.828,17.937 -5.543,8.782 -11.09,3.649 -16.633,1.301 -2.601,6.746 -5.75,12.946 -12.719,15.328 -8.914,-4.781 -13.047,-10.437 -12.394,-16.961 -4.02,1.848 -8.043,3.481 -12.067,3.586 -8.371,-4.457 -9.785,-11.089 -4.238,-19.894 2.391,-1.848 5.215,-2.824 8.477,-2.934 4.347,0 6.086,-3.476 5.218,-10.433 -7.312,-2.879 -6.382,-8.473 -0.168,-12.262 -4.16,-8.156 -12.281,-14.633 -15.156,-3.066 -1.679,6.101 2.129,11.132 -0.976,15.656 -5.434,6.547 -10.766,11.125 -15.328,1.953 z m -316.6372,0 c 2.293,-3.043 3.7148,-6.086 -0.9766,-9.129 -13.5078,-8.695 -18.2344,-17.395 -16.9609,-26.094 9.6992,-23.84 25.9413,-25.793 40.7693,-17.285 -1.301,-5.867 -1.301,-12.176 0,-18.918 7.067,-10.98 17.067,-16.742 24.1374,-29.027 3.281,5.914 8.887,10.668 14.023,15.652 5.879,4.008 10.993,9.109 10.762,21.852 -0.543,3.476 -1.953,7.39 -4.238,11.738 13.754,-6.524 26.144,-8.695 35.551,-1.305 10.656,11.305 8.152,22.613 -0.325,33.922 -8.316,6.086 -13.101,12.719 -10.109,20.547 -3.477,1.953 -7.828,1.738 -13.047,-0.652 -2.609,-4.672 -3.043,-9.786 -1.305,-15.329 2.606,-5.109 0.868,-8.043 -5.218,-8.804 -5.868,0.543 -10,3.261 -12.395,8.152 5.762,4.348 4.348,8.695 -0.324,13.047 -0.434,4.672 2.172,8.477 7.824,11.414 8.695,2.172 13.047,7.063 7.828,17.937 -5.543,8.782 -11.09,3.649 -16.633,1.301 -2.601,6.746 -5.75,12.946 -12.718,15.328 -8.9144,-4.781 -13.0474,-10.437 -12.3954,-16.961 -4.019,1.848 -8.043,3.481 -12.066,3.586 -8.367,-4.457 -9.781,-11.089 -4.239,-19.894 2.391,-1.848 5.215,-2.824 8.477,-2.934 4.348,0 6.086,-3.476 5.219,-10.433 -7.313,-2.879 -6.383,-8.473 -0.168,-12.262 -4.16,-8.156 -12.281,-14.633 -15.156,-3.066 -1.68,6.101 2.128,11.132 -0.977,15.656 -5.437,6.547 -10.7656,11.125 -15.3281,1.953"
       id="path4" />
    <path
       style="fill:#fff100;fill-rule:evenodd;stroke:none"
       d="m 216.422,243.503 c 22.649,-8.75 47.696,-11.75 77.016,-4.5 -8.668,0.493 -17.336,1.325 -26.004,4.5 -15.129,-6.546 -33.156,-2.976 -51.008,0 z m 169.539,164.039 c -0.496,-7.835 -2.332,-15.003 -5.5,-21.503 -6,-8.332 -7.332,-16 -4,-23.004 5.836,-14.004 0.336,-37.008 -6.5,-49.512 0.668,-6.5 1.332,-11.5 2,-18.004 20.817,32.172 26.528,69.18 14,112.023 z m -11.504,21.004 c -6.511,3.996 -11.855,8.328 -9,15.004 4.672,-4.164 7.004,-9.5 9,-15.004 z m -45.507,46.008 c 1.48,-7.351 2.796,-14.875 7,-19.504 7,-1.336 14,-1.5 21.004,-1.5 -9.333,8.567 -18.668,16.446 -28.004,21.004 z M 186.168,258.757 c -2.058,11.461 -27.218,21.993 -28.754,48.258 -2.164,7.168 0,14.336 -1,22.504 -4.25,17.887 -15.851,36.285 -10.5,46.508 -0.332,10.918 6.668,22.754 17,35.004 0.832,4.332 1,8.668 0.5,13.004 -7.168,1.914 -11,5.082 -7.5,11 3.668,0.664 7.336,0.664 11,0 -0.164,2.664 -1.664,4.664 -4.5,6 -1.015,5.347 3.825,6.007 9.5,6 6.664,-1.336 13.5,-2.34 21.504,-1 -0.996,9.832 -0.664,19.004 1,27.504 -31.007,-18.418 -54.511,-46.422 -61.511,-95.52 -1.332,-28.754 3.164,-57.094 20.504,-84.519 10.808,-14.586 21.332,-25.672 32.757,-34.754 z M 262.684,226.5 c 75.887,0 137.777,61.89 137.777,137.781 0,53.953 -31.293,100.824 -76.652,123.418 -1.203,6.316 0.176,11.605 4.137,15.859 3.675,6.676 6.351,12.68 2,14 -0.063,0.375 -0.071,0.68 -0.047,0.942 59.394,-26.032 101.07,-85.411 101.07,-154.227 0,-92.688 -75.598,-168.285 -168.285,-168.285 -92.688,0 -168.2854,75.597 -168.2854,168.285 0,68.34 41.0974,127.383 99.8444,153.687 -1.489,-3.968 1.695,-7.937 5.675,-11.906 -5.527,-9.238 -6.25,-16.078 -5.574,-22.219 -41.43,-23.8 -69.437,-68.515 -69.437,-119.562 0,-75.887 61.894,-137.781 137.777,-137.781 z m -21.121,273.937 c -2.492,-0.387 -4.969,-0.844 -7.418,-1.363 -0.524,1.828 -1.762,3.66 -3.711,5.488 -7.336,1.164 -13.336,5.668 -18.004,13.5 -3.051,0.688 -5.641,2.074 -7.762,4.16 18.098,6.684 37.649,10.34 58.02,10.34 21.492,0 42.066,-4.07 60.996,-11.473 -11.719,-1.242 -23.152,-4.824 -32.238,-12.527 -2.168,-3 -4.332,-2.668 -6.5,1 -1.164,1.5 -2.832,2.5 -4,4 -3.332,6.5 -6.832,8.832 -11.5,6 -5.332,8.668 -9.332,10 -12,4 -2.5,-0.5 -5,0.328 -7.5,2.5 -3,-1.5 -4.668,-4.336 -5,-8.5 -0.438,-7.074 -1.793,-12.32 -3.368,-17.125"
       id="path5" />
    <path
       style="fill:#ffffff;fill-rule:evenodd;stroke:none"
       d="m 298.442,283.511 c 0.008,3.219 -1.418,10.278 9.5,12 -1.832,-5.332 -5,-9.332 -9.5,-12 z m -71.516,15.004 c -10.332,-10.422 -12.164,-23.758 -2.5,-39.508 1.832,-3.168 1.664,-6.332 -0.496,-9.5 17.625,-3.957 32.879,-2.375 46.508,3 4.164,2 7,0.664 8.5,-4 5.668,-2.675 10.168,-1.836 14.504,-0.5 -1.332,2.5 -0.664,5 2,7.5 5.012,5.493 5.34,13.328 5,21.504 -3,-8.5 -6.668,-9 -11,-1.496 -5.168,-14.238 -10.336,-3.875 -15.504,10 -1.41,-7.867 -1.399,-18.933 -8.5,-14 -0.574,-2.875 0.266,-6.465 -6,-6.5 6.668,-8.668 6.668,-12 0,-10 -3.332,4.5 -6.668,7 -10,7.5 -6.336,3 -10,8.668 -11.004,17.004 -2.5,0.5 -3.668,2.332 -3.5,5.5 -2.848,-3.824 -4.359,-8.484 3.5,-19.004 0,-5.832 -2,-7.668 -6,-5.5 -8.5,9.336 -10.336,22.004 -5.5,38.008 z m -58.515,32.008 c 1.832,-7.168 2.332,-14.336 1.5,-21.504 -0.25,-5.875 2.75,-12.293 10.5,-19.504 10.667,-5.414 19.671,-13.75 25.003,-28.504 -1.832,-0.664 -3.668,-1.332 -5.5,-2 3.5,-3 7.668,-4 12.5,-3 2.664,-2.5 5.332,-3.664 8,-3.5 -5.75,7.418 -8.75,15.754 -10.5,24.504 -4,2.66 -7.836,5.66 -10.5,11.004 -9.675,-0.523 -18.679,1.121 -23.003,18 1.332,18.836 -1.333,27.004 -8,24.504 z m 70.015,36.008 c -13.836,3.168 -25.672,0.996 -35.504,-6.5 -4.094,14.242 -2.933,31.41 17.004,59.011 8.082,-2.5 13.582,-13.168 21.504,-17.503 1.156,-10.688 4.66,-14.348 8.5,-17.004 0,-5.668 0,-11.336 0,-17.004 -12.836,10.668 -27.672,13.336 -44.508,8 -4.168,-4.336 -3.668,-6.668 1.496,-7 12.176,5.187 22.008,2.179 31.504,-2 z m 46.512,-0.5 c 13.168,1.832 25.672,0.332 37.508,-4.5 2.55,13.289 1.304,28.707 -13.5,50.008 -6.832,-5.332 -14.336,-8 -22.504,-8 -1.164,-7.336 -5,-13.336 -11.5,-18.004 -1.34,-5.832 -2.176,-11.668 0.5,-17.504 7.168,5.172 14.336,9.679 21.504,9.5 6.832,-1 13.668,-2 20.504,-3 2.332,-6.168 1.332,-8.336 -3,-6.5 -11.704,4.008 -20.52,0.793 -29.504,-2 z m -44.012,-9.5 c -11.75,-7.086 -22.254,-9.586 -30.004,-2 6.668,6.668 16.668,7.332 30.004,2 z m 41.512,2 c 11.172,-8.364 21.172,-6.184 31.004,-2.5 -13.668,8.168 -24.004,9 -31.004,2.5 z m -6.5,-5.504 c 4.664,-12.336 11.5,-17.004 22.504,-17.5 13.355,-0.688 19.179,7.316 24.504,16 -10.192,-3.086 -20.739,-7.602 -29.508,-5 -5.832,0.578 -11.668,3.246 -17.5,6.5 z m -25.004,1 c -4.648,-9.344 -10.805,-17.688 -27.504,-19.004 -10.074,0.543 -16.094,5.953 -19.504,14.504 5.16,-3.336 10.66,-6.34 18.504,-7 10.438,0.09 19.426,5.965 28.504,11.5 z m -46.012,-61.012 c -3.332,15.504 -3,29.172 -1,42.008 12.25,-10.086 26.586,-12.254 45.508,3 8.02,6.824 9.012,17.16 9,28.004 -0.832,7.836 -1.164,15.668 -2,23.504 0.332,3.832 0.164,7.668 0.5,11.5 -2.191,6.023 4.984,3.847 13.5,0.5 0.832,-2.832 1,-5.668 0.5,-8.5 -2.332,-3.168 -3.336,-5.668 -3,-7.5 -0.418,-12.168 -0.418,-24.336 0.5,-36.508 13.25,-25.422 31.254,-27.09 52.512,-12.504 0.496,-5.832 0.328,-11 -0.5,-15.504 -2.832,-5.168 -5,-10.332 -6.5,-15.5 -5.164,-0.168 -9.668,-1 -13.5,-2.5 -4.168,0.828 -7.668,0.996 -10.5,0.5 -6.504,3.18 -11.836,1.672 -17.004,-0.5 -6.172,0.508 -12.008,0.18 -15.504,-6 -1.164,0 -2.332,0 -3.5,0 -2.164,-1.332 -3.664,-0.668 -4.5,2 -3.668,3.164 -7.336,3 -11.004,-0.5 -2.664,0.332 -3.332,2 -2,5 -9.668,4.164 -16.668,3 -21.004,-3.5 -1.328,-5.172 -2.828,-9.844 -5.5,-11 -2.332,0.664 -4,2 -5,4 z M 426,162.558 c -1.629,4.238 -1.957,8.481 -0.976,12.719 -1.953,4.906 -3.91,3.703 -5.867,1.629 0.867,-5 0.867,-9.567 0,-13.699 -4.895,13.48 -5.438,24.242 3.586,29.027 8.324,-2.652 7.125,-14.836 3.261,-29.68 z m 14.024,-46.641 c 8.801,-12.753 19.129,-13.281 29.68,-12.066 17.546,9.926 11.277,19 4.238,28.051 -7.188,6.848 -13.285,13.59 -11.738,19.57 -2.395,1.211 -4.25,0.895 -2.282,-10.109 1.309,-5.113 2.074,-9.899 -0.976,-12.395 -5.434,-2.609 -14.352,-2.933 -21.528,-0.324 1.739,-4.129 4.453,-8.043 11.09,-10.434 10.11,-5.164 16.961,-4.621 16.633,8.477 -2.605,3.477 -1.738,5.215 2.605,5.219 3.051,-2.051 5.446,-5.09 3.262,-15.004 -9.754,-13.578 -20.355,-7.594 -30.984,-0.977 z m -21.199,13.7 c -5,-10.871 -14.243,-19.461 -15.657,-33.27 -0.769,-5.437 -0.554,-9.898 2.934,-13.699 4.863,-7.254 10.898,-12.637 16.633,-17.285 8.668,4.918 15.57,11.605 19.894,20.875 0.985,4.89 -10.972,28.484 -18.265,43.054 -0.325,-13.261 0.648,-26.851 0.324,-40.117 -2.606,-7.933 -4.781,-8.043 -6.524,-0.324 0,13.371 0.653,27.399 0.653,40.77 z m -15.004,-2.934 c -9.145,-4.824 -17.2,-5.941 -17.61,18.918 1.313,4.137 -0.425,5.981 -2.609,7.5 0,-6.848 -3.043,-11.957 -9.133,-15.328 -13.82,-9.891 -11.316,-19.785 -4.238,-29.68 10.109,-7.883 19.027,-6.25 27.398,0.653 7.403,5.105 11.532,10.433 14.352,16.304 -12.067,-13.972 -24.68,-21.148 -38.488,-13.371 -6.215,5.324 -4.797,11.414 -2.282,17.613 6.629,4.129 8.914,3.477 6.848,-1.957 -2.617,-4.351 -4.363,-8.375 0,-10.109 7.937,-4.535 15.875,-3.07 23.809,7.176 0.652,0.762 1.304,1.519 1.953,2.281 z m 28.05,29.027 c 1.52,5.219 5.54,8.918 8.805,12.395 2.797,2.738 7.32,1.695 7.5,7.5 0.555,5.121 -3.359,5.336 -7.176,5.215 -3.812,-2.824 -5.011,-5 -6.847,-8.477 -4.137,-7.508 -3.918,-11.965 -4.563,-15.98 3.137,6.996 5.883,12.027 8.153,14.676 -2.395,-5.219 -6.094,-10.11 -5.868,-15.329 z m -19.562,0 c -1.52,5.219 -5.539,8.918 -8.805,12.395 -2.8,2.738 -7.32,1.695 -7.5,7.5 -0.554,5.121 3.36,5.336 7.176,5.215 3.813,-2.824 5.012,-5 6.848,-8.477 4.136,-7.508 3.918,-11.965 4.566,-15.98 -3.137,6.996 -5.883,12.027 -8.152,14.676 2.394,-5.219 6.094,-10.11 5.867,-15.329 z m -0.988,-13.046 h 20.875 c 1.972,0 3.586,1.613 3.586,3.586 0,1.972 -1.614,3.585 -3.586,3.585 h -20.875 c -1.973,0 -3.586,-1.613 -3.586,-3.585 0,-1.973 1.613,-3.586 3.586,-3.586 z m -301.953,19.894 c -1.629,4.238 -1.957,8.481 -0.977,12.719 -1.957,4.906 -3.91,3.703 -5.871,1.629 0.867,-5 0.867,-9.567 0,-13.699 -4.8914,13.48 -5.4384,24.242 3.586,29.027 8.324,-2.652 7.125,-14.836 3.262,-29.68 z m 14.023,-46.641 c 8.801,-12.753 19.133,-13.281 29.68,-12.066 17.547,9.926 11.277,19 4.238,28.051 -7.188,6.848 -13.285,13.59 -11.742,19.57 -2.395,1.211 -4.25,0.895 -2.281,-10.109 1.308,-5.113 2.074,-9.899 -0.977,-12.395 -5.434,-2.609 -14.352,-2.933 -21.523,-0.324 1.738,-4.129 4.453,-8.043 11.085,-10.434 10.11,-5.164 16.961,-4.621 16.633,8.477 -2.605,3.477 -1.738,5.215 2.606,5.219 3.051,-2.051 5.445,-5.09 3.261,-15.004 -9.753,-13.578 -20.355,-7.594 -30.984,-0.977 z m -21.199,13.7 c -5.0004,-10.871 -14.2424,-19.461 -15.6564,-33.27 -0.77,-5.437 -0.555,-9.898 2.933,-13.699 4.863,-7.254 10.8994,-12.637 16.6334,-17.285 8.668,4.918 15.574,11.605 19.894,20.875 0.989,4.89 -10.972,28.484 -18.265,43.054 -0.324,-13.261 0.652,-26.851 0.324,-40.117 -2.605,-7.933 -4.781,-8.043 -6.519,-0.324 0,13.371 0.648,27.399 0.648,40.77 z m -15.0044,-2.934 c -9.145,-4.824 -17.195,-5.941 -17.61,18.918 1.313,4.137 -0.425,5.981 -2.609,7.5 0,-6.848 -3.0428,-11.957 -9.1327,-15.328 -13.8203,-9.891 -11.3164,-19.785 -4.2383,-29.68 10.1094,-7.883 19.027,-6.25 27.395,0.653 7.406,5.105 11.531,10.433 14.351,16.304 -12.066,-13.972 -24.68,-21.148 -38.4882,-13.371 -6.2148,5.324 -4.7968,11.414 -2.2812,17.613 6.6328,4.129 8.9141,3.477 6.8476,-1.957 -2.6171,-4.351 -4.3632,-8.375 0,-10.109 7.9378,-4.535 15.8748,-3.07 23.8088,7.176 0.648,0.762 1.305,1.519 1.953,2.281 z m 28.0514,29.027 c 1.519,5.219 5.539,8.918 8.804,12.395 2.801,2.738 7.321,1.695 7.5,7.5 0.555,5.121 -3.359,5.336 -7.175,5.215 -3.813,-2.824 -5.012,-5 -6.848,-8.477 -4.137,-7.508 -3.918,-11.965 -4.563,-15.98 3.137,6.996 5.883,12.027 8.153,14.676 -2.395,-5.219 -6.094,-10.11 -5.867,-15.329 z m -19.5634,0 c -1.519,5.219 -5.539,8.918 -8.805,12.395 -2.8,2.738 -7.32,1.695 -7.5,7.5 -0.554,5.121 3.36,5.336 7.176,5.215 3.813,-2.824 5.012,-5 6.848,-8.477 4.137,-7.508 3.918,-11.965 4.566,-15.98 -3.136,6.996 -5.883,12.027 -8.152,14.676 2.395,-5.219 6.094,-10.11 5.871,-15.329 z m -0.988,-13.046 h 20.8754 c 1.973,0 3.586,1.613 3.586,3.586 0,1.972 -1.613,3.585 -3.586,3.585 H 94.6876 c -1.973,0 -3.586,-1.613 -3.586,-3.585 0,-1.973 1.613,-3.586 3.586,-3.586 z M 267.434,411.542 c 21.336,-5.332 36.672,1.332 46.008,20.004 5.332,13.5 6,29.004 2,46.508 -2.832,9.168 -2.332,18.336 1.5,27.504 -4.508,0.02 -8.348,-1.633 -7.5,-15.004 -0.5,-16.004 -0.168,-30.34 2,-41.008 -1.664,-7.668 -4.668,-15.336 -9,-23.004 -8.192,-8.035 -10.184,-2.187 -7,3.5 1,3.332 2.664,6.668 5,10 2.832,4.668 3.664,10 2.5,16.004 0.492,15.172 -3.508,29.512 0,47.008 -6.168,-7.836 -7.668,-15.668 -4.5,-23.504 0.5,-4.668 -1,-7.336 -4.5,-8 1.019,-7.832 2.398,-15.668 2,-23.504 -4.5,-8.336 -9,-16.668 -13.5,-25.004 -4.832,-4.332 -8.332,-5.332 -10.5,-3 -4.168,-1.5 -5.668,-4.335 -4.5,-8.5 z m 11.504,23.504 c -5.164,-3.668 -10.332,-7.336 -15.5,-11 -6.418,5.762 -13.754,9.438 -21.504,4.5 -3.5,2 -3.668,3.332 -0.5,4 15.848,8.364 27.012,6.184 37.508,2.5 z m 6,45.512 c -2,-6.168 -4,-12.336 -6,-18.504 -4.332,-6.332 -6.668,-5.332 -7,3 -2.332,-2.375 -4.668,-2.801 -7,3 4.5,25.606 3.5,35.098 0,38.008 -10.586,-18.754 -9.254,-31.09 -2.5,-40.508 0.328,-4.668 -1.332,-6 -5,-4 2.668,-4.164 5.004,-8.5 5,-14 4.164,-2.668 7.668,-2.668 10.5,0 -4.332,3.5 -3.332,6.332 3,8.5 4.183,-4.336 2.508,-7.5 0,-10.5 7.168,-3 11,-2 11.5,3 1.035,9.731 -0.817,20.91 -2.5,32.004 z m -10.5,-1 c -1.168,8.168 -0.332,16.336 2.5,24.504 3.332,-3.668 4.668,-9.336 4,-17.004 -2.832,-1.164 -5,-3.668 -6.5,-7.5 z m -34.512,-15.504 c 5.332,-3.168 6.668,-0.332 4,8.5 -5.535,8.653 1.809,21.996 11,36.008 -2,-6.5 -3.168,-13.004 -2.5,-19.504 -4.5,-5.832 -3.668,-15.004 2.5,-27.504 -6.168,-2.832 -7,-5.668 -2.5,-8.5 2,-1.5 3.332,-3.668 4,-6.5 -6.832,1 -14.836,-0.332 -19.004,-2 0.145,6.973 0.153,9.317 2.5,19.504 z m -15.5,31.508 c 0,-10 0,-20.004 0,-30.004 -0.914,-4.918 -0.914,-10.75 -0.496,-17.004 1,-7.336 3.332,-7.336 7,0 0.332,4.164 0.664,8.332 1,12.5 -5.832,-4.332 -7,4 -3.5,25.004 -0.496,4.84 -2.164,7.336 -4,9.5 z m -19.504,16.504 c 4.172,-10.168 7.68,-20.5 6.5,-32.008 -2.019,-31.23 2.989,-41.379 9,-48.508 7,-7.168 14.004,-14.336 21.004,-21.504 4.168,0.164 8.332,0.332 12.5,0.5 4.332,0.832 4.668,3.668 1,8.5 -3.332,4 -6.668,4.664 -10,2 -3.332,-4.832 -6.668,-4.332 -10,1.5 -2.668,3 -4,6 -4,9 -15.668,8.5 -20.004,14.336 -13,17.504 -2.172,9.504 -3.68,18.676 -0.5,25.504 3.336,21.504 -2.5,32.008 -12.5,37.508 z m -0.5,-25.008 c -3.832,-5.25 -4.5,-18.418 -3,-37.008 1,-0.164 3,-3.332 4,-3.5 -0.707,9.5 -1.625,25.668 -1,40.508 z m 45.508,-89.019 c 2.332,3.832 1.332,5.664 -3,5.5 -1.664,-3.168 -0.664,-5 3,-5.5 z m 78.02,21.503 c 1.664,2.332 4,3.332 7,3 -1,4 -3.332,6 -7,6 -0.711,-3.355 -2.133,-7.066 0,-9 z m -7.004,11.504 c 4.832,2 6.332,6.668 4.5,14 -1.5,-4.668 -3,-9.332 -4.5,-14 z m 0,-18.504 c -6.168,4.668 -7,8 -2.5,10 0.832,-3.332 1.664,-6.668 2.5,-10 z m 14.004,-18.003 c -1.332,4.332 -1.332,8.668 0,13.003 3,0.165 4.664,-1 5,-3.5 0.332,-6.5 -1.332,-9.668 -5,-9.5 z m -7,2.5 c -3.5,4 -3.668,7.332 -0.5,10 1.5,-3.336 1.664,-6.668 0.5,-10 z m -169.039,-7.5 c 6.64,11.05 13.882,22.175 11,40.007 2.5,-0.832 4.335,-2.332 5.5,-4.5 1.003,-7.672 0.835,-14.172 0.5,-20.504 -7.34,-4.164 -12.34,-9.5 -17.004,-15.003 z m 43.007,27.003 c -3,7.168 -6.832,14.336 -12.5,21.504 4.688,-0.785 9.735,-0.867 13,-4.5 3.168,-6.332 3,-12.004 -0.5,-17.004 z m -9,-54.011 c -5.418,10.5 -7.086,21.004 -0.496,31.504 0.164,-10.5 0.332,-21.004 0.496,-31.504 z m 3,-66.016 c 0,15.336 0,30.672 0,46.008 -12.5,14.5 -17,31.004 -13.5,49.512 17.129,22.254 12.875,36.589 -6,45.507 3.5,-7.168 6.168,-15.168 7,-25.003 1.164,-8.832 -0.332,-14.336 -4.5,-16.504 -5.336,-15.25 -5.668,-30.922 5,-47.508 2.5,-4.832 5,-9.668 7.5,-14.5 -0.164,-8 -2.332,-9.336 -6.5,-4 -11.754,16.336 -18.422,35.172 -15.504,59.512 -9.003,-4.934 -17.203,-25.192 2.5,-49.008 5.5,-4.332 11.5,-10.668 17.004,-19.004 4,-12.668 0.164,-16.336 -4.5,-9.5 -0.832,-11.168 3,-16.336 11.5,-15.504 z m 1,-35.008 c -5.586,4.828 -10.918,12 -16.504,19.504 3.477,-2.476 6.602,-4.597 11.5,-8.5 0.332,-3.668 2,-7.332 5,-11.004 z M 329.95,380.035 c -0.664,-18.504 -1.332,-37.008 -2,-55.512 2.332,1.332 4.668,2.668 7,4 -1.664,17.168 -3.332,34.34 -5,51.508 z m 37.507,-4.5 c -5.527,6 -0.515,12 6,18 -0.992,-6.5 -2.324,-12.836 -6,-18 z m -13.503,-72.016 c 11.218,6.285 20.64,30.703 13.5,55.512 -1.5,-17.172 -0.165,-39.34 -13.5,-55.512 z m -17.504,16 c -3.668,-2.164 -7.336,-4.332 -11,-6.5 -3.668,-10.586 -9.168,-20.254 -15.504,-29.504 7.832,6.004 15.832,11.676 25.004,15.004 3,5.164 7.332,9.668 13,13.5 6.293,6.738 13.007,11.695 12.5,47.008 -3.125,20.629 -0.707,32.547 5.5,38.508 5,2.5 6.668,7 5,13.5 -1.664,4.832 -3.332,9.668 -5,14.504 -4.668,2.5 -8.004,6.332 -10,11.5 -1.012,-3.329 -0.856,-6.993 7.5,-13 2.839,-6.5 2.171,-13.004 1,-19.504 -2.832,-5 -5,-10 -6.5,-15.004 -0.832,-0.832 -1.664,-1.664 -2.5,-2.5 -1.434,-13.836 -1.426,-27.672 -1.5,-41.508 -2.832,-5.168 -5,-4.336 -6.5,2.5 0.5,14.668 0,23.836 0.5,38.508 -0.332,3.5 1.664,9.832 4,8 1.496,4.5 3.16,9 6,13.504 0.504,6.004 0.507,11.672 -3,15.004 -6.418,3.25 -9.918,9.414 -7,22.003 -3.168,1.332 -6.336,1.332 -9.5,0 -0.832,-2.668 -1.664,-5.332 -2.5,-8 -1.5,-2.332 -0.332,-4.668 3.5,-7 2.664,-2.164 5.332,-4.332 8,-6.5 8.285,-14.972 -0.321,-25.613 -7,-36.507 -0.164,-16.836 0.664,-33.672 0.5,-50.512 4.668,2.066 9.332,5.199 14,3 -5,-9.836 -10,-19.668 -15.004,-29.504 -3.332,-0.332 -6.668,-0.664 -10,-1 2.168,3.5 4.332,7 6.5,10.5 z m 17.504,-40.508 c 5.167,6.332 8.332,13.336 9.5,21.004 -6.918,-5.5 -9.254,-12.832 -9.5,-21.004 z m -50.012,-30.508 c 3.828,20.172 11.332,31.176 20.504,38.008 -2,-4.5 -2,-8.332 0,-11.5 -2.332,-7.836 -14.668,-8.668 -13.004,-16.004 1.5,-4.5 3.664,-4.332 6.5,0.496 6,2.332 10.668,6 14,11 6.09,9.309 12.269,19.215 17.004,19.004 -3.325,-9.84 -7.321,-19.179 -16.004,-25.004 -9.668,-9.074 -19.336,-12.367 -29.004,-16.003"
       id="path6" />
  </g>
</svg>
