<?xml version="1.0" encoding="UTF-8" standalone="no"?>
<!-- Creator: CorelDRAW -->
<svg
   xmlns:dc="http://purl.org/dc/elements/1.1/"
   xmlns:cc="http://web.resource.org/cc/"
   xmlns:rdf="http://www.w3.org/1999/02/22-rdf-syntax-ns#"
   xmlns:svg="http://www.w3.org/2000/svg"
   xmlns="http://www.w3.org/2000/svg"
   xmlns:sodipodi="http://sodipodi.sourceforge.net/DTD/sodipodi-0.dtd"
   xmlns:inkscape="http://www.inkscape.org/namespaces/inkscape"
   xml:space="preserve"
   width="744"
   height="919.10352"
   style="shape-rendering:geometricPrecision; text-rendering:geometricPrecision; image-rendering:optimizeQuality; fill-rule:evenodd; clip-rule:evenodd"
   viewBox="0 0 210 297"
   id="svg2"
   sodipodi:version="0.32"
   inkscape:version="0.45.1"
   sodipodi:docname="POL Wielichowo COA.svg"
   inkscape:output_extension="org.inkscape.output.svg.inkscape"
   sodipodi:docbase="C:\Users\Mistrz\Desktop"
   version="1.0"><metadata
   id="metadata51"><rdf:RDF><cc:Work
       rdf:about=""><dc:format>image/svg+xml</dc:format><dc:type
         rdf:resource="http://purl.org/dc/dcmitype/StillImage" /></cc:Work></rdf:RDF></metadata><sodipodi:namedview
   inkscape:window-height="480"
   inkscape:window-width="640"
   inkscape:pageshadow="2"
   inkscape:pageopacity="0.0"
   guidetolerance="10.0"
   gridtolerance="10.0"
   objecttolerance="10.0"
   borderopacity="1.0"
   bordercolor="#666666"
   pagecolor="#ffffff"
   id="base" />
 <defs
   id="defs4">
  <style
   type="text/css"
   id="style6">
   
    .str0 {stroke:#0A0B0C;stroke-width:0.0762}
    .str1 {stroke:#1F1A17;stroke-width:0.0762}
    .fil6 {fill:none}
    .fil1 {fill:#00A439}
    .fil2 {fill:#0A0B0C}
    .fil5 {fill:#1F1A17}
    .fil3 {fill:#D82525}
    .fil7 {fill:#EADCAD}
    .fil4 {fill:#FFF500}
    .fil0 {fill:white}
   
  </style>
 </defs>
 <g
   id="Warstwa_x0020_1"
   transform="matrix(15.988348,0,0,15.988348,-1187.8266,-1431.9712)">
  <metadata
   id="CorelCorpID_0Corel-Layer" />
  <path
   class="fil0 str0"
   d="M 80.8604,108.079 C 82.0186,107.0029 83.2145,106.9195 84.6145,106.5851 C 86.5961,106.1122 88.3186,104.7749 88.3186,102.516 L 88.3186,89.6344 L 73.4025,89.6344 C 73.4025,93.9071 73.4026,98.1794 73.4026,102.4519 C 73.4026,104.7492 75.0707,106.0961 77.1067,106.5826 C 78.5066,106.917 79.7017,107.0029 80.8604,108.079 L 80.8604,108.079 z "
   id="path10"
   style="fill:#ffffff;stroke:#0a0b0c;stroke-width:0.12090564;stroke-miterlimit:4;stroke-dasharray:none" />
  <path
   class="fil1"
   d="M 83.3517,103.755 L 83.7352,103.4696 C 83.7255,103.5691 83.6946,103.7084 83.7377,103.791 C 83.9934,103.5188 84.523,103.1974 84.9387,103.0713 C 84.741,103.2584 84.6153,103.2559 84.6153,103.5243 C 84.7296,103.4764 84.8096,103.4718 85.031,103.5137 C 84.8685,103.592 84.6936,103.6767 84.6411,103.8557 C 84.9358,103.7025 85.3663,103.4768 85.5848,103.8316 C 85.4434,103.7016 84.9845,103.8739 84.9493,104.0395 C 84.9345,104.111 85.0001,104.1576 85.0315,104.2232 C 85.1077,104.1398 85.3794,104.05 85.5348,104.1102 L 85.7118,104.1787 C 85.6351,104.2291 85.487,104.2278 85.3735,104.2532 C 85.2596,104.2791 85.1678,104.3176 85.1771,104.4205 C 85.2376,104.5635 85.5801,104.4255 85.8718,104.3023 C 86.122,104.1965 86.3815,104.0839 86.6164,103.9467 C 86.42,104.2003 86.238,104.4789 85.9869,104.6956 C 85.7355,104.9124 85.5272,105.0212 85.1144,105.218 C 84.7021,105.4149 84.1238,105.5999 83.5392,105.6557 L 83.5083,105.3878 L 82.9961,105.6236 L 82.9228,105.3056 L 82.4415,105.8268 L 82.5304,105.3823 C 81.9741,105.5279 81.5406,105.7218 81.1897,106.0621 L 81.0961,105.5046 C 81.0161,105.4737 80.8913,105.4293 80.7427,105.5008 L 80.8591,105.0897 C 80.8688,105.0563 80.8481,105.0148 80.8108,105.0148 C 80.5297,105.0127 80.36,105.5402 80.3663,105.7578 L 80.0196,105.3306 C 79.824,105.5292 79.6136,105.6536 79.3376,105.7586 L 79.5226,105.2857 C 79.297,105.4136 79.1052,105.5469 78.8508,105.6215 L 78.9274,105.2176 L 78.9452,105.1858 C 78.7801,105.3564 78.7111,105.4602 78.5422,105.5719 C 78.5591,105.5169 78.6158,105.1977 78.6184,105.1414 C 78.2894,105.1562 78.2442,105.4483 78.2196,105.7286 L 77.2104,105.3306 C 76.5462,105.069 75.47,104.6626 75.2275,104.3942 C 74.9853,104.1258 74.6335,103.7533 74.5967,103.6297 C 74.5595,103.5056 74.5679,103.41 74.5747,103.349 C 74.6458,103.4696 74.7127,103.6068 74.8105,103.664 C 74.7986,103.5348 74.7855,103.4108 74.8291,103.2906 C 75.0336,103.5522 75.2766,103.7579 75.5065,103.7308 C 75.5869,103.7215 75.766,103.9671 75.7863,104.0268 L 75.7871,103.6352 L 75.7964,103.3748 L 76.0538,104.0636 C 76.3485,104.0526 76.6431,104.042 76.9377,104.0314 C 76.9102,103.5734 76.9411,103.1538 77.0004,102.7148 C 77.0614,102.9663 77.1083,103.2059 77.2078,103.4447 C 77.2235,103.4824 77.2938,103.5357 77.3044,103.4442 C 77.3255,103.2478 77.3425,103.0802 77.4119,102.8981 L 77.4572,103.7647 L 77.5397,103.6453 L 77.6684,103.2508 C 77.6815,103.4379 77.7086,103.6246 77.7218,103.8117 C 77.7599,103.8498 77.781,104.0471 77.8191,104.0856 C 77.861,103.8638 77.9114,103.738 78.0515,103.5628 L 78.9037,103.639 L 79.0273,103.5251 L 79.1238,103.4493 C 79.1522,103.6369 79.3165,103.8181 79.4096,103.9522 C 79.4477,103.8828 79.4181,103.8168 79.4553,103.6051 C 79.4896,103.4083 79.6259,103.0882 79.813,102.9739 C 79.8202,103.2533 79.8346,103.5602 79.9235,103.8261 C 79.9815,103.4764 79.9637,103.0755 80.4197,103.037 C 80.3714,103.1085 80.2715,103.2499 80.28,103.3355 C 80.2821,103.3558 80.2842,103.3998 80.2863,103.4197 C 80.5331,103.3727 80.7723,102.9828 81.1076,102.9172 L 80.7693,103.3545 C 81.0551,103.1877 81.3658,103.062 81.6283,103.0031 C 81.3569,103.1894 81.1491,103.2948 81.0987,103.5077 C 81.2134,103.4265 81.3641,103.3397 81.5432,103.2995 C 81.4403,103.3947 81.3827,103.5154 81.3557,103.6309 C 81.4915,103.5209 81.6122,103.4409 81.7629,103.4061 C 81.6583,103.5111 81.6194,103.6165 81.5864,103.722 C 81.7108,103.595 81.8645,103.526 82.011,103.4828 C 81.9466,103.6331 81.8662,103.7668 81.8806,103.9256 C 81.9653,103.7956 82.0448,103.6957 82.1748,103.6364 L 82.2125,103.9362 L 82.2231,103.9573 L 82.5473,103.4824 L 82.5439,103.7884 C 82.9283,103.5586 83.3246,103.2897 83.8199,103.1399 C 83.4897,103.3494 83.3805,103.537 83.3517,103.755 L 83.3517,103.755 z "
   id="path12"
   style="fill:#00a439" />
  <path
   class="fil2"
   d="M 75.8781,103.548 C 75.8781,103.7355 75.8591,103.9277 75.9785,104.0729 C 76.1207,104.2456 76.1846,104.2228 76.3535,104.357 C 76.4035,104.3963 76.5153,104.4141 76.5055,104.3511 C 76.4929,104.273 76.4839,104.2264 76.4778,104.1995 C 76.4614,104.1271 76.5088,104.1621 76.5572,104.1957 C 76.6005,104.2254 76.7254,104.3184 76.7693,104.2715 C 76.8285,104.208 76.7248,104.1394 76.7049,104.0776 C 76.6414,103.8822 76.6319,103.6861 76.5936,103.4955 C 76.6033,103.4884 76.6098,103.4803 76.6105,103.4709 C 76.6173,103.3732 76.6355,103.2601 76.6126,103.1649 C 76.5982,103.1035 76.4958,103.0459 76.4636,102.9917 C 76.406,102.8952 76.3468,102.805 76.2905,102.7098 C 76.1478,102.4676 76.1161,102.2594 76.1067,101.9804 C 76.1004,101.7878 76.0885,101.615 76.0953,101.4224 C 76.1025,101.218 76.1,101.0126 76.1393,100.8124 C 76.1698,100.6651 76.1808,100.5157 76.2545,100.3844 C 76.3332,100.2439 76.4585,100.127 76.5694,100.0098 C 76.6825,99.8908 76.8048,99.8197 76.9331,99.7172 C 76.9958,99.6672 77.1007,99.5682 77.1719,99.5228 C 77.1705,99.548 77.1701,99.5732 77.1697,99.597 C 77.1676,99.7359 77.2049,99.9183 77.1638,100.022 C 77.1041,100.1736 77.0533,100.3065 76.9517,100.4272 C 76.9085,100.478 76.7862,100.53 76.6617,100.6283 C 76.5936,100.6816 76.6511,100.8213 76.6533,100.9077 C 76.6567,101.0156 76.6241,101.1087 76.6774,101.2023 C 76.779,101.3801 76.9543,101.4897 77.0931,101.6396 C 77.1735,101.7264 77.2688,101.8119 77.3344,101.9101 C 77.4491,102.0807 77.5258,102.2746 77.602,102.4655 C 77.6748,102.6501 77.7184,102.8444 77.7798,103.0332 C 77.7857,103.0502 77.7857,103.0755 77.8022,103.0823 C 77.8403,103.0984 77.8873,103.1086 77.9271,103.0954 C 77.9999,103.0722 78.0515,103.0006 78.1252,102.9782 C 78.1426,102.9731 78.1337,103.0137 78.1362,103.0315 C 78.1421,103.0919 78.098,103.1825 78.1497,103.212 C 78.1507,103.2322 78.1522,103.2503 78.1527,103.2567 C 78.1536,103.2741 78.1536,103.2889 78.1523,103.3084 C 78.1434,103.4117 78.2454,103.4621 78.2484,103.5366 C 78.2492,103.5543 78.2501,103.5946 78.2378,103.639 C 78.2124,103.7292 78.2065,103.7529 78.2619,103.8333 C 78.4004,104.0344 78.4592,104.0454 78.6366,104.1174 C 78.6958,104.1415 78.7991,104.1745 78.7886,104.1119 C 78.739,103.799 78.7445,103.9916 78.7708,103.9243 C 78.7839,103.89 78.8296,103.9201 78.8597,103.9408 C 78.8919,103.9633 78.8982,103.9544 78.9287,103.9785 C 78.9625,104.0052 78.9824,104.0052 79.0117,103.9739 C 79.0713,103.9099 79.0083,103.9002 78.9884,103.8384 C 78.9221,103.6348 78.901,103.3806 78.8581,103.1803 C 78.9077,103.092 78.8809,103.0015 78.811,102.9181 C 78.6053,102.6708 78.2954,102.4537 78.1125,102.1192 C 77.9902,101.894 77.8674,101.662 77.8085,101.4123 C 77.7586,101.1998 77.7163,100.9623 77.792,100.7578 C 77.875,100.5368 78.1129,100.3874 78.2437,100.1876 C 78.3513,100.1389 78.4279,100.0314 78.5223,99.9581 C 78.6167,99.8853 78.7149,99.8172 78.8051,99.7393 C 78.877,99.6766 78.9312,99.611 79.0244,99.6008 C 79.1154,99.5907 79.2491,99.514 79.3457,99.539 C 79.4447,99.564 79.4981,99.5792 79.5967,99.6089 C 79.7076,99.6419 79.805,99.7448 79.893,99.6686 C 79.9548,99.6152 79.7381,99.5234 79.8164,99.5013 C 79.9625,99.459 80.1119,99.5742 80.2563,99.6224 C 80.4916,99.7007 80.7139,99.8188 80.9539,99.8802 C 81.1114,99.9209 81.2773,99.9179 81.4395,99.9255 C 81.591,99.9327 81.743,99.9315 81.8946,99.9255 C 82.0114,99.9213 82.1037,99.9433 82.179,100.0326 C 82.2629,100.1317 82.3052,100.2358 82.3259,100.3357 C 82.3331,100.3692 82.3391,100.398 82.3412,100.4111 C 82.3475,100.4428 82.3674,100.5076 82.3564,100.5398 C 82.3386,100.5935 82.2832,100.6156 82.2887,100.6689 C 82.3153,100.9085 82.4123,101.1439 82.4487,101.3822 C 82.483,101.604 82.5143,101.8263 82.5397,102.0494 C 82.5444,102.0896 82.5312,102.1976 82.5304,102.2382 C 82.5215,102.5265 82.4694,102.786 82.4614,103.0739 C 82.4593,103.1547 82.4182,103.2169 82.4711,103.2779 C 82.5067,103.3194 82.5774,103.2423 82.6189,103.2064 C 82.6379,103.1903 82.6324,103.1589 82.6574,103.1619 C 82.6866,103.1661 82.712,103.1213 82.7361,103.1429 C 82.7425,103.1487 82.7471,103.1557 82.7506,103.1637 C 82.7456,103.1627 82.7405,103.1622 82.7353,103.1615 C 82.7158,103.1589 82.6896,103.3236 82.687,103.3406 C 82.6836,103.3579 82.6671,103.4057 82.6625,103.4248 C 82.6197,103.5962 82.5685,103.758 82.5778,103.8359 C 82.5825,103.8731 82.5871,103.8896 82.6074,103.9315 C 82.7044,104.1335 82.7717,104.1267 82.9034,104.2969 C 82.9423,104.3477 83.0473,104.3917 83.0524,104.3278 C 83.0786,104.0124 83.0304,104.1618 83.0718,104.1026 C 83.093,104.0725 83.1159,104.1618 83.1404,104.1889 C 83.1662,104.2185 83.1849,104.2296 83.209,104.2609 C 83.2357,104.2947 83.2916,104.3375 83.328,104.3138 C 83.4004,104.2664 83.3766,104.1817 83.372,104.117 C 83.356,103.8992 83.3395,103.6882 83.344,103.4818 C 83.3668,103.4749 83.3846,103.4635 83.3923,103.4417 C 83.4317,103.327 83.3898,103.1962 83.358,103.0794 C 83.3305,102.9786 83.2543,102.8977 83.2158,102.8004 C 83.1705,102.6844 83.1256,102.5663 83.1083,102.4431 C 83.0829,102.2636 83.0693,102.0811 83.0604,101.9 C 83.0528,101.7425 83.0448,101.5854 83.06,101.4284 C 83.0778,101.2438 83.1464,101.0673 83.1853,100.8861 C 83.2344,100.657 83.3119,100.4411 83.3597,100.2121 C 83.3821,100.1059 83.3635,99.995 83.4537,99.9302 C 83.7229,99.738 84.0586,99.8921 84.3893,99.9005 C 84.4028,99.901 84.4155,99.9069 84.4291,99.9069 C 84.5091,99.9086 84.5891,99.9061 84.6691,99.9061 C 84.7656,99.9061 84.8625,99.9166 84.9586,99.9061 C 84.9976,99.9018 85.0336,99.8832 85.0674,99.8629 C 85.1237,99.8294 85.172,99.7833 85.2266,99.7469 C 85.2664,99.7206 85.3045,99.6889 85.3498,99.6745 C 85.3985,99.6592 85.4514,99.6546 85.5018,99.6601 C 85.5479,99.6652 85.5399,99.6622 85.5826,99.6804 C 85.5932,99.6851 85.6093,99.7346 85.6195,99.7452 C 85.6457,99.7719 85.6775,99.7346 85.7189,99.7342 C 85.7723,99.7333 85.8371,99.7685 85.8637,99.8091 C 85.9006,99.8654 85.8946,99.9979 85.9001,100.0657 C 85.9094,100.1838 85.923,100.3019 85.9217,100.4204 C 85.9205,100.5368 85.9158,100.6541 85.8929,100.768 C 85.8769,100.8467 85.8324,100.9165 85.8057,100.9927 C 85.7935,101.0279 85.7816,101.0639 85.7769,101.1011 C 85.7647,101.2019 85.6999,101.3196 85.7554,101.4051 C 85.7943,101.466 85.9027,101.4237 85.9725,101.4051 C 85.9903,101.4004 86.0056,101.39 86.0194,101.3777 C 86.0243,101.4107 86.0266,101.4414 86.0191,101.4559 C 85.9408,101.604 85.5509,101.8945 85.5632,101.941 C 85.6203,102.1569 85.5754,102.2094 85.6643,102.4054 C 85.6906,102.4634 85.8057,102.5726 85.8286,102.5125 C 85.9429,102.2153 85.9141,102.2208 85.9873,102.3572 C 86.0055,102.3914 86.0055,102.4469 86.0314,102.4761 C 86.2265,102.6945 86.1592,102.5938 86.2109,102.3978 C 86.2531,102.237 86.3865,101.9541 86.4911,101.7491 C 86.5015,101.7506 86.512,101.7504 86.5229,101.7463 C 86.5694,101.7289 86.6037,101.7103 86.6321,101.6688 C 86.6579,101.6299 86.6799,101.5964 86.6744,101.5499 C 86.6651,101.4652 86.6245,101.3865 86.6024,101.3039 C 86.5965,101.2819 86.5728,101.1769 86.5588,101.1367 C 86.5406,101.0838 86.4848,100.5643 86.4776,100.5089 C 86.4551,100.3446 86.4763,100.6084 86.4742,100.442 C 86.4716,100.108 86.4975,99.6694 86.4958,99.4912 C 86.4936,99.2901 86.4149,99.2537 86.2722,99.1191 C 86.1622,99.0154 86.0563,98.8858 85.9061,98.8553 C 85.5568,98.7842 85.1881,98.7999 84.8325,98.777 C 84.8067,98.7753 84.7643,98.7571 84.7482,98.7368 C 84.7461,98.7343 84.7326,98.5895 84.733,98.5721 C 84.7339,98.5615 84.7161,98.5366 84.7216,98.5273 C 84.7559,98.4693 84.7796,98.4151 84.8211,98.3617 C 84.8685,98.3016 84.9193,98.2436 84.9718,98.1873 C 85.0814,98.0675 85.1911,97.9473 85.3062,97.833 C 85.39,97.7496 85.4929,97.6857 85.5687,97.5951 C 85.5801,97.5815 85.5851,97.5629 85.5861,97.544 C 85.5878,97.5456 85.5895,97.5474 85.5915,97.5489 C 85.6085,97.5616 85.7422,97.5066 85.7469,97.5633 C 85.7579,97.6823 85.7753,97.8355 85.8074,97.8533 C 85.8112,97.8546 85.9082,97.9812 85.9683,98.0265 C 86.1804,98.186 86.5021,98.3389 86.7235,98.1251 C 86.7557,98.0938 86.7841,98.0646 86.8069,98.0294 C 86.906,97.9884 87.0317,97.8004 87.0503,97.7339 C 87.0707,97.6598 87.1092,97.6615 87.0948,97.5866 C 87.0821,97.5214 87.0647,97.4575 87.0427,97.3953 C 87.0279,97.3517 87.0063,97.3102 86.9839,97.27 C 86.9521,97.212 86.9293,97.1502 86.8958,97.0934 C 86.8628,97.0371 86.8683,96.9863 86.8518,96.9241 C 86.8357,96.8648 86.8454,96.8216 86.859,96.7615 C 86.8721,96.7035 86.9381,96.6129 86.9767,96.5634 C 87.0397,96.4813 87.0812,96.403 87.1164,96.3056 C 87.1456,96.2247 87.146,96.0203 87.146,96.1062 C 87.146,96.1629 87.1511,96.0537 87.1583,96.0554 C 87.19,96.0635 87.2032,96.0571 87.2091,96.0249 C 87.254,95.7739 87.1816,95.8069 87.2175,95.8023 C 87.3562,95.8326 87.2734,95.5537 87.1961,95.397 C 87.3014,95.3964 87.4055,95.4025 87.5092,95.3992 C 87.5562,95.3984 87.6104,95.4166 87.6498,95.3916 C 87.7353,95.3374 87.7747,95.2718 87.8225,95.1876 C 87.8691,95.105 87.9567,94.9945 87.9702,94.8675 C 87.8779,94.8819 87.8022,94.846 87.7179,94.8485 C 87.618,94.8506 87.4669,94.8375 87.3369,94.8591 C 87.2936,94.8665 87.2494,94.8801 87.2064,94.8942 C 87.2562,94.8612 87.3047,94.8193 87.3623,94.7659 C 87.6108,94.5407 87.7086,94.3282 87.6756,93.9934 C 87.6684,93.8697 87.6307,93.8376 87.6261,93.8422 C 87.4186,94.0234 87.3052,94.1593 87.0554,94.2829 C 86.9327,94.3482 86.6853,94.3406 86.5683,94.4175 C 86.4702,94.3577 86.3564,94.314 86.2485,94.2791 C 86.1715,94.2546 86.0911,94.2266 86.0106,94.2169 C 85.9238,94.2059 85.8646,94.1936 85.7774,94.2025 C 85.6969,94.2101 85.5898,94.2706 85.5149,94.2998 C 85.4307,94.3324 85.3523,94.3782 85.2736,94.4205 C 85.2651,94.4252 85.2355,94.4395 85.238,94.4489 C 85.2392,94.453 85.2402,94.457 85.2413,94.4611 C 85.09,94.3929 84.9206,94.3291 84.7927,94.2097 C 84.6682,94.0941 84.5933,93.915 84.4684,93.7961 C 84.4362,93.7648 84.3715,93.6924 84.3266,93.6966 C 84.1152,93.9776 84.3425,94.5269 84.5767,94.8029 C 84.5486,94.7845 84.5098,94.7625 84.4587,94.7359 C 84.1662,94.5822 83.8626,94.8265 83.6387,94.9552 C 83.6669,95.0794 83.7373,95.172 83.8204,95.2593 C 83.6937,95.2452 83.4802,95.2422 83.2052,95.2629 C 83.1269,95.2689 82.9817,95.4094 82.817,95.3307 C 82.77,95.3078 82.6879,95.2536 82.6362,95.2625 C 82.306,95.3209 81.5114,95.4378 81.1067,95.4492 C 80.4713,95.467 79.8393,95.4738 79.2123,95.3671 C 78.5858,95.2595 77.6989,94.876 77.4309,94.8908 C 77.1223,94.9217 76.4941,95.2286 76.0352,95.351 C 75.7084,95.4382 75.3646,95.4289 75.0954,95.5754 C 74.9697,95.6952 74.6653,96.0254 74.537,96.3517 C 74.413,96.6692 74.3618,96.9715 74.327,97.3106 C 74.2826,97.7437 74.3745,98.3706 74.2847,98.7923 C 74.2441,98.9819 73.9482,99.3265 73.8389,99.5936 C 73.767,99.7702 73.7602,99.942 73.8038,100.0441 C 73.9228,100.326 74.0316,100.5669 74.1577,100.7663 C 74.1958,100.826 74.1433,100.8552 74.1619,100.8941 C 74.2056,100.9847 73.9922,101.0605 74.0654,101.0977 C 74.3355,101.2357 74.4219,100.6321 74.4418,100.4462 C 74.471,100.1795 74.5302,100.1541 74.6835,99.9158 C 74.761,99.796 74.7576,99.5894 74.7605,99.4476 C 74.7677,99.0806 74.7728,98.7055 74.7779,98.3372 C 74.7813,98.1035 74.7703,97.8326 74.7898,97.6048 C 74.805,97.4296 74.8177,97.2539 74.8346,97.0786 C 74.8482,96.9313 74.8507,96.7814 74.882,96.6367 C 74.8905,96.5956 74.9295,96.5643 74.9676,96.5473 C 75.0048,96.5308 75.0366,96.5338 75.0725,96.552 C 75.1017,96.5668 75.128,96.5943 75.1369,96.6256 C 75.2423,97.0011 75.28,97.3809 75.3964,97.7627 C 75.4781,98.0303 75.5767,98.3583 75.611,98.6361 C 75.6313,98.8003 75.6567,98.9633 75.6407,99.1242 C 75.6241,99.2842 75.5674,99.3223 75.5653,99.3917 C 75.5183,99.5136 75.476,99.6381 75.4248,99.7583 C 75.3359,99.9666 75.2834,99.9196 75.1077,99.9772 C 74.9883,100.0161 74.9388,99.9852 74.9066,100.0995 C 74.8977,100.1317 74.9011,100.3874 74.9019,100.3971 C 74.9096,100.467 74.8096,100.6968 74.8372,100.7603 C 74.8647,100.8234 74.9616,100.8954 75.0001,100.9521 C 75.0687,101.052 75.1538,101.0833 75.216,101.1875 C 75.3045,101.3352 75.3875,101.5168 75.4396,101.6819 C 75.4739,101.7895 75.5513,101.9694 75.5594,102.0824 C 75.5708,102.2462 75.5573,102.3605 75.5598,102.5244 C 75.5615,102.6497 75.4586,102.794 75.4798,102.9176 C 75.4963,103.0159 75.498,103.0163 75.5725,103.0819 C 75.6136,103.1183 75.6567,103.0264 75.6847,103.0688 C 75.6974,103.087 75.7613,103.0087 75.7888,103.0167 C 75.8151,103.0247 75.8836,103.07 75.9044,103.0882 C 75.9374,103.1179 75.926,103.1399 75.9158,103.2682 C 75.9117,103.3157 75.876,103.4176 75.891,103.4648 C 75.8879,103.4704 75.8873,103.478 75.8879,103.4866 C 75.8887,103.5035 75.8781,103.5285 75.8781,103.548 L 75.8781,103.548 z "
   id="path14"
   style="fill:#000000" />
  <path
   class="fil3"
   d="M 78.1409,100.119 C 78.1984,100.0322 78.3208,99.9408 78.3868,99.8946 C 78.4838,99.8265 78.5557,99.6863 78.6446,99.608 C 78.6925,99.5661 78.7297,99.55 78.7212,99.487 C 78.7145,99.4307 78.6857,99.44 78.6497,99.4366 C 78.56,99.4285 78.4863,99.3583 78.4097,99.3108 C 78.3563,99.2778 78.2784,99.266 78.2183,99.2495 C 78.1188,99.2224 78.0545,99.191 77.9516,99.1847 C 77.8712,99.18 77.7899,99.1445 77.7112,99.1618 C 77.6439,99.1767 77.5808,99.2215 77.5393,99.2766 C 77.4822,99.3528 77.4394,99.4019 77.3954,99.4865 C 77.3759,99.5246 77.3602,99.6013 77.3501,99.6427 C 77.3128,99.7922 77.3365,99.9547 77.2878,100.1008 C 77.2857,100.1059 77.2819,100.1088 77.2773,100.1105 C 77.2603,100.1914 77.2087,100.2676 77.1735,100.3442 C 77.0935,100.5195 76.8836,100.5474 76.8213,100.685 C 76.779,100.7768 76.7841,100.9576 76.7989,101.1062 C 76.8243,101.3666 77.279,101.5448 77.4512,101.8585 C 77.5393,102.0189 77.6443,102.1552 77.7086,102.3267 C 77.7836,102.5265 77.792,102.7487 77.8784,102.9439 C 77.8919,102.974 77.9465,102.9439 77.9758,102.9287 C 78.0346,102.8969 78.0693,102.8398 78.1362,102.8287 C 78.201,102.8177 78.2818,102.8199 78.3233,102.8715 C 78.3728,102.9333 78.3089,103.0607 78.3758,103.1039 C 78.4808,103.1721 78.6311,103.1886 78.7488,103.1458 C 78.8021,103.1263 78.7577,103.0205 78.7208,102.9773 C 78.6099,102.847 78.4435,102.7369 78.3369,102.6031 C 78.1489,102.3665 78.0134,102.1341 77.8695,101.8682 C 77.7776,101.6976 77.6909,101.5253 77.6659,101.3331 C 77.6354,101.1041 77.632,100.8725 77.7095,100.6545 C 77.7916,100.4234 78.0139,100.3108 78.1409,100.119 L 78.1409,100.119 z M 86.8476,96.3048 C 86.8543,96.2806 86.8607,96.3056 86.8844,96.2971 C 86.9157,96.2857 87.0143,96.2688 87.0232,96.2997 C 87.0368,96.3458 86.9669,96.3839 86.9322,96.4161 C 86.9089,96.4377 86.8848,96.5029 86.8365,96.469 C 86.8111,96.4517 86.8391,96.3344 86.8476,96.3048 L 86.8476,96.3048 z M 86.5343,98.0489 C 86.4975,98.0561 86.4081,98.0438 86.3383,98.059 C 86.2955,98.0679 86.3112,98.1259 86.3777,98.1217 L 86.4128,98.1192 C 86.4615,98.1187 86.525,98.1264 86.5576,98.1179 C 86.5741,98.1137 86.5741,98.1115 86.5715,98.0891 C 86.5682,98.0552 86.5897,98.0383 86.5343,98.0489 L 86.5343,98.0489 z M 86.1313,94.3777 C 86.1507,94.3316 86.323,94.4167 86.3692,94.4345 C 86.4234,94.4556 86.4801,94.4785 86.5271,94.5128 C 86.6012,94.567 86.6617,94.6605 86.7256,94.7257 C 86.757,94.7575 86.7794,94.8891 86.7722,94.9332 C 86.7659,94.9708 86.6609,94.8324 86.6363,94.8612 C 86.6181,94.8824 86.6659,94.9895 86.6418,95.0039 C 86.6126,95.0216 86.5643,95.0305 86.5398,95.0072 C 86.5,94.9708 86.5127,94.9277 86.4831,94.8828 C 86.475,94.8697 86.4268,94.8798 86.4187,94.8929 C 86.395,94.9315 86.45,94.8849 86.4318,94.9878 C 86.4246,95.0284 86.3595,95.0335 86.2646,95.0178 C 86.188,95.0055 86.2333,94.8739 86.213,94.799 C 86.1859,94.6961 86.0885,94.4793 86.1313,94.3777 L 86.1313,94.3777 z M 85.6427,94.6732 C 85.6567,94.6004 85.6766,94.5852 85.7156,94.6224 C 85.7905,94.694 85.6199,94.8989 85.7236,94.8989 C 85.8214,94.8989 85.7676,94.7236 85.7994,94.6313 C 85.8117,94.5966 85.8392,94.614 85.862,94.6483 C 85.9179,94.735 85.7528,94.8946 85.8481,94.9344 C 85.9361,94.9713 85.8811,94.7249 85.9365,94.6478 C 85.9531,94.625 86.0144,94.6868 86.0132,94.7147 C 86.0072,94.8663 85.8917,95.0055 86.0403,94.9988 C 86.0932,94.9967 86.1592,95.0043 86.1423,94.9535 C 86.0826,94.7757 86.0483,94.6152 86.0229,94.4518 C 86.0153,94.4031 85.9628,94.346 85.9323,94.3401 C 85.774,94.3117 85.7664,94.3392 85.6948,94.3443 C 85.5729,94.3536 85.4709,94.4268 85.3773,94.4874 C 85.3473,94.5069 85.3794,94.6 85.4006,94.6292 C 85.5411,94.8197 85.5809,94.9975 85.6427,94.6732 L 85.6427,94.6732 z M 75.1503,96.3299 C 75.1758,96.3466 75.1889,96.4143 75.1985,96.4432 C 75.2863,96.7058 75.3701,96.9705 75.4408,97.2382 C 75.5234,97.551 75.6047,97.8601 75.6707,98.1772 C 75.7249,98.4388 75.7643,98.7203 75.7787,98.987 C 75.7977,99.3405 75.6097,99.8536 75.2897,100.0339 C 75.2177,100.075 75.131,100.0885 75.0505,100.1287 C 75.0289,100.1393 75.0349,100.18 75.0281,100.2028 C 75.0099,100.2608 74.9997,100.3213 74.9815,100.3798 C 74.9684,100.4208 74.9549,100.6676 74.9472,100.71 C 74.9413,100.7464 75.2499,101.0914 75.2897,101.1642 C 75.3786,101.3259 75.5886,101.6959 75.6191,101.8822 C 75.6504,102.0722 75.6707,102.289 75.6648,102.4825 C 75.6597,102.6446 75.5577,102.7885 75.5801,102.9494 C 75.5839,102.9765 75.6165,102.9689 75.6428,102.9773 C 75.7139,103.0002 75.7452,102.8986 75.7935,102.8673 C 75.8417,102.8355 75.9814,102.9532 75.9831,103.0514 C 75.984,103.1005 76.0373,103.1128 76.0509,103.1598 C 76.1008,103.3325 75.9476,103.4041 76.0106,103.4362 C 76.0165,103.4393 76.0232,103.4418 76.0305,103.4442 L 76.4972,103.4438 C 76.4996,103.4406 76.5007,103.437 76.5004,103.4324 C 76.4975,103.3863 76.5944,103.1852 76.4285,103.0692 C 76.2646,102.9553 76.227,102.7902 76.1296,102.6192 C 76.0826,102.5358 76.0356,102.4592 76.0263,102.3639 C 76.0056,102.159 75.9857,101.9821 75.9865,101.7763 C 75.9882,101.4969 75.9658,101.1917 75.9857,100.9127 C 76.0073,100.6084 76.1144,100.3776 76.2994,100.1389 C 76.5018,99.8784 76.685,99.7135 76.9422,99.5225 C 77.1502,99.3674 77.4255,99.2434 77.6083,99.0378 C 77.7442,98.8845 77.85,98.7059 77.955,98.5298 C 77.9923,98.4671 78.0172,98.3973 78.0316,98.3262 C 78.0583,98.1945 78.0638,98.059 78.0774,97.9253 C 78.0791,97.91 78.1049,97.8944 78.1091,97.8796 C 78.1472,97.7526 78.1696,97.6302 78.2031,97.5019 C 78.2429,97.3529 78.2458,97.1946 78.2975,97.049 C 78.3432,96.9199 78.4126,96.7979 78.4922,96.6862 C 78.5058,96.6667 78.5473,96.6565 78.5629,96.6747 C 78.5947,96.7116 78.6167,96.7679 78.6044,96.8149 C 78.5807,96.9046 78.4982,96.969 78.4634,97.0545 C 78.4296,97.1366 78.4215,97.2272 78.4008,97.3131 C 78.3606,97.4795 78.3174,97.6442 78.281,97.811 C 78.248,97.963 78.2171,98.1154 78.1925,98.2686 C 78.1684,98.4248 78.173,98.5853 78.1349,98.7385 C 78.1112,98.8333 77.925,98.9552 78.0096,99.0044 C 78.2704,99.1551 78.6065,99.0971 78.8965,99.1788 C 78.959,99.1958 79.0501,99.1963 79.1027,99.227 C 79.225,99.3015 79.374,99.3934 79.454,99.3997 C 79.501,99.4036 79.5226,99.4836 79.6246,99.4467 C 79.697,99.4205 79.5518,99.3265 79.5544,99.2495 C 79.5544,99.2376 79.5425,99.2122 79.5544,99.2139 C 79.6619,99.2304 79.7677,99.2533 79.8702,99.2901 C 80.034,99.3498 80.1856,99.4484 80.3507,99.503 C 80.4717,99.5433 80.5996,99.5589 80.7245,99.583 C 80.9065,99.6186 81.0881,99.6584 81.2718,99.6813 C 81.4475,99.7029 81.6245,99.7079 81.801,99.7168 C 81.9005,99.7215 82.058,99.8112 82.0994,99.7211 C 82.1511,99.6089 82.0402,99.47 81.9572,99.3786 C 81.8721,99.2846 81.7375,99.2516 81.6236,99.1961 C 81.5161,99.1445 81.4018,99.1089 81.2943,99.0581 C 81.2718,99.048 81.2473,99.0353 81.2363,99.0137 C 81.2176,98.9773 81.2033,98.9341 81.2096,98.8934 C 81.2134,98.8697 81.2388,98.8469 81.2625,98.8443 C 81.3531,98.8359 81.4335,98.9028 81.5182,98.9349 C 81.5711,98.9552 81.6041,98.9523 81.6456,98.9917 C 81.6803,99.0242 81.7189,99.0539 81.7612,99.0759 C 81.7858,99.0886 81.8454,99.1212 81.8412,99.0937 C 81.8247,98.9764 81.7604,98.8706 81.7168,98.7601 C 81.685,98.6792 81.6346,98.6043 81.6143,98.5201 C 81.5864,98.4007 81.5855,98.2771 81.5745,98.1547 C 81.5652,98.0557 81.5559,97.9562 81.5521,97.8567 C 81.5474,97.7369 81.5411,97.6162 81.5478,97.496 C 81.5512,97.4486 81.5415,97.3809 81.5826,97.358 C 81.6211,97.3364 81.6067,97.3834 81.6236,97.424 C 81.6537,97.4986 81.6638,97.5849 81.6702,97.6653 C 81.6761,97.7344 81.6727,97.7902 81.6863,97.8584 C 81.7079,97.9668 81.7341,98.0667 81.7646,98.1738 C 81.7917,98.2686 81.8251,98.3689 81.8586,98.4621 C 81.9466,98.7042 82.0601,98.9362 82.1693,99.1695 C 82.2273,99.2931 82.2853,99.4171 82.359,99.5318 C 82.3899,99.5797 82.4191,99.6296 82.4313,99.6847 C 82.4411,99.727 82.4682,99.862 82.4402,99.8832 C 82.381,99.9293 82.4182,100.0297 82.4186,100.064 C 82.4191,100.1461 82.4322,100.2121 82.4576,100.3082 C 82.48,100.3912 82.5105,100.5157 82.5135,100.583 C 82.5164,100.6486 82.4453,100.6219 82.4453,100.6875 C 82.4453,100.7646 82.4843,100.8361 82.497,100.9119 C 82.527,101.0876 82.5478,101.265 82.5749,101.4415 C 82.5947,101.5693 82.6214,101.6963 82.6388,101.8246 C 82.643,101.8538 82.6396,101.8834 82.6388,101.9127 C 82.6345,102.0938 82.6303,102.275 82.6227,102.4558 C 82.6172,102.5942 82.599,102.7327 82.599,102.8711 C 82.599,102.9198 82.5804,102.9913 82.6227,103.015 C 82.6904,103.0531 82.7819,102.9896 82.8547,103.015 C 82.8995,103.0307 82.922,103.084 82.9423,103.1272 C 82.9529,103.1488 82.9305,103.178 82.9423,103.1987 C 82.9647,103.2381 83.0287,103.1996 83.0524,103.2381 C 83.0697,103.266 83.0735,103.3655 83.1049,103.3765 C 83.1661,103.3983 83.2204,103.4289 83.2664,103.3996 L 83.2676,103.3988 C 83.274,103.3946 83.2801,103.3896 83.2861,103.3829 C 83.3394,103.3236 83.3081,103.2199 83.2861,103.1429 C 83.2615,103.0569 83.184,102.9943 83.1502,102.9113 C 83.0956,102.7771 83.0591,102.6361 83.0223,102.4956 C 82.9982,102.4041 82.9762,102.311 82.9664,102.2158 C 82.952,102.0731 82.9575,101.9287 82.9508,101.7848 C 82.9499,101.7713 82.9419,101.7586 82.9423,101.745 C 82.9495,101.6142 82.9529,101.4821 82.9745,101.3534 C 83.0088,101.1485 83.0672,100.9491 83.1104,100.7459 C 83.1417,100.5978 83.1684,100.4479 83.198,100.2989 C 83.2302,100.1376 83.2645,99.9763 83.2954,99.8146 C 83.3196,99.7008 83.3376,99.5859 83.3673,99.4721 C 83.4165,99.2842 83.4661,99.0835 83.4757,98.8896 C 83.4799,98.8012 83.4842,98.7131 83.4935,98.625 C 83.4948,98.6115 83.516,98.4902 83.5235,98.487 C 83.557,98.4735 83.604,98.4697 83.6319,98.493 C 83.6548,98.5124 83.6361,98.5531 83.6378,98.5831 C 83.6451,98.7362 83.6327,98.8806 83.6294,99.034 C 83.6275,99.1172 83.604,99.2902 83.5655,99.3642 C 83.5443,99.4052 83.521,99.4463 83.5053,99.4899 C 83.4988,99.5092 83.4692,99.6288 83.4994,99.6402 C 83.5371,99.6542 83.5866,99.6567 83.6196,99.6343 C 83.6755,99.5979 83.706,99.5318 83.7458,99.4781 C 83.8905,99.2856 84.0376,99.0902 84.1784,98.8956 C 84.2377,98.8134 84.3287,98.6272 84.4227,98.5899 C 84.5099,98.5552 84.5057,98.5954 84.4934,98.6276 C 84.4828,98.6547 84.3842,98.7817 84.4007,98.8054 C 84.4134,98.824 84.4413,98.8469 84.4608,98.8354 C 84.5129,98.8041 84.5205,98.7347 84.54,98.6771 C 84.5632,98.6107 84.6073,98.5213 84.6344,98.4566 C 84.6729,98.363 84.7059,98.3279 84.7673,98.247 C 84.8143,98.1839 84.8524,98.1132 84.9053,98.0544 C 85.0035,97.9456 85.1153,97.8491 85.2194,97.7454 C 85.2749,97.6899 85.3265,97.6298 85.3841,97.5756 C 85.4175,97.5443 85.4522,97.513 85.4912,97.488 C 85.5081,97.4774 85.5293,97.4655 85.5492,97.4689 C 85.5506,97.4691 85.5519,97.4697 85.5533,97.4701 C 85.553,97.442 85.5665,97.3343 85.5369,97.3068 C 85.476,97.2488 85.3845,97.2357 85.31,97.1971 C 85.244,97.1629 85.1949,97.1074 85.122,97.1112 C 85.0188,97.1171 84.8799,97.2471 84.9167,97.1269 C 84.926,97.0968 84.9447,97.0909 84.9485,97.0528 C 84.9523,97.0202 84.9828,96.8987 84.9832,96.8868 C 84.9887,96.7459 84.9641,96.709 84.9578,96.6227 C 84.9426,96.4309 84.8846,96.2349 84.8934,96.0457 C 84.8943,96.0224 84.8697,96.005 84.8858,95.9877 C 84.8994,95.9733 84.9282,95.9758 84.9502,95.9818 C 84.9718,95.9877 85.0001,95.9995 85.0073,96.0228 C 85.031,96.0948 85.0192,96.226 85.0429,96.3437 C 85.0454,96.3551 85.0437,96.3327 85.048,96.3606 C 85.0763,96.5566 85.0933,96.6747 85.1403,96.8246 C 85.1597,96.8868 85.1644,96.9262 85.1949,96.9601 C 85.2486,97.0193 85.354,97.0409 85.4116,97.0638 C 85.4662,97.0854 85.5208,97.107 85.5763,97.1264 C 85.6165,97.1404 85.8332,97.3995 85.8519,97.4626 C 85.8595,97.4905 85.876,97.4859 85.8883,97.4774 C 85.9103,97.4626 85.9344,97.4262 85.9344,97.3995 C 85.9344,97.3186 85.9344,97.289 85.9094,97.2391 C 85.8845,97.1891 85.774,97.173 85.7676,97.1502 C 85.7617,97.1269 85.7507,97.0926 85.7558,97.06 C 85.7592,97.0384 85.7626,97.0117 85.7803,96.9986 C 85.8062,96.98 85.8421,96.9685 85.8739,96.9745 C 85.9128,96.9817 85.9522,97.0037 85.9759,97.0359 C 86.0017,97.071 86.0068,97.1197 86.0204,97.1624 C 86.0356,97.2111 86.0521,97.2636 86.061,97.3174 C 86.0686,97.3589 86.0483,97.3953 86.0453,97.4384 C 86.0424,97.4787 85.9133,97.5841 85.9048,97.6226 C 85.8946,97.67 85.8997,97.7415 85.9188,97.786 C 85.9641,97.8914 86.1402,97.9604 86.2257,97.957 C 86.2794,97.9553 86.3269,97.8829 86.3904,97.8884 C 86.4344,97.8927 86.5042,97.8673 86.566,97.9058 C 86.5796,97.9143 86.6118,97.927 86.6444,97.9439 C 86.6452,97.9443 86.7261,98.004 86.779,97.9562 C 86.9597,97.7703 86.9983,97.731 86.9746,97.5367 C 86.9669,97.4761 86.9466,97.4194 86.9106,97.3876 C 86.8264,97.3136 86.823,97.228 86.7853,97.1226 C 86.7472,97.0168 86.7176,96.9101 86.7341,96.7988 L 86.7557,96.6438 C 86.7743,96.513 86.7019,96.3776 86.7265,96.2391 C 86.7603,96.0465 86.7375,96.0114 86.881,95.8543 C 86.9026,95.8302 86.9288,95.8158 86.9686,95.7896 C 87.0355,95.7468 87.1206,95.6926 87.1388,95.6626 C 87.1651,95.619 87.0016,95.3273 87.0207,95.2799 C 87.0512,95.2054 87.0753,95.0932 87.1659,95.3019 C 87.1672,95.305 87.1685,95.3113 87.1698,95.3183 C 87.2836,95.3356 87.4602,95.3142 87.552,95.326 C 87.6354,95.3366 87.7577,95.191 87.7857,95.1025 C 87.792,95.0826 87.8712,94.9674 87.8661,94.9475 C 87.8653,94.9433 87.7947,94.9261 87.7693,94.9211 L 87.7525,94.9204 C 87.6922,94.9247 87.6372,94.9151 87.5744,94.9175 C 87.444,94.9222 87.3623,94.9408 87.2726,94.9526 C 87.2091,94.9611 87.1549,95.0661 87.1032,95.1038 L 86.9978,95.0449 C 87.0325,95.0161 87.0576,94.9819 87.0878,94.9539 C 87.049,94.9677 87.0059,94.9783 86.9547,94.9869 C 86.9385,94.9897 86.9256,94.9886 86.916,94.9845 C 86.9097,94.9976 86.9024,95.011 86.8933,95.0254 C 86.9462,94.9941 86.8073,95.0508 86.7675,95.0872 C 86.7591,95.0953 86.7235,95.0961 86.7125,95.1008 C 86.6731,95.1173 86.6342,95.1275 86.5923,95.1313 C 86.5,95.1393 86.3607,95.0521 86.3222,95.1364 C 86.2485,95.3006 86.392,95.4272 86.3662,95.6058 C 86.3607,95.6452 86.3793,95.6414 86.3472,95.6655 C 86.2706,95.7222 86.2625,95.6211 86.246,95.5521 C 86.2176,95.4344 86.1838,95.3607 86.1618,95.2418 C 86.1533,95.1944 86.1249,95.1668 86.086,95.138 C 85.9602,95.0449 85.9319,95.0745 85.782,95.0483 C 85.6054,95.0171 85.4726,94.9302 85.378,94.8001 C 85.3377,94.9878 85.2291,95.1033 85.0365,95.0424 C 84.8994,94.9983 84.772,94.9873 84.664,94.8929 C 84.656,94.8859 84.6476,94.8788 84.6395,94.871 C 84.6342,94.8851 84.6026,94.888 84.5645,94.8866 C 84.5213,94.8849 84.3114,94.7761 84.2216,94.7892 C 84.0227,94.8172 83.7941,94.9425 83.7949,94.9742 C 83.7962,95.0851 84.0231,95.2701 84.137,95.3552 C 84.3059,95.4831 84.5637,95.3789 84.7749,95.3976 C 84.8164,95.4009 84.8778,95.4009 84.8884,95.4407 C 84.9002,95.4852 84.8469,95.5072 84.8024,95.519 C 84.5988,95.5728 84.4248,95.5686 84.217,95.5466 C 84.1539,95.5398 84.0671,95.5148 84.0252,95.4678 C 83.9827,95.4201 83.9374,95.3764 83.8932,95.333 C 83.7251,95.3786 83.5253,95.3737 83.3555,95.3624 C 83.2761,95.3571 83.0916,95.4528 82.9401,95.4895 C 82.9431,95.4901 83.1493,95.7218 83.1718,95.7396 C 83.2327,95.7879 83.2632,95.8725 83.2949,95.9437 C 83.3131,95.9834 83.3326,96.0194 83.3258,96.0626 C 83.322,96.0867 83.2869,96.116 83.2628,96.116 C 83.2027,96.116 83.0905,96.0326 83.0604,95.9788 C 83.0192,95.9054 82.9935,95.8494 82.9618,95.7709 C 82.8867,95.5852 82.849,95.6089 82.7361,95.4619 C 82.6739,95.3798 82.3577,95.4848 82.2201,95.4894 C 81.9716,95.5233 81.7235,95.5301 81.4733,95.5559 C 80.8866,95.6168 80.2829,95.5961 79.6941,95.5597 C 79.3711,95.5394 79.0591,95.4606 78.7416,95.3992 C 78.3813,95.2697 78.0088,95.1901 77.6485,95.0602 C 77.5461,95.0466 77.4398,95.0322 77.3408,95.0623 C 77.0885,95.1385 76.8781,95.2371 76.6317,95.329 C 76.4166,95.409 76.1889,95.4881 75.9637,95.5326 C 75.7262,95.5792 75.4362,95.555 75.2241,95.6723 C 75.0141,95.7874 74.8765,95.9661 74.7804,96.185 C 74.6005,96.5943 74.4964,97.0545 74.4367,97.4973 C 74.3825,97.8969 74.435,98.4663 74.4181,98.7283 C 74.4016,98.9904 74.3567,98.9349 74.3008,99.0437 C 74.2111,99.2186 74.0917,99.4497 73.9808,99.6254 C 73.9456,99.6796 73.9096,99.8172 73.9147,99.8891 C 73.9181,99.934 73.9261,99.9699 73.9366,100.0031 C 73.9426,99.9004 73.9791,99.8716 74.0366,99.7875 C 74.0671,99.7422 74.1078,99.7045 74.1357,99.658 C 74.1624,99.614 74.159,99.5483 74.2,99.5179 C 74.2238,99.5001 74.2644,99.5255 74.2839,99.5479 C 74.3038,99.5716 74.3131,99.6097 74.3025,99.6389 C 74.2678,99.7401 74.2089,99.832 74.1543,99.9238 C 74.1065,100.0049 74.0898,100.1485 73.9973,100.1589 C 74.008,100.1869 74.0192,100.2164 74.0332,100.2434 C 74.042,100.1545 74.1479,100.0725 74.1924,99.9979 C 74.2369,99.9234 74.2813,99.8476 74.3101,99.7664 C 74.3254,99.7236 74.316,99.6758 74.3237,99.6313 C 74.3296,99.597 74.3254,99.553 74.352,99.5306 C 74.3753,99.5111 74.4231,99.5077 74.443,99.5306 C 74.482,99.5763 74.5104,99.6427 74.5002,99.7016 C 74.4807,99.8104 74.4143,99.9056 74.3592,100.0013 C 74.2974,100.1101 74.2238,100.2117 74.1505,100.3129 C 74.1414,100.3257 74.1365,100.3419 74.1313,100.3551 C 74.1468,100.3696 74.1646,100.3878 74.1861,100.4115 C 74.2077,100.4356 74.2568,100.45 74.2678,100.42 C 74.3122,100.2968 74.3342,100.315 74.3808,100.1927 C 74.4371,100.0453 74.5315,99.9547 74.5925,99.8078 C 74.6572,99.6533 74.623,99.5225 74.6492,99.3388 C 74.6441,98.6869 74.6196,98.0349 74.6344,97.3834 C 74.6386,97.2005 74.6615,97.0168 74.7064,96.8394 C 74.7538,96.6515 74.8215,96.5274 74.9227,96.3619 C 74.9717,96.2826 75.0076,96.193 75.0713,96.1227 C 75.1394,96.0465 75.2249,95.9873 75.3105,95.931 C 75.3536,95.9026 75.4032,95.8831 75.454,95.8717 C 75.5005,95.8607 75.5678,95.8255 75.5975,95.8636 C 75.6335,95.9098 75.5526,95.9614 75.5098,96.0017 C 75.4159,96.0905 75.357,96.0757 75.263,96.1646 C 75.2297,96.1964 75.1922,96.2833 75.1503,96.3299 L 75.1503,96.3299 z M 85.5579,97.4718 C 85.5583,97.472 85.5588,97.4722 85.5592,97.4724 C 85.5594,97.4688 85.5597,97.4676 85.5585,97.4706 C 85.5583,97.471 85.5581,97.4715 85.5579,97.4718 z M 85.9097,99.758 L 85.9162,99.7604 L 85.9171,99.7708 C 85.9259,99.7862 85.934,99.8022 85.9412,99.818 C 85.9662,99.8726 85.9721,99.9344 85.9793,99.9937 C 85.9954,100.1258 86.0085,100.2583 86.0102,100.3912 C 86.0115,100.5444 85.9941,100.6973 85.9873,100.8501 C 85.9865,100.8628 85.9912,100.8763 85.9873,100.8882 C 85.9628,100.9635 85.9179,101.0325 85.9027,101.11 C 85.8942,101.1532 85.9027,101.1989 85.9183,101.24 C 85.9272,101.2637 85.9484,101.3026 85.9717,101.2937 C 86.0394,101.2679 86.0695,101.1714 86.1402,101.1557 C 86.1922,101.1447 86.265,101.1752 86.2849,101.2247 C 86.2856,101.2265 86.2862,101.2281 86.2869,101.2299 L 86.2883,101.2298 L 86.2888,101.2348 C 86.3287,101.3381 86.3282,101.4534 86.3666,101.6087 C 86.3738,101.6388 86.3764,101.651 86.4069,101.6548 C 86.453,101.6616 86.4953,101.6874 86.5377,101.668 C 86.5656,101.6553 86.6012,101.6299 86.5986,101.5994 C 86.5902,101.4982 86.5398,101.4047 86.5068,101.3086 C 86.4403,101.1164 86.4086,100.7299 86.3844,100.5271 C 86.3616,100.3323 86.3781,100.4272 86.3772,100.2307 C 86.3751,99.9581 86.4373,99.6783 86.3772,99.4124 C 86.3527,99.307 86.2257,99.2567 86.1402,99.1906 C 86.039,99.1136 85.9425,99.0149 85.8189,98.9845 C 85.6008,98.9311 85.3705,98.9586 85.1458,98.9464 C 85.1309,98.9455 85.1153,98.948 85.1,98.9464 C 84.9447,98.9303 84.8778,98.8972 84.7254,98.9337 C 84.6661,98.9476 84.6873,98.9337 84.6593,98.9874 C 84.6394,99.0242 84.5243,99.0975 84.4854,99.114 C 84.418,99.1419 84.3402,99.1542 84.2805,99.1965 C 84.1962,99.2567 84.1199,99.3244 84.0484,99.3961 C 84.0757,99.383 84.1004,99.3771 84.1179,99.3722 C 84.2017,99.3485 84.2669,99.36 84.3418,99.3752 C 84.5201,99.4112 84.7068,99.4146 84.8867,99.3917 C 85.0408,99.3722 85.1822,99.2943 85.3346,99.2651 C 85.5356,99.227 85.7249,99.2757 85.8887,99.3917 C 85.9327,99.4226 85.9619,99.4861 86.0149,99.4967 C 86.0851,99.5102 86.1601,99.4734 86.2126,99.5217 C 86.2701,99.5746 86.2325,99.677 86.2325,99.7553 C 86.2325,99.8527 86.1973,99.9653 86.1643,100.0568 C 86.155,100.083 86.0999,100.0432 86.0847,100.0195 C 86.0208,99.9209 86.0809,99.7625 85.9941,99.6834 C 85.9179,99.6135 85.9094,99.5593 85.7731,99.4713 C 85.6554,99.3955 85.5229,99.4074 85.3832,99.4205 C 85.313,99.4273 85.2385,99.4666 85.169,99.4815 C 85.0289,99.5119 84.8744,99.5369 84.7322,99.5564 C 84.5412,99.583 84.0921,99.6559 83.9414,99.6059 C 83.905,99.5936 83.9007,99.583 83.9113,99.5564 C 83.9149,99.5474 83.9184,99.539 83.9223,99.5308 C 83.8807,99.5778 83.8404,99.6252 83.8004,99.6728 C 83.7843,99.6923 83.8567,99.6935 83.8817,99.6982 C 84.083,99.7349 84.2522,99.7631 84.4578,99.7566 C 84.573,99.7537 84.6873,99.7515 84.802,99.7418 C 84.8892,99.7338 84.979,99.7312 85.0619,99.7033 C 85.1419,99.6766 85.2016,99.6004 85.2838,99.5814 C 85.3879,99.556 85.4992,99.5555 85.6046,99.5733 C 85.6254,99.5767 85.636,99.6156 85.6563,99.622 C 85.7164,99.6402 85.7837,99.636 85.8341,99.6728 C 85.8649,99.695 85.8894,99.7249 85.9097,99.758 L 85.9097,99.758 z "
   id="path16"
   style="fill:#d82525" />
  <polygon
   class="fil4"
   points="80.8515,89.8214 81.3391,91.4009 82.9279,91.0567 81.804,92.2691 82.8962,93.4731 81.2845,93.106 80.788,94.6538 80.3007,93.0743 78.7119,93.418 79.8355,92.206 78.7433,91.0021 80.3553,91.3695 80.8515,89.8214 "
   id="polygon18"
   style="fill:#fff500" />
  <path
   class="fil5"
   d="M 75.454,95.8717 C 75.5005,95.8607 75.5678,95.8255 75.5975,95.8636 C 75.6335,95.9098 75.5526,95.9614 75.5098,96.0017 C 75.4159,96.0905 75.357,96.0757 75.263,96.1646 C 75.2199,96.2057 75.1695,96.3395 75.1123,96.3581 C 75.034,96.3839 74.9959,96.4457 74.9553,96.3733 C 74.9256,96.3208 75.0306,96.1676 75.0713,96.1227 C 75.1394,96.0465 75.2249,95.9873 75.3105,95.931 C 75.3536,95.9026 75.4032,95.8831 75.454,95.8717 L 75.454,95.8717 z "
   id="path20"
   style="fill:#1f1a17" />
  <path
   class="fil5"
   d="M 75.2097,100.549 C 75.2038,100.3335 75.186,100.2018 75.4645,100.1599 C 75.5179,100.1519 75.5657,100.1341 75.6021,100.0939 C 75.68,100.0063 75.7833,99.9025 75.8206,99.7916 C 75.893,99.5736 75.8367,99.5287 75.9493,99.4089 C 76.0149,99.3391 75.9869,99.5029 75.9899,99.599 C 75.9937,99.7099 75.9484,99.8048 75.926,99.9135 C 75.9031,100.0228 75.8392,100.0825 75.7613,100.1625 C 75.694,100.231 75.5568,100.2645 75.4645,100.2933 C 75.3143,100.3407 75.327,100.7107 75.4002,100.7573 C 75.4916,100.8157 75.5606,100.9338 75.5945,101.0341 C 75.628,101.1344 75.7245,101.1916 75.7012,101.3063 C 75.6517,101.5472 75.5915,101.2348 75.5446,101.1641 C 75.4717,101.054 75.3926,100.9698 75.3862,100.9554 C 75.3498,100.8741 75.2334,100.8385 75.1953,100.7623 C 75.1758,100.7234 75.2105,100.5917 75.2097,100.549 L 75.2097,100.549 z "
   id="path22"
   style="fill:#000000" />
  <path
   class="fil5"
   d="M 76.9813,100.779 C 77.0724,100.6605 77.1778,100.5855 77.2489,100.4987 C 77.3082,100.4268 77.2963,100.3243 77.3446,100.2443 C 77.367,100.2071 77.4102,100.1605 77.4525,100.1707 C 77.4885,100.1791 77.5156,100.2837 77.494,100.3137 C 77.4716,100.3446 77.4965,100.3883 77.3729,100.5356 C 77.3281,100.5893 77.3234,100.641 77.2832,100.699 C 77.237,100.768 77.1426,100.8196 77.1151,100.8979 C 77.0995,100.9432 77.1067,101.0419 77.1312,101.0829 C 77.1769,101.16 77.2455,101.2353 77.3056,101.3018 C 77.3467,101.3475 77.3755,101.3949 77.4051,101.4487 C 77.4233,101.4817 77.4597,101.5363 77.4322,101.5626 C 77.4043,101.5897 77.3577,101.5283 77.3226,101.5118 C 77.2887,101.4965 77.2722,101.4716 77.2468,101.4449 C 77.2235,101.4208 77.2061,101.3907 77.1841,101.3662 C 77.1384,101.3154 77.0872,101.2713 77.0436,101.2193 C 77.0144,101.1833 76.9818,101.1494 76.9589,101.1092 C 76.9411,101.0783 76.9449,100.9991 76.9386,100.9644 C 76.925,100.8857 76.9432,100.8281 76.9813,100.779 z "
   id="path24"
   style="fill:#000000" />
  <path
   class="fil5"
   d="M 84.211,95.1372 C 84.3164,95.0606 84.4384,95.1385 84.5671,95.1592 C 84.6441,95.1711 84.7173,95.1817 84.7944,95.1948 C 84.8655,95.2066 84.9214,95.2206 84.9866,95.2523 C 85.2021,95.3573 85.1644,95.5254 85.1098,95.594 C 85.0687,95.6456 85.0204,95.6283 84.9764,95.6033 C 84.9315,95.5779 84.9726,95.3988 84.9193,95.3683 C 84.7952,95.2972 84.4913,95.3129 84.3905,95.2574 C 84.3126,95.2142 84.1386,95.1893 84.211,95.1372 L 84.211,95.1372 z "
   id="path26"
   style="fill:#1f1a17" />
  <path
   class="fil5"
   d="M 87.5905,95.0745 C 87.5719,95.0745 87.494,95.0559 87.4593,95.0661 C 87.4326,95.0745 87.3191,95.0881 87.2967,95.105 C 87.2468,95.1419 87.1828,95.2248 87.1634,95.2981 C 87.1553,95.329 87.2345,95.312 87.2472,95.3137 C 87.2832,95.3192 87.2573,95.2638 87.2971,95.2265 C 87.3369,95.1897 87.414,95.2299 87.4466,95.2151 C 87.4872,95.1956 87.571,95.2121 87.5863,95.1694 C 87.593,95.1512 87.6104,95.0741 87.5905,95.0745 L 87.5905,95.0745 z "
   id="path28"
   style="fill:#1f1a17" />
  <path
   class="fil5"
   d="M 85.4903,95.9178 C 85.5551,95.8518 85.6919,96.091 85.7003,96.0956 C 85.7469,96.1202 85.6652,96.085 85.6284,96.0901 C 85.5674,96.099 85.487,96.0478 85.4658,96.0025 C 85.4565,95.9818 85.4755,95.9331 85.4903,95.9178 L 85.4903,95.9178 z M 85.3871,95.5703 C 85.36,95.5897 85.3511,95.6617 85.3566,95.6871 C 85.3959,95.8594 85.2723,96.0723 85.343,96.2214 L 85.3921,96.3242 C 85.4184,96.3801 85.4785,96.3996 85.5378,96.4169 C 85.6004,96.4356 85.7278,96.4567 85.7575,96.5147 C 85.7901,96.5782 85.8667,96.6227 85.8989,96.6862 L 85.9869,96.745 C 86.0013,96.7543 86.064,96.737 86.0602,96.72 L 86.0064,96.4855 L 85.9577,96.3827 C 85.926,96.3162 85.9581,96.2319 85.9332,96.1625 C 85.9035,96.0804 85.8697,95.9911 85.7968,95.9424 L 85.5373,95.7692 C 85.4379,95.7028 85.5395,95.5872 85.553,95.5445 C 85.5729,95.4818 85.5488,95.5411 85.567,95.4416 L 85.5602,95.3908 C 85.5492,95.3078 85.5284,95.2532 85.459,95.3336 C 85.4078,95.3929 85.4315,95.4492 85.4146,95.5076 C 85.4091,95.5275 85.4167,95.5478 85.3871,95.5703 L 85.3871,95.5703 z "
   id="path30"
   style="fill:#1f1a17" />
  <path
   class="fil5"
   d="M 85.5386,96.237 C 85.5369,96.2535 85.5361,96.2772 85.5208,96.284 C 85.4975,96.295 85.4552,96.2993 85.4421,96.2772 C 85.4133,96.229 85.4332,96.1667 85.4235,96.1113 C 85.4197,96.0893 85.437,95.9919 85.4527,95.9771 C 85.4785,95.9534 85.5111,95.9648 85.5403,95.9826 C 85.5907,96.0131 85.6216,96.0457 85.6859,96.085 C 85.7024,96.0956 85.7151,96.1121 85.7316,96.1151 C 85.7947,96.1257 85.8328,96.1532 85.8261,96.1943 C 85.8172,96.2463 85.8413,96.2882 85.8392,96.3424 C 85.8375,96.3729 85.8189,96.3691 85.7884,96.3695 C 85.7697,96.37 85.7511,96.3594 85.7355,96.3488 C 85.7316,96.3462 85.7363,96.339 85.7355,96.334 C 85.7304,96.3026 85.7295,96.2696 85.7177,96.24 C 85.7122,96.2252 85.6991,96.2129 85.6855,96.2048 C 85.6563,96.1866 85.6258,96.1676 85.5932,96.1579 C 85.5746,96.1519 85.5534,96.1287 85.542,96.1443 C 85.5263,96.1659 85.5407,96.2104 85.5386,96.237 L 85.5386,96.237 z "
   id="path32"
   style="fill:#1f1a17" />
  <path
   class="fil0"
   d="M 85.7325,96.3357 C 85.7245,96.3454 85.7105,96.3196 85.6923,96.3124 C 85.6728,96.3043 85.6504,96.2963 85.6296,96.2806 C 85.6118,96.2667 85.5792,96.237 85.5941,96.2201 C 85.6686,96.1375 85.7803,96.2785 85.7325,96.3357 L 85.7325,96.3357 z "
   id="path34"
   style="fill:#ffffff" />
  <path
   class="fil5"
   d="M 86.6465,97.7073 C 86.6245,97.739 86.6905,97.7983 86.7273,97.789 C 86.7874,97.7733 86.8476,97.703 86.8607,97.6433 C 86.8738,97.5832 86.878,97.5117 86.7993,97.4139 C 86.7883,97.4008 86.7455,97.3741 86.7366,97.3589 C 86.7053,97.3059 86.6858,97.209 86.6791,97.1476 C 86.6685,97.0443 86.6706,97.0579 86.6791,96.9677 C 86.6795,96.9613 86.6837,96.9491 86.6799,96.9393 C 86.6681,96.9173 86.646,96.9334 86.6333,96.9762 C 86.6262,97.0011 86.6367,96.9863 86.6245,97.0265 C 86.6067,97.0828 86.6185,97.1023 86.6122,97.1514 C 86.605,97.2069 86.6473,97.3195 86.6393,97.3754 C 86.6274,97.4622 86.3692,97.4516 86.3319,97.4156 C 86.246,97.3313 86.2409,96.955 86.2066,96.9567 C 86.1723,96.9584 86.1427,96.952 86.1452,96.9707 C 86.1571,97.0617 86.1588,97.1798 86.1711,97.2509 C 86.1808,97.311 86.1761,97.3622 86.1558,97.4156 C 86.1465,97.4406 86.163,97.4423 86.1359,97.4516 C 86.0441,97.4829 85.9412,97.5896 86.0195,97.6895 C 86.042,97.7178 86.0974,97.7614 86.1325,97.7708 C 86.185,97.7847 86.2181,97.7915 86.2566,97.7526 C 86.2816,97.728 86.2147,97.6836 86.1982,97.6531 C 86.185,97.6294 86.1876,97.6463 86.1749,97.6226 C 86.1626,97.6002 86.2325,97.5295 86.2536,97.5447 C 86.2993,97.5786 86.3552,97.6188 86.3798,97.6167 C 86.4276,97.612 86.4682,97.6226 86.5161,97.6145 C 86.561,97.6074 86.6528,97.5235 86.6939,97.5434 C 86.7125,97.5532 86.7434,97.6095 86.7235,97.6302 C 86.7007,97.6543 86.6994,97.6323 86.6465,97.7073 L 86.6465,97.7073 z "
   id="path36"
   style="fill:#1f1a17" />
  <path
   class="fil0"
   d="M 86.8861,96.2209 C 86.8899,96.2332 86.8886,96.2209 86.9077,96.2214 C 86.9284,96.2218 86.9525,96.2231 86.9779,96.2167 C 86.9995,96.2112 87.0292,96.196 87.0215,96.1752 C 87.0101,96.1422 87.0105,96.1274 86.9737,96.1253 C 86.9276,96.1219 86.8713,96.1723 86.8861,96.2209 L 86.8861,96.2209 z "
   id="path38"
   style="fill:#ffffff" />
  <path
   class="fil5"
   d="M 87.0969,96.3564 C 87.0825,96.3678 87.0546,96.334 87.0465,96.3183 C 87.0279,96.2827 87.03,96.2387 87.0309,96.1985 C 87.0317,96.1418 87.0148,96.1545 87.0025,96.1062 C 86.9949,96.0745 86.8916,96.1253 86.8679,96.1028 C 86.8454,96.0808 86.8962,96.0088 86.9212,95.9898 C 86.9517,95.9665 87.019,95.9712 87.0575,95.9746 C 87.0859,95.9771 87.1007,95.9741 87.1291,95.9703 C 87.1371,95.9686 87.1418,95.9513 87.1426,95.9432 C 87.1477,95.8971 87.1312,95.8628 87.1426,95.8175 C 87.1447,95.809 87.1604,95.8061 87.1693,95.8056 C 87.2264,95.8018 87.2053,95.9157 87.2078,95.9695 C 87.2082,95.9813 87.196,96.0173 87.1871,96.0254 C 87.1693,96.0427 87.1646,96.0262 87.1579,96.0495 C 87.1435,96.0956 87.1701,96.1735 87.1723,96.2214 C 87.1731,96.2468 87.1727,96.2726 87.1676,96.2976 C 87.1625,96.323 87.1176,96.3403 87.0969,96.3564 L 87.0969,96.3564 z "
   id="path40"
   style="fill:#1f1a17" />
  <path
   class="fil5"
   d="M 82.6938,100.061 C 82.7446,100.163 82.7374,100.2849 82.7658,100.3958 C 82.781,100.4559 82.8115,100.5122 82.8246,100.5732 C 82.8386,100.638 82.8564,100.7053 82.8471,100.7709 C 82.8411,100.8154 82.7984,100.8471 82.7819,100.889 C 82.7654,100.9296 82.7484,100.9724 82.7493,101.016 C 82.7505,101.077 82.781,101.1345 82.7878,101.1951 C 82.7908,101.2239 82.7975,101.2599 82.7785,101.2814 C 82.7632,101.2984 82.7239,101.3018 82.7086,101.284 C 82.6676,101.2344 82.6468,101.1693 82.632,101.1066 C 82.6146,101.0346 82.6113,100.9593 82.6134,100.8852 C 82.6159,100.8217 82.6409,100.7603 82.6468,100.6968 C 82.6536,100.6257 82.6536,100.5537 82.6502,100.4826 C 82.6472,100.4208 82.6354,100.3598 82.6282,100.298 C 82.6218,100.2439 82.6146,100.1901 82.61,100.1359 C 82.6083,100.1185 82.5969,100.0953 82.61,100.0838 C 82.6316,100.0648 82.6807,100.0351 82.6938,100.061 L 82.6938,100.061 z "
   id="path42"
   style="fill:#000000" />
  <path
   class="fil5"
   d="M 82.9584,95.4966 C 83.0058,95.5309 82.9948,95.5999 83.0397,95.6376 C 83.0875,95.6774 83.1231,95.7011 83.1718,95.7396 C 83.2327,95.7879 83.2632,95.8725 83.2949,95.9437 C 83.3131,95.9834 83.3326,96.0194 83.3258,96.0626 C 83.322,96.0867 83.2869,96.116 83.2628,96.116 C 83.2027,96.116 83.0905,96.0326 83.0604,95.9788 C 83.0376,95.9382 83.024,95.9259 83.0041,95.884 C 82.9906,95.856 82.9736,95.8001 82.9618,95.7709 C 82.9508,95.7438 82.9618,95.7108 82.9508,95.6837 C 82.9393,95.6545 82.9186,95.6291 82.8962,95.6075 C 82.8847,95.5957 82.8623,95.5982 82.8526,95.5851 C 82.8386,95.5669 82.8136,95.5351 82.8305,95.5199 C 82.8585,95.4958 82.9288,95.475 82.9584,95.4966 L 82.9584,95.4966 z "
   id="path44"
   style="fill:#1f1a17" />
  <line
   class="fil6 str1"
   x1="86.307404"
   y1="98.105598"
   x2="86.206596"
   y2="98.097198"
   id="line46"
   style="fill:none;stroke:#1f1a17;stroke-width:0.0762" />
  <path
   class="fil7"
   d="M 84.3649,93.7917 L 84.4318,93.8461 C 84.5378,93.9621 84.6912,94.2194 84.7381,94.2643 C 84.8431,94.365 85.0285,94.4611 85.1496,94.5035 C 85.2265,94.5306 85.3186,94.6199 85.3277,94.7227 L 85.3256,94.7714 C 85.3236,94.7831 85.3205,94.7949 85.3159,94.8066 C 85.2927,94.8646 85.2207,94.9602 85.1606,94.978 C 85.0924,94.9979 84.794,94.9171 84.7398,94.8675 C 84.4642,94.6186 84.3727,94.3456 84.3076,93.99 C 84.286,93.8706 84.3317,93.8092 84.3516,93.7897 C 84.3557,93.7893 84.36,93.79 84.3649,93.7917 L 84.3649,93.7917 z M 75.97,103.5021 C 75.9554,103.5256 75.9663,103.5643 75.9615,103.5962 C 75.9467,103.6987 75.9819,103.9345 76.0293,104.0297 C 76.1004,104.1737 76.2138,104.1779 76.3027,104.2321 C 76.3298,104.2478 76.4086,104.2986 76.4251,104.2727 C 76.4539,104.2266 76.2955,103.9087 76.3252,103.8634 C 76.3277,103.86 76.3574,103.8494 76.3633,103.8532 C 76.4039,103.8812 76.5153,104.0882 76.5483,104.1026 C 76.6046,104.1263 76.6228,104.1004 76.6245,104.0814 C 76.6317,103.9908 76.6084,103.8947 76.591,103.8058 C 76.5759,103.7309 76.5674,103.5862 76.5138,103.5235 C 76.302,103.5428 76.164,103.546 75.97,103.5021 L 75.97,103.5021 z M 78.2117,103.2342 C 78.2073,103.2755 78.234,103.3532 78.27,103.435 C 78.2801,103.4587 78.3161,103.4705 78.3225,103.5459 C 78.3297,103.6305 78.2772,103.719 78.3127,103.7906 C 78.3839,103.9341 78.4926,103.9717 78.582,104.0259 C 78.6086,104.0416 78.692,104.0598 78.7085,104.0336 C 78.7378,103.9874 78.6548,103.8346 78.6844,103.7897 C 78.6865,103.7859 78.7166,103.7753 78.7225,103.7791 C 78.7632,103.8071 78.7991,103.849 78.8322,103.863 C 78.8876,103.8871 78.9384,103.9332 78.9418,103.9142 C 78.957,103.8274 78.8919,103.6551 78.8745,103.5666 C 78.858,103.4852 78.8578,103.3001 78.7914,103.2468 C 78.724,103.2817 78.626,103.279 78.5523,103.2665 C 78.5155,103.2605 78.4931,103.2495 78.4562,103.2445 C 78.377,103.2338 78.2891,103.2504 78.2117,103.2342 L 78.2117,103.2342 z M 82.795,103.2771 C 82.7543,103.2868 82.734,103.446 82.7256,103.4849 C 82.6997,103.6013 82.6443,103.7986 82.6671,103.9023 C 82.7019,104.0585 82.8115,104.0899 82.8847,104.1639 C 82.9067,104.186 82.9711,104.2541 82.9931,104.2325 C 83.0325,104.1953 82.9698,103.9654 83.0096,103.9286 C 83.0126,103.9252 83.0448,103.9222 83.0494,103.9273 C 83.082,103.9645 83.1252,104.0755 83.1535,104.0966 C 83.2022,104.1335 83.2166,104.1644 83.2259,104.1817 C 83.3237,104.3705 83.2721,103.9485 83.2657,103.8189 C 83.2623,103.7313 83.3038,103.5573 83.2382,103.4993 C 83.2379,103.499 83.2376,103.4987 83.2372,103.4984 C 83.2278,103.5001 83.219,103.5024 83.2107,103.5052 C 83.187,103.5137 83.1633,103.5268 83.1375,103.5298 C 83.0989,103.5349 83.0553,103.5467 83.0202,103.5298 C 83.0024,103.5213 83.0202,103.49 83.0151,103.4709 C 83.0061,103.4367 83.0034,103.3974 82.9948,103.3621 C 82.9442,103.3386 82.9009,103.2956 82.8527,103.2801 C 82.8342,103.2818 82.8162,103.2822 82.8009,103.2761 C 82.7988,103.2764 82.7971,103.2766 82.795,103.2771 L 82.795,103.2771 z M 86.1036,101.2973 C 86.1061,101.3936 86.1091,101.4111 86.0872,101.5092 C 86.053,101.657 85.6377,101.9029 85.6389,101.9571 C 85.6398,102.0464 85.6554,102.1912 85.6728,102.286 C 85.6787,102.3165 85.7401,102.3792 85.7664,102.3635 C 85.8134,102.336 85.9133,102.0934 85.9607,102.0663 C 85.9641,102.0646 85.9988,102.068 85.9992,102.0752 C 86.0034,102.1324 86.0999,102.5227 86.116,102.4168 C 86.1259,102.3538 86.3167,101.9392 86.4172,101.7214 C 86.3689,101.7046 86.3534,101.6988 86.3163,101.662 C 86.29,101.6354 86.3057,101.6218 86.3036,101.5841 C 86.2991,101.4928 86.2775,101.4246 86.2611,101.3395 C 86.2274,101.303 86.1955,101.2716 86.1712,101.2528 C 86.1701,101.2528 86.1692,101.253 86.1681,101.2531 C 86.1419,101.2553 86.1231,101.2771 86.1036,101.2973 L 86.1036,101.2973 z M 86.6151,94.4624 C 86.6812,94.451 86.7874,94.4349 86.8285,94.4315 C 87.1392,94.4031 87.1824,94.3278 87.3111,94.2241 C 87.4237,94.1403 87.5317,94.026 87.6223,93.932 C 87.6477,94.0827 87.6303,94.2385 87.6134,94.2982 C 87.5786,94.4182 87.4799,94.536 87.4174,94.6143 C 87.4007,94.6308 87.3837,94.6471 87.3666,94.6634 C 87.3664,94.6636 87.3663,94.6637 87.3661,94.6639 C 87.2395,94.7727 87.0775,94.8811 86.9446,94.8788 L 86.7743,94.6372 L 86.6064,94.4673 L 86.6151,94.4624 L 86.6151,94.4624 z "
   id="path48"
   style="fill:#eadcad" />
 </g>
</svg>