<?xml version="1.0" encoding="UTF-8" standalone="no"?>
<!-- Creator: CorelDRAW -->
<svg
   xmlns:dc="http://purl.org/dc/elements/1.1/"
   xmlns:cc="http://web.resource.org/cc/"
   xmlns:rdf="http://www.w3.org/1999/02/22-rdf-syntax-ns#"
   xmlns:svg="http://www.w3.org/2000/svg"
   xmlns="http://www.w3.org/2000/svg"
   xmlns:sodipodi="http://sodipodi.sourceforge.net/DTD/sodipodi-0.dtd"
   xmlns:inkscape="http://www.inkscape.org/namespaces/inkscape"
   xml:space="preserve"
   width="744"
   height="825.75537"
   style="shape-rendering:geometricPrecision; text-rendering:geometricPrecision; image-rendering:optimizeQuality; fill-rule:evenodd; clip-rule:evenodd"
   viewBox="0 0 210 297"
   id="svg2"
   sodipodi:version="0.32"
   inkscape:version="0.45.1"
   sodipodi:docname="POL Niemodlin COA.svg"
   inkscape:output_extension="org.inkscape.output.svg.inkscape"
   sodipodi:docbase="C:\Users\Mistrz\Desktop"
   version="1.0"><metadata
   id="metadata23"><rdf:RDF><cc:Work
       rdf:about=""><dc:format>image/svg+xml</dc:format><dc:type
         rdf:resource="http://purl.org/dc/dcmitype/StillImage" /></cc:Work></rdf:RDF></metadata><sodipodi:namedview
   inkscape:window-height="480"
   inkscape:window-width="640"
   inkscape:pageshadow="2"
   inkscape:pageopacity="0.0"
   guidetolerance="10.0"
   gridtolerance="10.0"
   objecttolerance="10.0"
   borderopacity="1.0"
   bordercolor="#666666"
   pagecolor="#ffffff"
   id="base" />
 <defs
   id="defs4">
  <style
   type="text/css"
   id="style6">
   
    .fil3 {fill:#0A0B0C}
    .fil2 {fill:#45A84F}
    .fil1 {fill:#FFD240}
    .fil0 {fill:#0A0B0C;fill-rule:nonzero}
    .fil5 {fill:#00B3F0;fill-rule:nonzero}
    .fil4 {fill:#FFD240;fill-rule:nonzero}
   
  </style>
 </defs>
 <g
   id="Warstwa_x0020_1"
   transform="matrix(1.274257,0,0,1.274257,-28.797622,-40.727291)">
  <metadata
   id="CorelCorpID_0Corel-Layer" />
  <path
   class="fil0"
   d="M 0.0001,31.9616 L 0.0459,158.3406 C 0.0459,216.9089 45.5509,265.0386 104.9079,265.0386 C 162.9332,265.0386 210.0009,218.0005 210.0009,159.9686 L 209.9281,31.9616 L 0.0011,31.9616 L 0.0001,31.9616 z "
   id="path10"
   style="fill:#0a0b0c;fill-rule:nonzero" />
  <path
   class="fil1"
   d="M 85.6226,216.665 C 85.1691,216.2032 84.7947,215.835 84.1706,215.835 C 83.5175,215.8433 82.7978,216.1283 82.8498,216.7752 C 82.9808,218.5954 84.8092,219.7457 86.6148,219.7311 C 86.8935,219.7311 87.0537,219.7311 87.3325,219.7249 C 86.1073,218.7347 86.3943,217.7071 85.6226,216.665 L 85.6226,216.665 z M 92.1334,216.1429 C 92.3165,218.5142 94.694,220.6131 97.2256,220.48 C 96.9094,219.9225 96.0212,219.5626 96.0815,218.9386 C 96.2271,217.2142 96.4039,217.0394 95.7424,216.0035 C 94.8688,214.926 92.0523,215.0071 92.1334,216.1429 L 92.1334,216.1429 z M 105.7957,212.7315 C 104.3791,212.7377 103.4119,214.3082 103.5138,215.7248 C 103.5866,216.7232 104.8056,217.185 105.7,217.6697 C 105.3776,214.5953 106.9481,215.704 107.2934,214.1189 C 107.4557,213.3763 106.5591,212.7231 105.7957,212.7315 L 105.7957,212.7315 z M 114.5427,220.1055 C 113.4797,220.1139 112.5624,220.9126 112.6435,221.9839 C 112.7891,223.9891 115.0128,225.6824 116.6644,226.1462 C 116.3919,225.31 115.8948,224.5009 115.8282,223.6355 C 115.7554,222.6163 116.7455,222.2335 116.6644,221.2143 C 116.5979,220.3052 115.4455,220.1055 114.5427,220.1055 L 114.5427,220.1055 z M 133.967,219.5481 C 134.5993,219.4087 135.6706,219.9017 136.8084,221.208 C 133.865,221.9194 134.9883,223.6064 132.2509,222.8867 C 131.9638,222.8139 131.3335,222.5206 130.9071,222.0941 C 133.2993,222.1836 131.7371,220.0411 133.967,219.5481 z M 31.541,94.9521 C 32.2378,101.1759 34.7319,104.631 40.2297,104.2066 C 40.3607,105.2259 42.6801,119.2356 44.4336,122.9694 C 44.3088,121.7068 41.6754,109.7751 41.2344,104.7412 C 41.1616,103.8967 41.7919,110.1579 46.4306,112.5937 C 47.4498,116.6666 50.8758,125.7735 45.9376,126.4412 C 43.3624,126.7865 41.1179,125.0974 40.1777,123.5061 C 37.6607,119.2189 30.8941,99.4431 31.541,94.9521 L 31.541,94.9521 z M 47.377,112.8787 C 49.1743,113.8917 50.6865,113.2677 51.8743,112.5355 C 51.8743,112.5355 55.1983,122.5284 57.2618,126.3309 L 53.6798,115.1772 C 54.6783,116.1965 56.3071,117.0119 57.8484,116.7103 C 62.9635,127.6664 62.3457,129.4199 58.8615,129.4199 C 49.453,129.4054 47.5809,113.613 47.377,112.8787 z M 58.772,116.5709 C 59.5354,116.3359 60.1823,115.7056 60.7169,114.9859 C 61.5032,115.9469 63.1757,117.5465 64.0493,117.6505 C 64.276,117.7587 65.6781,123.373 66.8596,126.2872 C 66.5808,124.8332 65.3182,119.1108 64.9729,117.7379 C 66.2792,117.7296 67.908,117.819 69.8674,115.8013 C 69.6782,117.2158 69.4431,119.3084 69.493,120.4525 C 69.5887,122.3454 69.9049,125.84 70.3313,127.4979 C 70.6974,128.9581 68.8565,130.5494 67.9454,130.6597 C 66.2938,130.8511 64.534,129.786 63.0508,126.5514 C 61.5095,123.1754 60.38,120.4005 58.772,116.5709 L 58.772,116.5709 z M 63.7851,129.9857 C 65.2454,131.6581 66.9261,132.0471 68.1659,132.0388 C 68.5466,132.6192 70.3812,137.0374 70.3812,137.0374 C 69.9049,135.4731 69.2372,133.0227 68.7754,131.7601 C 70.3084,131.0861 70.8368,130.0585 70.9034,129.8172 C 71.0053,133.5219 72.2159,136.7503 72.3116,137.4929 C 72.4801,138.7992 72.4364,139.7956 71.3735,140.0973 C 69.9631,140.4862 68.4883,138.6599 67.5356,137.0291 C 66.3083,134.9302 64.9958,132.9062 63.7851,129.9857 L 63.7851,129.9857 z M 67.4399,146.4375 C 66.5226,144.1327 60.6004,134.0732 59.161,130.7637 C 60.7024,130.5869 62.2438,130.2853 62.6473,128.9436 C 63.7851,132.0555 67.6583,138.6287 69.7426,141.8737 C 70.3001,142.7473 71.1738,147.4131 69.7946,147.9934 C 70.4187,148.6612 70.8805,150.1277 70.947,151.0533 C 71.0718,152.7257 70.9325,154.6499 70.1316,156.029 C 56.7688,140.1846 52.3818,129.1557 51.5664,127.0132 C 53.9295,130.0876 56.6815,130.7117 58.4787,130.8594 C 58.6118,130.8656 65.4659,144.0828 67.4399,146.4375 L 67.4399,146.4375 z M 66.845,161.0484 C 63.6894,155.6691 54.0917,142.0422 46.9589,127.8494 C 48.7416,127.1297 49.3365,126.3517 49.6735,124.5691 C 60.0867,149.747 71.6959,155.6255 71.1155,161.2085 C 70.9699,162.6917 71.3943,162.4649 70.4478,164.3433 C 71.3215,165.3771 72.297,167.6819 72.399,168.4516 C 72.5467,169.6123 71.7916,171.8651 71.542,171.63 C 54.6554,155.9999 44.2277,138.4394 40.1631,125.8691 C 42.2474,127.6955 44.4274,127.9826 46.1581,127.9368 C 52.2279,139.1716 55.5956,145.7032 66.845,161.0484 L 66.845,161.0484 z M 66.4706,173.1922 C 62.4851,168.3725 56.0429,160.9589 52.931,156.4762 C 47.8679,149.747 40.6832,137.6531 37.0741,128.7605 C 38.1745,128.1864 39.069,126.8073 39.0981,125.2597 C 40.6041,129.7569 44.8601,139.7083 51.3979,149.6076 C 57.3055,158.5522 64.9292,166.3985 70.6891,172.5245 C 73.0084,174.9832 73.412,176.4372 72.84,179.9443 C 74.6164,181.573 75.0927,186.5342 74.8722,187.568 C 68.5112,180.0982 54.67,168.2394 45.9667,154.9203 C 39.2604,145.4328 33.4339,134.7617 31.0417,127.4313 C 32.3918,128.5692 34.4823,129.1932 36.3398,128.9727 C 41.8064,142.5123 51.9034,156.4471 54.6845,160.027 C 56.7397,162.6771 61.8256,168.5119 66.4706,173.1922 L 66.4706,173.1922 z M 71.6293,105.981 C 70.0359,108.396 69.7946,111.8969 69.9194,113.6067 C 69.9403,113.9188 69.6303,114.3327 69.1228,114.7467 C 65.3161,117.8523 63.03,116.2298 60.5339,112.5646 C 59.8974,114.1393 58.8885,115.2917 57.0767,115.3894 C 54.385,115.5517 52.931,112.5708 52.3818,109.8646 C 50.6054,114.185 42.5615,111.6327 42.1372,101.7333 C 39.4226,104.3522 32.1941,103.1042 33.0366,92.2001 C 27.3807,94.5049 21.444,86.565 29.6252,81.45 C 22.7129,79.4385 23.8944,74.3983 24.9428,73.1211 C 25.6542,72.1455 27.7094,73.6786 27.5034,71.3738 C 27.4535,70.7497 26.6319,70.5376 26.0141,70.627 C 22.8731,71.0451 22.1762,74.625 22.6089,77.4727 C 22.8668,79.1244 25.0094,81.4063 26.5424,82.0886 C 25.5086,82.8228 21.7435,86.0803 24.144,94.3655 C 25.0614,97.5273 31.437,118.934 32.9638,120.8643 C 31.5909,117.6859 23.8798,92.2292 24.5476,89.6769 C 25.6043,92.6993 28.6413,94.014 30.5862,93.9183 C 31.5555,105.8936 37.1698,118.6552 37.8812,122.984 C 38.291,125.4864 37.0138,127.4688 35.3414,127.4688 C 29.8665,127.4896 29.1987,123.4104 27.0063,118.5824 C 23.1435,108.7912 19.3035,95.6989 18.0971,85.787 C 17.4751,79.5466 16.8365,73.7243 18.9416,67.7044 C 20.1148,64.3367 23.651,62.4875 26.0224,62.2898 C 30.9461,61.8863 36.5375,64.1973 39.797,70.8309 C 40.8745,73.0337 43.2376,81.3834 43.9344,85.8453 C 44.4274,89.0008 46.2912,91.2245 48.3817,92.3187 C 49.5861,92.9489 49.9585,93.0301 51.816,93.704 C 54.9342,94.8502 55.5728,98.3573 56.2259,100.6538 C 56.8208,102.7464 59.5583,103.4141 59.0653,104.8806 C 58.1937,107.487 60.2551,110.3181 64.2407,110.2889 C 60.6878,109.0554 59.4481,105.3653 60.8064,105.981 C 61.9421,106.8692 63.8205,107.0606 65.0332,107.1126 C 65.6198,107.1417 70.0526,106.9586 71.6293,105.981 L 71.6293,105.981 z M 139.0756,183.0333 C 141.2992,182.8211 142.6555,183.3786 143.8828,184.1337 C 147.3462,187.3558 164.7216,204.0801 167.2032,204.8435 C 166.8059,212.1593 143.448,187.3184 139.0756,183.0333 z M 143.0237,179.0332 C 146.8969,181.7207 169.7784,203.845 173.3292,204.8934 C 173.2064,206.7364 170.7186,206.1269 168.0768,204.6521 C 161.1042,200.1965 147.3233,186.3199 144.2926,183.5471 C 144.4548,182.6734 144.0575,181.001 143.0237,179.0332 z M 135.5685,169.5894 C 136.9039,169.7142 139.346,170.3154 140.8957,170.9477 C 143.9265,173.7788 171.9438,201.2532 177.6371,202.4867 C 177.1753,204.4171 174.6875,204.9745 172.3765,203.7348 C 166.3378,199.56 155.9309,189.6086 153.2371,187.2081 C 150.9927,185.1987 146.458,181.001 142.487,177.8018 C 140.4693,174.6899 137.9461,171.9233 135.5685,169.5894 z M 139.7579,165.8847 C 142.9134,167.9315 178.0115,194.8256 179.5009,196.4918 C 181.6809,198.6343 182.488,201.4154 181.8577,202.3099 C 181.4542,202.8903 179.3699,202.9423 177.6746,202.0249 C 168.2224,196.9099 144.1906,172.8989 141.2992,170.4547 C 141.4969,168.9799 140.2425,166.7874 139.7579,165.8847 z M 143.5728,164.387 C 151.3733,170.5005 164.8838,180.5018 172.5304,186.1452 C 177.7848,190.3782 183.2077,194.0622 180.1478,196.2858 C 178.3797,194.1204 143.0445,167.4697 137.087,162.7874 C 139.1858,163.5944 141.7694,164.181 143.5728,164.387 L 143.5728,164.387 z M 143.6976,163.7401 C 160.3408,176.7159 172.7363,184.9928 173.4186,186.4156 C 174.3567,186.7838 177.8722,186.2034 176.7572,184.2002 C 173.506,179.8777 149.5699,164.6574 144.9977,161.5684 L 143.602,161.4145 C 143.5728,162.1113 143.6685,163.0141 143.6976,163.7401 L 143.6976,163.7401 z M 123.3061,122.2206 C 124.1132,123.1899 125.3821,123.8056 126.2183,123.8868 C 127.2459,126.1687 129.1097,130.175 129.301,131.4959 C 129.5215,133.0082 127.9427,134.7908 126.4471,134.9094 C 125.7045,134.9676 123.8053,134.3374 123.0482,133.9484 C 121.1844,132.9728 119.6076,132.0326 119.3143,129.992 L 118.9981,127.812 C 118.8296,126.6325 118.087,125.3033 117.4484,124.2758 C 119.5036,124.9664 121.7273,124.3486 122.6675,122.8883 C 123.2541,126.2581 125.1844,132.0035 125.1844,132.0035 C 125.0742,130.5723 123.5557,122.9778 123.3061,122.2206 L 123.3061,122.2206 z M 132.6168,121.4426 C 130.8778,123.7765 128.6396,124.0927 127.2833,123.7037 C 128.1258,125.9274 130.857,133.9401 135.6704,133.0955 C 136.4775,132.9562 137.2846,132.3633 137.7027,131.6956 C 138.8322,129.8817 137.424,124.5545 137.0641,122.9923 C 136.1322,122.9986 134.5846,122.1852 133.3511,121.0099 C 133.4551,121.7588 134.7676,129.2806 134.7676,130.2707 C 134.0916,129.2223 132.9912,122.7281 132.6168,121.4426 L 132.6168,121.4426 z M 137.9232,122.9549 C 137.9232,122.9549 140.1843,123.4624 141.0933,122.5742 C 142.0689,124.7375 144.1241,129.214 144.1241,129.214 C 144.1241,129.214 142.7449,124.4817 142.0481,122.31 C 143.602,121.4509 143.6623,120.5107 144.147,119.375 C 144.6961,121.8108 149.1206,125.7943 147.5646,129.4636 C 146.5453,131.8703 144.9228,131.6665 143.6248,131.7018 C 142.1271,131.7393 139.3023,129.9046 138.9653,127.5644 C 138.8031,126.4266 138.4141,125.684 138.2456,124.5483 C 138.179,124.0781 138.0771,123.3875 137.9232,122.9549 L 137.9232,122.9549 z M 148.3655,114.4284 C 149.3202,113.6421 150.0379,111.5953 149.2391,109.2114 C 152.5777,117.1575 156.0266,118.4119 156.4738,120.96 C 157.0022,124.0116 153.7655,126.2935 151.9308,126.1916 C 148.1741,125.9711 145.1579,121.6777 144.3799,116.1674 C 145.3118,116.1154 146.6036,115.8367 147.6977,114.9568 C 148.2698,115.6016 150.5371,121.245 153.2746,123.321 C 151.0592,119.9678 148.4528,115.0088 148.3655,114.4284 z M 143.758,88.5744 C 145.5552,88.2166 147.8746,88.6784 149.6863,90.1449 C 155.0573,95.4513 162.1692,108.0798 162.1256,110.3118 C 162.0798,112.7913 161.5306,119.0505 157.9923,118.3827 C 153.4077,117.5257 151.7041,110.0331 147.7123,104.683 C 146.8969,103.5888 146.3103,102.944 144.9457,102.1369 C 145.732,101.7999 147.6395,99.986 147.419,98.6298 C 148.1304,99.1269 156.9502,111.2791 158.6164,113.3488 C 156.1223,108.4397 148.7919,98.5632 147.6312,97.6168 C 147.8288,96.1419 147.7269,91.6197 143.758,88.5744 L 143.758,88.5744 z M 183.8817,160.4763 C 181.3647,152.6238 166.2047,118.1123 163.3362,114.6343 C 163.6004,113.6275 163.6357,111.6244 163.5712,110.7008 C 167.0555,116.6666 192.9739,162.1051 192.1814,172.1875 C 190.7877,172.1729 187.0747,170.3757 186.2156,169.2233 C 184.7262,169.1567 181.5935,168.2019 179.8462,164.6574 C 175.1056,149.5203 163.1511,121.2824 161.618,118.597 C 161.618,118.597 162.7475,117.2095 162.8869,115.3166 C 164.318,116.8642 180.2643,152.4179 183.8817,160.4763 L 183.8817,160.4763 z M 171.7524,156.0207 C 170.4981,149.8344 159.6876,123.4312 157.9341,119.9179 C 157.9341,119.9179 159.8873,120.0926 160.7901,119.0213 C 163.2987,123.1317 173.1898,147.1343 179.3615,165.9783 C 177.3521,165.4291 177.088,165.8327 174.6209,163.7193 C 168.7799,162.0156 166.4314,156.8943 164.4574,151.6046 C 163.4672,148.9461 158.0734,135.8787 155.388,126.514 C 156.4884,125.8234 157.9778,124.334 157.699,121.7297 C 159.1239,125.3262 169.6681,149.982 171.7524,156.0207 L 171.7524,156.0207 z M 161.098,157.1065 C 159.9019,159.4259 153.1498,153.4018 152.1367,150.8474 C 150.0608,148.1848 148.1887,139.3422 146.5537,132.4881 C 148.1158,131.8121 149.5033,129.89 149.0415,127.1671 C 149.0415,127.1671 150.4206,131.3503 151.286,133.6468 C 153.4722,139.415 157.0604,148.8005 157.9133,150.1589 C 157.8176,149.6804 149.6427,126.697 149.9214,126.8801 C 151.2423,127.7766 153.3557,127.5561 154.4707,126.903 C 159.5919,143.4067 166.7559,160.7176 169.3894,162.2299 C 166.9598,161.5622 162.3523,159.2137 161.098,157.1065 L 161.098,157.1065 z M 145.6426,145.0292 C 145.4595,144.5071 145.2536,144.0225 145.0997,143.5607 C 143.602,139.0322 140.6086,131.5625 140.9768,131.8558 C 142.304,132.8917 144.8209,133.368 145.8776,132.7669 C 146.0752,133.5594 149.4305,150.319 151.1466,152.1329 C 149.936,151.9852 147.5729,150.267 146.8823,148.5655 C 145.5698,149.3434 142.4371,147.5899 141.4386,144.6319 C 140.9539,143.1946 138.878,138.196 137.5425,133.7424 C 138.4287,133.4408 139.1338,132.5609 139.5665,131.005 C 141.4885,135.6354 144.0429,142.0276 145.6426,145.0292 L 145.6426,145.0292 z M 137.1681,146.0776 C 136.5586,143.6792 133.4842,137.418 132.2881,133.5011 C 132.9038,133.9921 135.2877,134.7992 136.7999,133.9401 C 137.9294,137.2287 141.7319,149.41 143.4855,150.1734 C 142.2603,150.5915 139.0756,149.5993 138.1291,148.8733 C 137.7901,149.1666 136.3964,148.917 135.6475,148.5135 C 130.1809,144.9835 129.4321,138.3499 128.8975,135.4378 C 130.1809,134.6598 130.3869,133.5511 130.4971,132.4444 C 131.7452,134.2188 135.92,144.347 137.1681,146.0776 L 137.1681,146.0776 z M 129.2574,149.2415 C 129.844,149.6159 131.7306,150.4293 132.6542,150.3565 C 133.4093,150.2982 133.9377,149.5494 134.3412,148.4552 C 132.492,147.567 130.6947,144.7796 129.9251,142.893 C 128.625,139.7166 128.5231,139.4066 127.8033,135.8933 C 125.4486,136.3905 123.9364,135.7685 122.4324,135.0404 C 123.6056,137.6968 125.2281,141.206 126.6447,144.7568 C 124.369,140.5237 121.7855,135.2464 120.9722,134.094 C 121.0159,136.7586 119.2769,137.1331 118.4032,137.2142 C 120.0403,139.5315 120.3107,141.3599 121.7647,144.3678 C 122.9233,146.7682 126.4471,151.6982 128.5439,150.7891 C 128.8684,150.5686 129.507,150.136 129.2574,149.2415 L 129.2574,149.2415 z M 96.7636,63.7127 C 97.3564,62.4812 98.0616,61.6367 99.4927,61.2331 C 101.5104,60.9024 101.5188,60.5654 103.0081,60.8358 C 104.4247,61.1 106.9854,61.9674 108.1731,62.4521 C 111.6365,63.8603 113.7354,66.4876 113.8165,69.7242 C 113.8311,70.4648 113.6626,73.8179 112.6641,75.0286 C 113.4795,69.9572 108.6058,69.1439 105.964,69.3852 C 104.614,69.51 104.1959,68.4096 103.2286,68.4907 C 100.0356,68.7611 100.3435,70.2214 96.3663,70.8683 C 96.3663,70.8683 95.7277,71.3967 96.4765,71.5735 C 98.3486,71.2719 100.2332,70.3628 101.2171,69.9364 C 102.4798,69.3852 103.0227,69.3124 103.6239,69.4372 C 104.5038,69.6202 104.9156,70.1049 105.9141,70.1486 C 107.4992,70.2214 110.8898,70.2963 111.2788,72.6448 C 109.7873,73.1211 108.7306,72.9734 108.1149,72.8798 C 106.2948,72.6156 107.3078,72.1663 105.4003,71.9833 C 103.836,71.8377 102.1054,72.1601 100.953,72.6156 C 100.4974,72.7758 100.0502,73.3853 99.449,73.3624 C 98.8687,73.3333 98.6919,72.7841 97.6435,72.7321 C 93.8056,73.5767 95.9419,70.4356 96.1312,68.5864 C 96.2061,67.8376 96.6159,67.4257 96.5951,66.6124 C 96.5639,65.2832 96.8801,65.0419 96.7636,63.7127 L 96.7636,63.7127 z M 88.5595,63.0013 C 88.5512,62.6206 88.8736,62.3273 89.2855,62.3481 C 89.689,62.3627 90.0926,62.708 90.0988,63.0886 C 90.1134,63.4714 89.7265,63.7501 89.3146,63.7272 C 88.9028,63.7127 88.5658,63.384 88.5595,63.0013 L 88.5595,63.0013 z M 87.5611,60.4989 C 88.6698,60.5072 89.5351,61.1811 89.0068,61.1895 C 85.7555,61.2331 86.028,64.8796 89.1981,65.1729 C 90.3776,65.2769 92.647,63.463 90.8331,61.7032 C 90.4441,61.3059 89.7618,60.9398 90.0551,60.8587 C 91.6194,60.4032 92.6616,61.6658 92.9611,62.4209 C 93.2045,65.1292 91.2803,66.5229 88.934,66.4148 C 86.9433,66.3253 84.9047,64.9607 84.8611,62.9805 C 84.8111,61.437 86.0509,60.4989 87.5611,60.4989 z M 92.2351,66.1048 C 93.7245,66.5541 93.9887,64.5801 94.3922,63.4942 C 94.8915,62.8036 95.632,63.0096 95.632,63.0096 C 95.6174,63.515 95.4635,64.4261 95.4427,64.9316 C 95.4136,65.7241 95.2742,65.643 95.2888,66.4584 C 95.3096,67.251 95.1265,67.6108 94.8686,68.343 C 91.7733,77.1649 97.4958,72.4763 98.7293,74.7873 C 99.266,75.7858 98.4651,77.4873 97.8203,77.6849 C 97.3564,77.7598 96.9029,78.207 96.1978,77.8908 C 96.1978,77.8908 97.3273,78.9912 97.6809,81.581 C 97.9513,83.3138 97.3502,89.5063 99.4199,92.9406 C 98.3923,92.9864 97.8848,92.4123 97.3127,92.2001 C 97.4604,96.6183 97.4812,103.5826 104.5641,106.6945 C 102.875,108.1901 99.2514,107.435 98.2446,107.1126 C 96.6013,106.5759 94.2529,105.4318 93.2627,103.9924 C 91.9938,102.1223 91.6048,100.3376 89.2481,98.9293 C 90.078,100.5955 90.5981,101.7687 90.4525,102.9357 C 90.0988,105.8416 88.3973,110.5469 87.3031,109.1969 C 86.7602,105.8707 84.8819,104.8806 84.8153,102.0703 C 84.8007,101.2112 85.0649,100.712 85.0441,99.855 C 85.015,98.5986 84.5157,97.0884 83.8917,95.8986 C 83.7295,95.6053 84.3972,101.9601 82.6873,104.529 C 81.0731,106.9794 75.2113,108.3149 75.1447,107.5224 C 75.0345,107.2436 77.8968,104.4188 78.9826,100.6912 C 79.8999,97.5419 79.1365,93.419 78.5707,92.9115 C 78.5707,92.9115 79.4007,98.7608 77.0377,100.9699 C 73.5306,103.9196 69.2372,102.9793 69.31,101.9601 C 72.3844,99.6407 72.6195,97.7041 74.0506,94.1013 C 74.9097,91.9359 75.6003,89.7351 76.736,87.7236 C 75.5691,87.578 74.14,91.7237 72.4219,91.6863 C 74.2128,89.8516 75.7168,84.6721 77.1854,80.7302 C 79.018,75.8003 78.9743,72.9297 78.916,71.5069 C 80.2889,72.2474 83.4798,74.3026 80.4865,76.8487 C 81.4559,76.6573 82.966,75.8939 82.9307,74.1695 C 82.8787,71.8959 80.2598,71.0805 79.5546,70.5813 C 76.8546,68.6821 76.1432,65.5702 76.112,64.3367 C 76.0974,63.6399 76.2451,61.9383 76.4656,61.2914 C 77.0751,59.465 77.0522,58.7682 78.5354,58.5539 C 78.5354,58.5539 77.3164,58.1733 76.7069,57.8654 C 75.7313,57.3724 75.438,57.0209 75.0865,55.9787 C 76.0766,56.6319 79.5692,57.1602 81.8303,56.478 C 83.665,55.9205 86.4752,54.481 88.4264,54.5039 C 92.3974,54.4082 92.4119,54.2252 95.8171,54.7972 C 97.9888,55.1633 102.9645,56.8004 102.7793,58.7391 C 102.7211,59.2882 101.3191,59.5524 100.616,59.5233 C 99.449,59.4713 96.6242,60.632 95.9107,61.0709 C 95.6112,61.256 95.347,61.4162 95.0683,61.3725 C 93.425,60.7277 92.4847,59.619 89.6807,59.3756 C 86.885,59.1343 86.9225,59.7729 84.0456,59.7791 C 82.9973,59.7874 82.835,59.7292 81.8074,59.3548 C 81.8157,59.8166 81.9177,60.2929 82.1007,60.7713 C 82.8496,61.7677 83.5173,61.1666 83.8106,61.8634 C 83.2157,62.9492 82.3129,65.5265 85.6973,67.2426 C 86.028,67.4111 86.5855,66.9119 86.9433,66.9285 C 87.5174,66.9577 87.2969,67.5151 87.7067,67.9395 C 88.104,67.9541 88.4784,67.9686 88.8736,67.9915 C 89.454,68.0144 89.3812,67.3529 89.9241,67.2073 C 90.3276,67.097 91.1639,67.5588 91.5965,67.4195 C 92.1041,67.2572 91.9626,66.5167 92.2351,66.1048 L 92.2351,66.1048 z M 74.0589,104.2274 C 75.3569,103.7948 76.1869,103.2747 76.6112,102.9065 C 76.0766,104.6539 73.5077,106.5239 73.5368,107.6472 C 73.2872,110.8839 83.4798,108.5063 84.133,104.7787 C 84.809,105.9227 84.809,105.7397 85.8949,108.7122 C 85.976,109.5255 86.4149,111.0149 87.5756,111.0669 C 89.2044,111.1855 89.4623,110.1787 90.5253,108.1838 C 90.9579,107.3767 91.7941,104.7121 91.6402,103.8676 C 93.5082,107.8614 99.1994,109.9998 103.9109,108.7039 C 104.2625,109.7897 106.1845,111.7346 106.509,112.2775 C 108.1877,115.0961 107.2641,116.7477 108.4456,116.7103 C 109.883,116.8206 110.7046,113.3197 118.3075,112.7997 C 119.9737,112.6312 122.2036,113.4071 124.2151,113.9437 C 124.6748,114.2537 129.6318,114.9568 129.6526,114.8839 C 128.8538,116.3525 125.6275,116.7769 125.3093,116.7249 C 126.6946,117.2678 127.4435,117.5403 129.2282,117.1222 C 130.2101,116.8934 131.4665,114.9339 131.9282,114.8527 C 135.6122,114.1996 137.5779,110.524 137.7755,109.615 C 138.1728,107.7657 138.0334,106.3492 137.4468,104.477 C 136.5794,101.6897 136.2216,101.5357 135.1795,99.3994 C 134.1228,97.2195 130.4534,91.7903 128.9557,89.1839 C 126.0082,84.0876 120.9451,77.2023 122.7549,70.9952 C 124.0674,66.4959 127.0961,63.6128 131.8388,63.1198 C 135.3688,62.7891 140.1469,66.5832 142.1417,68.6218 C 158.0651,83.9794 168.2703,100.0588 176.9631,120.0572 C 178.1509,122.5804 185.5624,140.2657 186.5172,142.3584 C 187.2078,143.8685 188.5433,146.3564 189.5334,147.7355 C 187.6987,147.9269 184.8656,146.5914 183.5301,144.8608 C 181.8723,142.7161 167.2843,114.3993 165.7866,111.9114 C 161.5764,104.9347 157.6553,97.5897 152.7899,91.0768 C 150.4934,87.9961 146.7222,86.3362 142.7949,87.2764 C 143.6831,85.2296 144.6441,81.398 141.8422,77.818 C 140.5275,76.1519 138.3267,74.442 135.8243,74.5814 C 134.4598,74.6625 133.4467,75.8211 133.6381,77.194 C 133.74,77.8825 134.4889,78.4858 135.1483,78.2944 C 136.933,77.7806 135.7286,76.5117 136.594,76.4015 C 138.4578,76.1664 140.2488,78.6543 140.6232,79.374 C 141.6882,81.4208 143.1838,85.9493 138.7532,88.4288 C 142.2561,89.1881 145.2973,89.9931 145.9879,95.0041 C 146.5641,99.0354 145.4803,100.3189 142.1126,102.2908 C 145.3742,103.8592 147.7664,106.0059 148.3135,109.8126 C 148.8044,113.147 145.8693,115.5267 142.7449,114.7217 C 143.9306,117.896 143.0798,121.4697 139.2815,121.9793 C 137.1078,122.2726 134.6574,121.2076 132.7416,118.5367 C 131.7951,120.8415 130.5179,122.6532 128.0155,122.8446 C 125.6442,123.0526 123.7783,121.3594 122.4761,119.6163 C 122.1932,121.4593 122.5697,122.8321 119.3289,123.2773 C 116.6268,123.5851 115.7552,120.7686 113.6771,120.9226 C 113.2528,120.96 113.0094,120.9746 112.5851,121.0099 C 114.5134,122.4785 115.593,123.5123 116.2607,124.8769 C 118.5363,128.0762 116.8473,128.6357 119.4974,133.7799 C 120.084,134.9011 118.7256,135.9952 117.5088,136.0909 C 114.1431,136.1471 112.3188,133.4949 110.9771,131.9452 C 110.9543,135.7976 115.1748,137.9547 116.9201,138.1461 C 118.0808,138.4394 117.8312,139.5252 118.6091,141.1165 C 119.5182,142.9886 121.6461,147.9643 122.9525,149.2706 C 124.6707,150.9951 126.7903,152.9171 129.1242,152.7341 C 129.7857,152.6821 130.0124,151.8167 130.1893,151.3841 C 130.4305,150.8037 131.818,152.1974 133.4842,151.9769 C 134.2018,151.8833 135.8389,150.8411 135.6766,149.8136 C 136.9975,154.8912 141.9004,157.9448 144.8292,160.4014 L 142.2748,160.2413 C 142.1063,161.1149 142.4579,162.1051 142.3851,162.985 C 139.5894,162.4857 134.6719,160.909 132.2361,159.8232 C 138.1,164.6428 138.9799,166.6314 140.1177,169.4729 C 138.7532,168.9009 133.5632,168.1 132.6625,168.2976 C 133.9377,169.4209 141.7174,176.745 143.059,182.6069 C 142.6056,181.7207 139.0465,181.6313 136.6543,181.9246 C 138.2602,183.6719 139.812,186.2242 140.2862,188.6185 C 141.3492,192.837 141.2701,197.0576 141.2701,197.0576 C 138.7698,195.2562 138.1832,195.3414 135.7432,195.5973 C 132.3172,194.0913 133.5487,190.4386 133.5487,190.4386 C 130.9818,193.6108 134.6054,196.3399 134.5471,196.2941 C 133.4842,197.2406 132.1487,198.1579 130.4451,200.2131 C 129.507,201.3489 124.9348,207.6163 125.5651,209.9419 C 126.8194,214.0814 132.6979,211.5748 134.7239,212.203 C 135.9491,212.6357 136.3673,213.8838 135.7723,214.9321 C 134.9008,216.1261 135.737,216.0679 136.1218,216.2468 C 137.736,216.9374 139.5977,218.7367 137.7838,220.4299 C 136.7188,218.874 135.972,218.433 135.2731,218.2354 C 133.9377,217.8527 132.4628,219.0342 132.1695,218.6826 C 131.7223,218.146 132.0239,217.655 131.9948,216.8916 C 131.9636,216.1282 131.1212,215.1672 129.4986,214.6243 C 129.6817,214.9904 130.7467,215.7101 130.2184,215.9826 C 129.1533,216.694 127.0337,217.0102 125.6234,216.6212 C 124.4793,216.3862 123.3706,215.5936 123.2915,214.4787 C 123.2395,213.7798 123.2104,214.1188 123.8552,212.6648 C 122.2036,213.4573 122.5489,217.7424 121.3674,217.2806 C 120.604,216.5983 119.826,216.1719 118.6757,215.9972 C 120.3107,217.3326 120.6352,217.6259 120.708,218.6535 C 120.7808,219.5563 119.4599,220.0701 118.2638,219.9369 C 117.0386,219.8059 116.3709,218.6306 115.1374,218.5141 C 113.8311,218.3956 113.6106,219.3358 112.8035,219.342 C 112.011,219.342 111.8362,218.6597 111.7759,217.8672 C 111.726,217.1704 113.2216,213.8318 114.609,213.7881 C 116.2024,213.7361 115.5555,214.5806 116.3335,214.5224 C 117.1489,214.462 117.2217,213.033 119.8718,212.1739 C 120.8619,211.8431 122.0642,210.229 121.9623,208.2404 C 119.0793,212.3195 117.2363,212.8562 115.0646,212.5691 C 111.961,212.4297 110.8752,215.5042 110.6318,216.3924 C 108.6661,216.9811 107.8299,215.8287 107.8299,215.8287 C 108.0857,215.1963 108.922,214.618 108.87,213.9191 C 108.7535,212.3861 106.4424,211.9243 106.2448,211.3002 C 105.9578,210.3975 107.366,209.5904 108.5122,210.2872 C 109.3775,210.8239 109.9932,211.2774 110.8898,211.4542 C 111.7031,211.6081 113.2382,211.6747 114.1098,211.477 C 117.7438,210.6554 120.6934,208.0573 122.5864,203.2584 C 123.3851,201.2469 123.1522,200.9016 124.1194,198.965 C 124.7143,197.7898 125.5214,195.5016 125.6837,194.2535 C 125.9395,193.2405 127.0399,192.6019 128.9786,194.0767 C 127.716,190.8775 124.912,192.8078 124.2525,193.4527 C 125.2718,191.9633 124.7955,189.9893 124.5604,187.8405 C 126.1122,185.1613 126.8527,184.3396 124.0986,181.9766 C 125.0908,183.6137 125.174,184.8555 123.8698,186.3573 C 122.8942,181.9849 121.3965,180.8824 119.489,178.5652 C 115.5409,175.4242 112.3209,169.5831 108.9448,169.1338 C 108.9448,169.1338 110.6464,170.2051 111.5575,171.3221 C 113.0385,172.8323 114.3886,174.7044 115.6595,176.1938 C 118.2264,179.2183 122.3887,182.168 122.5427,186.7755 C 118.087,187.2372 118.5571,193.1885 116.6122,196.2047 C 116.0693,195.5162 115.2913,194.9504 113.5669,194.8256 C 112.7016,193.8125 112.3043,190.2243 113.4359,189.2196 C 110.7941,190.6799 112.7099,194.7819 111.8508,196.0071 C 110.6256,199.4206 107.7696,203.0962 107.4846,204.2257 C 106.9708,206.2434 107.6302,208.1301 110.0452,208.0573 C 111.0645,208.0282 111.5492,207.375 112.5684,207.3667 C 113.3547,207.3605 114.9107,209.0558 115.3059,209.7526 C 114.0537,210.4391 111.1269,210.6367 109.9204,209.6132 C 109.2756,209.0558 107.5345,208.3714 106.6172,208.6501 C 104.431,209.3345 104.5932,211.762 104.4601,211.8369 C 102.8001,212.0595 102.2177,213.3221 102.097,214.8219 C 101.5104,214.4038 100.123,213.8401 99.9628,213.8838 C 101.1215,214.72 101.629,215.3586 101.577,215.8495 C 101.6644,217.031 99.0808,217.8527 97.5852,217.2141 C 97.5998,214.9904 95.8317,213.5468 93.5415,213.7215 C 93.6517,213.3554 93.8576,212.8624 94.0261,212.6211 C 94.4151,212.0345 94.4734,211.2191 95.2139,211.2129 C 96.0959,211.2129 96.5868,211.579 97.4667,211.5727 C 100.2707,211.5498 102.2884,209.4739 102.5235,206.7364 C 101.7226,208.6813 100.0065,210.4411 97.3876,210.4557 C 96.41,210.464 95.8608,209.9065 94.8852,209.9128 C 93.0568,209.9273 93.2107,213.9129 91.3844,213.9649 C 90.3859,213.9857 91.1056,211.3814 90.4525,211.0652 C 89.5705,210.6554 88.9256,211.4167 88.9631,211.9097 C 89.013,212.6066 89.0796,213.0184 89.3729,213.6695 C 90.4878,216.1802 87.4134,216.3716 86.7165,215.7247 C 85.8366,214.9113 86.3712,214.9758 85.2708,214.5286 C 84.5823,214.2499 84.1413,214.0585 82.057,214.8302 C 84.1268,213.501 81.8885,211.8431 83.9583,211.4542 C 84.809,211.2919 83.8043,209.0183 84.5594,208.0136 C 85.4539,206.8321 86.7893,207.088 88.2059,207.1462 C 90.5544,207.2565 92.3225,208.4172 94.7812,208.049 C 97.3065,207.6683 99.9691,206.4722 101.7892,204.7624 C 103.3971,203.2439 103.8964,199.4643 105.0633,196.2567 C 105.2464,195.4642 106.2136,193.9894 107.6531,193.9602 C 106.9042,193.513 105.3566,193.7397 104.8054,194.422 C 105.5313,193.0055 105.5397,190.6799 105.3337,187.7011 C 105.8184,186.4822 106.509,186.0349 107.8798,185.2632 C 106.5818,185.0801 105.8621,184.999 103.9983,187.0688 C 105.2672,184.2065 104.1668,182.3427 103.2286,180.1648 C 102.6774,178.873 102.2073,178.2261 101.4293,177.2131 C 98.8292,174.5255 95.5613,172.4101 93.167,169.4729 C 91.8316,167.9315 90.3339,166.3028 89.8139,164.0562 C 89.6994,163.5424 90.3464,163.3719 91.0286,163.3157 C 93.8992,163.0848 95.6278,163.22 98.2238,164.7177 C 98.3778,164.5638 97.4084,163.4031 96.6887,162.883 C 94.4213,161.2397 89.0941,162.2216 88.9631,161.9075 C 88.104,159.8377 86.5709,157.4081 85.25,156.5345 C 82.3066,154.5979 81.668,155.6026 79.3924,153.5474 C 76.6736,151.0908 74.8057,146.8119 73.984,143.2528 C 73.8759,142.7681 73.6762,141.1248 73.6616,140.376 C 73.647,139.7457 74.1608,137.7197 72.8691,134.1605 C 72.4239,131.7372 72.1057,129.293 71.6522,126.8884 C 74.3397,130.9072 78.448,134.3873 83.6275,134.1751 C 78.1256,132.5838 74.4895,129.0601 71.3069,124.4817 C 70.9554,121.9481 70.8888,118.778 71.1738,116.2922 C 71.336,115.1315 71.3256,113.7877 71.336,112.6187 C 71.4088,108.2046 73.6117,105.2696 74.0589,104.2274 L 74.0589,104.2274 z "
   id="path12"
   style="fill:#ffd240" />
  <path
   class="fil2"
   d="M 137.865,222.631 C 137.578,222.1755 135.8764,223.5546 135.45,223.9082 C 134.8738,224.5489 133.6403,224.628 132.8457,224.5011 C 131.8472,224.3617 129.6901,223.6149 129.1035,221.3684 C 130.2913,221.2228 130.8134,221.4869 131.0609,220.2971 C 131.2669,219.3361 130.3287,219.7688 130.2767,217.6179 C 129.6464,217.4348 128.6105,218.6247 126.0062,218.2419 C 124.989,218.0859 124.3275,217.7448 123.4601,217.1998 C 122.1309,219.8644 121.5672,221.6762 118.0372,221.6118 C 118.0518,222.9826 117.0762,223.6503 117.5525,224.9649 C 118.0143,226.2629 118.7049,226.7705 119.4226,227.7461 C 116.2379,228.5095 110.5654,225.8448 111.1395,221.098 C 111.2331,220.2742 110.8087,220.268 110.2221,219.6294 C 109.8186,219.1884 109.9122,218.425 109.8685,217.8467 C 108.8867,217.8904 107.9028,217.7802 107.0666,216.7609 C 106.5882,217.2747 106.9917,218.0589 107.0437,218.7994 C 104.8429,219.0137 103.5137,218.1109 102.8023,217.3392 C 102.222,218.2503 100.7908,218.9242 99.6551,218.9388 C 98.6628,218.9388 98.6857,218.66 97.6873,218.6684 C 97.6436,219.2342 98.5089,220.1057 99.6759,221.3684 C 94.2093,223.2842 91.2888,219.9372 90.4588,216.2471 C 89.8056,217.4577 89.1899,217.3329 87.9418,217.3392 C 87.9418,217.3392 87.7962,218.7849 89.3002,219.7833 C 88.31,221.3309 86.4462,221.1853 85.7556,221.1042 C 84.3682,220.944 82.417,219.8208 81.9614,218.8514 C 78.0862,221.5306 64.2325,240.4037 59.808,247.8901 C 73.3102,254.8669 88.647,258.8087 104.9303,258.8087 C 123.2313,258.8087 140.3674,253.833 155.0657,245.1526 C 147.1549,231.6422 138.3996,223.0117 137.865,222.631 L 137.865,222.631 z "
   id="path14"
   style="fill:#45a84f" />
  <path
   class="fil3"
   d="M 102.143,63.2218 C 102.1784,62.8037 102.7733,62.5604 103.4701,62.6789 C 104.1607,62.7954 104.6891,63.2302 104.6433,63.6483 C 104.5996,64.0664 104.0068,64.3077 103.3162,64.1912 C 102.6256,64.0726 102.0972,63.64 102.143,63.2218 L 102.143,63.2218 z "
   id="path16"
   style="fill:#0a0b0c" />
  <path
   class="fil4"
   d="M 102.597,63.3612 C 102.6115,63.1698 102.9568,63.0679 103.3687,63.1345 C 103.7723,63.2073 104.0864,63.4195 104.0655,63.6108 C 104.0427,63.8022 103.6974,63.9041 103.2938,63.8376 C 102.8903,63.7731 102.5762,63.5588 102.597,63.3612 z "
   id="path18"
   style="fill:#ffd240;fill-rule:nonzero" />
  <path
   class="fil5"
   d="M 156.305,244.322 C 184.6677,226.9882 203.6156,195.7571 203.6156,160.0786 L 203.7259,38.1826 L 6.2749,38.1826 L 6.3914,158.5456 C 5.8048,195.2017 25.9841,229.6009 58.2075,247.0157 C 62.2346,240.455 76.6042,220.6792 81.0141,217.5298 C 79.9657,215.9385 80.442,213.6046 81.6381,213.3612 C 81.6381,213.3612 81.2408,211.2416 82.7011,210.4054 C 83.3626,210.0226 81.6007,207.9612 84.6023,205.9789 C 87.6913,204.9055 91.1631,206.501 94.2895,206.4864 C 96.38,206.4718 99.0156,205.3257 100.5861,204.0131 C 102.1919,202.6777 103.0427,197.7686 103.9018,195.8756 C 102.8534,196.1169 102.662,196.0587 101.649,195.8236 C 102.4415,195.6843 103.0947,195.2287 103.4983,194.5402 C 104.6798,192.5349 104.4094,188.9176 104.2471,188.1396 C 103.3526,188.4849 103.1384,188.5723 102.0817,188.331 C 103.0947,187.707 103.2632,185.6164 103.2923,184.801 C 103.3298,183.6715 103.0656,182.931 101.7364,180.2143 C 101.0395,178.3297 98.171,176.3037 97.5095,175.6505 C 94.8532,173.0087 94.1647,172.2973 92.2926,170.5875 C 88.9685,167.5567 86.6429,160.3054 86.0334,159.4338 C 84.5961,157.3848 82.9652,156.5923 80.0676,155.6313 C 78.8424,154.9927 77.7129,153.8049 76.8892,152.8356 C 75.2251,150.8553 72.964,145.6009 72.5375,141.2638 C 72.1798,141.528 71.8053,141.5051 71.3352,141.4406 C 72.5084,144.0013 72.6623,146.5182 71.8116,148.0076 C 72.3482,148.9624 73.8959,153.8112 71.6431,157.0479 C 73.3467,158.3396 73.3675,163.1676 72.4585,164.0558 C 73.7336,165.0917 75.3852,170.5063 73.2053,172.7071 C 74.9671,174.5272 75.3707,177.8742 74.8132,179.8108 C 77.0514,182.2695 77.6235,189.1818 75.951,191.0976 C 74.8278,189.1235 67.7907,182.1447 65.5441,179.9647 C 50.7502,165.7075 38.3422,149.2494 31.5693,132.7519 C 28.1121,125.7772 24.813,118.0641 22.3959,110.6858 C 21.5014,107.9047 18.1691,96.1415 17.3557,90.9516 C 16.1763,83.4756 15.1633,76.1348 16.9356,68.6443 C 17.6927,65.445 21.4058,60.3008 27.5775,60.5941 C 29.7117,60.6898 33.1689,61.1516 35.7587,63.2442 C 38.5107,65.4658 41.1317,67.3005 43.6341,76.7901 C 44.8447,81.3622 45.4022,87.1283 47.786,89.7493 C 49.5625,91.7088 52.0503,91.7608 54.0826,93.0068 C 56.6682,94.6314 57.2298,97.9055 58.0598,100.6242 C 59.5242,101.735 60.7557,104.0606 61.8165,104.9093 C 63.8655,106.2011 69.9124,105.5417 72.2817,104.279 C 69.8001,104.2187 68.6456,103.8568 67.1895,101.7392 C 69.8666,100.0522 71.2541,98.9518 72.9723,92.8092 C 72.4439,93.0879 71.408,93.4769 69.9124,92.8321 C 72.1714,90.3588 72.3337,89.2064 73.6546,86.0571 C 74.9671,82.9473 78.5117,73.466 77.507,71.5648 C 76.34,69.3785 74.6967,66.4206 74.6447,64.38 C 74.5781,61.4012 75.5475,59.8453 75.7389,59.1339 C 75.8845,58.591 73.3904,58.2602 73.5797,54.1811 C 76.4295,55.9076 80.4878,55.6642 83.4291,54.3787 C 86.1874,53.1826 89.4761,52.8956 92.4985,53.0349 C 95.1923,53.1535 100.7982,54.1582 103.5274,56.8145 C 104.4738,57.7402 104.7027,58.643 104.6506,59.5145 C 104.6361,59.8016 105.0833,60.0075 105.9133,60.176 C 106.8306,60.3591 109.1271,61.1079 109.8822,61.4824 C 114.2941,63.6831 115.1075,67.0966 115.2468,69.1435 C 115.6067,74.4478 112.6196,77.5972 111.4236,78.0527 C 111.5921,76.6216 111.8646,74.9616 111.3362,74.1046 C 111.0429,73.4868 109.5826,74.4416 108.2763,74.2877 C 106.1775,74.0443 107.4984,73.5763 105.4057,73.4806 C 103.7104,73.3994 102.8597,73.6865 101.3412,74.3168 C 99.4337,75.1093 101.2975,78.5062 98.4206,78.7495 C 99.026,80.2701 99.3713,81.9176 99.4233,83.5713 C 99.4919,85.7804 99.3879,88.0457 99.8435,90.234 C 100.2616,92.208 100.923,92.7946 102.2502,93.8742 C 101.6927,94.0781 99.4545,94.6501 99.1029,94.284 C 99.1258,95.3116 99.8663,100.7116 101.649,102.825 C 104.4156,106.1054 107.931,105.7455 107.9081,105.835 C 107.5649,107.185 106.1691,108.0295 105.5389,108.0503 C 105.7448,108.8428 106.5727,109.5834 107.0802,110.2532 C 109.1645,112.2043 109.1188,114.2075 109.2665,114.1347 C 112.1807,111.5429 115.4673,111.2579 117.5808,111.1331 C 122.6875,110.8398 126.0927,113.3567 130.5483,113.2818 C 133.1818,112.8949 136.6244,111.0145 136.198,106.5318 C 135.8319,102.7085 127.7069,90.2111 126.5919,88.443 C 123.4509,83.461 120.9568,80.0621 120.3702,74.5581 C 119.6359,67.704 125.5206,61.4387 132.1022,61.3055 C 135.5365,61.2327 138.5235,62.9197 141.7686,65.6509 C 144.791,68.1825 148.8556,72.4093 151.2269,75.1384 C 156.3565,81.0231 156.4813,81.3248 160.833,87.328 C 163.1669,90.5418 168.8831,99.5758 169.9835,101.7184 C 173.4324,108.4684 180.1533,122.3824 183.053,129.4341 C 186.3042,137.3303 188.8129,143.5395 192.2326,149.2182 C 189.6865,149.5698 187.2798,149.8277 185.1435,147.7351 C 186.7078,151.2443 195.1323,166.3024 193.6346,174.1674 C 189.907,173.5371 181.651,169.5016 180.1533,167.3736 C 180.0805,168.0705 180.2053,167.5629 180.1824,168.3492 C 177.2702,166.889 172.4485,165.2082 170.4016,163.0719 C 170.4224,164.0038 170.2768,163.5649 170.4744,164.3783 C 165.6984,162.4416 162.9027,161.3995 161.3967,159.0885 C 161.2948,159.492 161.222,159.4047 161.1408,159.9101 C 157.2801,158.3334 154.1911,156.3947 152.4438,153.3348 L 152.2753,154.1648 C 150.4344,153.6364 147.5284,152.1013 146.7422,150.2084 C 146.1784,150.1876 145.0614,150.069 143.8653,148.9624 C 144.0713,149.8423 145.8103,151.4419 145.6563,151.4648 C 142.2449,151.8891 138.1574,150.6639 137.1361,149.9879 C 138.9271,155.0821 144.8929,158.1857 148.0776,161.3038 L 147.3371,161.5035 C 148.7391,162.4791 170.5555,175.9001 177.1516,182.232 C 178.1938,183.2596 178.7825,184.6325 178.5682,185.4105 C 178.3997,186.2405 177.7757,187.37 176.3383,187.3991 C 178.3706,188.7429 185.1664,193.7913 181.7092,196.8866 C 186.3334,204.0568 181.0124,205.0261 178.7533,203.4848 C 178.9073,204.373 177.2411,206.6175 174.7096,205.4796 C 175.0549,206.4718 173.63,207.2706 172.8,207.2935 C 170.6658,207.3455 169.5862,206.8234 168.413,206.1182 C 168.1863,207.0356 167.8326,207.4849 166.674,207.5202 C 165.5507,207.5639 163.4082,206.8608 160.6707,204.8348 C 153.4672,199.3391 147.1103,192.8906 141.3713,187.0476 C 142.5528,190.122 143.4119,197.1674 142.2511,199.2059 C 138.613,196.3437 137.9141,196.8866 136.5349,197.13 C 133.76,197.6146 129.9617,203.6137 128.7573,205.6273 C 127.0038,208.5104 126.8852,210.3159 128.3746,210.8152 C 130.7584,211.5682 133.3087,209.9852 135.6758,211.1085 C 137.4939,211.9759 137.652,213.6462 137.159,215.3436 C 139.4783,216.5459 140.3437,218.3889 139.9484,220.209 C 139.8008,220.8684 139.4055,221.0973 139.1101,221.4862 C 140.5413,223.1441 148.1234,230.2686 156.3045,244.322 L 156.305,244.322 z M 116.6202,208.9306 C 115.4824,207.3954 114.0076,205.8998 112.8178,205.7084 C 111.2265,205.4505 108.4224,207.7553 108.9591,205.0553 C 109.215,203.7718 112.2977,198.8752 112.6201,197.9662 C 112.7096,197.6958 113.2816,196.7847 113.421,196.5434 C 114.5942,195.7363 116.3041,197.3858 117.184,198.2449 C 119.6281,194.0992 119.4887,187.9711 123.0416,188.3684 C 123.6199,189.6748 123.5408,191.4054 123.5096,192.3165 C 123.2538,193.7393 123.2163,193.9744 121.5065,194.7586 C 122.168,194.9729 123.4306,195.133 124.2294,194.5984 C 124.0754,195.7051 123.8341,196.0587 123.6573,196.6224 C 121.1258,201.1217 121.6022,204.4312 118.3072,207.4329 C 117.8683,207.8281 117.3316,208.475 116.6202,208.9306 L 116.6202,208.9306 z "
   id="path20"
   style="fill:#00b3f0;fill-rule:nonzero" />
 </g>
</svg>