<?xml version="1.0" encoding="UTF-8" standalone="no"?>
<!-- Creator: CorelDRAW -->
<svg
   xmlns:dc="http://purl.org/dc/elements/1.1/"
   xmlns:cc="http://web.resource.org/cc/"
   xmlns:rdf="http://www.w3.org/1999/02/22-rdf-syntax-ns#"
   xmlns:svg="http://www.w3.org/2000/svg"
   xmlns="http://www.w3.org/2000/svg"
   xmlns:sodipodi="http://sodipodi.sourceforge.net/DTD/sodipodi-0.dtd"
   xmlns:inkscape="http://www.inkscape.org/namespaces/inkscape"
   xml:space="preserve"
   width="744.09448"
   height="876.43701"
   style="shape-rendering:geometricPrecision; text-rendering:geometricPrecision; image-rendering:optimizeQuality; fill-rule:evenodd; clip-rule:evenodd"
   viewBox="0 0 210 297"
   id="svg2"
   sodipodi:version="0.32"
   inkscape:version="0.45.1"
   sodipodi:docname="POL Strzelce Krajeńskie COA.svg"
   inkscape:output_extension="org.inkscape.output.svg.inkscape"
   sodipodi:docbase="C:\Users\Mistrz\Desktop"
   version="1.0"><metadata
   id="metadata20"><rdf:RDF><cc:Work
       rdf:about=""><dc:format>image/svg+xml</dc:format><dc:type
         rdf:resource="http://purl.org/dc/dcmitype/StillImage" /></cc:Work></rdf:RDF></metadata><sodipodi:namedview
   inkscape:window-height="480"
   inkscape:window-width="640"
   inkscape:pageshadow="2"
   inkscape:pageopacity="0.0"
   guidetolerance="10.0"
   gridtolerance="10.0"
   objecttolerance="10.0"
   borderopacity="1.0"
   bordercolor="#666666"
   pagecolor="#ffffff"
   id="base" />
 <defs
   id="defs4">
  <style
   type="text/css"
   id="style6">
   
    .fil2 {fill:#00923F}
    .fil0 {fill:#0A0B0C}
    .fil1 {fill:white}
    .fil3 {fill:#2E63DC}
    .fil4 {fill:#FF0030}
   
  </style>
 </defs>
 <g
   id="Warstwa_x0020_1"
   transform="matrix(1.2005752,0,0,1.2005752,-21.076408,-29.767155)">
  <metadata
   id="CorelCorpID_0Corel-Layer" />
  <g
   id="_76212176">
   <path
   id="_76280464"
   class="fil0"
   d="M 0,24.8255 L 210,24.8255 L 210,153.4935 C 207.4762,210.1592 171.3786,269.9805 105.41,272.1755 C 40.6959,270.8392 2.035,211.7812 0,153.6785 L 0,24.8265 L 0,24.8255 z "
   style="fill:#0a0b0c" />
   <path
   id="_76280392"
   class="fil1"
   d="M 22.6176,90.8111 C 24.8126,86.9103 32.5446,85.5294 39.4281,85.5863 C 46.9554,85.6483 55.711,87.382 56.7728,90.8111 L 56.7728,144.2962 L 50.795,144.2962 L 50.795,130.279 L 31.9962,130.279 L 31.9962,144.2962 L 22.6176,144.2962 L 22.6176,90.8111 L 22.6176,90.8111 z M 131.3286,266.1061 L 131.3286,208.5671 C 130.5393,190.6021 120.0244,176.3513 104.4234,169.4812 C 89.011,175.3992 77.9929,190.503 77.6668,208.5671 L 77.6668,265.8099 C 76.0649,265.3018 74.4881,264.7498 72.9321,264.1632 L 72.9321,207.9031 C 73.3155,187.877 86.278,171.1328 104.4103,164.5722 C 122.7644,172.1882 135.1347,187.9869 136.0634,207.9031 L 136.0634,264.5336 C 134.5097,265.0964 132.9307,265.6197 131.3286,266.1061 L 131.3286,266.1061 z M 207.174,165.4301 L 177.8109,165.4301 L 177.8109,152.5418 L 208.2181,152.5418 L 208.2181,153.4182 C 208.0405,157.4137 207.6886,161.4247 207.174,165.4301 z M 208.2181,151.4372 L 1.7821,151.4372 L 1.7821,131.3836 L 17.8777,131.3836 L 17.8777,145.4009 L 33.1011,145.4009 L 33.1011,131.3836 L 49.6906,131.3836 L 49.6906,145.4009 L 64.9139,145.4009 L 64.9139,131.3836 L 81.4473,131.3836 L 81.4473,145.4009 L 96.8186,145.4009 L 96.8186,131.3836 L 113.1789,131.3836 L 113.1789,145.4009 L 128.368,145.4009 L 128.368,131.3836 L 144.9107,131.3836 L 144.9107,145.4009 L 160.2515,145.4009 L 160.2515,131.3836 L 176.7756,131.3836 L 176.7756,145.4009 L 192.1164,145.4009 L 192.1164,131.3836 L 208.2185,131.3836 L 208.2185,151.4372 L 208.2181,151.4372 z M 176.7063,165.4301 L 149.5969,165.4301 L 149.5969,152.5418 L 176.7063,152.5418 L 176.7063,165.4301 z M 148.4922,165.4301 L 121.2724,165.4301 L 121.2724,152.5418 L 148.4922,152.5418 L 148.4922,165.4301 z M 120.1678,165.4301 L 108.6308,165.4301 C 107.26,164.7446 105.8522,164.1059 104.4072,163.5153 C 102.8212,164.0806 101.2741,164.721 99.7691,165.4301 L 89.598,165.4301 L 89.598,152.5418 L 120.1678,152.5418 L 120.1678,165.4301 z M 88.4933,165.4301 L 57.7535,165.4301 L 57.7535,152.5418 L 88.4933,152.5418 L 88.4933,165.4301 z M 56.6489,165.4301 L 29.4392,165.4301 L 29.4392,152.5418 L 56.6489,152.5418 L 56.6489,165.4301 z M 28.3346,165.4301 L 2.7123,165.4301 C 2.2356,161.4943 1.9196,157.5451 1.7817,153.5994 L 1.7817,152.5418 L 28.3346,152.5418 L 28.3346,165.4301 L 28.3346,165.4301 z M 204.7166,179.2882 L 191.9213,179.2882 L 191.9213,166.5347 L 207.0336,166.5347 C 206.4527,170.8043 205.6776,175.0637 204.7166,179.2882 z M 190.8167,179.2882 L 163.6687,179.2882 L 163.6687,166.5347 L 190.8167,166.5347 L 190.8167,179.2882 z M 162.5641,179.2882 L 135.4547,179.2882 L 135.4547,166.5347 L 162.5641,166.5347 L 162.5641,179.2882 z M 134.3501,179.2882 L 126.2758,179.2882 C 122.0836,174.2001 116.8234,169.8905 110.7327,166.5347 L 134.3501,166.5347 L 134.3501,179.2882 z M 82.1344,179.2882 L 71.9348,179.2882 L 71.9348,166.5347 L 97.5634,166.5347 C 91.5478,169.7356 86.2977,174.0861 82.1344,179.2882 z M 70.8302,179.2882 L 43.6113,179.2882 L 43.6113,166.5347 L 70.8302,166.5347 L 70.8302,179.2882 z M 42.5067,179.2882 L 15.297,179.2882 L 15.297,166.5347 L 42.5067,166.5347 L 42.5067,179.2882 z M 14.1924,179.2882 L 5.0989,179.2882 C 4.154,175.0722 3.4008,170.8134 2.8482,166.5347 L 14.1924,166.5347 L 14.1924,179.2882 z M 200.7844,193.2811 L 177.8105,193.2811 L 177.8105,180.3929 L 204.4577,180.3929 C 203.4328,184.7391 202.2079,189.0448 200.7844,193.2811 L 200.7844,193.2811 z M 176.7059,193.2811 L 149.5965,193.2811 L 149.5965,180.3929 L 176.7059,180.3929 L 176.7059,193.2811 z M 148.4918,193.2811 L 134.302,193.2811 C 132.5963,188.6047 130.1821,184.2843 127.1594,180.3929 L 148.4918,180.3929 L 148.4918,193.2811 z M 74.3887,193.2811 L 57.7531,193.2811 L 57.7531,180.3929 L 81.2753,180.3929 C 78.3439,184.2826 76.0067,188.6177 74.3887,193.2811 z M 56.6485,193.2811 L 29.4388,193.2811 L 29.4388,180.3929 L 56.6485,180.3929 L 56.6485,193.2811 z M 28.3342,193.2811 L 8.9991,193.2811 C 7.5778,189.052 6.3577,184.7468 5.3459,180.3929 L 28.3342,180.3929 L 28.3342,193.2811 L 28.3342,193.2811 z M 195.2462,207.2475 L 191.9214,207.2475 L 191.9214,194.3858 L 200.41,194.3858 C 198.9004,198.7609 197.1804,203.0594 195.2462,207.2475 L 195.2462,207.2475 z M 190.8168,207.2475 L 163.6688,207.2475 L 163.6688,194.3858 L 190.8168,194.3858 L 190.8168,207.2475 z M 162.5642,207.2475 L 137.1427,207.2475 C 136.8901,202.735 136.0511,198.4321 134.6883,194.3858 L 162.5642,194.3858 L 162.5642,207.2475 z M 71.84,207.2475 L 43.6114,207.2475 L 43.6114,194.3858 L 74.0217,194.3858 C 72.7226,198.4591 71.9687,202.7714 71.84,207.2475 z M 42.5068,207.2475 L 15.2971,207.2475 L 15.2971,194.3858 L 42.5068,194.3858 L 42.5068,207.2475 z M 9.3823,194.3858 L 14.1925,194.3858 L 14.1925,206.4213 C 12.4017,202.4997 10.7971,198.4799 9.3823,194.3858 z M 187.7193,221.2404 L 177.8108,221.2404 L 177.8108,208.3521 L 194.7223,208.3521 C 192.6242,212.7878 190.2927,217.0988 187.7193,221.2404 z M 176.7062,221.2404 L 149.5968,221.2404 L 149.5968,208.3521 L 176.7062,208.3521 L 176.7062,221.2404 z M 148.4921,221.2404 L 137.1679,221.2404 L 137.1679,208.3521 L 148.4921,208.3521 L 148.4921,221.2404 z M 71.8271,221.2404 L 57.7534,221.2404 L 57.7534,208.3521 L 71.8271,208.3521 L 71.8271,221.2404 z M 56.6488,221.2404 L 29.4391,221.2404 L 29.4391,208.3521 L 56.6488,208.3521 L 56.6488,221.2404 z M 28.3345,221.2404 L 22.1618,221.2404 C 19.5688,217.102 17.2062,212.7955 15.0893,208.3521 L 28.3345,208.3521 L 28.3345,221.2404 L 28.3345,221.2404 z M 177.3575,235.4478 L 163.6687,235.4478 L 163.6687,222.345 L 187.0164,222.345 C 184.0903,226.9429 180.8707,231.3294 177.3575,235.4478 z M 162.5641,235.4478 L 137.1679,235.4478 L 137.1679,222.345 L 162.5641,222.345 L 162.5641,235.4478 z M 71.8271,235.4478 L 43.6113,235.4478 L 43.6113,222.345 L 71.8271,222.345 L 71.8271,235.4478 z M 42.5067,235.4478 L 32.5973,235.4478 C 29.0631,231.3327 25.8102,226.9501 22.8562,222.345 L 42.5067,222.345 L 42.5067,235.4478 L 42.5067,235.4478 z M 162.9327,249.4407 L 149.5971,249.4407 L 149.5971,236.5525 L 176.403,236.5525 C 172.2983,241.2373 167.8056,245.5594 162.9327,249.4407 z M 148.4924,249.4407 L 137.1682,249.4407 L 137.1682,236.5525 L 148.4924,236.5525 L 148.4924,249.4407 z M 71.8274,249.4407 L 57.7537,249.4407 L 57.7537,236.5525 L 71.8274,236.5525 L 71.8274,249.4407 z M 56.6491,249.4407 L 47.0849,249.4407 C 42.2067,245.5647 37.6932,241.2421 33.5579,236.5525 L 56.6491,236.5525 L 56.6491,249.4407 z M 137.1682,264.1169 L 137.1682,250.5454 L 161.5285,250.5454 C 154.234,256.143 146.1046,260.7502 137.1682,264.1169 z M 48.511,250.5454 L 71.8274,250.5454 L 71.8274,263.7373 C 63.3473,260.4152 55.5606,255.9427 48.511,250.5454 L 48.511,250.5454 z M 153.162,90.8114 C 155.357,86.9106 163.089,85.5297 169.9725,85.5866 C 177.4998,85.6486 186.2554,87.3823 187.3171,90.8114 L 187.3171,144.2965 L 177.8802,144.2965 L 177.8802,130.2793 L 159.1467,130.2793 L 159.1467,144.2965 L 153.162,144.2965 L 153.162,90.8114 L 153.162,90.8114 z M 82.5696,82.1539 C 85.4417,77.0966 95.5589,75.3065 104.5659,75.38 C 114.415,75.4605 125.8716,77.7081 127.2611,82.1539 L 127.2611,144.2965 L 114.2834,144.2965 L 114.2834,130.2793 L 95.7139,130.2793 L 95.7139,144.2965 L 82.5696,144.2965 L 82.5696,82.1539 L 82.5696,82.1539 z "
   style="fill:#ffffff" />
   <path
   id="_76280320"
   class="fil2"
   d="M 81.6527,221.736 C 81.9349,213.9037 88.8273,210.7605 94.3175,214.8763 C 97.4149,217.1988 101.6431,222.5087 101.6431,226.2784 C 101.7563,227.1627 102.1061,227.8774 102.544,228.5296 L 102.544,213.7765 C 101.8853,210.3127 97.9093,205.3868 95.9073,203.4998 L 96.4887,202.7791 C 99.3576,205.2974 101.8364,208.4825 103.4568,213.1361 L 103.4568,197.1178 L 104.3529,197.1178 L 104.3529,213.1361 C 105.7851,208.3734 108.5384,204.6926 112.5433,202.064 L 113.3958,202.6759 C 110.6679,204.38 106.2096,209.0509 105.4017,213.8317 L 105.4017,228.4978 C 105.8297,227.854 106.1701,227.1483 106.2814,226.2784 C 106.2814,222.5087 110.5095,217.1988 113.607,214.8763 C 119.0971,210.7605 125.9896,213.9037 126.2718,221.736 C 123.6564,217.5794 120.7903,214.9219 115.9139,216.6512 C 111.0902,218.362 108.6946,225.7231 105.4017,229.1955 L 105.4017,243.0959 C 106.0196,242.2954 106.5596,241.4417 106.7066,240.3098 C 106.7066,236.5402 111.3117,231.4656 114.4486,229.1348 C 120.5647,224.5905 127.1884,227.557 126.9949,235.7674 C 124.5721,231.5352 122.2782,229.0538 116.9435,230.9097 C 111.8419,232.6844 109.0335,240.4118 105.4017,243.643 L 105.4017,257.7278 C 106.1474,256.6566 106.8702,255.4254 107.0158,254.2895 C 107.0158,250.5198 112.0181,245.0805 115.0982,242.736 C 121.2502,238.0529 127.3989,240.439 126.9305,248.9146 C 124.3151,244.758 121.5828,242.0761 117.1024,244.6623 C 112.3565,247.4016 109.1357,255.633 105.4017,258.5892 L 105.4017,265.9167 C 107.0404,262.4478 111.3476,258.1069 113.7511,257.3831 C 118.0448,256.09 122.1442,259.3207 120.9232,263.2724 C 114.5904,255.9437 109.0062,263.5544 105.4017,267.8847 L 105.4017,270.6184 L 102.544,270.6184 L 102.544,267.9469 C 98.9411,263.6281 93.3346,255.9082 86.9712,263.2724 C 85.7501,259.3207 89.8495,256.09 94.1432,257.3831 C 96.5723,258.1146 100.946,262.5411 102.544,266.0278 L 102.544,257.9567 C 99.1033,254.5982 95.9977,247.2257 91.5565,244.6623 C 87.076,242.0761 84.3437,244.758 81.7283,248.9146 C 81.26,240.439 87.4087,238.0529 93.5607,242.736 C 96.6408,245.0805 101.6431,250.5198 101.6431,254.2895 C 101.7404,255.0492 102.096,255.8511 102.544,256.62 L 102.544,243.2762 C 99.1475,239.8618 96.4017,232.6203 91.5565,230.9097 C 86.3002,229.0538 84.0398,231.5352 81.6527,235.7674 C 81.462,227.557 87.9883,224.5905 94.0148,229.1348 C 97.1057,231.4656 101.6431,236.5402 101.6431,240.3098 C 101.7563,241.1942 102.1061,241.9088 102.544,242.561 L 102.544,229.2175 C 99.2405,225.7544 96.8444,218.3657 92.0106,216.6512 C 87.1341,214.9219 84.2681,217.5794 81.6527,221.736 L 81.6527,221.736 z "
   style="fill:#00923f" />
   <path
   id="_76212464"
   class="fil1"
   d="M 115.051,201.844 C 114.8861,202.5427 114.8584,203.4053 114.9449,204.1125 C 114.9902,204.483 114.6863,204.557 114.3416,204.2275 C 113.9328,203.8365 113.5462,202.789 113.8094,202.3188 C 112.8222,203.6056 111.5729,202.8163 112.9482,201.4831 C 112.5245,201.6015 111.7621,201.4005 111.323,201.0936 C 110.6688,200.6369 110.9824,200.2259 111.4903,200.3585 C 111.88,200.46 112.7137,200.5357 113.5123,200.339 L 115.051,201.844 z M 102.7402,194.4996 C 102.369,195.2685 101.7855,196.0641 101.229,196.6206 C 100.9373,196.9123 101.1027,197.2447 101.5794,197.2516 C 102.1451,197.2601 103.1541,196.6618 103.2951,196.0108 C 103.1001,198.0261 104.545,198.4139 104.4951,196.0178 C 104.715,196.4946 105.4004,196.9824 105.9288,197.0926 C 106.7157,197.2569 106.7791,196.6148 106.3236,196.2887 C 105.9741,196.0383 105.3255,195.376 104.8926,194.501 L 102.7402,194.4996 L 102.7402,194.4996 z M 93.9347,202.5053 C 94.0996,203.2041 94.1273,204.0667 94.0408,204.7739 C 93.9955,205.1444 94.2994,205.2184 94.6441,204.8889 C 95.0529,204.4979 95.4395,203.4504 95.1763,202.9802 C 96.1635,204.267 97.4128,203.4776 96.0375,202.1445 C 96.4612,202.2629 97.2236,202.0618 97.6627,201.755 C 98.3169,201.2983 98.0033,200.8873 97.4954,201.0199 C 97.1057,201.1214 96.272,201.197 95.4735,201.0004 L 93.9347,202.5053 L 93.9347,202.5053 z M 92.8711,201.8575 L 94.8658,199.9044 C 95.0861,199.6887 95.4067,199.6561 95.5793,199.8321 L 95.5793,199.8321 C 95.7516,200.0083 95.7123,200.3281 95.492,200.5439 L 93.4975,202.4969 C 93.2772,202.7126 92.9564,202.7452 92.7841,202.5692 L 92.7841,202.5692 C 92.6117,202.393 92.651,202.0732 92.8711,201.8575 L 92.8711,201.8575 z M 92.4666,200.7077 C 91.6271,199.7786 88.2219,197.4008 85.9921,196.9882 C 84.7443,196.7573 83.51,197.2071 82.8723,198.4563 C 82.0643,200.0379 82.8949,201.8413 85.0418,201.8223 C 86.8208,201.8068 88.3778,201.7743 89.9141,202.9985 C 89.0722,201.8018 88.1344,201.038 86.6648,200.5434 C 84.8296,199.9256 86.3028,198.8019 87.5378,198.8465 C 89.0002,198.8996 91.1386,200.1539 92.4666,200.7077 L 92.4666,200.7077 z M 93.828,199.3749 C 92.9166,198.5158 90.6473,195.0257 90.2815,192.788 C 90.0768,191.5359 90.9426,189.9979 92.2331,189.5079 C 93.4963,189.0285 94.7723,190.1406 95.1387,191.9068 C 95.4829,193.5666 94.8878,195 96.0796,196.5621 C 94.9008,195.6951 94.431,194.8725 93.967,193.393 C 93.5638,192.1067 92.2328,192.9435 92.2524,194.2301 C 92.2743,195.6932 93.302,198.0355 93.828,199.3749 L 93.828,199.3749 z M 93.2762,200.8394 C 91.3687,198.8914 89.4396,197.8942 87.1401,196.5088 C 85.5698,195.5623 83.7833,193.4485 84.0728,190.8979 C 87.0095,191.0946 88.4552,191.8926 89.6866,194.192 C 90.8457,196.3562 91.9014,198.1931 93.8923,200.2283 L 93.2762,200.8394 L 93.2762,200.8394 z M 102.4336,192.9888 L 105.2252,192.9888 C 105.5335,192.9888 105.7854,193.2407 105.7854,193.549 L 105.7854,193.549 C 105.7854,193.8572 105.5335,194.1091 105.2252,194.1091 L 102.4336,194.1091 C 102.1254,194.1091 101.8735,193.8572 101.8735,193.549 L 101.8735,193.549 C 101.8735,193.2407 102.1254,192.9888 102.4336,192.9888 z M 102.9489,191.6068 C 102.9991,190.0408 102.23,184.9334 100.9253,182.6121 C 100.1952,181.3129 98.8847,180.9772 97.5547,181.5356 C 95.8709,182.2428 95.3165,184.2395 96.8639,186.1024 C 98.1462,187.6464 99.1998,188.4946 99.441,190.9345 C 99.6767,189.1273 99.6225,188.1092 98.9185,186.3801 C 98.0392,184.2209 99.8782,184.5061 100.7293,185.6271 C 101.7373,186.9549 102.3876,189.9487 102.9489,191.6068 L 102.9489,191.6068 z M 104.854,191.6068 C 104.8039,190.0408 105.6241,184.9332 106.9286,182.6121 C 107.6584,181.3132 109.2374,180.8436 110.5023,181.5356 C 111.7405,182.2129 111.9897,184.1766 111.0154,186.0769 C 110.1,187.8624 109.0605,188.5199 108.8192,190.9598 C 108.5835,189.1526 108.4348,188.109 109.1386,186.3801 C 109.7505,184.8763 108.214,184.4596 107.3277,185.6271 C 106.32,186.9544 105.4154,189.9487 104.854,191.6068 L 104.854,191.6068 z M 103.4353,192.4332 C 103.4353,189.0213 102.7544,186.4408 102.081,183.1886 C 101.6209,180.9675 101.9778,177.316 103.9692,175.2889 C 105.9297,178.0359 106.2503,180.2124 105.5212,183.3467 C 104.8352,186.2967 104.3045,188.8634 104.303,192.4263 L 103.4353,192.4332 L 103.4353,192.4332 z M 116.1146,201.1961 L 114.1199,199.243 C 113.8996,199.0273 113.579,198.9948 113.4064,199.1707 L 113.4064,199.1707 C 113.2341,199.3469 113.2734,199.6667 113.4937,199.8825 L 115.4882,201.8355 C 115.7085,202.0512 116.0293,202.0838 116.2016,201.9078 L 116.2016,201.9078 C 116.374,201.7316 116.3347,201.4118 116.1146,201.1961 z M 116.5191,200.0464 C 117.3586,199.1172 120.7638,196.7395 122.9936,196.3268 C 124.2414,196.0959 125.4757,196.5457 126.1135,197.7949 C 126.9214,199.3766 126.0908,201.1799 123.944,201.1609 C 122.1649,201.1455 120.6079,201.1129 119.0716,202.3371 C 119.9135,201.1404 120.8513,200.3766 122.3209,199.882 C 124.1561,199.2642 122.6829,198.1406 121.4479,198.1851 C 119.9856,198.2382 117.8471,199.4925 116.5191,200.0464 L 116.5191,200.0464 z M 115.1578,198.7135 C 116.0691,197.8545 118.3384,194.3644 118.7042,192.1267 C 118.9089,190.8745 118.0431,189.3365 116.7526,188.8465 C 115.4894,188.3671 114.2134,189.4792 113.847,191.2455 C 113.5029,192.9052 114.098,194.3386 112.9061,195.9007 C 114.0849,195.0337 114.5547,194.2111 115.0187,192.7316 C 115.4219,191.4453 116.7529,192.2821 116.7334,193.5687 C 116.7114,195.0318 115.6837,197.3741 115.1578,198.7135 z M 115.7095,200.178 C 117.617,198.23 119.5462,197.2328 121.8456,195.8474 C 123.4159,194.9009 125.2024,192.7871 124.9129,190.2365 C 121.9762,190.4332 120.5305,191.2312 119.2991,193.5307 C 118.14,195.6948 117.0843,197.5317 115.0934,199.567 L 115.7095,200.178 z "
   style="fill:#ffffff" />
   <path
   id="_76212392"
   class="fil3"
   d="M 22.0847,84.8003 L 39.654,61.3268 L 57.451,84.9592 C 48.5838,79.5514 30.8629,79.3126 22.0847,84.8003 L 22.0847,84.8003 z M 104.9796,71.7725 C 119.2736,71.7725 130.9321,75.3291 130.9321,79.6905 C 130.9321,80.9092 130.0205,82.0642 128.3965,83.0972 L 128.3965,81.6956 C 126.9363,76.8837 114.8974,74.451 104.5479,74.364 C 95.0835,74.2847 84.4522,76.2219 81.434,81.6956 L 81.434,83.0136 C 79.8912,82.002 79.0267,80.8764 79.0267,79.6905 C 79.0267,75.3291 90.6852,71.7725 104.9796,71.7725 L 104.9796,71.7725 z M 152.629,84.8003 L 170.1983,61.3268 L 187.9953,84.9592 C 179.1281,79.5514 161.4072,79.3126 152.629,84.8003 z M 170.0789,81.9863 C 181.2142,81.9863 190.361,85.6953 190.9219,90.3334 C 190.9182,92.1541 189.5979,93.4137 188.3718,93.963 L 188.3718,90.2543 C 187.2479,86.536 177.9808,84.6555 170.0151,84.5875 C 162.731,84.5277 154.5485,86.0231 152.2245,90.2543 L 152.2245,94.3352 C 151.2091,93.8242 149.3765,92.5937 149.3712,90.1097 C 150.1939,85.5764 159.1232,81.9863 170.0789,81.9863 z M 81.3451,75.3961 L 105.0989,40.5536 L 128.6233,75.446 C 117.3407,68.9563 92.8901,69.2559 81.3451,75.3961 z M 39.5346,81.9863 C 50.6699,81.9863 59.8167,85.6953 60.3776,90.3334 C 60.374,92.1541 59.0536,93.4137 57.8275,93.963 L 57.8275,90.2543 C 56.7036,86.536 47.4365,84.6555 39.4708,84.5875 C 32.1867,84.5277 24.0042,86.0231 21.6802,90.2543 L 21.6802,94.3352 C 20.6648,93.8242 18.8322,92.5937 18.8269,90.1097 C 19.6496,85.5764 28.5789,81.9863 39.5346,81.9863 L 39.5346,81.9863 z "
   style="fill:#2e63dc" />
   <path
   id="_76212320"
   class="fil0"
   d="M 163.148,95.1616 L 163.148,95.1616 C 165.2608,95.1616 166.9883,96.3408 166.9883,97.7792 L 166.9883,109.841 L 159.3074,109.841 L 159.3074,97.7792 C 159.3074,96.3408 161.0359,95.1616 163.148,95.1616 z M 96.1385,88.242 L 96.1385,88.242 C 98.2326,88.242 99.9456,89.9882 99.9456,92.1225 L 99.9456,110.0061 L 92.3315,110.0061 L 92.3315,92.1225 C 92.3315,89.988 94.0445,88.242 96.1385,88.242 L 96.1385,88.242 z M 32.6037,95.1616 L 32.6037,95.1616 C 34.7166,95.1616 36.444,96.3408 36.444,97.7792 L 36.444,109.841 L 28.7632,109.841 L 28.7632,97.7792 C 28.7632,96.3408 30.4916,95.1616 32.6037,95.1616 z M 46.9017,95.1624 L 46.9017,95.1624 C 44.7894,95.1624 43.0614,96.34 43.0614,97.7797 L 43.0614,109.8412 L 50.7418,109.8412 L 50.7418,97.7797 C 50.7418,96.34 49.0139,95.1624 46.9017,95.1624 z M 113.9074,88.242 L 113.9074,88.242 C 111.8133,88.242 110.1003,89.9882 110.1003,92.1225 L 110.1003,110.0061 L 117.7144,110.0061 L 117.7144,92.1225 C 117.7144,89.988 116.0014,88.242 113.9074,88.242 L 113.9074,88.242 z M 177.446,95.1624 L 177.446,95.1624 C 175.3337,95.1624 173.6057,96.34 173.6057,97.7797 L 173.6057,109.8412 L 181.2861,109.8412 L 181.2861,97.7797 C 181.2861,96.34 179.5582,95.1624 177.446,95.1624 L 177.446,95.1624 z "
   style="fill:#0a0b0c" />
   <path
   id="_76212248"
   class="fil1"
   d="M 48.8728,109.188 L 50.0206,109.188 L 50.0206,98.2201 C 50.0206,97.1335 49.0533,96.2111 47.7438,95.9288 C 48.4322,96.382 48.8728,97.0643 48.8728,97.8236 L 48.8728,109.188 L 48.8728,109.188 z M 179.4168,109.188 L 180.5646,109.188 L 180.5646,98.2201 C 180.5646,97.1335 179.5973,96.2111 178.2878,95.9288 C 178.9762,96.382 179.4168,97.0643 179.4168,97.8236 L 179.4168,109.188 L 179.4168,109.188 z M 161.1765,109.1883 L 160.028,109.1883 L 160.028,98.2201 C 160.028,97.1342 160.9957,96.2101 162.3043,95.9284 C 161.6161,96.3825 161.1765,97.0638 161.1765,97.8231 L 161.1765,109.1883 L 161.1765,109.1883 z M 115.8613,109.2553 L 116.9992,109.2553 L 116.9992,92.6055 C 116.9992,90.9564 116.0401,89.5561 114.7419,89.1275 C 115.4243,89.8154 115.8613,90.8513 115.8613,92.0039 L 115.8613,109.2553 L 115.8613,109.2553 z M 94.1834,109.2553 L 93.0455,109.2553 L 93.0455,92.6055 C 93.0455,90.9564 94.0046,89.5561 95.3028,89.1275 C 94.6204,89.8154 94.1834,90.8513 94.1834,92.0039 L 94.1834,109.2553 L 94.1834,109.2553 z M 30.6322,109.1883 L 29.4837,109.1883 L 29.4837,98.2201 C 29.4837,97.1342 30.4514,96.2101 31.76,95.9284 C 31.0718,96.3825 30.6322,97.0638 30.6322,97.8231 L 30.6322,109.1883 z "
   style="fill:#ffffff" />
   <path
   id="_76212104"
   class="fil4"
   d="M 1.7819,26.6807 L 208.2179,26.6807 L 208.2179,130.2787 L 191.0111,130.2787 L 191.0111,144.2959 L 188.3714,144.2959 L 188.3714,95.4489 C 192.6349,93.4233 193.4573,89.1043 190.4322,86.5371 L 170.3299,59.5352 L 149.2147,87.6658 C 147.4792,90.1824 148.3985,93.9232 152.2241,95.4041 L 152.2241,144.2959 L 146.0148,144.2959 L 146.0148,130.2787 L 128.3961,130.2787 L 128.3961,84.4419 C 131.925,82.7038 132.8529,80.2484 131.1787,77.0755 L 105.045,38.7166 L 78.4596,77.5617 C 77.0428,80.0397 78.0342,82.3321 81.4336,84.4406 L 81.4336,130.2787 L 63.8087,130.2787 L 63.8087,144.2959 L 57.8271,144.2959 L 57.8271,95.4489 C 62.0906,93.4233 62.913,89.1043 59.8879,86.5371 L 39.7856,59.5352 L 18.6704,87.6658 C 16.935,90.1824 17.8542,93.9232 21.6798,95.4041 L 21.6798,144.2959 L 18.9818,144.2959 L 18.9818,130.2787 L 1.7815,130.2787 L 1.7815,26.6807 L 1.7819,26.6807 z "
   style="fill:#ff0030" />
  </g>
 </g>
</svg>